<svg width="29" height="29" viewBox="0 0 29 29" fill="none" xmlns="http://www.w3.org/2000/svg">
<path d="M28.9999 21.0249C28.9999 21.5759 28.6615 22.0544 28.146 22.3009L15.4183 28.7389C15.1605 28.9129 14.8383 28.9999 14.4999 28.9999C14.1616 28.9999 13.8394 28.9129 13.5816 28.7389L0.853884 22.3009C0.338332 22.0544 0 21.5759 0 21.0249V7.97496C0 7.42396 0.338332 6.94546 0.853884 6.69897L13.5816 0.260999C13.8394 0.0869997 14.1616 0 14.4999 0C14.8383 0 15.1605 0.0869997 15.4183 0.260999L28.146 6.69897C28.6615 6.94546 28.9999 7.42396 28.9999 7.97496V21.0249ZM14.953 3.34666C14.6682 3.20263 14.3319 3.20311 14.0476 3.34797L13.1893 3.7853C12.464 4.15485 12.4605 5.18985 13.1833 5.56425L20.4881 9.34811C20.7745 9.49645 21.1148 9.49757 21.4021 9.35111L22.3475 8.86926C23.0766 8.49764 23.075 7.45539 22.3448 7.08599L14.953 3.34666ZM6.65805 7.08187C5.9275 7.45251 5.92812 8.49619 6.6591 8.86598L14.0489 12.6043C14.3325 12.7477 14.6674 12.7478 14.9511 12.6045L15.9168 12.1168C16.6441 11.7494 16.6503 10.7132 15.9276 10.3371L8.64023 6.54469C8.35413 6.39579 8.01377 6.39404 7.72614 6.53997L6.65805 7.08187ZM3.22221 19.5552C3.22221 19.932 3.43396 20.2768 3.77 20.4471L11.4366 24.3341C12.1018 24.6714 12.8888 24.188 12.8888 23.4422V15.9559C12.8888 15.5787 12.6766 15.2336 12.34 15.0635L4.67334 11.188C4.00819 10.8518 3.22221 11.3351 3.22221 12.0805V19.5552ZM25.2298 20.4471C25.5659 20.2768 25.7776 19.932 25.7776 19.5552V12.0805C25.7776 11.3352 24.9917 10.8518 24.3265 11.188L16.6599 15.0635C16.3233 15.2336 16.111 15.5787 16.111 15.9559V23.4422C16.111 24.188 16.898 24.6714 17.5632 24.3341L25.2298 20.4471Z" fill="#3C8EFC"/>
</svg>
