<svg width="1920" height="700" viewBox="0 0 1920 700" fill="none" xmlns="http://www.w3.org/2000/svg">
<rect width="1920" height="700" fill="#FF881B"/>
<path d="M1434.06 351.08C1436.99 351.704 1439.34 353.168 1441.12 355.472C1442.9 357.728 1443.78 360.32 1443.78 363.248C1443.78 367.472 1442.3 370.832 1439.32 373.328C1436.39 375.776 1432.29 377 1427.01 377H1403.46V326.456H1426.22C1431.35 326.456 1435.36 327.632 1438.24 329.984C1441.17 332.336 1442.63 335.528 1442.63 339.56C1442.63 342.536 1441.84 345.008 1440.26 346.976C1438.72 348.944 1436.66 350.312 1434.06 351.08ZM1415.78 346.904H1423.84C1425.86 346.904 1427.39 346.472 1428.45 345.608C1429.55 344.696 1430.1 343.376 1430.1 341.648C1430.1 339.92 1429.55 338.6 1428.45 337.688C1427.39 336.776 1425.86 336.32 1423.84 336.32H1415.78V346.904ZM1424.85 367.064C1426.91 367.064 1428.5 366.608 1429.6 365.696C1430.75 364.736 1431.33 363.368 1431.33 361.592C1431.33 359.816 1430.73 358.424 1429.53 357.416C1428.38 356.408 1426.77 355.904 1424.7 355.904H1415.78V367.064H1424.85ZM1448.48 356.84C1448.48 352.712 1449.24 349.088 1450.78 345.968C1452.36 342.848 1454.5 340.448 1457.19 338.768C1459.88 337.088 1462.88 336.248 1466.19 336.248C1469.02 336.248 1471.49 336.824 1473.6 337.976C1475.76 339.128 1477.42 340.64 1478.57 342.512V336.824H1490.88V377H1478.57V371.312C1477.37 373.184 1475.69 374.696 1473.53 375.848C1471.42 377 1468.95 377.576 1466.12 377.576C1462.85 377.576 1459.88 376.736 1457.19 375.056C1454.5 373.328 1452.36 370.904 1450.78 367.784C1449.24 364.616 1448.48 360.968 1448.48 356.84ZM1478.57 356.912C1478.57 353.84 1477.71 351.416 1475.98 349.64C1474.3 347.864 1472.24 346.976 1469.79 346.976C1467.34 346.976 1465.25 347.864 1463.52 349.64C1461.84 351.368 1461 353.768 1461 356.84C1461 359.912 1461.84 362.36 1463.52 364.184C1465.25 365.96 1467.34 366.848 1469.79 366.848C1472.24 366.848 1474.3 365.96 1475.98 364.184C1477.71 362.408 1478.57 359.984 1478.57 356.912ZM1524.27 336.392C1528.98 336.392 1532.72 337.928 1535.5 341C1538.34 344.024 1539.75 348.2 1539.75 353.528V377H1527.51V355.184C1527.51 352.496 1526.82 350.408 1525.42 348.92C1524.03 347.432 1522.16 346.688 1519.81 346.688C1517.46 346.688 1515.58 347.432 1514.19 348.92C1512.8 350.408 1512.1 352.496 1512.1 355.184V377H1499.79V336.824H1512.1V342.152C1513.35 340.376 1515.03 338.984 1517.14 337.976C1519.26 336.92 1521.63 336.392 1524.27 336.392ZM1572.79 336.392C1577.49 336.392 1581.24 337.928 1584.02 341C1586.85 344.024 1588.27 348.2 1588.27 353.528V377H1576.03V355.184C1576.03 352.496 1575.33 350.408 1573.94 348.92C1572.55 347.432 1570.68 346.688 1568.32 346.688C1565.97 346.688 1564.1 347.432 1562.71 348.92C1561.32 350.408 1560.62 352.496 1560.62 355.184V377H1548.31V336.824H1560.62V342.152C1561.87 340.376 1563.55 338.984 1565.66 337.976C1567.77 336.92 1570.15 336.392 1572.79 336.392ZM1634.7 356.264C1634.7 357.416 1634.62 358.616 1634.48 359.864H1606.62C1606.81 362.36 1607.6 364.28 1608.99 365.624C1610.43 366.92 1612.18 367.568 1614.25 367.568C1617.32 367.568 1619.46 366.272 1620.66 363.68H1633.76C1633.09 366.32 1631.86 368.696 1630.09 370.808C1628.36 372.92 1626.18 374.576 1623.54 375.776C1620.9 376.976 1617.94 377.576 1614.68 377.576C1610.74 377.576 1607.24 376.736 1604.17 375.056C1601.1 373.376 1598.7 370.976 1596.97 367.856C1595.24 364.736 1594.38 361.088 1594.38 356.912C1594.38 352.736 1595.22 349.088 1596.9 345.968C1598.62 342.848 1601.02 340.448 1604.1 338.768C1607.17 337.088 1610.7 336.248 1614.68 336.248C1618.57 336.248 1622.02 337.064 1625.05 338.696C1628.07 340.328 1630.42 342.656 1632.1 345.68C1633.83 348.704 1634.7 352.232 1634.7 356.264ZM1622.1 353.024C1622.1 350.912 1621.38 349.232 1619.94 347.984C1618.5 346.736 1616.7 346.112 1614.54 346.112C1612.47 346.112 1610.72 346.712 1609.28 347.912C1607.89 349.112 1607.02 350.816 1606.69 353.024H1622.1ZM1653.5 343.52C1654.94 341.312 1656.74 339.584 1658.9 338.336C1661.06 337.04 1663.46 336.392 1666.1 336.392V349.424H1662.72C1659.65 349.424 1657.34 350.096 1655.81 351.44C1654.27 352.736 1653.5 355.04 1653.5 358.352V377H1641.19V336.824H1653.5V343.52Z" fill="white"/>
</svg>
