<svg width="1440" height="500" viewBox="0 0 1440 500" fill="none" xmlns="http://www.w3.org/2000/svg">
<rect width="1440" height="500" fill="#FF881B"/>
<path d="M1083.06 249.08C1085.99 249.704 1088.34 251.168 1090.12 253.472C1091.9 255.728 1092.78 258.32 1092.78 261.248C1092.78 265.472 1091.3 268.832 1088.32 271.328C1085.39 273.776 1081.29 275 1076.01 275H1052.46V224.456H1075.22C1080.35 224.456 1084.36 225.632 1087.24 227.984C1090.17 230.336 1091.63 233.528 1091.63 237.56C1091.63 240.536 1090.84 243.008 1089.26 244.976C1087.72 246.944 1085.66 248.312 1083.06 249.08ZM1064.78 244.904H1072.84C1074.86 244.904 1076.39 244.472 1077.45 243.608C1078.55 242.696 1079.1 241.376 1079.1 239.648C1079.1 237.92 1078.55 236.6 1077.45 235.688C1076.39 234.776 1074.86 234.32 1072.84 234.32H1064.78V244.904ZM1073.85 265.064C1075.91 265.064 1077.5 264.608 1078.6 263.696C1079.75 262.736 1080.33 261.368 1080.33 259.592C1080.33 257.816 1079.73 256.424 1078.53 255.416C1077.38 254.408 1075.77 253.904 1073.7 253.904H1064.78V265.064H1073.85ZM1097.48 254.84C1097.48 250.712 1098.24 247.088 1099.78 243.968C1101.36 240.848 1103.5 238.448 1106.19 236.768C1108.88 235.088 1111.88 234.248 1115.19 234.248C1118.02 234.248 1120.49 234.824 1122.6 235.976C1124.76 237.128 1126.42 238.64 1127.57 240.512V234.824H1139.88V275H1127.57V269.312C1126.37 271.184 1124.69 272.696 1122.53 273.848C1120.42 275 1117.95 275.576 1115.12 275.576C1111.85 275.576 1108.88 274.736 1106.19 273.056C1103.5 271.328 1101.36 268.904 1099.78 265.784C1098.24 262.616 1097.48 258.968 1097.48 254.84ZM1127.57 254.912C1127.57 251.84 1126.71 249.416 1124.98 247.64C1123.3 245.864 1121.24 244.976 1118.79 244.976C1116.34 244.976 1114.25 245.864 1112.52 247.64C1110.84 249.368 1110 251.768 1110 254.84C1110 257.912 1110.84 260.36 1112.52 262.184C1114.25 263.96 1116.34 264.848 1118.79 264.848C1121.24 264.848 1123.3 263.96 1124.98 262.184C1126.71 260.408 1127.57 257.984 1127.57 254.912ZM1173.27 234.392C1177.98 234.392 1181.72 235.928 1184.5 239C1187.34 242.024 1188.75 246.2 1188.75 251.528V275H1176.51V253.184C1176.51 250.496 1175.82 248.408 1174.42 246.92C1173.03 245.432 1171.16 244.688 1168.81 244.688C1166.46 244.688 1164.58 245.432 1163.19 246.92C1161.8 248.408 1161.1 250.496 1161.1 253.184V275H1148.79V234.824H1161.1V240.152C1162.35 238.376 1164.03 236.984 1166.14 235.976C1168.26 234.92 1170.63 234.392 1173.27 234.392ZM1221.79 234.392C1226.49 234.392 1230.24 235.928 1233.02 239C1235.85 242.024 1237.27 246.2 1237.27 251.528V275H1225.03V253.184C1225.03 250.496 1224.33 248.408 1222.94 246.92C1221.55 245.432 1219.68 244.688 1217.32 244.688C1214.97 244.688 1213.1 245.432 1211.71 246.92C1210.32 248.408 1209.62 250.496 1209.62 253.184V275H1197.31V234.824H1209.62V240.152C1210.87 238.376 1212.55 236.984 1214.66 235.976C1216.77 234.92 1219.15 234.392 1221.79 234.392ZM1283.7 254.264C1283.7 255.416 1283.62 256.616 1283.48 257.864H1255.62C1255.81 260.36 1256.6 262.28 1257.99 263.624C1259.43 264.92 1261.18 265.568 1263.25 265.568C1266.32 265.568 1268.46 264.272 1269.66 261.68H1282.76C1282.09 264.32 1280.86 266.696 1279.09 268.808C1277.36 270.92 1275.18 272.576 1272.54 273.776C1269.9 274.976 1266.94 275.576 1263.68 275.576C1259.74 275.576 1256.24 274.736 1253.17 273.056C1250.1 271.376 1247.7 268.976 1245.97 265.856C1244.24 262.736 1243.38 259.088 1243.38 254.912C1243.38 250.736 1244.22 247.088 1245.9 243.968C1247.62 240.848 1250.02 238.448 1253.1 236.768C1256.17 235.088 1259.7 234.248 1263.68 234.248C1267.57 234.248 1271.02 235.064 1274.05 236.696C1277.07 238.328 1279.42 240.656 1281.1 243.68C1282.83 246.704 1283.7 250.232 1283.7 254.264ZM1271.1 251.024C1271.1 248.912 1270.38 247.232 1268.94 245.984C1267.5 244.736 1265.7 244.112 1263.54 244.112C1261.47 244.112 1259.72 244.712 1258.28 245.912C1256.89 247.112 1256.02 248.816 1255.69 251.024H1271.1ZM1302.5 241.52C1303.94 239.312 1305.74 237.584 1307.9 236.336C1310.06 235.04 1312.46 234.392 1315.1 234.392V247.424H1311.72C1308.65 247.424 1306.34 248.096 1304.81 249.44C1303.27 250.736 1302.5 253.04 1302.5 256.352V275H1290.19V234.824H1302.5V241.52Z" fill="white"/>
</svg>
