<svg width="1920" height="1000" viewBox="0 0 1920 1000" fill="none" xmlns="http://www.w3.org/2000/svg">
<rect width="1920" height="1000" fill="#FF881B"/>
<path d="M860.803 504.08C863.731 504.704 866.083 506.168 867.859 508.472C869.635 510.728 870.523 513.32 870.523 516.248C870.523 520.472 869.035 523.832 866.059 526.328C863.131 528.776 859.027 530 853.747 530H830.203V479.456H852.955C858.091 479.456 862.099 480.632 864.979 482.984C867.907 485.336 869.371 488.528 869.371 492.56C869.371 495.536 868.579 498.008 866.995 499.976C865.459 501.944 863.395 503.312 860.803 504.08ZM842.515 499.904H850.579C852.595 499.904 854.131 499.472 855.187 498.608C856.291 497.696 856.843 496.376 856.843 494.648C856.843 492.92 856.291 491.6 855.187 490.688C854.131 489.776 852.595 489.32 850.579 489.32H842.515V499.904ZM851.587 520.064C853.651 520.064 855.235 519.608 856.339 518.696C857.491 517.736 858.067 516.368 858.067 514.592C858.067 512.816 857.467 511.424 856.267 510.416C855.115 509.408 853.507 508.904 851.443 508.904H842.515V520.064H851.587ZM875.216 509.84C875.216 505.712 875.984 502.088 877.52 498.968C879.104 495.848 881.24 493.448 883.928 491.768C886.616 490.088 889.616 489.248 892.928 489.248C895.76 489.248 898.232 489.824 900.344 490.976C902.504 492.128 904.16 493.64 905.312 495.512V489.824H917.624V530H905.312V524.312C904.112 526.184 902.432 527.696 900.272 528.848C898.16 530 895.688 530.576 892.856 530.576C889.592 530.576 886.616 529.736 883.928 528.056C881.24 526.328 879.104 523.904 877.52 520.784C875.984 517.616 875.216 513.968 875.216 509.84ZM905.312 509.912C905.312 506.84 904.448 504.416 902.72 502.64C901.04 500.864 898.976 499.976 896.528 499.976C894.08 499.976 891.992 500.864 890.264 502.64C888.584 504.368 887.744 506.768 887.744 509.84C887.744 512.912 888.584 515.36 890.264 517.184C891.992 518.96 894.08 519.848 896.528 519.848C898.976 519.848 901.04 518.96 902.72 517.184C904.448 515.408 905.312 512.984 905.312 509.912ZM951.011 489.392C955.715 489.392 959.459 490.928 962.243 494C965.075 497.024 966.491 501.2 966.491 506.528V530H954.251V508.184C954.251 505.496 953.555 503.408 952.163 501.92C950.771 500.432 948.899 499.688 946.547 499.688C944.195 499.688 942.323 500.432 940.931 501.92C939.539 503.408 938.843 505.496 938.843 508.184V530H926.531V489.824H938.843V495.152C940.091 493.376 941.771 491.984 943.883 490.976C945.995 489.92 948.371 489.392 951.011 489.392ZM999.527 489.392C1004.23 489.392 1007.97 490.928 1010.76 494C1013.59 497.024 1015.01 501.2 1015.01 506.528V530H1002.77V508.184C1002.77 505.496 1002.07 503.408 1000.68 501.92C999.287 500.432 997.415 499.688 995.063 499.688C992.711 499.688 990.839 500.432 989.447 501.92C988.055 503.408 987.359 505.496 987.359 508.184V530H975.047V489.824H987.359V495.152C988.607 493.376 990.287 491.984 992.399 490.976C994.511 489.92 996.887 489.392 999.527 489.392ZM1061.43 509.264C1061.43 510.416 1061.36 511.616 1061.22 512.864H1033.35C1033.55 515.36 1034.34 517.28 1035.73 518.624C1037.17 519.92 1038.92 520.568 1040.99 520.568C1044.06 520.568 1046.19 519.272 1047.39 516.68H1060.5C1059.83 519.32 1058.6 521.696 1056.83 523.808C1055.1 525.92 1052.91 527.576 1050.27 528.776C1047.63 529.976 1044.68 530.576 1041.42 530.576C1037.48 530.576 1033.98 529.736 1030.91 528.056C1027.83 526.376 1025.43 523.976 1023.71 520.856C1021.98 517.736 1021.11 514.088 1021.11 509.912C1021.11 505.736 1021.95 502.088 1023.63 498.968C1025.36 495.848 1027.76 493.448 1030.83 491.768C1033.91 490.088 1037.43 489.248 1041.42 489.248C1045.31 489.248 1048.76 490.064 1051.79 491.696C1054.81 493.328 1057.16 495.656 1058.84 498.68C1060.57 501.704 1061.43 505.232 1061.43 509.264ZM1048.83 506.024C1048.83 503.912 1048.11 502.232 1046.67 500.984C1045.23 499.736 1043.43 499.112 1041.27 499.112C1039.21 499.112 1037.46 499.712 1036.02 500.912C1034.63 502.112 1033.76 503.816 1033.43 506.024H1048.83ZM1080.24 496.52C1081.68 494.312 1083.48 492.584 1085.64 491.336C1087.8 490.04 1090.2 489.392 1092.84 489.392V502.424H1089.46C1086.39 502.424 1084.08 503.096 1082.55 504.44C1081.01 505.736 1080.24 508.04 1080.24 511.352V530H1067.93V489.824H1080.24V496.52Z" fill="white"/>
</svg>
