<svg width="34" height="34" viewBox="0 0 34 34" fill="none" xmlns="http://www.w3.org/2000/svg">
<path d="M15.5915 30.4894L15.5894 30.4874C11.1845 26.1339 7.64254 22.6249 5.18441 19.3472C2.74566 16.0953 1.5 13.2309 1.5 10.1907C1.5 5.17148 5.05969 1.5 9.35 1.5C11.8044 1.5 14.2247 2.75408 15.8215 4.78195L17 6.27851L18.1785 4.78196C19.7753 2.75408 22.1956 1.5 24.65 1.5C28.9403 1.5 32.5 5.17148 32.5 10.1907C32.5 13.2309 31.2543 16.0953 28.8156 19.3472C26.3575 22.6249 22.8155 26.1339 18.4106 30.4874L18.4085 30.4894L17 31.8869L15.5915 30.4894Z" fill="#FF4545" stroke="#FF4545" stroke-width="3"/>
</svg>
