<svg width="78" height="94" viewBox="0 0 78 94" fill="none" xmlns="http://www.w3.org/2000/svg">
<path d="M14.5 5.57143C10.6638 5.57143 6.94907 5.52337 4.23649 8.23595C1.52391 10.9485 0 14.6276 0 18.4638V84.3566C0 86.914 1.01594 89.3667 2.82433 91.1751C4.63271 92.9835 7.08541 93.9995 9.64286 93.9995H48.2143C50.7717 93.9995 53.2244 92.9835 55.0328 91.1751C56.8412 89.3667 57.8571 86.914 57.8571 84.3566V74.7138H62.6786C66.5147 74.7138 70.1938 73.1898 72.9064 70.4773C75.6189 67.7647 77.1429 64.0856 77.1429 60.2495V37.7495C77.1429 33.9133 75.6189 30.2343 72.9064 27.5217C70.1938 24.8091 66.5147 23.2852 62.6786 23.2852H57.8571V18.4638C57.8571 14.6276 56.2126 12.2126 53.5 9.5C49 7.07143 45.6219 7.07143 41.7857 7.07143L32.0267 2.17024C28.0902 0.19325 23.4204 0.344205 19.6198 2.5713L14.5 5.57143ZM57.8571 29.7138H62.6786C67.1143 29.7138 70.7143 33.3137 70.7143 37.7495V60.2495C70.7143 64.6852 67.1143 68.2852 62.6786 68.2852H57.8571V29.7138ZM6.42857 18.4638C6.42857 14.028 10.0643 12 14.5 12L19.6198 8.99988C23.4204 6.77278 28.0902 6.62182 32.0267 8.59881L41.7857 13.5C46.2214 13.5 51.4286 14.028 51.4286 18.4638V23.2852H6.42857V18.4638ZM45 39.3566V71.4995C45 72.3519 44.6614 73.1695 44.0586 73.7723C43.4558 74.3751 42.6382 74.7138 41.7857 74.7138C40.9332 74.7138 40.1157 74.3751 39.5129 73.7723C38.9101 73.1695 38.5714 72.3519 38.5714 71.4995V39.3566C38.5714 38.5041 38.9101 37.6866 39.5129 37.0838C40.1157 36.481 40.9332 36.1423 41.7857 36.1423C42.6382 36.1423 43.4558 36.481 44.0586 37.0838C44.6614 37.6866 45 38.5041 45 39.3566ZM28.9286 36.1423C29.7811 36.1423 30.5986 36.481 31.2014 37.0838C31.8042 37.6866 32.1429 38.5041 32.1429 39.3566V71.4995C32.1429 72.3519 31.8042 73.1695 31.2014 73.7723C30.5986 74.3751 29.7811 74.7138 28.9286 74.7138C28.0761 74.7138 27.2585 74.3751 26.6557 73.7723C26.0529 73.1695 25.7143 72.3519 25.7143 71.4995V39.3566C25.7143 38.5041 26.0529 37.6866 26.6557 37.0838C27.2585 36.481 28.0761 36.1423 28.9286 36.1423ZM19.2857 39.3566V71.4995C19.2857 72.3519 18.9471 73.1695 18.3443 73.7723C17.7415 74.3751 16.9239 74.7138 16.0714 74.7138C15.2189 74.7138 14.4014 74.3751 13.7986 73.7723C13.1958 73.1695 12.8571 72.3519 12.8571 71.4995V39.3566C12.8571 38.5041 13.1958 37.6866 13.7986 37.0838C14.4014 36.481 15.2189 36.1423 16.0714 36.1423C16.9239 36.1423 17.7415 36.481 18.3443 37.0838C18.9471 37.6866 19.2857 38.5041 19.2857 39.3566Z" fill="white"/>
</svg>
