<svg width="218" height="276" viewBox="0 0 218 276" fill="none" xmlns="http://www.w3.org/2000/svg">
<path d="M3.20312 221.216L97.1868 275.476L176.016 229.974L82.0325 175.715L3.20312 221.216Z" fill="#B2B5BA"/>
<path d="M166.879 208.971C166.734 206.522 166.405 203.59 166.008 200.184C164.528 187.255 162.505 169.546 167.866 152.582C171.127 142.257 178.985 130.015 191.256 126.619C193.984 125.864 200.584 124.751 203.12 130.606C203.476 131.452 203.689 132.351 203.749 133.267C204.01 136.983 202.336 140.263 200.478 143.254C198.339 146.728 195.862 150.028 193.462 153.24C191.197 156.279 188.846 159.414 186.794 162.666C184.579 166.199 182.638 169.897 180.988 173.727L180.204 173.388C181.851 169.519 183.792 165.783 186.011 162.211C188.072 158.931 190.433 155.776 192.717 152.728C195.097 149.534 197.555 146.244 199.684 142.809C201.465 139.905 203.071 136.799 202.829 133.325C202.777 132.506 202.587 131.701 202.268 130.944C200.004 125.709 193.926 126.754 191.42 127.441C179.479 130.751 171.805 142.731 168.611 152.834C163.308 169.633 165.321 187.236 166.792 200.087C167.179 203.503 167.518 206.455 167.663 208.922L166.879 208.971Z" fill="#FF7A00"/>
<path d="M167.752 223.041C167.688 223.05 167.622 223.05 167.558 223.041C167.372 223.005 167.198 222.925 167.048 222.809C166.899 222.693 166.778 222.544 166.697 222.373C166.528 221.894 166.528 221.372 166.697 220.893C166.833 219.965 166.833 219.023 166.697 218.096C166.697 217.573 166.61 217.022 166.61 216.528V210.519C167.383 199.724 170.546 189.236 175.871 179.813C180.593 171.598 185.819 166.13 192.322 162.588C195.828 160.662 199.672 159.43 203.644 158.959C207.151 158.572 210.676 159.503 213.534 161.572C216.486 163.904 217.811 167.901 216.698 171.065C215.915 173.281 214.124 174.936 212.295 176.436C209.034 179.097 205.473 181.478 202.038 183.781C199.183 185.716 196.231 187.652 193.473 189.781C185.036 196.293 177.957 204.398 172.639 213.635C171.768 215.135 170.945 216.683 170.19 218.231L169.881 218.841C169.579 219.394 169.314 219.966 169.087 220.554C169.039 220.68 168.99 220.941 168.923 221.241C168.874 221.793 168.698 222.326 168.41 222.799C168.228 222.959 167.994 223.045 167.752 223.041ZM205.038 159.763C204.602 159.763 204.167 159.763 203.721 159.821C199.866 160.27 196.136 161.467 192.738 163.343C186.39 166.798 181.271 172.169 176.626 180.239C171.372 189.544 168.249 199.899 167.481 210.557V216.509C167.481 216.973 167.481 217.477 167.568 218.009C167.724 219.022 167.724 220.053 167.568 221.067C167.464 221.381 167.464 221.72 167.568 222.034C167.593 222.083 167.628 222.126 167.672 222.16C167.715 222.193 167.766 222.217 167.82 222.228C167.992 221.87 168.11 221.489 168.168 221.096C168.214 220.827 168.279 220.562 168.361 220.302C168.597 219.681 168.875 219.076 169.194 218.493L169.494 217.893C170.268 216.325 171.1 214.767 171.971 213.248C173.78 210.116 175.787 207.104 177.98 204.229C182.316 198.564 187.375 193.492 193.028 189.142C195.815 187.013 198.776 185.029 201.641 183.113C205.067 180.82 208.599 178.449 211.841 175.817C213.563 174.414 215.257 172.836 215.973 170.823C216.94 167.988 215.75 164.398 213.07 162.279C210.755 160.553 207.923 159.666 205.038 159.763Z" fill="#FF7A00"/>
<path d="M167.028 214.777H166.921C166.867 214.765 166.815 214.741 166.77 214.709C166.725 214.676 166.686 214.634 166.658 214.586C166.629 214.538 166.61 214.485 166.602 214.43C166.594 214.375 166.597 214.318 166.612 214.264C174.595 182.427 196.669 168.221 208.455 164.843C208.563 164.813 208.678 164.827 208.776 164.881C208.874 164.936 208.946 165.026 208.978 165.134C209.008 165.243 208.995 165.359 208.941 165.459C208.886 165.558 208.796 165.632 208.688 165.666C197.075 168.985 175.331 183.007 167.444 214.467C167.417 214.557 167.362 214.635 167.287 214.691C167.212 214.747 167.121 214.777 167.028 214.777Z" fill="#FF7A00"/>
<path d="M166.976 188.649C166.862 188.639 166.757 188.584 166.682 188.498C166.608 188.411 166.571 188.298 166.579 188.184C169.124 153.801 191.614 134.96 194.168 132.938C194.212 132.901 194.262 132.874 194.316 132.858C194.37 132.841 194.427 132.836 194.483 132.843C194.539 132.849 194.593 132.867 194.643 132.895C194.692 132.923 194.734 132.96 194.768 133.005C194.804 133.049 194.83 133.099 194.845 133.153C194.861 133.207 194.866 133.264 194.859 133.319C194.853 133.375 194.836 133.429 194.809 133.478C194.781 133.527 194.745 133.571 194.701 133.605C192.175 135.609 169.947 154.227 167.44 188.252C167.428 188.365 167.373 188.469 167.287 188.542C167.201 188.616 167.089 188.654 166.976 188.649Z" fill="#FF7A00"/>
<path d="M168.556 228.242L97.1785 269.457L16.8008 222.939L88.1788 181.734L168.556 228.242Z" fill="#FF7A00"/>
<path opacity="0.5" d="M168.556 228.242L97.1785 269.457L16.8008 222.939L88.1788 181.734L168.556 228.242Z" fill="black"/>
<path d="M88.1788 125.868V181.734L16.8008 222.939V167.083L88.1788 125.868Z" fill="#FF7A00"/>
<path opacity="0.23" d="M88.1788 125.868V181.734L16.8008 222.939V167.083L88.1788 125.868Z" fill="black"/>
<path d="M97.1785 213.591V269.457L16.8008 222.939V167.083L97.1785 213.591Z" fill="#FF7A00"/>
<path opacity="0.38" d="M97.1785 213.591V269.457L16.8008 222.939V167.083L97.1785 213.591Z" fill="black"/>
<path d="M168.557 172.376V228.242L88.1797 181.734V125.868L168.557 172.376Z" fill="#FF7A00"/>
<path opacity="0.4" d="M168.557 172.376V228.242L88.1797 181.734V125.868L168.557 172.376Z" fill="black"/>
<path d="M168.558 228.242V172.377L97.1797 213.591V269.457L168.558 228.242Z" fill="#FF7A00"/>
<path opacity="0.23" d="M168.558 228.242V172.377L97.1797 213.591V269.457L168.558 228.242Z" fill="black"/>
<path d="M88.1797 125.868L88.2765 94.9404L168.461 141.506L168.557 172.376L88.1797 125.868Z" fill="#FF7A00"/>
<path opacity="0.2" d="M88.1797 125.868L88.2765 94.9404L168.461 141.506L168.557 172.376L88.1797 125.868Z" fill="black"/>
<path d="M97.1797 213.591L103.876 186.534L174.606 145.697L168.558 172.377L97.1797 213.591Z" fill="#FF7A00"/>
<path opacity="0.3" d="M97.1797 213.591L103.876 186.534L174.606 145.697L168.558 172.377L97.1797 213.591Z" fill="black"/>
<path d="M16.801 167.083L8.28516 139.019L79.6632 97.8145L88.179 125.868L16.801 167.083Z" fill="#FF7A00"/>
<path opacity="0.1" d="M16.801 167.083L8.28516 139.019L79.6632 97.8145L88.179 125.868L16.801 167.083Z" fill="black"/>
<path d="M16.7994 167.083L0 143.887L80.3874 190.395L97.1771 213.591L16.7994 167.083Z" fill="#FF7A00"/>
<path opacity="0.45" d="M16.7994 167.083L0 143.887L80.3874 190.395L97.1771 213.591L16.7994 167.083Z" fill="black"/>
<g opacity="0.7">
<path opacity="0.7" d="M118.191 252.841C118.075 252.841 117.963 252.795 117.88 252.714C117.797 252.633 117.749 252.522 117.746 252.405V242.574C117.749 242.456 117.796 242.344 117.879 242.262C117.962 242.179 118.074 242.131 118.191 242.128C118.308 242.131 118.418 242.179 118.5 242.262C118.581 242.345 118.627 242.457 118.627 242.574V252.405C118.627 252.521 118.581 252.632 118.499 252.713C118.417 252.795 118.307 252.841 118.191 252.841Z" fill="white"/>
<path opacity="0.7" d="M116.907 245.98C116.85 245.989 116.791 245.989 116.733 245.98C116.627 245.932 116.544 245.844 116.501 245.736C116.458 245.628 116.458 245.508 116.501 245.4L118.068 241.79L119.81 243.803C119.873 243.893 119.9 244.003 119.886 244.112C119.872 244.22 119.819 244.32 119.736 244.392C119.654 244.464 119.547 244.503 119.438 244.501C119.328 244.5 119.223 244.458 119.143 244.384L118.32 243.416L117.352 245.738C117.311 245.818 117.246 245.884 117.167 245.927C117.087 245.97 116.997 245.989 116.907 245.98Z" fill="white"/>
<path opacity="0.7" d="M122.252 250.528C122.135 250.525 122.025 250.477 121.943 250.394C121.862 250.311 121.816 250.199 121.816 250.083V240.261C121.816 240.145 121.862 240.034 121.944 239.953C122.026 239.871 122.136 239.825 122.252 239.825C122.367 239.825 122.478 239.871 122.56 239.953C122.641 240.034 122.687 240.145 122.687 240.261V250.073C122.689 250.132 122.678 250.19 122.657 250.244C122.636 250.299 122.604 250.349 122.564 250.391C122.523 250.433 122.475 250.467 122.422 250.49C122.368 250.514 122.31 250.527 122.252 250.528Z" fill="white"/>
<path opacity="0.7" d="M120.964 243.667C120.906 243.676 120.847 243.676 120.789 243.667C120.736 243.644 120.688 243.611 120.648 243.569C120.608 243.527 120.577 243.478 120.556 243.424C120.535 243.37 120.526 243.312 120.528 243.254C120.529 243.196 120.543 243.139 120.567 243.087L122.125 239.429L123.867 241.432C123.947 241.515 123.992 241.626 123.992 241.742C123.992 241.857 123.947 241.968 123.867 242.051C123.826 242.092 123.778 242.125 123.725 242.147C123.672 242.169 123.615 242.181 123.557 242.181C123.499 242.181 123.442 242.169 123.389 242.147C123.336 242.125 123.288 242.092 123.247 242.051L122.425 241.083L121.457 243.406C121.417 243.499 121.346 243.576 121.256 243.624C121.167 243.671 121.063 243.687 120.964 243.667Z" fill="white"/>
</g>
<g opacity="0.7">
<path opacity="0.7" d="M106.497 259.508C106.332 259.511 106.169 259.471 106.023 259.392C105.848 259.28 105.706 259.123 105.613 258.937C105.519 258.752 105.477 258.545 105.491 258.337V257.128C105.493 257.011 105.541 256.901 105.625 256.819C105.708 256.738 105.82 256.692 105.936 256.692C106.051 256.692 106.162 256.738 106.244 256.82C106.326 256.901 106.371 257.012 106.371 257.128V258.337C106.371 258.512 106.371 258.608 106.459 258.628C106.546 258.647 106.594 258.628 106.739 258.55C107.012 258.299 107.226 257.991 107.368 257.649C107.51 257.306 107.576 256.937 107.562 256.566V251.534C107.562 251.419 107.608 251.308 107.689 251.226C107.771 251.145 107.882 251.099 107.997 251.099C108.113 251.099 108.223 251.145 108.305 251.226C108.387 251.308 108.433 251.419 108.433 251.534V256.566C108.454 257.089 108.353 257.609 108.136 258.085C107.919 258.561 107.593 258.979 107.184 259.305C106.977 259.433 106.74 259.503 106.497 259.508Z" fill="white"/>
<path opacity="0.7" d="M101.879 255.454V254.699C101.994 252.761 102.56 250.876 103.533 249.196C104.506 247.516 105.858 246.087 107.482 245.022C109.069 244.112 110.579 243.977 111.74 244.654C112.359 245.079 112.853 245.662 113.17 246.343C113.486 247.024 113.614 247.778 113.54 248.525V248.777L101.879 255.454ZM110.114 245.061C109.339 245.096 108.586 245.329 107.927 245.738C106.536 246.653 105.358 247.857 104.473 249.268C103.588 250.679 103.017 252.264 102.798 253.915L112.64 248.225C112.682 247.664 112.578 247.103 112.339 246.594C112.1 246.085 111.734 245.647 111.275 245.322C110.918 245.134 110.517 245.044 110.114 245.061Z" fill="white"/>
</g>
<path d="M63.8121 150.033C71.1764 148.968 77.9019 144.226 82.1985 138.265C84.2022 135.48 85.6782 132.351 86.5532 129.033C87.4825 125.931 87.6353 122.648 86.9984 119.472C85.6726 114.16 80.7567 111.015 75.5601 110.357C72.9232 110.01 70.2418 110.271 67.7217 111.121C65.1085 112.018 62.8414 113.71 61.238 115.96C60.2327 117.158 59.6003 118.625 59.4187 120.179C59.4033 120.787 59.6178 121.38 60.0196 121.837C60.4214 122.294 60.9809 122.583 61.5864 122.647C63.1446 122.778 64.7018 122.383 66.0088 121.524C67.6025 120.63 69.0062 119.434 70.1409 118.002C72.575 114.998 74.3964 111.545 75.502 107.841C76.2778 104.662 76.2778 101.343 75.502 98.1636C74.9127 94.838 73.3927 91.7477 71.1183 89.251C68.511 86.8799 65.2023 85.4225 61.6928 85.0995C58.2001 84.6197 54.6438 84.9508 51.2997 86.0672C49.8308 86.5126 48.47 87.2572 47.3031 88.2542C46.4708 89.0284 45.5225 90.3058 45.8612 91.5638C46.1999 92.8218 48.0385 93.3831 49.2868 93.2186C51.1344 92.8723 52.8267 91.9551 54.1254 90.5961C55.5727 89.1713 56.802 87.5409 57.7736 85.7575C58.4956 84.4759 58.8723 83.0287 58.8671 81.5577C58.7413 75.4224 51.9577 71.4548 46.645 70.3323C45.2109 70.0327 43.7419 69.935 42.2807 70.042C41.7871 70.042 42.0871 70.8549 42.4839 70.8258C45.3428 70.6959 48.1839 71.3377 50.7094 72.6838C53.201 73.829 55.2936 75.6925 56.7188 78.0353C57.354 79.1903 57.6675 80.4945 57.6266 81.812C57.5858 83.1295 57.1921 84.4119 56.4866 85.5253C55.539 87.1757 54.3593 88.6813 52.9835 89.9961C51.8319 91.0412 50.0804 92.2509 48.4643 92.1347C48.1975 92.1341 47.9362 92.0585 47.7103 91.9165C47.4845 91.7744 47.3031 91.5717 47.1869 91.3315C47.1382 91.0138 47.1644 90.689 47.2635 90.3832C47.3627 90.0774 47.5319 89.799 47.7579 89.5703C48.6124 88.65 49.6692 87.9411 50.8449 87.4994C53.748 86.2926 56.8916 85.7758 60.0284 85.9898C63.261 86.0483 66.4047 87.0581 69.0668 88.8929C71.3858 90.8184 73.0328 93.4312 73.7698 96.3539C74.7035 99.3231 74.9938 102.457 74.6214 105.547C74.0467 108.657 72.8521 111.618 71.1086 114.256C69.3184 117.218 67.0733 120.063 63.7057 121.224C62.8734 121.524 61.1316 121.959 60.8026 120.75C60.4735 119.54 61.4219 118.05 62.0315 117.111C63.3797 114.989 65.3451 113.331 67.6636 112.36C69.9008 111.463 72.3159 111.099 74.7182 111.295C79.2761 111.634 83.9017 114.015 85.4887 118.543C86.2848 121.25 86.3715 124.116 85.7403 126.866C85.1711 129.88 84.0876 132.773 82.5372 135.42C79.2025 141.044 74.1521 145.45 68.1281 147.991C66.6959 148.61 65.225 149.133 63.725 149.617C63.5702 149.675 63.6379 150.062 63.8121 150.033Z" fill="#B2B5BA"/>
<path d="M29.0495 8.02662C25.1787 7.74599 19.8466 10.7943 21.7433 13.02C23.64 15.2457 28.6721 11.6458 28.6721 11.6458C28.6721 11.6458 28.1979 16.1457 29.843 16.6586C31.4881 17.1714 33.7138 12.8748 32.0687 10.1265C32.8621 10.4393 33.7216 10.5465 34.5675 10.4383C35.4134 10.33 36.2182 10.0097 36.9073 9.50721C39.2491 7.7847 36.7718 6.15895 33.4719 6.44926C33.4719 6.44926 35.8331 -1.29239 31.0623 0.188197C28.6721 0.913977 27.8302 3.71065 29.0495 8.02662Z" fill="#FF7A00"/>
<path opacity="0.65" d="M29.0495 8.02662C25.1787 7.74599 19.8466 10.7943 21.7433 13.02C23.64 15.2457 28.6721 11.6458 28.6721 11.6458C28.6721 11.6458 28.1979 16.1457 29.843 16.6586C31.4881 17.1714 33.7138 12.8748 32.0687 10.1265C32.8621 10.4393 33.7216 10.5465 34.5675 10.4383C35.4134 10.33 36.2182 10.0097 36.9073 9.50721C39.2491 7.7847 36.7718 6.15895 33.4719 6.44926C33.4719 6.44926 35.8331 -1.29239 31.0623 0.188197C28.6721 0.913977 27.8302 3.71065 29.0495 8.02662Z" fill="white"/>
<path d="M32.6491 9.67149C32.4349 9.46177 32.2087 9.26467 31.9717 9.08119C31.633 8.81991 31.275 8.56831 30.9363 8.31671C30.6065 8.07693 30.2605 7.86027 29.9008 7.66833C29.6938 7.55344 29.4806 7.45006 29.2621 7.35867C28.9605 7.21706 28.6251 7.16339 28.2944 7.20383C28.2078 7.20628 28.1233 7.23197 28.05 7.27821C27.9767 7.32445 27.9171 7.38957 27.8775 7.46671C27.838 7.54386 27.8199 7.63022 27.8251 7.71676C27.8303 7.8033 27.8587 7.88684 27.9073 7.95864C28.1734 8.24683 28.5055 8.46603 28.875 8.59733L29.3976 8.87796C29.7557 9.09086 30.075 9.33278 30.3653 9.57471C30.6556 9.81664 31.0427 10.0489 31.333 10.2908C31.8322 10.6957 32.3902 11.022 32.9878 11.2585C33.0146 11.2729 33.0445 11.2805 33.0749 11.2805C33.1053 11.2805 33.1352 11.2729 33.162 11.2585C33.6555 10.8714 32.9297 9.95212 32.6491 9.67149Z" fill="#455A64"/>
</svg>
