<svg width="338" height="247" viewBox="0 0 338 247" fill="none" xmlns="http://www.w3.org/2000/svg">
<g filter="url(#filter0_d_2207_215)">
<path d="M168.689 235C257.434 235 329.377 193.462 329.377 142.223C329.377 90.9834 257.434 49.4457 168.689 49.4457C79.9427 49.4457 8 90.9834 8 142.223C8 193.462 79.9427 235 168.689 235Z" fill="#FEFDF9"/>
</g>
<path d="M152.26 115.194L218.587 153.486L274.22 121.375L207.893 83.0823L152.26 115.194Z" fill="#B2B5BA"/>
<path d="M267.77 106.551C267.667 104.823 267.435 102.754 267.155 100.35C266.11 91.2262 264.683 78.7284 268.467 66.7565C270.768 59.4695 276.313 50.8304 284.973 48.4333C286.899 47.9006 291.557 47.1152 293.346 51.247C293.597 51.8439 293.747 52.4787 293.79 53.1251C293.974 55.7475 292.793 58.0627 291.482 60.173C289.972 62.6247 288.224 64.9535 286.53 67.2209C284.932 69.3653 283.273 71.578 281.825 73.8727C280.261 76.366 278.891 78.9756 277.727 81.6787L277.174 81.4397C278.336 78.7093 279.706 76.0722 281.272 73.5517C282.726 71.2366 284.393 69.0102 286.004 66.8589C287.684 64.6052 289.419 62.2833 290.922 59.8588C292.178 57.81 293.312 55.6178 293.141 53.166C293.104 52.5878 292.97 52.0199 292.745 51.486C291.147 47.7913 286.858 48.5289 285.089 49.0138C276.662 51.3494 271.246 59.8042 268.992 66.9341C265.25 78.7899 266.67 91.2125 267.708 100.282C267.982 102.693 268.221 104.776 268.323 106.517L267.77 106.551Z" fill="#FF7A00"/>
<path d="M268.385 116.481C268.339 116.488 268.293 116.488 268.248 116.481C268.117 116.456 267.994 116.4 267.888 116.318C267.782 116.236 267.698 116.131 267.64 116.01C267.521 115.672 267.521 115.303 267.64 114.965C267.736 114.311 267.736 113.646 267.64 112.991C267.64 112.623 267.579 112.233 267.579 111.885V107.644C268.124 100.026 270.357 92.6238 274.114 85.9744C277.447 80.1762 281.135 76.3176 285.724 73.8181C288.198 72.4587 290.911 71.5891 293.715 71.2571C296.19 70.9837 298.678 71.641 300.694 73.101C302.777 74.7469 303.713 77.5674 302.928 79.8006C302.374 81.3645 301.111 82.5324 299.82 83.5909C297.519 85.469 295.006 87.149 292.581 88.7744C290.566 90.1403 288.483 91.5062 286.537 93.0086C280.582 97.6048 275.587 103.324 271.833 109.843C271.219 110.902 270.638 111.994 270.106 113.087L269.887 113.517C269.674 113.907 269.487 114.311 269.327 114.726C269.293 114.815 269.259 114.999 269.211 115.211C269.176 115.6 269.052 115.977 268.849 116.31C268.721 116.423 268.555 116.484 268.385 116.481ZM294.698 71.8239C294.391 71.8239 294.084 71.8239 293.769 71.8649C291.049 72.1822 288.416 73.0266 286.018 74.3508C281.538 76.7888 277.925 80.5791 274.647 86.2749C270.94 92.8418 268.735 100.15 268.193 107.671V111.871C268.193 112.199 268.193 112.554 268.255 112.93C268.365 113.645 268.365 114.373 268.255 115.088C268.181 115.31 268.181 115.549 268.255 115.771C268.272 115.806 268.297 115.836 268.328 115.859C268.359 115.883 268.395 115.899 268.432 115.908C268.554 115.655 268.637 115.386 268.678 115.108C268.711 114.919 268.757 114.732 268.815 114.548C268.981 114.11 269.178 113.683 269.402 113.271L269.614 112.848C270.16 111.742 270.748 110.642 271.362 109.57C272.639 107.36 274.055 105.234 275.603 103.205C278.663 99.2073 282.233 95.6279 286.223 92.5579C288.19 91.0554 290.28 89.6554 292.301 88.3032C294.719 86.6846 297.211 85.0114 299.499 83.1538C300.715 82.1636 301.91 81.0504 302.415 79.6299C303.098 77.6288 302.258 75.0952 300.367 73.5995C298.733 72.3818 296.734 71.7557 294.698 71.8239Z" fill="#FF7A00"/>
<path d="M267.872 110.649H267.797C267.759 110.64 267.722 110.624 267.691 110.601C267.659 110.578 267.632 110.548 267.611 110.514C267.591 110.481 267.577 110.443 267.572 110.404C267.566 110.365 267.569 110.325 267.579 110.287C273.213 87.8184 288.791 77.7929 297.109 75.4094C297.185 75.3883 297.266 75.3979 297.335 75.4363C297.404 75.4746 297.456 75.5386 297.478 75.6143C297.499 75.6913 297.49 75.7735 297.451 75.8436C297.413 75.9137 297.349 75.9662 297.273 75.9899C289.078 78.3324 273.732 88.2282 268.166 110.43C268.147 110.494 268.108 110.549 268.055 110.588C268.002 110.628 267.938 110.649 267.872 110.649Z" fill="#FF7A00"/>
<path d="M267.838 92.2097C267.758 92.2027 267.684 92.1644 267.631 92.1031C267.579 92.0418 267.553 91.9623 267.558 91.8818C269.354 67.6171 285.226 54.3202 287.029 52.8929C287.059 52.8672 287.095 52.8481 287.133 52.8365C287.171 52.825 287.211 52.8214 287.251 52.8258C287.29 52.8303 287.329 52.8428 287.363 52.8626C287.398 52.8823 287.428 52.9089 287.452 52.9407C287.477 52.9716 287.495 53.0071 287.506 53.0451C287.517 53.0832 287.521 53.123 287.516 53.1624C287.512 53.2017 287.5 53.2398 287.481 53.2744C287.461 53.3091 287.435 53.3395 287.404 53.3641C285.622 54.7778 269.935 67.9175 268.166 91.9297C268.157 92.0093 268.119 92.0827 268.058 92.1348C267.997 92.1868 267.918 92.2136 267.838 92.2097Z" fill="#FF7A00"/>
<path d="M268.954 120.152L218.581 149.238L161.856 116.41L212.229 87.3301L268.954 120.152Z" fill="#FF7A00"/>
<path opacity="0.5" d="M268.954 120.152L218.581 149.238L161.856 116.41L212.229 87.3301L268.954 120.152Z" fill="black"/>
<path d="M212.229 47.9041V87.3301L161.856 116.41V76.9904L212.229 47.9041Z" fill="#FF7A00"/>
<path opacity="0.23" d="M212.229 47.9041V87.3301L161.856 116.41V76.9904L212.229 47.9041Z" fill="black"/>
<path d="M218.581 109.812V149.239L161.856 116.41V76.9905L218.581 109.812Z" fill="#FF7A00"/>
<path opacity="0.38" d="M218.581 109.812V149.239L161.856 116.41V76.9905L218.581 109.812Z" fill="black"/>
<path d="M268.954 80.7261V120.152L212.229 87.3301V47.9041L268.954 80.7261Z" fill="#FF7A00"/>
<path opacity="0.4" d="M268.954 80.7261V120.152L212.229 87.3301V47.9041L268.954 80.7261Z" fill="black"/>
<path d="M268.954 120.152V80.7261L218.581 109.812V149.238L268.954 120.152Z" fill="#FF7A00"/>
<path opacity="0.23" d="M268.954 120.152V80.7261L218.581 109.812V149.238L268.954 120.152Z" fill="black"/>
<path d="M212.229 47.9041L212.298 26.0774L268.886 58.9404L268.954 80.7261L212.229 47.9041Z" fill="#FF7A00"/>
<path opacity="0.2" d="M212.229 47.9041L212.298 26.0774L268.886 58.9404L268.954 80.7261L212.229 47.9041Z" fill="black"/>
<path d="M218.581 109.812L223.306 90.7174L273.222 61.8975L268.954 80.726L218.581 109.812Z" fill="#FF7A00"/>
<path opacity="0.3" d="M218.581 109.812L223.306 90.7174L273.222 61.8975L268.954 80.726L218.581 109.812Z" fill="black"/>
<path d="M161.856 76.9904L155.846 57.1852L206.22 28.1057L212.229 47.9041L161.856 76.9904Z" fill="#FF7A00"/>
<path opacity="0.1" d="M161.856 76.9904L155.846 57.1852L206.22 28.1057L212.229 47.9041L161.856 76.9904Z" fill="black"/>
<path d="M161.856 76.9905L150 60.6205L206.732 93.4425L218.581 109.813L161.856 76.9905Z" fill="#FF7A00"/>
<path opacity="0.45" d="M161.856 76.9905L150 60.6205L206.732 93.4425L218.581 109.813L161.856 76.9905Z" fill="black"/>
<g opacity="0.7">
<path opacity="0.7" d="M233.414 137.513C233.332 137.513 233.253 137.48 233.194 137.423C233.136 137.365 233.102 137.287 233.1 137.205V130.267C233.102 130.184 233.135 130.105 233.194 130.046C233.252 129.988 233.331 129.954 233.414 129.952C233.496 129.954 233.574 129.988 233.632 130.047C233.689 130.106 233.721 130.184 233.721 130.267V137.205C233.721 137.287 233.689 137.365 233.631 137.423C233.574 137.48 233.496 137.513 233.414 137.513Z" fill="white"/>
<path opacity="0.7" d="M232.506 132.67C232.465 132.677 232.424 132.677 232.383 132.67C232.308 132.636 232.25 132.574 232.219 132.498C232.189 132.422 232.189 132.337 232.219 132.261L233.325 129.713L234.555 131.134C234.599 131.197 234.618 131.275 234.608 131.352C234.598 131.428 234.561 131.499 234.503 131.55C234.444 131.6 234.369 131.628 234.292 131.627C234.215 131.626 234.14 131.596 234.084 131.544L233.503 130.861L232.82 132.5C232.791 132.556 232.745 132.602 232.689 132.633C232.633 132.663 232.569 132.676 232.506 132.67Z" fill="white"/>
<path opacity="0.7" d="M236.276 135.88C236.194 135.878 236.116 135.845 236.058 135.786C236.001 135.727 235.968 135.648 235.969 135.566V128.634C235.969 128.553 236.001 128.475 236.059 128.417C236.116 128.359 236.194 128.327 236.276 128.327C236.357 128.327 236.436 128.359 236.493 128.417C236.551 128.475 236.583 128.553 236.583 128.634V135.559C236.584 135.6 236.577 135.642 236.562 135.68C236.547 135.718 236.525 135.754 236.496 135.783C236.467 135.813 236.433 135.837 236.396 135.854C236.358 135.87 236.317 135.879 236.276 135.88Z" fill="white"/>
<path opacity="0.7" d="M235.367 131.038C235.327 131.045 235.285 131.045 235.245 131.038C235.207 131.022 235.173 130.998 235.145 130.969C235.117 130.939 235.095 130.905 235.08 130.866C235.065 130.828 235.058 130.788 235.06 130.747C235.061 130.706 235.07 130.666 235.087 130.629L236.187 128.047L237.416 129.461C237.473 129.519 237.505 129.598 237.505 129.679C237.505 129.761 237.473 129.839 237.416 129.898C237.388 129.927 237.354 129.95 237.316 129.965C237.279 129.981 237.238 129.989 237.198 129.989C237.157 129.989 237.117 129.981 237.079 129.965C237.042 129.95 237.008 129.927 236.979 129.898L236.399 129.215L235.716 130.854C235.687 130.92 235.637 130.974 235.574 131.007C235.511 131.041 235.438 131.052 235.367 131.038Z" fill="white"/>
</g>
<g opacity="0.7">
<path opacity="0.7" d="M225.157 142.218C225.041 142.22 224.926 142.191 224.823 142.136C224.699 142.057 224.599 141.946 224.533 141.815C224.467 141.684 224.438 141.538 224.447 141.392V140.538C224.449 140.456 224.483 140.378 224.542 140.32C224.6 140.263 224.679 140.231 224.761 140.231C224.843 140.231 224.921 140.263 224.979 140.321C225.036 140.378 225.069 140.456 225.069 140.538V141.392C225.069 141.515 225.069 141.583 225.13 141.596C225.192 141.61 225.226 141.596 225.328 141.542C225.52 141.364 225.672 141.147 225.772 140.906C225.872 140.664 225.919 140.403 225.909 140.142V136.591C225.909 136.509 225.941 136.431 225.999 136.373C226.056 136.316 226.135 136.283 226.216 136.283C226.298 136.283 226.376 136.316 226.433 136.373C226.491 136.431 226.523 136.509 226.523 136.591V140.142C226.539 140.511 226.467 140.878 226.314 141.213C226.161 141.549 225.931 141.844 225.642 142.075C225.496 142.165 225.329 142.214 225.157 142.218Z" fill="white"/>
<path opacity="0.7" d="M221.9 139.356V138.824C221.981 137.456 222.381 136.126 223.067 134.94C223.754 133.754 224.708 132.746 225.854 131.994C226.974 131.352 228.039 131.257 228.859 131.735C229.296 132.034 229.645 132.446 229.868 132.927C230.091 133.407 230.182 133.939 230.129 134.467V134.644L221.9 139.356ZM227.712 132.022C227.165 132.047 226.633 132.211 226.168 132.5C225.186 133.146 224.355 133.995 223.73 134.991C223.106 135.987 222.703 137.105 222.549 138.27L229.494 134.255C229.524 133.859 229.451 133.463 229.282 133.104C229.113 132.745 228.855 132.436 228.531 132.206C228.279 132.074 227.996 132.01 227.712 132.022Z" fill="white"/>
</g>
<path d="M195.033 64.9573C200.23 64.206 204.977 60.8596 208.009 56.6527C209.423 54.6871 210.465 52.4789 211.082 50.1375C211.738 47.948 211.846 45.631 211.396 43.3901C210.461 39.6407 206.991 37.4212 203.324 36.9568C201.463 36.712 199.571 36.8965 197.792 37.4963C195.948 38.1292 194.348 39.3232 193.216 40.911C192.507 41.7569 192.061 42.792 191.932 43.8886C191.922 44.3181 192.073 44.7359 192.357 45.0587C192.64 45.3815 193.035 45.5856 193.462 45.6301C194.562 45.7227 195.661 45.4438 196.583 44.8379C197.708 44.2072 198.699 43.3627 199.499 42.352C201.217 40.232 202.503 37.7958 203.283 35.1811C203.83 32.9376 203.83 30.5953 203.283 28.3518C202.867 26.0049 201.794 23.8239 200.189 22.0619C198.349 20.3885 196.014 19.3601 193.537 19.1321C191.072 18.7935 188.563 19.0271 186.203 19.8151C185.166 20.1293 184.206 20.6548 183.382 21.3585C182.795 21.9048 182.125 22.8063 182.365 23.6941C182.604 24.582 183.901 24.9781 184.782 24.862C186.086 24.6176 187.28 23.9703 188.197 23.0112C189.218 22.0057 190.086 20.8551 190.771 19.5965C191.281 18.692 191.547 17.6707 191.543 16.6326C191.454 12.3027 186.667 9.50268 182.918 8.71047C181.906 8.49903 180.869 8.43007 179.838 8.5056C179.489 8.5056 179.701 9.07926 179.981 9.05878C181.999 8.96709 184.004 9.42 185.786 10.37C187.544 11.1782 189.021 12.4933 190.027 14.1467C190.475 14.9618 190.697 15.8823 190.668 16.812C190.639 17.7418 190.361 18.6468 189.863 19.4326C189.194 20.5973 188.362 21.6599 187.391 22.5878C186.578 23.3253 185.342 24.179 184.202 24.0971C184.013 24.0966 183.829 24.0433 183.67 23.943C183.51 23.8428 183.382 23.6998 183.3 23.5302C183.266 23.306 183.284 23.0768 183.354 22.861C183.424 22.6452 183.544 22.4487 183.703 22.2873C184.306 21.6378 185.052 21.1375 185.882 20.8258C187.931 19.9741 190.149 19.6094 192.363 19.7604C194.644 19.8017 196.863 20.5143 198.741 21.8092C200.378 23.1681 201.54 25.012 202.06 27.0747C202.719 29.1701 202.924 31.3818 202.661 33.5626C202.256 35.757 201.413 37.8473 200.182 39.709C198.919 41.7988 197.335 43.8067 194.958 44.6262C194.371 44.8379 193.141 45.1452 192.909 44.2915C192.677 43.4379 193.346 42.3862 193.776 41.7237C194.728 40.2263 196.115 39.0561 197.751 38.3705C199.33 37.7376 201.034 37.4804 202.73 37.6192C205.946 37.8583 209.211 39.5383 210.331 42.7344C210.893 44.6446 210.954 46.6671 210.508 48.6077C210.107 50.7348 209.342 52.777 208.248 54.6449C205.894 58.6136 202.33 61.723 198.079 63.5163C197.068 63.9533 196.03 64.3221 194.972 64.6636C194.862 64.7046 194.91 64.9777 195.033 64.9573Z" fill="#B2B5BA"/>
<path d="M173.322 5.66462C170.591 5.46657 166.828 7.61782 168.166 9.18858C169.505 10.7593 173.056 8.2188 173.056 8.2188C173.056 8.2188 172.721 11.3945 173.882 11.7564C175.043 12.1184 176.614 9.08614 175.453 7.14659C176.013 7.36733 176.62 7.443 177.217 7.36659C177.814 7.29017 178.382 7.06416 178.868 6.70951C180.521 5.49388 178.772 4.34655 176.443 4.55143C176.443 4.55143 178.11 -0.912079 174.743 0.132816C173.056 0.64502 172.462 2.61872 173.322 5.66462Z" fill="#FF7A00"/>
<path opacity="0.65" d="M173.322 5.66462C170.591 5.46657 166.828 7.61782 168.166 9.18858C169.505 10.7593 173.056 8.2188 173.056 8.2188C173.056 8.2188 172.721 11.3945 173.882 11.7564C175.043 12.1184 176.614 9.08614 175.453 7.14659C176.013 7.36733 176.62 7.443 177.217 7.36659C177.814 7.29017 178.382 7.06416 178.868 6.70951C180.521 5.49388 178.772 4.34655 176.443 4.55143C176.443 4.55143 178.11 -0.912079 174.743 0.132816C173.056 0.64502 172.462 2.61872 173.322 5.66462Z" fill="white"/>
<path d="M175.863 6.82545C175.712 6.67744 175.552 6.53834 175.385 6.40885C175.146 6.22446 174.893 6.0469 174.654 5.86934C174.421 5.70012 174.177 5.54722 173.923 5.41176C173.777 5.33068 173.627 5.25772 173.473 5.19322C173.26 5.09328 173.023 5.05541 172.79 5.08395C172.728 5.08568 172.669 5.10381 172.617 5.13644C172.565 5.16908 172.523 5.21503 172.495 5.26947C172.467 5.32392 172.455 5.38486 172.458 5.44594C172.462 5.50701 172.482 5.56597 172.516 5.61664C172.704 5.82003 172.939 5.97472 173.199 6.06738L173.568 6.26543C173.821 6.41568 174.046 6.58641 174.251 6.75715C174.456 6.92788 174.729 7.09179 174.934 7.26253C175.286 7.54824 175.68 7.77853 176.102 7.94546C176.121 7.95563 176.142 7.96095 176.163 7.96095C176.185 7.96095 176.206 7.95563 176.225 7.94546C176.573 7.67229 176.061 7.0235 175.863 6.82545Z" fill="#455A64"/>
<path d="M123.425 202.818L72 173.117L130.78 139.181L182.213 168.876L123.425 202.818Z" fill="#B2B5BA"/>
<path d="M178.026 48.7877L140.048 26.8722C139.754 26.6613 139.41 26.532 139.05 26.4972C138.69 26.4624 138.328 26.5234 137.999 26.6741L135.267 28.2517C134.967 28.4608 134.728 28.7466 134.576 29.0793C134.423 29.4119 134.362 29.7794 134.4 30.1434V134.093C134.456 135.106 134.749 136.092 135.257 136.97C135.765 137.848 136.473 138.594 137.323 139.147L175.294 161.035C175.587 161.247 175.931 161.378 176.291 161.414C176.651 161.45 177.014 161.39 177.343 161.24L180.075 159.656C180.372 159.446 180.607 159.16 180.757 158.829C180.907 158.498 180.966 158.133 180.929 157.771V53.8414C180.876 52.8303 180.585 51.8458 180.081 50.9678C179.577 50.0898 178.873 49.3429 178.026 48.7877Z" fill="#9E4C00"/>
<path d="M142.582 135.876L139.85 137.453V146.099C139.864 146.353 139.937 146.599 140.064 146.819C140.191 147.038 140.368 147.225 140.581 147.363L141.858 148.1C142.084 148.215 142.335 148.275 142.588 148.275C142.842 148.275 143.093 148.215 143.319 148.1L144.596 147.363C145.05 147.07 145.401 146.642 145.6 146.14L148.066 139.038L142.582 135.876Z" fill="#5D1A82"/>
<path d="M139.85 146.099C139.864 146.353 139.937 146.599 140.064 146.819C140.191 147.038 140.368 147.225 140.581 147.363L141.858 148.1C141.946 148.154 142.045 148.187 142.148 148.196C142.251 148.206 142.354 148.192 142.451 148.156C142.547 148.12 142.634 148.062 142.706 147.988C142.777 147.913 142.83 147.823 142.862 147.725L145.313 140.615L139.85 137.453V146.099Z" fill="#37474F"/>
<path d="M169.981 151.645L167.249 153.229V161.869C167.262 162.122 167.334 162.369 167.46 162.59C167.586 162.811 167.761 162.999 167.973 163.139L169.257 163.876C169.483 163.991 169.732 164.051 169.985 164.051C170.237 164.051 170.487 163.991 170.712 163.876L171.996 163.139C172.45 162.846 172.8 162.418 173 161.916L175.458 154.807L169.981 151.645Z" fill="#5D1A82"/>
<path d="M167.249 161.869C167.262 162.122 167.334 162.37 167.46 162.59C167.586 162.811 167.761 162.999 167.973 163.139L169.257 163.876C169.345 163.93 169.445 163.963 169.547 163.972C169.65 163.982 169.754 163.968 169.85 163.932C169.947 163.896 170.034 163.838 170.105 163.764C170.176 163.689 170.23 163.599 170.261 163.501L172.727 156.391L167.263 153.229L167.249 161.869Z" fill="#37474F"/>
<path d="M137.501 28.5316L175.472 50.3856C176.322 50.9405 177.03 51.6878 177.538 52.567C178.045 53.4461 178.339 54.4325 178.395 55.4462V159.396C178.467 159.761 178.423 160.14 178.269 160.479C178.116 160.818 177.86 161.1 177.537 161.286C177.215 161.472 176.842 161.553 176.472 161.516C176.102 161.48 175.752 161.328 175.472 161.083L137.501 139.188C136.651 138.634 135.945 137.888 135.438 137.01C134.931 136.132 134.639 135.147 134.584 134.134V30.2117C134.511 29.8472 134.555 29.469 134.708 29.1304C134.861 28.7917 135.117 28.5098 135.439 28.3242C135.761 28.1387 136.133 28.0589 136.503 28.0961C136.873 28.1333 137.222 28.2856 137.501 28.5316Z" fill="#D66904"/>
<path d="M82.3602 170.617L123.432 194.329L180.936 161.131L178.197 159.546L137.125 135.835L82.3602 167.455V170.617Z" fill="#FF7A00"/>
<path d="M123.432 194.328V191.166L180.936 157.969V161.131L123.432 194.328Z" fill="#9E4C00"/>
<path d="M123.691 189.726L123.275 189.446C130.562 178.416 130.514 159.362 129.92 154.582C129.872 154.261 129.838 154.063 129.831 153.987L130.33 153.906C130.33 154.056 130.384 154.233 130.412 154.445C130.944 157.826 133.956 176.19 137.521 181.763L137.098 182.036C134.277 177.658 131.866 165.843 130.657 159.028C130.733 166.765 129.606 180.827 123.691 189.726Z" fill="#FAFAFA"/>
<path d="M147.676 172.884C147.055 172.7 132.536 168.302 131.197 161.896L131.696 161.793C132.966 167.906 147.67 172.358 147.82 172.406L147.676 172.884Z" fill="#FAFAFA"/>
<path d="M133.02 170.289L132.652 168.725C132.601 168.438 132.455 168.176 132.237 167.983C132.018 167.789 131.741 167.676 131.45 167.66C131.209 167.625 130.964 167.664 130.746 167.773C130.529 167.882 130.35 168.054 130.234 168.268L129.763 168.07C129.921 167.757 130.172 167.501 130.481 167.338C130.791 167.174 131.143 167.11 131.491 167.155C131.742 167.17 131.987 167.239 132.209 167.357C132.432 167.475 132.627 167.639 132.781 167.837C132.863 167.19 133.194 166.6 133.703 166.192C133.896 166.091 134.112 166.041 134.33 166.049C134.548 166.056 134.76 166.119 134.946 166.233L134.721 166.683C134.607 166.61 134.476 166.567 134.341 166.559C134.206 166.55 134.071 166.577 133.949 166.635C133.369 166.963 133.143 168.227 133.109 168.684L133.02 170.289Z" fill="#FAFAFA"/>
<path d="M134.448 175.5L133.997 174.079C133.485 172.475 132.631 171.553 131.621 171.491C131.198 171.483 130.783 171.598 130.425 171.823C130.067 172.047 129.782 172.371 129.606 172.755L129.148 172.536C129.364 172.057 129.718 171.652 130.164 171.374C130.61 171.095 131.129 170.955 131.655 170.972C132.263 171.006 133.307 171.334 134.086 172.918C134.257 171.669 134.769 169.661 136.087 168.821C136.56 168.562 137.092 168.429 137.631 168.435C138.171 168.441 138.7 168.585 139.167 168.855L138.955 169.313C138.564 169.081 138.12 168.954 137.666 168.943C137.211 168.933 136.762 169.038 136.36 169.251C134.605 170.344 134.489 173.957 134.489 173.998L134.448 175.5Z" fill="#FAFAFA"/>
<path d="M128.281 178.969L127.83 178.737C128.841 176.791 131.06 175.391 132.986 175.486C133.395 175.491 133.797 175.587 134.164 175.768C134.53 175.949 134.851 176.21 135.103 176.531C135.289 175.548 135.671 174.614 136.228 173.783C136.784 172.952 137.503 172.242 138.341 171.696C139.24 171.099 140.277 170.743 141.354 170.663C142.43 170.583 143.509 170.781 144.487 171.238L144.289 171.696C143.388 171.279 142.396 171.099 141.407 171.173C140.417 171.247 139.463 171.573 138.634 172.119C137.749 172.693 137.009 173.467 136.476 174.377C135.942 175.288 135.629 176.311 135.561 177.364V178.655L135.083 177.453C134.925 177.026 134.64 176.657 134.266 176.396C133.893 176.135 133.449 175.994 132.993 175.992C131.224 175.903 129.21 177.187 128.281 178.969Z" fill="#FAFAFA"/>
<path d="M125.508 186.509L125.064 186.263C125.679 185.143 128.95 179.516 132.823 178.498C133.369 178.341 133.943 178.302 134.505 178.384C135.068 178.465 135.607 178.664 136.087 178.969L135.827 179.4C135.404 179.132 134.93 178.957 134.434 178.885C133.939 178.813 133.434 178.847 132.952 178.983C130.111 179.734 127.175 183.504 125.508 186.509Z" fill="#FAFAFA"/>
<path d="M175.458 126.349V129.511L123.432 159.547L82.3602 135.835V132.673L134.386 102.637L175.458 126.349Z" fill="#9E4C00"/>
<path d="M175.458 126.349L123.432 156.385L82.3602 132.673L134.386 102.637L175.458 126.349Z" fill="#FF7A00"/>
<path d="M175.458 91.5738V94.729L123.432 124.771L82.3602 101.053V97.8978L134.386 67.8553L175.458 91.5738Z" fill="#9E4C00"/>
<path d="M175.458 91.5738L123.432 121.609L82.3602 97.8978L134.386 67.8553L175.458 91.5738Z" fill="#FF7A00"/>
<path d="M123.254 80.3666L85.2831 58.4784C84.9901 58.2665 84.6461 58.1359 84.2863 58.0999C83.9264 58.0639 83.5635 58.1238 83.2343 58.2735C82.7426 58.5535 80.9942 59.5711 80.5025 59.8511C80.2034 60.061 79.9659 60.3472 79.8146 60.6798C79.6633 61.0124 79.6037 61.3794 79.642 61.7428V165.666C79.6978 166.678 79.9915 167.664 80.4994 168.542C81.0072 169.42 81.7149 170.166 82.565 170.719L120.536 192.614C120.829 192.826 121.173 192.957 121.533 192.993C121.893 193.029 122.256 192.969 122.585 192.819C123.077 192.532 124.839 191.522 125.317 191.228C125.617 191.02 125.857 190.736 126.011 190.404C126.164 190.073 126.227 189.707 126.191 189.343V85.4271C126.135 84.4119 125.84 83.4244 125.329 82.5449C124.819 81.6655 124.108 80.9191 123.254 80.3666Z" fill="#9E4C00"/>
<path opacity="0.2" d="M123.432 96.3202L126.177 94.7358V85.2429L123.425 86.8273L123.432 96.3202Z" fill="black"/>
<path opacity="0.2" d="M178.204 64.7001L180.949 63.1225V53.6296L178.197 55.2141L178.204 64.7001Z" fill="black"/>
<path d="M87.8372 167.455L85.1055 169.033V177.679C85.1193 177.932 85.1927 178.178 85.3196 178.398C85.4466 178.617 85.6236 178.804 85.8362 178.942L87.1133 179.68C87.3398 179.794 87.5902 179.854 87.8441 179.854C88.0979 179.854 88.3483 179.794 88.5748 179.68L89.8519 178.942C90.3039 178.65 90.6545 178.225 90.8558 177.726L93.3212 170.617L87.8372 167.455Z" fill="#5D1A82"/>
<path d="M85.0988 177.679C85.1126 177.932 85.1859 178.178 85.3129 178.398C85.4399 178.617 85.6169 178.804 85.8295 178.942L87.1066 179.68C87.1948 179.733 87.294 179.766 87.3967 179.775C87.4994 179.785 87.6029 179.771 87.6995 179.735C87.7961 179.699 87.8833 179.641 87.9545 179.567C88.0257 179.492 88.079 179.402 88.1105 179.304L90.5759 172.195L85.1124 169.033L85.0988 177.679Z" fill="#37474F"/>
<path d="M115.216 183.265L112.484 184.843V193.489C112.497 193.741 112.569 193.988 112.695 194.207C112.821 194.427 112.997 194.613 113.208 194.752L114.492 195.49C114.718 195.604 114.967 195.664 115.22 195.664C115.472 195.664 115.722 195.604 115.947 195.49L117.231 194.752C117.681 194.458 118.031 194.034 118.235 193.536L120.693 186.427L115.216 183.265Z" fill="#5D1A82"/>
<path d="M112.484 193.454C112.497 193.707 112.569 193.953 112.695 194.173C112.821 194.393 112.997 194.579 113.208 194.718L114.492 195.455C114.581 195.509 114.68 195.542 114.782 195.551C114.885 195.561 114.989 195.547 115.085 195.511C115.182 195.475 115.269 195.417 115.34 195.343C115.411 195.268 115.465 195.178 115.496 195.08L117.955 187.97L112.491 184.808L112.484 193.454Z" fill="#37474F"/>
<path d="M82.5377 60.063L120.516 81.9512C121.365 82.5064 122.072 83.2539 122.578 84.1331C123.085 85.0123 123.378 85.9985 123.432 87.0117V194.329C123.432 194.329 121.322 193.079 120.516 192.614L82.5445 170.719C81.6944 170.166 80.9867 169.42 80.4789 168.542C79.971 167.664 79.6773 166.679 79.6215 165.666V61.743C79.5485 61.3786 79.5917 61.0004 79.745 60.6617C79.8983 60.3231 80.1541 60.0412 80.4762 59.8556C80.7983 59.67 81.1705 59.5902 81.5403 59.6275C81.9102 59.6647 82.259 59.817 82.5377 60.063Z" fill="#FF881B"/>
<path opacity="0.2" d="M120.516 81.9512L82.5377 60.063C82.259 59.817 81.9102 59.6647 81.5403 59.6275C81.1705 59.5902 80.7983 59.67 80.4762 59.8556C80.1541 60.0412 79.8983 60.3231 79.745 60.6617C79.5917 61.0004 79.5485 61.3786 79.6215 61.743V71.0242L123.432 96.2929V87.0117C123.378 85.9985 123.085 85.0123 122.578 84.1331C122.072 83.2539 121.365 82.5064 120.516 81.9512Z" fill="black"/>
<path d="M172.72 91.8265C172.653 91.8248 172.59 91.7976 172.543 91.7506C172.496 91.7035 172.469 91.6403 172.467 91.5738V60.3908L142.725 77.5599C142.697 77.578 142.666 77.5901 142.633 77.5954C142.6 77.6007 142.567 77.5991 142.535 77.5907C142.503 77.5824 142.473 77.5675 142.447 77.5469C142.421 77.5263 142.399 77.5005 142.384 77.4711C142.366 77.4425 142.355 77.4107 142.35 77.3776C142.345 77.3445 142.347 77.3108 142.355 77.2784C142.363 77.246 142.378 77.2156 142.398 77.1889C142.418 77.1622 142.444 77.1397 142.472 77.1228L172.631 59.7352C172.669 59.7116 172.713 59.6991 172.757 59.6991C172.802 59.6991 172.846 59.7116 172.884 59.7352C172.921 59.7578 172.953 59.7898 172.974 59.8282C172.996 59.8665 173.007 59.9098 173.007 59.9538V91.5738C173.007 91.6101 172.999 91.646 172.985 91.6791C172.97 91.7122 172.948 91.7417 172.921 91.7657C172.894 91.7897 172.862 91.8075 172.827 91.818C172.792 91.8285 172.756 91.8314 172.72 91.8265Z" fill="#FAFAFA"/>
<path d="M167.243 83.9179H167.167C167.102 83.9032 167.046 83.8634 167.01 83.8071C166.974 83.7508 166.962 83.6826 166.976 83.6174L172.071 61.5517L161.963 79.0554C161.948 79.0846 161.926 79.1103 161.901 79.131C161.875 79.1517 161.845 79.167 161.813 79.1759C161.781 79.1849 161.748 79.1873 161.715 79.183C161.682 79.1787 161.651 79.1678 161.622 79.151C161.593 79.1347 161.567 79.1126 161.546 79.0862C161.525 79.0597 161.51 79.0294 161.501 78.997C161.492 78.9645 161.49 78.9306 161.494 78.8973C161.498 78.8639 161.509 78.8318 161.526 78.8027L172.453 59.8307C172.485 59.7786 172.533 59.7391 172.591 59.7191C172.648 59.6991 172.711 59.7 172.768 59.7214C172.824 59.7443 172.87 59.7865 172.897 59.8404C172.925 59.8943 172.932 59.9563 172.918 60.0151L167.454 83.7335C167.442 83.7822 167.415 83.826 167.377 83.8589C167.34 83.8919 167.292 83.9125 167.243 83.9179Z" fill="#FAFAFA"/>
<path d="M156.295 76.0438C156.26 76.0439 156.226 76.0367 156.194 76.0226C156.162 76.0084 156.134 75.9877 156.111 75.9618C156.064 75.9145 156.038 75.8507 156.038 75.7842C156.038 75.7178 156.064 75.654 156.111 75.6067L172.542 59.7967C172.59 59.7499 172.653 59.7238 172.72 59.7238C172.786 59.7238 172.85 59.7499 172.897 59.7967C172.945 59.8451 172.971 59.91 172.971 59.9776C172.971 60.0452 172.945 60.1102 172.897 60.1586L156.466 75.9618C156.444 75.9861 156.418 76.0058 156.389 76.0199C156.359 76.0339 156.328 76.0421 156.295 76.0438Z" fill="#FAFAFA"/>
<path d="M172.72 86.7794C172.653 86.7777 172.59 86.7505 172.543 86.7035C172.496 86.6564 172.469 86.5932 172.467 86.5267C172.467 82.3881 167.85 82.1081 167.652 82.1013C167.615 82.0986 167.579 82.088 167.546 82.0704C167.513 82.0527 167.484 82.0284 167.461 81.9988C167.44 81.9698 167.425 81.9364 167.418 81.901C167.411 81.8655 167.411 81.829 167.42 81.7939C167.589 80.9485 167.531 80.0735 167.255 79.2571C166.978 78.4407 166.491 77.7116 165.843 77.1431C165.606 76.9068 165.321 76.7237 165.008 76.6059C164.695 76.4882 164.36 76.4385 164.026 76.4602C163.848 76.4904 163.678 76.5584 163.529 76.6597C163.379 76.7611 163.253 76.8933 163.159 77.0475C163.13 77.0974 163.086 77.136 163.032 77.1571C162.979 77.1782 162.92 77.1805 162.865 77.1636C162.81 77.1468 162.763 77.112 162.731 77.0649C162.699 77.0177 162.683 76.9611 162.687 76.9041C162.687 76.747 162.967 73.066 159.73 72.704C159.689 72.6989 159.649 72.6839 159.614 72.6601C159.58 72.6363 159.552 72.6045 159.532 72.5675C159.514 72.5316 159.504 72.4918 159.504 72.4514C159.504 72.411 159.514 72.3711 159.532 72.3353C159.532 72.3353 160.966 69.6513 160.413 68.3332C160.349 68.1785 160.25 68.0409 160.123 67.9317C159.996 67.8226 159.845 67.7449 159.682 67.7049C159.65 67.6964 159.62 67.6813 159.593 67.6606C159.567 67.6399 159.545 67.6141 159.529 67.5847C159.513 67.5552 159.504 67.5229 159.501 67.4895C159.497 67.4562 159.501 67.4226 159.512 67.3908C159.532 67.3275 159.576 67.2745 159.635 67.2427C159.693 67.2109 159.762 67.2028 159.826 67.22C160.061 67.2806 160.279 67.3955 160.462 67.5557C160.644 67.7158 160.787 67.9167 160.878 68.142C161.403 69.3918 160.516 71.4611 160.133 72.2396C162.646 72.7245 163.111 75.0943 163.179 76.269C163.404 76.1095 163.66 76 163.93 75.948C164.341 75.9082 164.755 75.9619 165.142 76.105C165.528 76.2481 165.878 76.477 166.164 76.7744C166.842 77.3728 167.361 78.1303 167.675 78.979C167.988 79.8277 168.086 80.741 167.96 81.6369C169.066 81.7803 172.972 82.552 172.966 86.5404C172.962 86.6038 172.935 86.6637 172.889 86.708C172.844 86.7523 172.783 86.7778 172.72 86.7794Z" fill="#FAFAFA"/>
<path d="M172.72 79.9638C172.656 79.964 172.595 79.9402 172.548 79.8972C172.501 79.8541 172.472 79.795 172.467 79.7316C172.358 78.2838 171.518 76.4125 170.459 75.9481C170.25 75.8544 170.017 75.8239 169.79 75.8603C169.563 75.8967 169.352 75.9984 169.182 76.153C169.14 76.1798 169.092 76.194 169.042 76.194C168.993 76.194 168.944 76.1798 168.902 76.153C168.859 76.1292 168.824 76.0932 168.8 76.0495C168.777 76.0058 168.768 75.9563 168.772 75.9072C168.772 75.9072 168.998 73.3461 167.844 72.2876C167.593 72.0785 167.296 71.9322 166.978 71.861C166.66 71.7897 166.329 71.7955 166.013 71.8778C165.97 71.8871 165.925 71.8843 165.882 71.8699C165.84 71.8555 165.803 71.8299 165.774 71.7959C165.745 71.7615 165.725 71.7202 165.717 71.6759C165.709 71.6316 165.712 71.5858 165.727 71.5432C165.959 70.9081 166.409 69.1256 165.802 68.4905C165.515 68.1968 164.989 68.1695 164.231 68.4153C164.179 68.4325 164.123 68.4324 164.072 68.4152C164.02 68.3979 163.975 68.3645 163.944 68.3197C163.913 68.2758 163.896 68.2233 163.896 68.1695C163.896 68.1156 163.913 68.0631 163.944 68.0192C164.367 67.4865 165.412 65.9294 165.153 65.185C165.11 65.0822 165.041 64.9926 164.952 64.9254C164.863 64.8582 164.758 64.8158 164.647 64.8026C164.615 64.7946 164.585 64.7803 164.558 64.7605C164.531 64.7407 164.508 64.7158 164.491 64.6873C164.474 64.6587 164.463 64.627 164.458 64.5941C164.453 64.5611 164.455 64.5276 164.463 64.4953C164.469 64.4627 164.482 64.4318 164.501 64.4046C164.52 64.3773 164.544 64.3543 164.573 64.3369C164.601 64.3196 164.633 64.3083 164.665 64.3038C164.698 64.2993 164.732 64.3017 164.764 64.3109C164.955 64.3388 165.136 64.4166 165.288 64.5364C165.441 64.6563 165.559 64.814 165.631 64.9938C165.911 65.8065 165.228 67.0426 164.75 67.7256C164.996 67.667 165.253 67.6694 165.498 67.7324C165.743 67.7955 165.969 67.9174 166.157 68.0875C166.908 68.8661 166.546 70.512 166.321 71.2837C166.654 71.2439 166.991 71.275 167.312 71.3751C167.632 71.4751 167.927 71.6418 168.178 71.8642C169.196 72.793 169.305 74.5959 169.291 75.4223C169.505 75.3218 169.738 75.2697 169.974 75.2697C170.21 75.2697 170.444 75.3218 170.657 75.4223C171.948 75.9891 172.843 78.0038 172.972 79.636C172.975 79.6688 172.971 79.7019 172.961 79.7333C172.951 79.7646 172.934 79.7935 172.913 79.8184C172.891 79.8432 172.865 79.8635 172.835 79.8779C172.805 79.8923 172.773 79.9006 172.74 79.9023L172.72 79.9638Z" fill="#FAFAFA"/>
<path d="M187.43 48.8901C187.398 48.5275 187.27 48.18 187.058 47.8836C186.847 47.5871 186.561 47.3522 186.228 47.2032L145.518 23.6965C144.613 23.2386 143.613 23 142.599 23C141.585 23 140.584 23.2386 139.679 23.6965L77.0676 59.8512C76.7354 60.0003 76.449 60.2351 76.2377 60.5316C76.0265 60.8281 75.898 61.1755 75.8656 61.5381V64.7001C75.898 65.0627 76.0265 65.4101 76.2377 65.7066C76.449 66.0031 76.7354 66.2379 77.0676 66.3869L117.778 89.8868C118.682 90.3479 119.682 90.5883 120.697 90.5883C121.712 90.5883 122.712 90.3479 123.617 89.8868L186.228 53.7389C186.561 53.5899 186.847 53.3551 187.058 53.0586C187.27 52.7621 187.398 52.4147 187.43 52.0521V48.8901Z" fill="#9A4A00"/>
<path d="M117.777 86.7248L77.0674 63.2249C75.4557 62.2893 75.4557 60.78 77.0674 59.8512L139.679 23.6965C140.584 23.2386 141.584 23 142.599 23C143.613 23 144.613 23.2386 145.518 23.6965L186.228 47.2032C187.847 48.1388 187.847 49.6413 186.228 50.5769L123.616 86.7248C122.712 87.1859 121.712 87.4263 120.697 87.4263C119.682 87.4263 118.682 87.1859 117.777 86.7248Z" fill="#C45E00"/>
<path opacity="0.1" d="M178.197 58.3693L159.034 82.0877L126.177 101.06L126.171 88.4117L178.197 58.3693Z" fill="black"/>
<path opacity="0.1" d="M175.458 94.729L159.034 116.863L126.177 135.842V123.187L175.458 94.729Z" fill="black"/>
<path opacity="0.1" d="M175.458 129.511L159.034 151.645L126.177 170.624V157.969L175.458 129.511Z" fill="black"/>
<defs>
<filter id="filter0_d_2207_215" x="0" y="45.4457" width="337.377" height="201.554" filterUnits="userSpaceOnUse" color-interpolation-filters="sRGB">
<feFlood flood-opacity="0" result="BackgroundImageFix"/>
<feColorMatrix in="SourceAlpha" type="matrix" values="0 0 0 0 0 0 0 0 0 0 0 0 0 0 0 0 0 0 127 0" result="hardAlpha"/>
<feOffset dy="4"/>
<feGaussianBlur stdDeviation="4"/>
<feComposite in2="hardAlpha" operator="out"/>
<feColorMatrix type="matrix" values="0 0 0 0 0 0 0 0 0 0 0 0 0 0 0 0 0 0 0.1 0"/>
<feBlend mode="normal" in2="BackgroundImageFix" result="effect1_dropShadow_2207_215"/>
<feBlend mode="normal" in="SourceGraphic" in2="effect1_dropShadow_2207_215" result="shape"/>
</filter>
</defs>
</svg>
