<svg width="278" height="348" viewBox="0 0 278 348" fill="none" xmlns="http://www.w3.org/2000/svg">
<path d="M209.42 246.15C209.222 242.811 208.774 238.812 208.233 234.166C206.213 216.534 203.455 192.382 210.767 169.247C215.214 155.165 225.931 138.47 242.665 133.837C246.387 132.808 255.388 131.29 258.846 139.275C259.332 140.428 259.622 141.655 259.704 142.904C260.06 147.972 257.777 152.446 255.243 156.524C252.326 161.262 248.947 165.762 245.674 170.144C242.586 174.288 239.379 178.564 236.581 182.999C233.559 187.817 230.912 192.86 228.663 198.084L227.594 197.622C229.839 192.345 232.486 187.249 235.512 182.378C238.323 177.904 241.543 173.602 244.658 169.445C247.905 165.089 251.257 160.602 254.16 155.917C256.589 151.958 258.78 147.721 258.45 142.983C258.378 141.866 258.119 140.768 257.684 139.737C254.596 132.597 246.308 134.022 242.89 134.959C226.604 139.473 216.138 155.811 211.783 169.59C204.55 192.501 207.296 216.508 209.302 234.034C209.829 238.693 210.291 242.718 210.489 246.084L209.42 246.15Z" fill="#FF7A00"/>
<path d="M210.607 265.339C210.52 265.351 210.431 265.351 210.343 265.339C210.09 265.289 209.852 265.181 209.648 265.023C209.444 264.865 209.28 264.661 209.169 264.428C208.938 263.775 208.938 263.062 209.169 262.409C209.355 261.144 209.355 259.859 209.169 258.595C209.169 257.882 209.05 257.13 209.05 256.457V248.261C210.104 233.538 214.418 219.235 221.68 206.385C228.121 195.18 235.248 187.723 244.116 182.893C248.897 180.266 254.14 178.585 259.558 177.944C264.34 177.415 269.148 178.685 273.046 181.507C277.071 184.688 278.879 190.138 277.361 194.454C276.292 197.476 273.851 199.733 271.356 201.779C266.909 205.408 262.052 208.655 257.367 211.796C253.474 214.435 249.448 217.075 245.687 219.978C234.179 228.86 224.526 239.913 217.272 252.511C216.084 254.556 214.963 256.668 213.933 258.779L213.511 259.611C213.099 260.365 212.738 261.145 212.429 261.947C212.363 262.118 212.297 262.475 212.204 262.884C212.137 263.636 211.898 264.364 211.505 265.009C211.258 265.227 210.937 265.345 210.607 265.339ZM261.458 179.039C260.864 179.039 260.27 179.039 259.663 179.118C254.406 179.732 249.318 181.363 244.684 183.922C236.026 188.634 229.045 195.958 222.71 206.965C215.545 219.656 211.285 233.778 210.238 248.314V256.43C210.238 257.064 210.238 257.75 210.357 258.476C210.569 259.858 210.569 261.264 210.357 262.646C210.215 263.075 210.215 263.538 210.357 263.966C210.391 264.033 210.439 264.091 210.498 264.137C210.558 264.183 210.627 264.215 210.7 264.23C210.935 263.742 211.096 263.222 211.175 262.686C211.238 262.32 211.326 261.958 211.439 261.604C211.761 260.756 212.14 259.932 212.574 259.136L212.983 258.317C214.039 256.179 215.174 254.055 216.362 251.983C218.829 247.712 221.566 243.604 224.557 239.682C230.47 231.957 237.37 225.04 245.08 219.107C248.881 216.204 252.919 213.498 256.826 210.885C261.498 207.757 266.315 204.524 270.736 200.934C273.085 199.02 275.395 196.869 276.372 194.124C277.691 190.257 276.068 185.361 272.412 182.47C269.256 180.117 265.393 178.907 261.458 179.039Z" fill="#FF7A00"/>
<path d="M209.622 254.068H209.477C209.402 254.051 209.332 254.02 209.27 253.975C209.208 253.93 209.156 253.874 209.117 253.808C209.077 253.743 209.052 253.67 209.041 253.595C209.03 253.519 209.035 253.443 209.054 253.369C219.942 209.948 250.046 190.574 266.121 185.968C266.268 185.927 266.425 185.946 266.559 186.02C266.692 186.094 266.791 186.218 266.834 186.364C266.875 186.513 266.857 186.672 266.783 186.807C266.709 186.943 266.585 187.044 266.438 187.09C250.601 191.617 220.945 210.74 210.189 253.646C210.152 253.768 210.077 253.875 209.975 253.951C209.873 254.027 209.749 254.068 209.622 254.068Z" fill="#FF7A00"/>
<path d="M209.554 218.434C209.399 218.42 209.255 218.346 209.154 218.228C209.053 218.109 209.002 217.956 209.013 217.8C212.484 170.909 243.156 145.213 246.64 142.455C246.699 142.405 246.767 142.368 246.841 142.346C246.915 142.324 246.992 142.316 247.069 142.325C247.145 142.334 247.219 142.358 247.286 142.396C247.353 142.434 247.412 142.486 247.458 142.547C247.506 142.607 247.541 142.675 247.563 142.749C247.584 142.822 247.591 142.899 247.582 142.975C247.573 143.052 247.55 143.125 247.513 143.192C247.476 143.259 247.426 143.318 247.366 143.365C243.921 146.097 213.606 171.49 210.188 217.893C210.171 218.047 210.096 218.188 209.978 218.289C209.861 218.39 209.709 218.441 209.554 218.434Z" fill="#FF7A00"/>
<path d="M99.3786 347.943L0 290.546L113.592 224.967L212.984 282.351L99.3786 347.943Z" fill="#B2B5BA"/>
<path d="M204.898 50.2826L131.506 7.93127C130.938 7.52384 130.273 7.27382 129.578 7.2066C128.882 7.13938 128.181 7.25736 127.546 7.54855L122.267 10.5972C121.687 11.0013 121.225 11.5535 120.931 12.1964C120.636 12.8393 120.519 13.5494 120.591 14.253V215.135C120.699 217.092 121.267 218.996 122.248 220.693C123.229 222.39 124.597 223.832 126.24 224.901L199.619 267.2C200.185 267.609 200.85 267.862 201.545 267.931C202.241 268.001 202.942 267.885 203.578 267.596L208.857 264.534C209.431 264.128 209.886 263.576 210.176 262.936C210.466 262.296 210.58 261.59 210.507 260.891V60.0489C210.405 58.095 209.844 56.1925 208.869 54.4958C207.895 52.7991 206.534 51.3557 204.898 50.2826Z" fill="#9E4C00"/>
<path d="M136.404 218.579L131.125 221.628V238.336C131.152 238.826 131.293 239.302 131.539 239.726C131.784 240.15 132.126 240.511 132.537 240.778L135.005 242.203C135.443 242.425 135.927 242.54 136.417 242.54C136.908 242.54 137.392 242.425 137.829 242.203L140.297 240.778C141.174 240.211 141.852 239.386 142.237 238.416L147.002 224.69L136.404 218.579Z" fill="#5D1A82"/>
<path d="M131.125 238.336C131.152 238.826 131.293 239.302 131.539 239.726C131.784 240.15 132.126 240.511 132.537 240.778L135.005 242.203C135.176 242.307 135.367 242.37 135.566 242.388C135.764 242.407 135.964 242.38 136.151 242.31C136.338 242.241 136.506 242.129 136.644 241.985C136.781 241.841 136.884 241.667 136.945 241.477L141.683 227.739L131.125 221.628V238.336Z" fill="#37474F"/>
<path d="M189.349 249.053L184.07 252.115V268.81C184.095 269.3 184.234 269.778 184.477 270.204C184.72 270.63 185.06 270.994 185.469 271.264L187.95 272.69C188.386 272.911 188.867 273.027 189.356 273.027C189.844 273.027 190.326 272.911 190.762 272.69L193.243 271.264C194.119 270.698 194.798 269.872 195.183 268.902L199.934 255.163L189.349 249.053Z" fill="#5D1A82"/>
<path d="M184.07 268.81C184.095 269.3 184.234 269.778 184.477 270.204C184.72 270.631 185.06 270.994 185.469 271.265L187.95 272.69C188.121 272.793 188.313 272.856 188.511 272.875C188.71 272.893 188.91 272.867 189.096 272.797C189.283 272.727 189.451 272.616 189.589 272.472C189.726 272.327 189.83 272.154 189.89 271.964L194.655 258.225L184.097 252.115L184.07 268.81Z" fill="#37474F"/>
<path d="M126.581 11.1382L199.96 53.3708C201.603 54.4431 202.971 55.8872 203.952 57.5862C204.934 59.2851 205.501 61.1913 205.609 63.1503V264.032C205.749 264.738 205.664 265.469 205.367 266.124C205.069 266.779 204.575 267.325 203.952 267.684C203.329 268.044 202.609 268.199 201.893 268.129C201.177 268.059 200.501 267.766 199.96 267.292L126.581 224.98C124.94 223.91 123.575 222.468 122.595 220.771C121.616 219.074 121.051 217.17 120.946 215.214V14.3849C120.805 13.6805 120.888 12.9497 121.184 12.2953C121.481 11.6409 121.975 11.096 122.597 10.7374C123.22 10.3788 123.939 10.2246 124.654 10.2965C125.369 10.3684 126.043 10.6628 126.581 11.1382Z" fill="#D66904"/>
<path d="M20.0195 285.716L99.3904 331.538L210.515 267.384L205.223 264.322L125.852 218.5L20.0195 279.605V285.716Z" fill="#FF7A00"/>
<path d="M99.3867 331.538V325.427L210.511 261.273V267.384L99.3867 331.538Z" fill="#9E4C00"/>
<path d="M99.8988 322.643L99.0938 322.102C113.176 300.788 113.083 263.967 111.935 254.728C111.843 254.108 111.777 253.725 111.764 253.58L112.727 253.422C112.727 253.712 112.833 254.055 112.885 254.464C113.915 260.997 119.735 296.486 126.624 307.255L125.806 307.783C120.355 299.323 115.696 276.491 113.36 263.32C113.506 278.273 111.328 305.447 99.8988 322.643Z" fill="#FAFAFA"/>
<path d="M146.248 290.098C145.047 289.741 116.989 281.242 114.402 268.863L115.366 268.665C117.821 280.476 146.235 289.081 146.526 289.174L146.248 290.098Z" fill="#FAFAFA"/>
<path d="M117.92 285.082L117.208 282.06C117.11 281.505 116.827 280.999 116.405 280.625C115.984 280.251 115.448 280.031 114.885 280.001C114.42 279.933 113.946 280.009 113.526 280.22C113.106 280.43 112.76 280.763 112.536 281.176L111.625 280.793C111.93 280.189 112.416 279.695 113.014 279.378C113.612 279.062 114.293 278.938 114.964 279.025C115.45 279.055 115.923 279.189 116.353 279.416C116.783 279.644 117.16 279.96 117.458 280.344C117.617 279.093 118.256 277.952 119.24 277.164C119.613 276.969 120.031 276.873 120.451 276.887C120.872 276.901 121.283 277.024 121.642 277.243L121.207 278.114C120.987 277.972 120.734 277.89 120.473 277.873C120.212 277.857 119.951 277.908 119.715 278.022C118.593 278.655 118.158 281.097 118.092 281.981L117.92 285.082Z" fill="#FAFAFA"/>
<path d="M120.683 295.152L119.812 292.407C118.822 289.305 117.172 287.524 115.219 287.405C114.403 287.389 113.6 287.612 112.908 288.045C112.217 288.479 111.667 289.105 111.326 289.846L110.441 289.424C110.859 288.497 111.542 287.716 112.404 287.178C113.267 286.639 114.269 286.37 115.285 286.402C116.46 286.468 118.479 287.101 119.983 290.163C120.313 287.748 121.303 283.868 123.85 282.244C124.765 281.743 125.792 281.486 126.835 281.498C127.877 281.509 128.899 281.789 129.802 282.31L129.393 283.195C128.637 282.748 127.779 282.502 126.901 282.481C126.023 282.46 125.154 282.665 124.378 283.076C120.986 285.188 120.762 292.169 120.762 292.248L120.683 295.152Z" fill="#FAFAFA"/>
<path d="M108.766 301.857L107.895 301.408C109.848 297.647 114.137 294.941 117.859 295.126C118.648 295.135 119.426 295.321 120.134 295.671C120.842 296.02 121.463 296.524 121.95 297.145C122.308 295.246 123.047 293.439 124.122 291.833C125.197 290.228 126.587 288.856 128.206 287.801C129.943 286.647 131.949 285.959 134.029 285.805C136.109 285.65 138.194 286.033 140.084 286.917L139.701 287.801C137.961 286.996 136.043 286.648 134.131 286.791C132.218 286.934 130.374 287.564 128.773 288.619C127.062 289.729 125.633 291.223 124.602 292.983C123.571 294.743 122.965 296.72 122.834 298.755V301.25L121.91 298.927C121.604 298.101 121.054 297.389 120.332 296.884C119.611 296.379 118.753 296.107 117.872 296.103C114.454 295.931 110.56 298.412 108.766 301.857Z" fill="#FAFAFA"/>
<path d="M103.409 316.427L102.551 315.952C103.739 313.787 110.06 302.912 117.543 300.946C118.6 300.643 119.708 300.568 120.795 300.725C121.883 300.882 122.924 301.267 123.852 301.856L123.35 302.688C122.533 302.171 121.615 301.832 120.658 301.694C119.701 301.555 118.725 301.619 117.794 301.883C112.304 303.335 106.629 310.62 103.409 316.427Z" fill="#FAFAFA"/>
<path d="M199.93 200.168V206.279L99.3904 264.322L20.0195 218.5V212.389L120.559 154.346L199.93 200.168Z" fill="#9E4C00"/>
<path d="M199.93 200.168L99.3904 258.212L20.0195 212.389L120.559 154.346L199.93 200.168Z" fill="#FF7A00"/>
<path d="M199.93 132.966V139.064L99.3904 197.12L20.0195 151.285V145.187L120.559 87.1306L199.93 132.966Z" fill="#9E4C00"/>
<path d="M199.93 132.966L99.3904 191.01L20.0195 145.187L120.559 87.1306L199.93 132.966Z" fill="#FF7A00"/>
<path d="M99.0444 111.308L25.6653 69.0099C25.099 68.6004 24.4344 68.348 23.739 68.2784C23.0436 68.2089 22.3422 68.3247 21.706 68.614C20.7558 69.1551 17.3772 71.1215 16.4269 71.6626C15.8489 72.0683 15.3899 72.6212 15.0975 73.264C14.8051 73.9068 14.69 74.6161 14.764 75.3184V276.148C14.8718 278.105 15.4394 280.009 16.4208 281.706C17.4023 283.403 18.7698 284.844 20.4126 285.914L93.7917 328.226C94.358 328.635 95.0227 328.888 95.7181 328.957C96.4135 329.027 97.1149 328.911 97.7511 328.622C98.7013 328.067 102.106 326.114 103.03 325.547C103.611 325.145 104.074 324.596 104.371 323.955C104.668 323.315 104.788 322.607 104.719 321.904V121.088C104.611 119.126 104.04 117.218 103.054 115.518C102.068 113.819 100.694 112.376 99.0444 111.308Z" fill="#9E4C00"/>
<path opacity="0.2" d="M99.3921 142.139L104.698 139.077V120.732L99.3789 123.794L99.3921 142.139Z" fill="black"/>
<path opacity="0.2" d="M205.236 81.0333L210.541 77.9847V59.6399L205.223 62.7018L205.236 81.0333Z" fill="black"/>
<path d="M30.6072 279.605L25.3281 282.654V299.362C25.3548 299.852 25.4966 300.328 25.742 300.752C25.9874 301.176 26.3294 301.537 26.7403 301.804L29.2082 303.229C29.646 303.451 30.1298 303.566 30.6204 303.566C31.111 303.566 31.5948 303.451 32.0326 303.229L34.5005 301.804C35.374 301.24 36.0516 300.419 36.4406 299.455L41.2049 285.716L30.6072 279.605Z" fill="#5D1A82"/>
<path d="M25.3125 299.363C25.3392 299.852 25.481 300.328 25.7264 300.752C25.9717 301.177 26.3138 301.537 26.7246 301.804L29.1926 303.229C29.3631 303.333 29.5548 303.396 29.7533 303.414C29.9517 303.433 30.1518 303.406 30.3385 303.336C30.5252 303.267 30.6936 303.155 30.8312 303.011C30.9687 302.867 31.0718 302.693 31.1327 302.504L35.897 288.765L25.3389 282.654L25.3125 299.363Z" fill="#37474F"/>
<path d="M83.5134 310.158L78.2344 313.207V329.915C78.2585 330.404 78.3979 330.879 78.641 331.304C78.8841 331.728 79.2242 332.089 79.6333 332.357L82.1145 333.782C82.55 334.003 83.0316 334.119 83.5201 334.119C84.0086 334.119 84.4902 334.003 84.9256 333.782L87.4068 332.357C88.2768 331.789 88.9535 330.969 89.3468 330.008L94.098 316.269L83.5134 310.158Z" fill="#5D1A82"/>
<path d="M78.2344 329.849C78.2585 330.338 78.3979 330.813 78.641 331.238C78.8841 331.662 79.2242 332.023 79.6333 332.291L82.1145 333.716C82.285 333.819 82.4767 333.883 82.6752 333.901C82.8736 333.92 83.0737 333.893 83.2604 333.823C83.4471 333.753 83.6155 333.642 83.753 333.498C83.8906 333.354 83.9937 333.18 84.0546 332.99L88.8057 319.251L78.2476 313.141L78.2344 329.849Z" fill="#37474F"/>
<path d="M20.3625 72.0721L93.7548 114.371C95.3961 115.444 96.7616 116.888 97.7407 118.587C98.7198 120.286 99.2849 122.192 99.3902 124.15V331.539C99.3902 331.539 95.3121 329.123 93.7548 328.226L20.3756 285.914C18.7329 284.845 17.3653 283.403 16.3839 281.706C15.4025 280.009 14.8348 278.105 14.727 276.148V75.3187C14.5859 74.6144 14.6694 73.8835 14.9657 73.2291C15.262 72.5747 15.7562 72.0298 16.3786 71.6713C17.0011 71.3127 17.7203 71.1585 18.4351 71.2304C19.1498 71.3023 19.8239 71.5967 20.3625 72.0721Z" fill="#FF881B"/>
<path opacity="0.2" d="M93.7548 114.371L20.3625 72.0721C19.8239 71.5967 19.1498 71.3023 18.4351 71.2304C17.7203 71.1585 17.0011 71.3127 16.3786 71.6713C15.7562 72.0298 15.262 72.5747 14.9657 73.2291C14.6694 73.8835 14.5859 74.6144 14.727 75.3187V93.2544L99.3902 142.086V124.15C99.2849 122.192 98.7198 120.286 97.7407 118.587C96.7616 116.888 95.3961 115.444 93.7548 114.371Z" fill="black"/>
<path d="M194.643 133.455C194.515 133.451 194.393 133.399 194.302 133.308C194.211 133.217 194.158 133.095 194.155 132.966V72.7057L136.679 105.885C136.625 105.92 136.565 105.943 136.501 105.953C136.438 105.963 136.373 105.96 136.311 105.944C136.249 105.928 136.191 105.899 136.141 105.859C136.091 105.82 136.049 105.77 136.019 105.713C135.986 105.658 135.964 105.596 135.954 105.532C135.945 105.468 135.948 105.403 135.964 105.341C135.98 105.278 136.009 105.219 136.047 105.168C136.086 105.116 136.135 105.073 136.191 105.04L194.472 71.4387C194.545 71.3931 194.63 71.3689 194.716 71.3689C194.802 71.3689 194.887 71.3931 194.96 71.4387C195.033 71.4823 195.093 71.5443 195.135 71.6183C195.177 71.6924 195.198 71.7761 195.198 71.861V132.966C195.198 133.036 195.184 133.106 195.155 133.17C195.127 133.234 195.085 133.291 195.032 133.337C194.979 133.384 194.918 133.418 194.85 133.438C194.783 133.459 194.713 133.464 194.643 133.455Z" fill="#FAFAFA"/>
<path d="M184.058 118.171H183.913C183.787 118.142 183.678 118.065 183.609 117.957C183.539 117.848 183.516 117.716 183.544 117.59L193.389 74.9484L173.857 108.774C173.826 108.83 173.785 108.88 173.735 108.92C173.685 108.96 173.628 108.99 173.566 109.007C173.504 109.024 173.44 109.029 173.376 109.021C173.313 109.012 173.252 108.991 173.197 108.959C173.14 108.927 173.09 108.885 173.05 108.834C173.01 108.782 172.98 108.724 172.963 108.661C172.946 108.598 172.941 108.533 172.949 108.469C172.958 108.404 172.979 108.342 173.012 108.286L194.128 71.6226C194.189 71.5219 194.283 71.4456 194.393 71.407C194.504 71.3684 194.625 71.37 194.735 71.4115C194.844 71.4556 194.933 71.5371 194.986 71.6413C195.039 71.7454 195.053 71.8653 195.026 71.9789L184.467 117.814C184.444 117.909 184.392 117.993 184.319 118.057C184.246 118.121 184.155 118.16 184.058 118.171Z" fill="#FAFAFA"/>
<path d="M162.903 102.954C162.836 102.954 162.77 102.941 162.708 102.913C162.647 102.886 162.592 102.846 162.547 102.796C162.457 102.704 162.406 102.581 162.406 102.453C162.406 102.324 162.457 102.201 162.547 102.11L194.301 71.5569C194.392 71.4666 194.515 71.416 194.644 71.416C194.772 71.416 194.896 71.4666 194.987 71.5569C195.078 71.6505 195.129 71.776 195.129 71.9066C195.129 72.0373 195.078 72.1628 194.987 72.2564L163.233 102.796C163.192 102.843 163.141 102.881 163.084 102.908C163.028 102.935 162.966 102.951 162.903 102.954Z" fill="#FAFAFA"/>
<path d="M194.642 123.701C194.513 123.698 194.391 123.645 194.3 123.555C194.209 123.464 194.157 123.341 194.153 123.213C194.153 115.215 185.232 114.674 184.849 114.661C184.777 114.656 184.707 114.635 184.643 114.601C184.579 114.567 184.524 114.52 184.479 114.463C184.438 114.407 184.409 114.342 184.396 114.274C184.382 114.205 184.384 114.135 184.4 114.067C184.726 112.433 184.615 110.742 184.08 109.165C183.545 107.587 182.604 106.178 181.352 105.079C180.894 104.623 180.344 104.269 179.738 104.041C179.133 103.814 178.486 103.718 177.841 103.76C177.497 103.818 177.169 103.949 176.88 104.145C176.591 104.341 176.347 104.597 176.165 104.895C176.11 104.991 176.024 105.066 175.92 105.106C175.817 105.147 175.703 105.152 175.597 105.119C175.492 105.086 175.401 105.019 175.338 104.928C175.276 104.837 175.246 104.727 175.254 104.617C175.254 104.314 175.795 97.2003 169.54 96.5009C169.459 96.491 169.383 96.4619 169.316 96.4159C169.249 96.3699 169.195 96.3085 169.157 96.2369C169.121 96.1676 169.102 96.0906 169.102 96.0125C169.102 95.9345 169.121 95.8575 169.157 95.7882C169.157 95.7882 171.928 90.6015 170.859 88.0543C170.736 87.7552 170.544 87.4894 170.298 87.2784C170.053 87.0675 169.762 86.9173 169.447 86.8401C169.385 86.8236 169.326 86.7944 169.275 86.7545C169.224 86.7145 169.182 86.6646 169.151 86.6077C169.121 86.5509 169.102 86.4883 169.096 86.4239C169.09 86.3595 169.097 86.2945 169.117 86.2331C169.157 86.1107 169.242 86.0083 169.355 85.9469C169.468 85.8855 169.6 85.8698 169.724 85.9031C170.179 86.0201 170.6 86.2422 170.953 86.5517C171.306 86.8612 171.581 87.2493 171.757 87.6848C172.773 90.1 171.057 94.0989 170.318 95.6034C175.175 96.5404 176.073 101.12 176.204 103.39C176.638 103.082 177.134 102.87 177.656 102.77C178.449 102.693 179.25 102.797 179.997 103.073C180.745 103.35 181.42 103.792 181.972 104.367C183.283 105.523 184.287 106.987 184.893 108.627C185.499 110.267 185.688 112.032 185.443 113.763C187.581 114.041 195.13 115.532 195.117 123.239C195.11 123.362 195.058 123.478 194.97 123.563C194.881 123.649 194.764 123.698 194.642 123.701Z" fill="#FAFAFA"/>
<path d="M194.645 110.53C194.522 110.531 194.404 110.485 194.313 110.401C194.223 110.318 194.167 110.204 194.157 110.081C193.946 107.283 192.323 103.667 190.277 102.77C189.872 102.589 189.422 102.53 188.984 102.6C188.546 102.67 188.137 102.867 187.809 103.166C187.728 103.218 187.634 103.245 187.538 103.245C187.443 103.245 187.349 103.218 187.268 103.166C187.184 103.12 187.116 103.05 187.071 102.966C187.027 102.881 187.008 102.786 187.017 102.691C187.017 102.691 187.453 97.7416 185.222 95.6959C184.738 95.2919 184.165 95.0092 183.55 94.8715C182.934 94.7338 182.295 94.7449 181.685 94.9041C181.601 94.9219 181.514 94.9167 181.432 94.8888C181.351 94.8609 181.279 94.8114 181.223 94.7457C181.167 94.6793 181.129 94.5994 181.112 94.5138C181.096 94.4282 181.103 94.3398 181.131 94.2574C181.58 93.03 182.451 89.5854 181.276 88.358C180.722 87.7905 179.706 87.7377 178.241 88.2128C178.141 88.2459 178.033 88.2458 177.933 88.2125C177.833 88.1792 177.746 88.1145 177.686 88.0281C177.626 87.9432 177.594 87.8418 177.594 87.7377C177.594 87.6337 177.626 87.5322 177.686 87.4474C178.505 86.418 180.524 83.4089 180.022 81.9703C179.94 81.7717 179.806 81.5985 179.634 81.4686C179.462 81.3388 179.259 81.2568 179.046 81.2313C178.983 81.2158 178.924 81.1882 178.873 81.15C178.821 81.1117 178.777 81.0636 178.744 81.0084C178.711 80.9532 178.689 80.892 178.68 80.8284C178.67 80.7647 178.674 80.6998 178.689 80.6374C178.702 80.5745 178.727 80.5148 178.763 80.4621C178.8 80.4094 178.847 80.3649 178.901 80.3314C178.956 80.2979 179.017 80.2761 179.08 80.2674C179.144 80.2588 179.208 80.2634 179.27 80.281C179.641 80.335 179.99 80.4853 180.284 80.7169C180.579 80.9485 180.807 81.2533 180.946 81.6008C181.487 83.1713 180.167 85.5601 179.244 86.8799C179.72 86.7667 180.216 86.7713 180.69 86.8931C181.163 87.015 181.6 87.2506 181.962 87.5794C183.414 89.0839 182.715 92.2645 182.279 93.7559C182.923 93.6789 183.575 93.7391 184.194 93.9325C184.813 94.1258 185.384 94.448 185.869 94.8777C187.835 96.6726 188.047 100.157 188.02 101.754C188.433 101.56 188.884 101.459 189.34 101.459C189.796 101.459 190.247 101.56 190.66 101.754C193.154 102.849 194.883 106.742 195.134 109.897C195.139 109.96 195.132 110.024 195.112 110.085C195.092 110.145 195.06 110.201 195.018 110.249C194.977 110.297 194.925 110.336 194.868 110.364C194.811 110.392 194.749 110.408 194.685 110.411L194.645 110.53Z" fill="#FAFAFA"/>
<path d="M223.074 50.4805C223.011 49.7797 222.763 49.1083 222.355 48.5354C221.947 47.9624 221.393 47.5086 220.751 47.2206L142.08 1.7942C140.331 0.909318 138.398 0.448242 136.438 0.448242C134.478 0.448242 132.545 0.909318 130.796 1.7942L9.79937 71.6627C9.15749 71.9507 8.60393 72.4046 8.19567 72.9775C7.78742 73.5505 7.5392 74.2218 7.47656 74.9226V81.0331C7.5392 81.7338 7.78742 82.4052 8.19567 82.9781C8.60393 83.5511 9.15749 84.0049 9.79937 84.2929L88.4707 129.706C90.218 130.597 92.1514 131.062 94.1128 131.062C96.0741 131.062 98.0075 130.597 99.7548 129.706L220.751 59.8508C221.393 59.5628 221.947 59.109 222.355 58.5361C222.763 57.9631 223.011 57.2917 223.074 56.591V50.4805Z" fill="#9A4A00"/>
<path d="M88.4683 123.596L9.79693 78.1824C6.68227 76.3743 6.68227 73.4576 9.79693 71.6627L130.793 1.7942C132.542 0.909318 134.475 0.448242 136.435 0.448242C138.395 0.448242 140.328 0.909318 142.077 1.7942L220.749 47.2206C223.877 49.0287 223.877 51.9322 220.749 53.7403L99.7523 123.596C98.0051 124.487 96.0717 124.951 94.1103 124.951C92.149 124.951 90.2156 124.487 88.4683 123.596Z" fill="#C45E00"/>
<path opacity="0.1" d="M205.227 68.7983L168.195 114.634L104.701 151.297L104.688 126.855L205.227 68.7983Z" fill="black"/>
<path opacity="0.1" d="M199.938 139.063L168.197 181.837L104.703 218.513V194.058L199.938 139.063Z" fill="black"/>
<path opacity="0.1" d="M199.938 206.279L168.197 249.052L104.703 285.729V261.273L199.938 206.279Z" fill="black"/>
</svg>
