<svg width="120" height="24" viewBox="0 0 120 24" fill="none" xmlns="http://www.w3.org/2000/svg">
<path d="M12 1.30198L14.7124 7.82332L14.8297 8.1053L15.1341 8.12971L22.1744 8.69413L16.8104 13.289L16.5785 13.4876L16.6493 13.7847L18.2881 20.6549L12.2606 16.9733L12 16.8141L11.7394 16.9733L5.71186 20.6549L7.35065 13.7847L7.42151 13.4876L7.18957 13.289L1.82558 8.69413L8.86592 8.12971L9.17034 8.1053L9.28762 7.82332L12 1.30198Z" fill="#FFC658" stroke="#FFC658"/>
<path d="M36 1.30198L38.7124 7.82332L38.8297 8.1053L39.1341 8.12971L46.1744 8.69413L40.8104 13.289L40.5785 13.4876L40.6493 13.7847L42.2881 20.6549L36.2606 16.9733L36 16.8141L35.7394 16.9733L29.7119 20.6549L31.3506 13.7847L31.4215 13.4876L31.1896 13.289L25.8256 8.69413L32.8659 8.12971L33.1703 8.1053L33.2876 7.82332L36 1.30198Z" fill="#FFC658" stroke="#FFC658"/>
<path d="M60 1.30198L62.7124 7.82332L62.8297 8.1053L63.1341 8.12971L70.1744 8.69413L64.8104 13.289L64.5785 13.4876L64.6493 13.7847L66.2881 20.6549L60.2606 16.9733L60 16.8141L59.7394 16.9733L53.7119 20.6549L55.3506 13.7847L55.4215 13.4876L55.1896 13.289L49.8256 8.69413L56.8659 8.12971L57.1703 8.1053L57.2876 7.82332L60 1.30198Z" fill="#FFC658" stroke="#FFC658"/>
<path d="M84 1.30198L86.7124 7.82332L86.8297 8.1053L87.1341 8.12971L94.1744 8.69413L88.8104 13.289L88.5785 13.4876L88.6493 13.7847L90.2881 20.6549L84.2606 16.9733L84 16.8141L83.7394 16.9733L77.7119 20.6549L79.3506 13.7847L79.4215 13.4876L79.1896 13.289L73.8256 8.69413L80.8659 8.12971L81.1703 8.1053L81.2876 7.82332L84 1.30198Z" fill="#FFC658" stroke="#FFC658"/>
<path d="M108 1.30198L110.712 7.82332L110.83 8.1053L111.134 8.12971L118.174 8.69413L112.81 13.289L112.578 13.4876L112.649 13.7847L114.288 20.6549L108.261 16.9733L108 16.8141L107.739 16.9733L101.712 20.6549L103.351 13.7847L103.422 13.4876L103.19 13.289L97.8256 8.69413L104.866 8.12971L105.17 8.1053L105.288 7.82332L108 1.30198Z" fill="#FFC658" stroke="#FFC658"/>
</svg>
