<svg width="132" height="132" viewBox="0 0 132 132" fill="none" xmlns="http://www.w3.org/2000/svg">
<rect width="132" height="132" rx="66" fill="#FF881B"/>
<path d="M92.3367 53.7767L94.844 66.2426H36.6734L39.1808 53.7767H92.3367ZM99.1901 37.1553C99.1901 34.8604 97.3297 33 95.0348 33H36.4827C34.1878 33 32.3274 34.8604 32.3274 37.1553C32.3274 39.4503 34.1878 41.3107 36.4827 41.3107H95.0348C97.3297 41.3107 99.1901 39.4503 99.1901 37.1553ZM100.159 50.2829C99.5955 47.4814 97.1344 45.466 94.2768 45.466H37.2407C34.3831 45.466 31.922 47.4814 31.3585 50.2829L28.1484 66.2426V70.3744C28.1484 72.6823 30.0194 74.5533 32.3274 74.5533V93.4853C32.3274 96.799 35.0137 99.4853 38.3274 99.4853H68.1166C71.4303 99.4853 74.1166 96.799 74.1166 93.4853V74.5533H90.8323V95.3064C90.8323 97.6143 92.7032 99.4853 95.0112 99.4853C97.3191 99.4853 99.1901 97.6143 99.1901 95.3064V74.5533C101.498 74.5533 103.369 72.6823 103.369 70.3744V66.2426L100.159 50.2829ZM40.6852 91.1746V74.5533H65.7587V91.1746H40.6852Z" fill="#FEFDF9"/>
</svg>
