<svg width="468" height="451" viewBox="0 0 468 451" fill="none" xmlns="http://www.w3.org/2000/svg">
<path d="M15.6513 438.012C15.6513 438.15 110.907 438.251 228.364 438.251C345.82 438.251 441.096 438.15 441.096 438.012C441.096 437.874 345.84 437.773 228.364 437.773C110.888 437.773 15.6513 437.92 15.6513 438.012Z" fill="#263238"/>
<path d="M262.14 210.947C262.14 210.947 261.644 208.858 265.328 206.153C269.012 203.449 270.878 202.906 270.878 202.906C270.878 202.906 272.676 198.306 275.291 198.655C277.906 199.005 277.41 201.047 277.332 201.903C277.254 202.759 272.676 210.017 272.676 210.017C272.676 210.017 271.364 214.507 267.116 214.82C262.869 215.133 262.14 210.947 262.14 210.947Z" fill="#A2675F"/>
<path d="M286.878 211.977C286.878 211.977 288.044 210.938 288.686 211.618C289.416 212.544 289.744 213.7 289.6 214.848C289.366 215.722 288.628 217.47 287.656 218.022C286.684 218.574 283.933 218.022 283.933 218.022L286.878 211.977Z" fill="#A2675F"/>
<path d="M269.188 226.053C268.552 225.378 267.721 224.894 266.797 224.664C265.377 224.388 261.839 223.744 260.78 222.548C259.72 221.352 258.301 219.871 258.301 219.871L262.131 209.374L277.761 212.52L281.299 220.8L269.188 226.053Z" fill="#A2675F"/>
<path d="M282.348 204.7C282.957 204.007 283.705 203.435 284.548 203.017C285.391 202.599 286.313 202.342 287.261 202.261C288.21 202.181 289.165 202.279 290.074 202.549C290.982 202.819 291.825 203.256 292.554 203.835C292.704 203.93 292.811 204.074 292.855 204.24C292.855 204.479 292.671 204.672 292.467 204.81C290.974 205.834 289.178 206.385 287.335 206.385C285.491 206.385 283.695 205.834 282.202 204.81" fill="#455A64"/>
<path d="M279.062 220.23C275.038 221.297 271.412 221.03 269.177 218.813C268.73 218.371 268.72 217.755 268.341 217.295C268.04 217.092 267.713 216.925 267.369 216.798C267.196 216.728 267.041 216.624 266.912 216.494C264.832 214.01 264.696 210.505 266.377 206.669C268.739 201.305 273.706 198.168 277.487 199.64C277.991 199.832 278.476 200.066 278.936 200.339C279.451 200.666 279.916 201.059 280.316 201.508C281.2 202.587 281.899 203.792 282.386 205.077L282.454 205.252C285.438 206.549 287.042 208.242 287.742 210.597C288.86 214.36 284.972 218.666 279.062 220.23Z" fill="#FF4545"/>
<path d="M283.203 216.678C283.577 216.585 283.927 216.423 284.234 216.2C285.004 215.69 285.637 215.015 286.081 214.23C286.525 213.445 286.768 212.573 286.79 211.683C286.826 211.318 286.773 210.949 286.634 210.606C286.634 210.606 286.634 211.02 286.634 211.674C286.562 212.528 286.303 213.359 285.875 214.114C285.446 214.869 284.858 215.532 284.146 216.062C283.582 216.467 283.184 216.642 283.203 216.678Z" fill="#FAFAFA"/>
<path d="M280.794 217.847C280.794 217.902 281.095 217.847 281.396 217.663C281.698 217.479 281.921 217.332 281.892 217.276C281.863 217.221 281.581 217.276 281.28 217.451C280.978 217.626 280.755 217.782 280.794 217.847Z" fill="#FAFAFA"/>
<path d="M284.02 193.623C283.972 193.623 284.244 194.313 284.467 195.463C284.595 196.125 284.67 196.796 284.691 197.469C284.706 198.291 284.648 199.112 284.516 199.925C284.373 200.736 284.155 201.533 283.865 202.308C283.624 202.942 283.332 203.557 282.99 204.148C282.397 205.151 281.921 205.712 281.96 205.739C282.091 205.624 282.211 205.498 282.319 205.362C282.455 205.213 282.582 205.056 282.698 204.893C282.859 204.68 283.008 204.459 283.145 204.231C283.523 203.644 283.848 203.029 284.117 202.391C284.743 200.82 285.028 199.146 284.953 197.469C284.927 196.787 284.833 196.109 284.671 195.445C284.613 195.159 284.526 194.902 284.458 194.681C284.407 194.49 284.342 194.302 284.263 194.12C284.201 193.947 284.12 193.78 284.02 193.623Z" fill="#263238"/>
<path d="M263.803 209.291L232.329 195.206C232.329 195.206 215.494 161.276 211.81 156.124C209.578 153.009 206.876 150.22 203.791 147.844L200.351 175.72C200.351 175.72 212.219 202.878 216.058 207.276C219.897 211.674 227.178 213.155 227.654 213.311C228.13 213.468 260.245 221.159 260.245 221.159L263.803 209.291Z" fill="#A2675F"/>
<path d="M261.858 213.44C261.858 213.523 262.481 213.44 263.375 213.67C263.886 213.823 264.359 214.074 264.765 214.406C265.253 214.839 265.651 215.353 265.941 215.924C266.423 217.034 266.995 218.107 267.652 219.135C268.225 219.926 268.837 220.183 268.857 220.137C268.876 220.091 268.41 219.733 267.953 218.951C267.496 218.169 267.068 216.991 266.388 215.703C266.071 215.079 265.621 214.525 265.066 214.075C264.604 213.71 264.052 213.46 263.462 213.348C262.934 213.188 262.362 213.22 261.858 213.44Z" fill="#7A4A45"/>
<path d="M278.917 217.12C279.434 216.953 279.995 216.953 280.511 217.12C281.25 217.405 284.079 221.481 284.234 221.812C284.39 222.143 284.429 223.946 283.029 224.13C282.15 224.212 281.272 223.961 280.589 223.431L278.917 222.658C278.917 222.658 279.073 225.418 278.451 226.035C278.18 226.346 277.801 226.554 277.381 226.622C276.962 226.689 276.53 226.612 276.167 226.403C275.583 225.961 273.416 224.415 273.416 224.415C273.416 224.415 273.221 227.102 272.055 227.396C271.593 227.52 271.106 227.531 270.638 227.428C270.171 227.325 269.739 227.111 269.382 226.807C269.003 224.856 268.937 222.862 269.188 220.892C269.499 220.275 271.277 220.202 271.861 221.186C272.309 222.152 272.635 223.165 272.833 224.204L274.572 222.732C274.572 222.732 273.999 218.067 274.65 217.368C275.301 216.669 276.818 216.273 277.459 217.368C277.933 218.402 278.26 219.491 278.431 220.607L278.976 220.423C278.976 220.423 277.488 218.325 278.917 217.12Z" fill="#A2675F"/>
<path d="M280.482 222.557C280.55 222.502 279.957 221.977 279.413 220.91C279.095 220.29 278.885 219.625 278.791 218.941C278.717 218.565 278.737 218.178 278.849 217.81C278.901 217.64 279.012 217.492 279.163 217.388C279.315 217.285 279.498 217.233 279.685 217.239C280.519 217.409 281.26 217.856 281.775 218.5C282.26 219.02 282.69 219.584 283.058 220.183C283.365 220.772 283.729 221.333 284.146 221.858C283.988 221.212 283.73 220.592 283.379 220.018C283.04 219.359 282.619 218.742 282.125 218.178C281.836 217.84 281.51 217.532 281.153 217.258C280.746 216.936 280.243 216.742 279.714 216.706C279.419 216.7 279.129 216.787 278.892 216.953C278.654 217.12 278.482 217.356 278.402 217.626C278.266 218.062 278.246 218.524 278.344 218.969C278.469 219.695 278.732 220.393 279.121 221.03C279.414 221.65 279.886 222.179 280.482 222.557Z" fill="#7A4A45"/>
<path d="M279.023 224.02C279.018 223.192 278.927 222.366 278.751 221.554C278.625 220.745 278.479 219.852 278.324 218.896C278.255 218.341 278.084 217.802 277.818 217.304C277.658 217.016 277.426 216.77 277.141 216.589C276.855 216.407 276.527 216.296 276.185 216.264C275.837 216.27 275.498 216.367 275.205 216.544C274.911 216.721 274.675 216.971 274.523 217.267C274.261 217.78 274.134 218.345 274.154 218.914C274.151 219.842 274.255 220.767 274.465 221.674C274.6 222.503 274.904 223.3 275.359 224.02C275.437 224.02 275.067 223.1 274.815 221.61C274.651 220.735 274.57 219.848 274.572 218.96C274.568 218.467 274.681 217.98 274.902 217.534C275.015 217.317 275.187 217.132 275.401 217C275.614 216.867 275.862 216.791 276.117 216.78C276.375 216.809 276.621 216.897 276.834 217.036C277.048 217.176 277.222 217.362 277.342 217.58C277.583 218.027 277.744 218.509 277.818 219.006C278.013 219.926 278.188 220.846 278.353 221.646C278.496 222.456 278.72 223.251 279.023 224.02Z" fill="#7A4A45"/>
<path d="M269.303 226.522C269.381 226.522 269.197 225.795 269.158 224.682C269.145 224.014 269.193 223.346 269.303 222.686C269.31 222.305 269.399 221.929 269.567 221.582C269.734 221.235 269.975 220.925 270.275 220.671C270.434 220.581 270.615 220.534 270.8 220.534C270.985 220.534 271.167 220.581 271.325 220.671C271.63 220.885 271.866 221.175 272.006 221.508C272.305 222.112 272.523 222.749 272.657 223.403C272.88 224.526 272.812 225.243 272.9 225.243C273.101 224.624 273.138 223.966 273.007 223.33C272.916 222.633 272.723 221.952 272.433 221.306C272.264 220.884 271.966 220.519 271.578 220.257C271.344 220.117 271.072 220.043 270.795 220.043C270.519 220.043 270.247 220.117 270.013 220.257C269.559 220.511 269.215 220.909 269.041 221.379C268.897 221.779 268.8 222.193 268.749 222.612C268.658 223.306 268.658 224.007 268.749 224.701C268.788 225.339 268.977 225.962 269.303 226.522Z" fill="#7A4A45"/>
<path d="M155.725 437.616H152.625L127.44 408.241L154.656 387.136L168.381 403.227L150.379 416.107C150.379 416.107 155.696 431.038 155.725 437.616Z" fill="#455A64"/>
<g opacity="0.6">
<path opacity="0.6" d="M143.284 405.002C142.92 404.769 142.477 404.671 142.042 404.727C141.606 404.783 141.207 404.989 140.922 405.306C140.666 405.643 140.555 406.059 140.611 406.471C140.667 406.882 140.886 407.258 141.223 407.523C141.61 407.771 142.08 407.873 142.542 407.81C143.004 407.747 143.424 407.523 143.721 407.183C143.954 406.806 144.023 406.359 143.915 405.935C143.806 405.511 143.527 405.144 143.138 404.91" fill="white"/>
</g>
<g opacity="0.6">
<path opacity="0.6" d="M152.402 437.524L127.548 408.149L130.279 406.005L155.26 437.524H152.402Z" fill="white"/>
</g>
<path d="M150.953 416.456C150.788 416.576 150.04 415.849 148.844 415.49C147.648 415.132 146.599 415.251 146.54 415.058C146.482 414.865 147.639 414.359 149.077 414.819C150.516 415.279 151.128 416.374 150.953 416.456Z" fill="#263238"/>
<path d="M152.373 420.955C152.246 421.121 151.401 420.651 150.225 420.661C149.048 420.67 148.193 421.084 148.067 420.918C147.94 420.753 148.786 419.934 150.225 419.998C151.663 420.063 152.528 420.835 152.373 420.955Z" fill="#263238"/>
<path d="M149.758 426.153C149.593 426.033 150.234 425.178 151.488 424.884C152.742 424.589 153.734 425.049 153.656 425.215C153.578 425.38 152.684 425.307 151.712 425.564C150.74 425.822 149.904 426.291 149.758 426.153Z" fill="#263238"/>
<path d="M154.716 413.08C154.511 413.126 154.123 412.233 153.296 411.396C152.47 410.559 151.586 410.09 151.654 409.906C151.722 409.722 152.888 409.906 153.841 410.918C154.793 411.93 154.91 413.08 154.716 413.08Z" fill="#263238"/>
<path d="M158.088 409.234C158.02 409.289 157.388 408.747 156.717 407.624C156.331 406.958 156.031 406.251 155.823 405.517C155.7 405.082 155.606 404.639 155.541 404.193C155.501 403.93 155.501 403.664 155.541 403.401C155.576 403.21 155.674 403.034 155.82 402.899C155.967 402.763 156.155 402.675 156.358 402.647C156.541 402.639 156.724 402.67 156.892 402.739C157.06 402.807 157.21 402.911 157.33 403.043C157.503 403.248 157.646 403.474 157.757 403.714C157.964 404.128 158.13 404.56 158.253 405.002C158.459 405.743 158.541 406.51 158.496 407.275C158.53 407.983 158.329 408.684 157.923 409.28C157.816 409.28 158.02 408.489 157.923 407.265C157.892 406.557 157.765 405.855 157.544 405.177C157.414 404.779 157.251 404.392 157.058 404.018C156.853 403.604 156.61 403.319 156.377 403.355C156.29 403.355 156.261 403.355 156.212 403.53C156.184 403.726 156.184 403.924 156.212 404.119C156.261 404.536 156.332 404.951 156.426 405.361C156.593 406.062 156.831 406.746 157.135 407.403C157.502 407.99 157.821 408.602 158.088 409.234Z" fill="#263238"/>
<path d="M157.679 409.216C157.602 409.216 157.932 408.415 158.953 407.532C159.558 407.02 160.252 406.609 161.004 406.318C161.453 406.147 161.918 406.017 162.394 405.931C162.693 405.847 163.01 405.837 163.314 405.901C163.619 405.965 163.901 406.103 164.134 406.299C164.251 406.447 164.323 406.622 164.34 406.806C164.357 406.99 164.319 407.175 164.231 407.339C164.102 407.575 163.939 407.792 163.745 407.983C163.301 408.448 162.764 408.824 162.165 409.089C161.566 409.355 160.916 409.504 160.255 409.529C158.836 409.575 158.078 409.069 158.127 409.013C158.819 409.049 159.514 409.049 160.207 409.013C160.934 408.917 161.63 408.672 162.248 408.296C162.612 408.08 162.94 407.813 163.22 407.505C163.541 407.183 163.725 406.833 163.57 406.732C163.418 406.637 163.246 406.575 163.066 406.551C162.886 406.527 162.703 406.542 162.53 406.594C162.1 406.663 161.677 406.768 161.266 406.907C160.572 407.15 159.918 407.485 159.322 407.9C158.253 408.636 157.777 409.28 157.679 409.216Z" fill="#263238"/>
<path d="M142.303 404.367L142.633 437.644L186.373 437.469C186.101 433.513 163.434 425.665 163.434 425.665L164.143 404.34L142.303 404.367Z" fill="#455A64"/>
<g opacity="0.6">
<path opacity="0.6" d="M149.903 423.927C149.483 424.049 149.125 424.314 148.899 424.67C148.673 425.027 148.595 425.45 148.679 425.859C148.789 426.262 149.06 426.609 149.436 426.827C149.811 427.045 150.261 427.117 150.691 427.027C151.135 426.897 151.513 426.615 151.75 426.236C151.987 425.856 152.067 425.407 151.974 424.976C151.81 424.568 151.485 424.237 151.068 424.052C150.651 423.866 150.174 423.841 149.738 423.982" fill="white"/>
</g>
<g opacity="0.6">
<path opacity="0.6" d="M142.623 437.515L142.574 434.148L184.643 435.5C184.643 435.5 186.587 436.31 186.363 437.607L142.623 437.515Z" fill="white"/>
</g>
<path d="M164.143 425.454C164.143 425.656 163.064 425.748 162.024 426.374C160.984 427 160.42 427.883 160.216 427.809C160.012 427.736 160.333 426.558 161.616 425.785C162.899 425.012 164.192 425.27 164.143 425.454Z" fill="#263238"/>
<path d="M168.74 427.229C168.789 427.423 167.866 427.772 167.146 428.628C166.427 429.483 166.174 430.394 165.999 430.385C165.824 430.376 165.649 429.235 166.563 428.186C167.477 427.137 168.731 427.036 168.74 427.229Z" fill="#263238"/>
<path d="M171.365 432.4C171.17 432.446 170.869 431.48 171.413 430.321C171.958 429.162 172.959 428.775 173.046 428.941C173.134 429.106 172.521 429.704 172.074 430.615C171.627 431.526 171.54 432.4 171.365 432.4Z" fill="#263238"/>
<path d="M163.763 420.578C163.676 420.762 162.694 420.486 161.489 420.578C160.284 420.67 159.341 421.019 159.224 420.854C159.107 420.688 160.021 419.934 161.44 419.879C162.859 419.824 163.841 420.44 163.763 420.578Z" fill="#263238"/>
<path d="M162.676 415.665C161.957 415.851 161.198 415.851 160.479 415.665C159.69 415.532 158.92 415.313 158.185 415.012C157.751 414.827 157.329 414.618 156.922 414.386C156.679 414.252 156.457 414.088 156.261 413.899C156.126 413.752 156.045 413.569 156.027 413.375C156.01 413.182 156.058 412.989 156.163 412.822C156.271 412.674 156.417 412.553 156.587 412.471C156.756 412.389 156.945 412.349 157.135 412.353C157.412 412.352 157.687 412.389 157.952 412.463C158.418 412.569 158.874 412.713 159.313 412.896C160.056 413.207 160.742 413.63 161.344 414.147C162.316 415.067 162.715 415.785 162.637 415.822C162.559 415.858 162.044 415.26 161.014 414.524C160.413 414.106 159.76 413.76 159.07 413.494C158.662 413.343 158.243 413.223 157.816 413.135C157.349 413.016 156.951 413.016 156.844 413.209C156.737 413.402 156.795 413.319 156.892 413.448C157.038 413.584 157.201 413.702 157.378 413.798C158.391 414.416 159.499 414.882 160.664 415.177C161.345 415.3 162.017 415.462 162.676 415.665Z" fill="#263238"/>
<path d="M162.395 415.959C161.987 415.381 161.786 414.694 161.821 414C161.781 413.233 161.876 412.465 162.103 411.727C162.244 411.291 162.43 410.869 162.657 410.467C162.771 410.192 162.96 409.949 163.204 409.763C163.447 409.578 163.738 409.456 164.047 409.409C164.252 409.403 164.453 409.456 164.626 409.559C164.799 409.662 164.936 409.812 165.019 409.989C165.133 410.228 165.209 410.482 165.243 410.743C165.32 411.206 165.32 411.678 165.243 412.141C165.113 412.922 164.779 413.659 164.271 414.285C163.415 415.361 162.531 415.61 162.511 415.536C162.492 415.463 163.182 415.049 163.833 414.009C164.209 413.414 164.442 412.748 164.514 412.059C164.571 411.662 164.571 411.259 164.514 410.863C164.436 410.421 164.261 410.071 164.086 410.117C163.911 410.163 163.503 410.449 163.328 410.798C163.114 411.158 162.932 411.533 162.783 411.921C162.55 412.59 162.412 413.286 162.375 413.991C162.278 415.168 162.511 415.932 162.395 415.959Z" fill="#263238"/>
<path d="M146.055 211.6C146.055 211.6 139.572 216.2 136.559 222.161C133.545 228.123 127.665 242.944 127.665 242.944C127.665 242.944 123.514 261.767 124.797 270.903C126.08 280.039 134.702 342.47 134.702 342.47C134.702 342.47 134.274 403.19 140.388 413.991L141.749 419.833L166.399 415.693L166.253 412.187L172.085 293.167L186.918 212.143L146.055 211.6Z" fill="#263238"/>
<path d="M200.467 229.319C200.467 229.319 215.212 306.148 216.505 319.479C217.797 332.81 167.652 403.126 167.652 403.126L144.703 380.503L177.634 322.543L166.942 264.15L181.833 212.548L197.473 213.072L200.467 229.319Z" fill="#263238"/>
<path d="M136.547 395.112C136.572 395.682 136.631 396.25 136.722 396.814C136.878 397.928 137.16 399.574 137.568 401.681C138.394 405.904 139.726 412.031 141.504 419.695V419.851H141.679L166.349 415.757H166.533V415.573C167.214 399.556 168.03 380.411 168.915 359.886C169.828 337.806 170.664 317.308 171.364 300.5C173.221 287.003 174.747 275.834 175.816 268.024C176.331 264.141 176.739 261.096 177.012 258.998C177.148 257.968 177.245 257.158 177.313 256.625C177.381 256.091 177.391 255.806 177.391 255.806C177.391 255.806 177.332 256.082 177.245 256.616C177.157 257.149 177.041 257.959 176.875 258.98C176.574 261.078 176.127 264.114 175.554 267.987C174.436 275.798 172.842 286.948 170.917 300.444C170.198 317.253 169.323 337.732 168.38 359.821C167.525 380.356 166.738 399.501 166.077 415.527L166.271 415.316L141.66 419.52L141.874 419.649C140.037 412.004 138.656 405.849 137.772 401.672C137.335 399.565 137.014 397.937 136.8 396.824C136.703 396.272 136.644 395.848 136.605 395.572C136.595 395.418 136.576 395.265 136.547 395.112Z" fill="#455A64"/>
<path d="M115.164 209.521C115.346 211.778 116.082 213.964 117.312 215.906C120.831 221.619 124.729 223.431 126.391 225.814C126.663 226.219 126.605 226.486 126.994 226.338C127.382 226.191 127.081 225.759 126.994 225.483C126.546 223.818 127.47 217.396 126.371 213.155C125.858 210.738 124.704 208.484 123.018 206.604C121.657 205.215 118.732 203.062 116.817 203.771C114.902 204.479 115.164 208.739 115.164 209.521Z" fill="#455A64"/>
<g opacity="0.3">
<path opacity="0.3" d="M115.164 209.521C115.346 211.778 116.082 213.964 117.312 215.906C120.831 221.619 124.729 223.431 126.391 225.814C126.663 226.219 126.605 226.486 126.994 226.338C127.382 226.191 127.081 225.759 126.994 225.483C126.546 223.818 127.47 217.396 126.371 213.155C125.858 210.738 124.704 208.484 123.018 206.604C121.657 205.215 118.732 203.062 116.817 203.771C114.902 204.479 115.164 208.739 115.164 209.521Z" fill="black"/>
</g>
<path d="M109.769 228.16C111.316 228.974 112.984 229.564 114.716 229.908C117.415 230.451 120.057 231.224 122.609 232.217C123.202 232.493 119.207 225.464 116.68 222.272C114.94 220.082 111.411 217.065 107.484 217.147C105.657 217.147 104.092 217.451 103.247 218.399C102.197 219.53 103.402 224.655 109.769 228.16Z" fill="#455A64"/>
<g opacity="0.3">
<path opacity="0.3" d="M109.769 228.16C111.316 228.974 112.984 229.564 114.716 229.908C117.415 230.451 120.057 231.224 122.609 232.217C123.202 232.493 119.207 225.464 116.68 222.272C114.94 220.082 111.411 217.065 107.484 217.147C105.657 217.147 104.092 217.451 103.247 218.399C102.197 219.53 103.402 224.655 109.769 228.16Z" fill="black"/>
</g>
<path d="M108.468 235.52C110.93 236.786 113.737 237.321 116.525 237.056C121.123 236.56 123.077 237.627 123.077 237.627C123.271 237.351 122.921 236.55 123.193 236.707C121.831 235.663 120.63 234.442 119.626 233.082C118.12 230.929 116.438 228.022 110.392 226.522C109.42 226.283 104.055 225.878 103.297 228.362C102.538 230.846 106.028 234.039 108.468 235.52Z" fill="#455A64"/>
<path d="M132.932 209.493C134.262 212.837 134.402 216.5 133.331 219.926C132.472 222.218 131.442 224.45 130.249 226.605C130.181 227.203 127.139 223.183 124.923 216.917C123.934 214.361 123.811 211.576 124.573 208.95C124.884 207.947 126.138 204.589 128.461 204.599C130.784 204.608 132.572 208.637 132.932 209.493Z" fill="#455A64"/>
<path d="M142.38 223.063C142.04 225.404 140.986 227.6 139.348 229.384C138.039 230.837 136.605 232.185 135.061 233.413C134.721 233.413 134.391 233.744 134.4 233.413C133.397 231.197 132.9 228.805 132.942 226.394C132.972 224.05 133.439 221.729 134.323 219.54C136.053 216.007 138.784 214.774 140.213 215.409C142.264 216.356 142.73 220.266 142.38 223.063Z" fill="#455A64"/>
<path d="M114.397 211.545C116.559 212.654 118.414 214.23 119.811 216.145C123.699 221.757 123.262 226.053 124.613 228.648C124.924 229.246 124.943 230.929 124.292 229.926C122.484 227.166 119.179 226.357 117.488 225.768C114.553 224.78 112.061 222.875 110.422 220.367C107.088 215.381 107.681 211.913 108.672 211.075C109.984 209.99 113.104 210.855 114.397 211.545Z" fill="#455A64"/>
<path d="M121.452 235.824C124.105 237.056 126.538 238.674 128.664 240.617C126.26 236.444 123.049 232.737 119.197 229.687C113.579 225.152 106.901 220.864 106.901 220.864C111.655 223.333 116.135 226.245 120.276 229.558C122.653 231.451 124.908 233.475 127.031 235.621C126.798 235.06 126.526 234.462 126.234 233.781C121.734 223.661 111.985 213.863 111.985 213.863C111.985 213.863 122.385 223.661 126.225 231.518C127.012 233.128 128.237 235.796 129.549 238.473C129.607 237.36 129.549 233.597 127.274 227.912C124.737 221.646 118.313 206.586 118.264 206.466C118.215 206.347 125.185 220.726 128.314 228.353C129.228 230.598 130.336 233.358 131.23 235.833C130.783 233.33 130.258 229.954 129.559 225.538C128.807 219.74 128.628 213.888 129.024 208.058C129.124 213.622 129.529 219.177 130.239 224.701C130.916 229.102 131.91 233.455 133.213 237.728C133.485 236.265 133.942 234.398 134.516 232.015C135.728 227.32 137.411 222.745 139.541 218.353C137.846 222.634 136.475 227.025 135.439 231.49C133.903 238.685 133.981 240.019 134.691 242.595C135.711 246.275 131.24 247.627 129.51 244.324C128.246 241.932 126.293 238.961 120.451 236.155C113.9 232.999 106.386 230.322 106.386 230.322C111.581 231.7 116.626 233.542 121.452 235.824Z" fill="#455A64"/>
<path opacity="0.1" d="M121.452 235.824C124.105 237.056 126.538 238.674 128.664 240.617C126.26 236.444 123.049 232.737 119.197 229.687C113.579 225.152 106.901 220.864 106.901 220.864C111.655 223.333 116.135 226.245 120.276 229.558C122.653 231.451 124.908 233.475 127.031 235.621C126.798 235.06 126.526 234.462 126.234 233.781C121.734 223.661 111.985 213.863 111.985 213.863C111.985 213.863 122.385 223.661 126.225 231.518C127.012 233.128 128.237 235.796 129.549 238.473C129.607 237.36 129.549 233.597 127.274 227.912C124.737 221.646 118.313 206.586 118.264 206.466C118.215 206.347 125.185 220.726 128.314 228.353C129.228 230.598 130.336 233.358 131.23 235.833C130.783 233.33 130.258 229.954 129.559 225.538C128.807 219.74 128.628 213.888 129.024 208.058C129.124 213.622 129.529 219.177 130.239 224.701C130.916 229.102 131.91 233.455 133.213 237.728C133.485 236.265 133.942 234.398 134.516 232.015C135.728 227.32 137.411 222.745 139.541 218.353C137.846 222.634 136.475 227.025 135.439 231.49C133.903 238.685 133.981 240.019 134.691 242.595C135.711 246.275 131.24 247.627 129.51 244.324C128.246 241.932 126.293 238.961 120.451 236.155C113.9 232.999 106.386 230.322 106.386 230.322C111.581 231.7 116.626 233.542 121.452 235.824Z" fill="black"/>
<path d="M187.696 65.8167C188.318 65.4683 188.847 64.9895 189.243 64.4171C189.638 63.8446 189.89 63.1939 189.978 62.5149C190.067 61.836 189.989 61.1469 189.752 60.5008C189.514 59.8547 189.124 59.2687 188.609 58.7879C187.812 58.0427 186.743 57.5827 186.004 56.7823C185.448 56.0757 184.963 55.3211 184.556 54.5283C183.747 53.334 182.652 52.3363 181.36 51.6156C180.069 50.8949 178.617 50.4714 177.12 50.3791C174.107 50.2386 171.143 51.1485 168.79 52.9367C167.932 53.7194 166.926 54.3434 165.826 54.7767C164.692 54.955 163.537 54.9859 162.395 54.8687C161.016 54.8725 159.664 55.2231 158.476 55.8844C157.287 56.5457 156.306 57.4941 155.633 58.6324C154.959 59.7707 154.617 61.058 154.643 62.3624C154.668 63.6669 155.058 64.9416 155.775 66.0559C154.293 66.5875 153.056 67.5976 152.284 68.9081C151.511 70.2187 151.253 71.7453 151.554 73.2187C151.855 74.692 152.696 76.0173 153.929 76.9607C155.162 77.9041 156.708 78.4049 158.293 78.3747C160.213 78.1856 162.073 77.635 163.765 76.7555C170.952 73.7021 178.486 71.4394 186.218 70.0119" fill="#263238"/>
<path d="M156.912 111.541C153.122 107.579 150.923 102.483 150.701 97.1427C150.497 91.8527 151.401 85.2471 154.861 81.0979C152.45 78.6231 153.452 75.8723 155.192 72.9283C156.931 69.9843 159.993 67.9695 163.181 66.4883C167.953 64.2716 173.16 63.0184 178.471 62.8083C182.787 62.6427 188.531 63.3327 189.114 66.2767C189.337 67.0754 189.315 67.9178 189.05 68.7049C188.785 69.4919 188.288 70.1911 187.617 70.7203C190.618 71.6715 193.357 73.2429 195.636 75.3203C201.021 80.2055 203.121 85.1551 202.44 90.6659C201.76 96.1767 200.496 100.464 196.968 103.951" fill="#FF4545"/>
<path d="M193.469 110.4C194.081 109.821 194.831 109.388 195.656 109.14H195.49C195.641 109.109 195.794 109.088 195.947 109.075C196.228 109.01 196.52 108.999 196.806 109.043C197.092 109.088 197.365 109.186 197.609 109.333C198.527 109.673 199.274 110.331 199.699 111.173C200.028 111.919 200.136 112.736 200.009 113.536C199.882 114.335 199.526 115.087 198.98 115.708C198.581 116.278 198.008 116.72 197.338 116.975C196.668 117.23 195.932 117.286 195.227 117.136C194.522 116.987 193.882 116.638 193.391 116.137C192.9 115.636 192.581 115.005 192.477 114.328C192.283 113.647 192.273 112.931 192.446 112.245C192.619 111.559 192.971 110.925 193.469 110.4Z" fill="#455A64"/>
<path d="M159.973 150.705L156.882 87.078C156.866 86.0519 157.257 85.0574 157.976 84.2897C158.695 83.522 159.692 83.0366 160.77 82.9288L183.894 77.5652C191.291 76.8752 196.141 85.5232 196.53 92.552C196.996 100.354 197.23 109.894 196.209 115.708C194.158 127.402 184.672 128.828 184.672 128.828L183.991 138.34L183.875 153.3L159.973 150.705Z" fill="#A2675F"/>
<path d="M193.896 102.295C193.897 102.687 193.735 103.064 193.447 103.346C193.158 103.627 192.765 103.792 192.351 103.804C192.149 103.816 191.946 103.79 191.755 103.728C191.563 103.665 191.387 103.568 191.236 103.44C191.085 103.312 190.962 103.158 190.875 102.985C190.788 102.812 190.738 102.624 190.728 102.433C190.728 102.041 190.889 101.665 191.178 101.385C191.467 101.105 191.86 100.943 192.273 100.933C192.475 100.919 192.677 100.944 192.869 101.005C193.06 101.067 193.236 101.164 193.388 101.291C193.539 101.417 193.662 101.572 193.749 101.744C193.837 101.916 193.887 102.104 193.896 102.295Z" fill="#263238"/>
<path d="M194.354 97.5199C194.159 97.7131 192.964 96.8575 191.263 96.8575C189.562 96.8575 188.298 97.6487 188.113 97.4463C187.929 97.2439 188.23 97.0047 188.774 96.6367C189.514 96.1549 190.394 95.904 191.292 95.9191C192.181 95.9184 193.047 96.1895 193.761 96.6919C194.276 97.0599 194.461 97.4095 194.354 97.5199Z" fill="#263238"/>
<path d="M177.887 102.534C177.887 102.926 177.726 103.303 177.437 103.585C177.149 103.867 176.756 104.031 176.341 104.043C176.139 104.055 175.937 104.029 175.745 103.967C175.554 103.905 175.377 103.807 175.226 103.679C175.075 103.552 174.952 103.397 174.865 103.224C174.778 103.051 174.728 102.863 174.718 102.672C174.718 102.281 174.879 101.905 175.168 101.624C175.457 101.344 175.85 101.182 176.263 101.172C176.465 101.159 176.667 101.183 176.859 101.245C177.05 101.306 177.227 101.403 177.378 101.53C177.529 101.657 177.652 101.811 177.739 101.983C177.827 102.156 177.877 102.343 177.887 102.534Z" fill="#263238"/>
<path d="M177.586 97.6855C177.382 97.8787 176.186 97.0323 174.485 97.0231C172.784 97.0139 171.569 97.8143 171.336 97.6119C171.103 97.4095 171.452 97.1795 171.997 96.8023C172.739 96.3255 173.617 96.0751 174.514 96.0847C175.402 96.0929 176.265 96.3631 176.983 96.8575C177.508 97.2439 177.683 97.6027 177.586 97.6855Z" fill="#263238"/>
<path d="M183.68 109.701C184.584 109.442 185.518 109.291 186.46 109.25C186.898 109.25 187.306 109.13 187.384 108.854C187.416 108.431 187.315 108.008 187.092 107.64C186.694 106.646 186.266 105.598 185.829 104.494C184.069 100.013 182.806 96.324 183 96.2136C183.194 96.1032 184.769 99.728 186.519 104.218C186.946 105.322 187.345 106.37 187.734 107.382C187.999 107.883 188.075 108.455 187.947 109.002C187.881 109.145 187.783 109.273 187.658 109.376C187.534 109.48 187.387 109.556 187.228 109.6C186.984 109.663 186.733 109.694 186.48 109.692C185.551 109.806 184.61 109.809 183.68 109.701Z" fill="#263238"/>
<path d="M184.721 128.8C178.899 128.844 173.178 127.356 168.197 124.503C168.197 124.503 172.153 132.572 184.536 131.56L184.721 128.8Z" fill="#7A4A45"/>
<path d="M183.408 113.546C183.026 113.01 182.513 112.569 181.912 112.262C181.311 111.954 180.64 111.789 179.957 111.78C179.512 111.785 179.075 111.891 178.682 112.089C178.29 112.288 177.954 112.573 177.702 112.921C177.429 113.327 177.291 113.802 177.309 114.283C177.326 114.764 177.497 115.229 177.799 115.617C178.101 116.004 178.52 116.296 179.001 116.453C179.481 116.611 180.001 116.627 180.492 116.5C181.44 116.209 182.302 115.711 183.009 115.046C183.238 114.886 183.424 114.679 183.554 114.439C183.621 114.31 183.651 114.166 183.641 114.022C183.63 113.878 183.58 113.74 183.495 113.62" fill="#7A4A45"/>
<path d="M178.656 110.786C178.938 110.786 178.928 112.525 180.503 113.785C182.078 115.046 184.051 114.862 184.06 115.101C184.07 115.34 183.623 115.441 182.787 115.46C181.703 115.464 180.651 115.109 179.813 114.457C179.012 113.826 178.499 112.926 178.384 111.945C178.345 111.209 178.53 110.777 178.656 110.786Z" fill="#263238"/>
<path d="M178.344 93.3064C178.169 93.748 176.468 93.5272 174.456 93.748C172.444 93.9688 170.83 94.4656 170.568 94.07C170.451 93.8768 170.733 93.472 171.384 93.0488C172.264 92.5257 173.264 92.2102 174.3 92.1288C175.324 92.0226 176.359 92.1455 177.323 92.4876C178.013 92.7544 178.344 93.104 178.344 93.3064Z" fill="#263238"/>
<path d="M193.769 92.8188C193.458 93.1868 192.292 92.8188 190.853 92.7636C189.415 92.7084 188.248 92.9936 187.937 92.6072C187.811 92.4232 188.005 92.0552 188.53 91.6872C189.236 91.2743 190.056 91.0695 190.885 91.099C191.714 91.1285 192.515 91.3909 193.186 91.8528C193.74 92.2668 193.896 92.644 193.769 92.8188Z" fill="#263238"/>
<path d="M185.557 80.9599C185.557 80.9599 173.951 80.6379 164.989 92.9199C159.079 101.016 157.709 111.255 157.709 111.255L153.52 91.6779L156.96 82.7999L165.038 78.6139L180.288 77.9883L185.984 80.7483" fill="#FF4545"/>
<path d="M162.792 81.6406C181.337 77.6662 196.024 83.6554 198.532 97.4094L202.42 88.4302L192.972 77.3442L182.484 74.5842L161.256 77.3442L162.792 81.6406Z" fill="#FF4545"/>
<path d="M154.899 109.912C155.556 109.289 156.363 108.825 157.251 108.56H157.076C157.239 108.525 157.405 108.504 157.572 108.496C157.872 108.423 158.184 108.409 158.49 108.454C158.796 108.5 159.089 108.605 159.351 108.762C160.336 109.137 161.14 109.845 161.606 110.75C161.956 111.553 162.069 112.431 161.932 113.29C161.795 114.149 161.413 114.956 160.828 115.626C160.385 116.217 159.767 116.671 159.052 116.931C158.336 117.192 157.556 117.246 156.808 117.088C156.061 116.929 155.379 116.566 154.849 116.042C154.319 115.518 153.964 114.858 153.83 114.144C153.619 113.411 153.606 112.639 153.793 111.899C153.98 111.16 154.36 110.476 154.899 109.912Z" fill="#455A64"/>
<path d="M159.371 103.721C159.073 103.691 158.789 103.59 158.545 103.426C157.846 103.032 157.269 102.47 156.873 101.798C156.259 100.79 156.081 99.5966 156.377 98.4675C156.542 97.8511 156.795 97.2347 156.912 96.6275C156.994 96.3224 156.995 96.0027 156.913 95.6973C156.832 95.392 156.671 95.1108 156.445 94.8795C155.916 94.432 155.315 94.0657 154.666 93.7939C154.028 93.4807 153.46 93.0525 152.995 92.5335C152.231 91.6371 151.782 90.5369 151.711 89.3871C151.652 88.6233 151.786 87.8571 152.1 87.1515C152.197 86.8872 152.353 86.6457 152.557 86.4431C152.164 87.3681 151.995 88.3646 152.061 89.3595C152.183 90.4219 152.632 91.4268 153.354 92.2483C153.787 92.7171 154.312 93.1015 154.9 93.3799C155.611 93.6703 156.267 94.068 156.844 94.5575C157.12 94.8418 157.317 95.1862 157.419 95.5601C157.521 95.9341 157.524 96.326 157.427 96.7011C157.291 97.4095 157.019 98.0167 156.863 98.5963C156.568 99.6237 156.696 100.719 157.223 101.66C157.571 102.301 158.07 102.858 158.681 103.288C159.099 103.574 159.381 103.684 159.371 103.721Z" fill="white"/>
<path d="M156.494 79.8743C156.11 80.7496 155.909 81.6867 155.901 82.6343C155.924 83.6391 156.237 84.6188 156.805 85.4679C157.612 86.449 158.6 87.2843 159.721 87.9335C160.311 88.3445 160.805 88.8678 161.169 89.4699C161.479 90.0558 161.604 90.7138 161.529 91.3651C161.311 92.3707 161.155 93.3875 161.062 94.4103C161.048 95.0875 161.305 95.7447 161.781 96.2503C162.131 96.5815 162.442 96.6183 162.423 96.6735C162.404 96.7287 162.345 96.6735 162.209 96.6735C162.003 96.6231 161.811 96.5322 161.645 96.4067C161.354 96.161 161.119 95.8627 160.952 95.5292C160.785 95.1958 160.69 94.8341 160.673 94.4655C160.704 93.4249 160.821 92.3882 161.023 91.3651C161.079 90.7976 160.965 90.2268 160.693 89.7183C160.364 89.1729 159.921 88.697 159.39 88.3199C158.228 87.6376 157.215 86.7506 156.406 85.7071C155.813 84.7858 155.512 83.7221 155.541 82.6435C155.555 81.9276 155.727 81.2223 156.047 80.5735C156.133 80.3095 156.287 80.0695 156.494 79.8743Z" fill="white"/>
<path d="M169.373 88.3659C169.373 88.3659 169.227 88.5407 168.868 88.4671C168.659 88.415 168.474 88.2984 168.343 88.1359C168.163 87.9216 168.067 87.6551 168.071 87.3815C168.071 86.7927 168.401 86.1763 168.44 85.5415C168.479 84.9067 167.934 84.3823 167.215 84.0235C166.46 83.7088 165.794 83.2296 165.271 82.6251C164.86 82.1007 164.584 81.4927 164.464 80.8495C164.296 80.2722 164.359 79.6565 164.639 79.1199C164.632 79.6746 164.678 80.2289 164.775 80.7759C164.926 81.3511 165.208 81.8881 165.602 82.3491C166.114 82.8945 166.748 83.3251 167.458 83.6095C167.858 83.8033 168.215 84.0689 168.508 84.3915C168.797 84.7168 168.94 85.1361 168.907 85.5599C168.809 86.3511 168.44 86.8755 168.43 87.3999C168.407 87.5835 168.443 87.7696 168.533 87.9337C168.623 88.0978 168.763 88.2324 168.936 88.3199C169.188 88.4027 169.363 88.3199 169.373 88.3659Z" fill="white"/>
<path d="M173.036 78.8899C173.036 78.8899 173.163 78.8899 173.299 78.9819C173.382 79.0774 173.443 79.1877 173.48 79.3063C173.517 79.4248 173.528 79.5492 173.513 79.6719C173.438 79.9867 173.334 80.2946 173.202 80.5919C173.105 80.9168 173.105 81.2606 173.202 81.5855C173.382 82.2026 173.715 82.7702 174.174 83.2415C174.523 83.6371 174.747 83.8947 174.698 83.9499C174.65 84.0051 174.349 83.8303 173.921 83.4807C173.305 83.0111 172.865 82.3658 172.667 81.6407C172.564 81.2284 172.591 80.7966 172.745 80.3987C172.897 80.1331 173.033 79.8597 173.153 79.5799C173.205 79.3441 173.163 79.0987 173.036 78.8899Z" fill="white"/>
<path d="M191.611 72.7443C191.611 72.7443 191.611 72.9375 191.407 73.2135C191.203 73.4895 190.941 73.8759 190.668 74.3635C190.513 74.6443 190.417 74.9513 190.387 75.267C190.357 75.5828 190.393 75.901 190.494 76.2035C190.788 76.9965 190.975 77.8221 191.048 78.6599C191.045 79.5326 190.768 80.3848 190.251 81.1071C189.829 81.6903 189.257 82.1621 188.588 82.4779C188.007 82.8149 187.319 82.9484 186.644 82.8551C187.262 82.6861 187.861 82.4612 188.433 82.1835C189.015 81.8577 189.507 81.407 189.871 80.8679C190.312 80.2067 190.548 79.4417 190.552 78.6599C190.483 77.8556 190.313 77.0619 190.046 76.2955C189.95 75.9463 189.929 75.5823 189.984 75.2251C190.039 74.8679 190.169 74.5249 190.367 74.2163C190.635 73.8353 190.93 73.4726 191.252 73.1307C191.466 72.8639 191.582 72.7259 191.611 72.7443Z" fill="white"/>
<path d="M200.292 81.0427C200.37 81.1255 199.738 81.3831 199.495 82.2479C199.379 82.6895 199.145 83.2231 198.961 83.7843C198.796 84.4427 198.561 85.0838 198.261 85.6979C197.934 86.2609 197.461 86.7356 196.886 87.0769C196.311 87.4182 195.653 87.6149 194.975 87.6483C194.425 87.7281 193.863 87.61 193.401 87.3171C193.401 87.2343 194.013 87.4367 194.946 87.3171C195.542 87.2411 196.111 87.0354 196.608 86.7161C197.106 86.3968 197.519 85.9727 197.814 85.4771C198.097 84.881 198.335 84.2661 198.523 83.6371C198.747 83.0391 199 82.5699 199.165 82.1283C199.298 81.7558 199.553 81.4334 199.894 81.2083C200.127 81.0611 200.273 81.0243 200.292 81.0427Z" fill="white"/>
<path d="M201.798 92.7819C201.846 92.7819 201.798 93.0763 201.535 93.4443C201.168 93.9151 200.64 94.2499 200.04 94.391C199.44 94.5321 198.807 94.4706 198.25 94.2171C197.832 94.0147 197.657 93.7939 197.696 93.7479C198.416 93.9584 199.174 94.0211 199.922 93.9319C201.127 93.6467 201.671 92.7083 201.798 92.7819Z" fill="white"/>
<path d="M180.647 70.8398C180.696 70.9134 180.132 71.1894 179.607 71.9438C179.269 72.4271 179.059 72.9805 178.995 73.5571C178.93 74.1336 179.014 74.7163 179.238 75.2558C179.63 75.8632 179.86 76.5514 179.909 77.2614C179.861 77.8574 179.616 78.424 179.209 78.8806C178.538 79.635 177.955 79.9018 177.926 79.8558C177.897 79.8098 178.373 79.4234 178.898 78.6782C179.217 78.2619 179.399 77.766 179.423 77.2522C179.348 76.5991 179.119 75.9702 178.752 75.4122C178.454 74.7441 178.38 74.0057 178.538 73.2962C178.671 72.7348 178.937 72.2093 179.316 71.7598C179.977 70.987 180.647 70.8398 180.647 70.8398Z" fill="white"/>
<path d="M168.886 79.12C168.75 79.0648 169.149 78.0252 169.168 76.7004C169.187 75.3756 168.876 74.3268 169.013 74.2808C169.469 75.0188 169.699 75.8626 169.676 76.7174C169.654 77.5722 169.38 78.4042 168.886 79.12Z" fill="white"/>
<path d="M160.323 77.9054C160.323 77.9054 160.43 77.7858 160.537 77.5466C160.691 77.2204 160.729 76.8553 160.644 76.507C160.488 75.587 159.535 74.5566 158.7 73.241C158.313 72.6072 158.065 71.9064 157.971 71.1802C157.893 70.5724 158.001 69.9562 158.282 69.4046C158.464 69.0126 158.778 68.689 159.176 68.4846C159.467 68.365 159.642 68.4018 159.642 68.4294C159.642 68.457 159.497 68.503 159.273 68.6502C158.971 68.8698 158.741 69.1667 158.612 69.5058C158.42 70.0833 158.369 70.6943 158.461 71.2933C158.554 71.8923 158.788 72.4637 159.147 72.965C159.885 74.2162 160.857 75.3294 160.964 76.415C161.024 76.8324 160.917 77.2558 160.663 77.6018C160.517 77.887 160.323 77.933 160.323 77.9054Z" fill="white"/>
<path d="M172.162 72.7905C172.162 72.7905 172.24 72.6341 172.434 72.4317C172.716 72.1874 172.909 71.8656 172.988 71.5117C172.875 70.9948 172.593 70.5248 172.181 70.1685C171.734 69.6993 171.131 69.2485 170.529 68.7609C169.901 68.2959 169.451 67.6499 169.246 66.9209C169.213 66.2989 169.383 65.6824 169.732 65.1545C169.982 64.6623 170.336 64.224 170.772 63.8665C170.581 64.3656 170.34 64.8462 170.053 65.3017C169.787 65.7827 169.669 66.3245 169.712 66.8657C169.917 67.4929 170.325 68.0433 170.879 68.4389C172.016 69.3589 173.328 70.3433 173.338 71.5853C173.285 71.7929 173.189 71.9884 173.056 72.1606C172.922 72.3328 172.754 72.4781 172.56 72.5881C172.327 72.7353 172.181 72.8089 172.162 72.7905Z" fill="white"/>
<path d="M183.641 71.0147C183.966 70.7313 184.201 70.3683 184.321 69.9659C184.413 69.5295 184.362 69.0772 184.176 68.6687C183.926 68.1461 183.63 67.6444 183.291 67.1692C182.923 66.6554 182.668 66.0765 182.543 65.4672C182.479 64.939 182.609 64.406 182.912 63.9584C183.379 63.1764 184.049 63.0384 184.049 63.1212C183.703 63.3911 183.424 63.7305 183.233 64.1148C183.019 64.5084 182.937 64.9547 183 65.3936C183.143 65.9385 183.387 66.4554 183.719 66.9207C184.079 67.4211 184.379 67.9581 184.613 68.5215C184.81 69.0138 184.83 69.5536 184.671 70.0579C184.559 70.4002 184.33 70.6978 184.02 70.9043C183.797 71.0331 183.651 71.0423 183.641 71.0147Z" fill="white"/>
<path d="M187.617 70.7112C187.145 70.7502 186.67 70.7502 186.198 70.7112C185.294 70.7112 183.982 70.7112 182.368 70.794C178.164 71.0452 174.023 71.8886 170.082 73.2964C166.164 74.7773 162.413 76.6266 158.885 78.8164L155.658 80.7944C155.281 81.0636 154.877 81.2978 154.453 81.4936C154.788 81.1774 155.156 80.8938 155.551 80.6472C156.27 80.1228 157.339 79.396 158.69 78.5312C162.188 76.2453 165.948 74.341 169.898 72.8548C173.884 71.4251 178.089 70.6203 182.349 70.472C183.645 70.4253 184.943 70.4468 186.237 70.5364C186.702 70.5535 187.164 70.612 187.617 70.7112Z" fill="#263238"/>
<path d="M158.292 81.1163C158.292 81.1163 158.292 81.1163 158.409 81.1163L158.759 80.9875L159.323 80.7575L160.1 80.4907C161.762 79.9337 163.488 79.5662 165.242 79.3959C167.83 79.1361 170.442 79.1825 173.018 79.5339C174.486 79.7087 176.002 79.9939 177.577 80.3251C179.151 80.6563 180.755 81.0427 182.369 81.5395C188.91 83.3795 193.906 87.3999 196.132 91.0339C197.016 92.4683 197.671 94.0183 198.076 95.6339C198.232 96.2043 198.319 96.6551 198.377 96.9587L198.455 97.3083C198.455 97.3911 198.455 97.4279 198.455 97.4279C198.458 97.3881 198.458 97.3481 198.455 97.3083C198.455 97.2071 198.455 97.0967 198.455 96.9495C198.398 96.4975 198.314 96.0491 198.203 95.6063C197.834 93.9611 197.194 92.3809 196.307 90.9235C194.101 87.2435 189.056 83.1587 182.466 81.2543C180.833 80.7575 179.21 80.3343 177.606 80.0399C176.002 79.7455 174.495 79.4419 173.028 79.2579C170.417 78.9178 167.772 78.8931 165.155 79.1843C163.392 79.3755 161.661 79.7742 160.003 80.3711L159.225 80.6655L158.681 80.9139L158.341 81.0795L158.292 81.1163Z" fill="#263238"/>
<path d="M182.465 81.466C182.332 81.4518 182.199 81.4518 182.066 81.466C181.682 81.4896 181.299 81.5326 180.919 81.5948C179.522 81.8285 178.163 82.2337 176.876 82.8C172.668 84.7726 169.021 87.672 166.242 91.2548C164.725 93.2211 163.386 95.3045 162.238 97.4832C161.27 99.2458 160.407 101.058 159.652 102.911C159.144 104.16 158.732 105.442 158.418 106.748C158.311 107.208 158.243 107.576 158.213 107.824C158.192 107.949 158.192 108.076 158.213 108.201C158.255 108.081 158.287 107.958 158.311 107.833C158.311 107.585 158.447 107.226 158.563 106.775C158.915 105.505 159.354 104.257 159.876 103.04C160.652 101.206 161.531 99.4125 162.51 97.6672C163.654 95.5033 164.991 93.4351 166.505 91.4848C169.26 87.937 172.851 85.0454 176.992 83.0392C178.259 82.4613 179.593 82.0289 180.968 81.7512C181.454 81.6592 181.843 81.604 182.095 81.5764C182.221 81.548 182.345 81.5111 182.465 81.466Z" fill="#263238"/>
<path d="M139.571 162.435L142.021 206.844L137.229 216.2L200.351 219.034L201.002 211.131L201.925 194.12C208.992 181.369 203.451 164.726 203.451 164.726L208.477 144.21L184.458 135.24C184.458 135.24 182.68 143.75 173.3 143.032C161.218 142.112 158.72 133.06 158.72 133.06L138.677 139.288L139.571 162.435Z" fill="#EBEBEB"/>
<path d="M138.715 139.26C138.715 139.26 129.539 141.615 125.632 153.483C122.142 164.063 117.914 179.243 117.914 179.243L142.039 182.675L140.221 146.317L138.715 139.26Z" fill="#EBEBEB"/>
<path d="M208.475 144.21C208.475 144.21 211.586 145.636 217.476 158.498C221.316 166.879 225.709 177.321 225.709 177.321L204.169 188.49L199.825 173.77L208.475 144.21Z" fill="#EBEBEB"/>
<path d="M201.44 162.021C201.506 162.404 201.62 162.778 201.78 163.134C202.062 163.935 202.421 164.974 202.849 166.134C203.277 167.293 203.821 168.894 204.249 170.623C204.761 172.463 205.106 174.34 205.279 176.235C205.502 179.695 205.231 183.167 204.472 186.558C204.21 187.79 203.986 188.83 203.802 189.658C203.692 190.031 203.624 190.413 203.597 190.799C203.777 190.447 203.911 190.077 203.996 189.695C204.22 188.986 204.501 187.928 204.822 186.631C205.696 183.219 206.024 179.702 205.794 176.198C205.619 174.275 205.255 172.372 204.706 170.513C204.229 168.792 203.675 167.284 203.199 166.023C202.723 164.763 202.285 163.76 201.974 163.07C201.836 162.704 201.656 162.352 201.44 162.021Z" fill="#263238"/>
<path d="M139.823 161.386C139.772 161.903 139.772 162.424 139.823 162.941C139.872 164.017 139.94 165.453 140.027 167.173C140.221 170.752 140.523 175.683 140.882 181.139C141.242 186.594 141.611 191.525 141.854 195.095C142 196.815 142.127 198.241 142.214 199.318C142.242 199.837 142.31 200.354 142.418 200.863C142.462 200.343 142.462 199.82 142.418 199.299C142.36 198.223 142.292 196.797 142.214 195.067C142.02 191.489 141.718 186.557 141.349 181.102C140.98 175.646 140.63 170.724 140.377 167.155C140.221 165.434 140.105 164.008 140.008 162.932C139.983 162.413 139.922 161.897 139.823 161.386Z" fill="#263238"/>
<path d="M145.491 180.108C145.549 180.505 145.664 180.891 145.831 181.258C146.226 182.257 146.745 183.209 147.377 184.092C149.387 186.963 152.465 189.012 155.999 189.833C159.668 190.55 163.488 190.023 166.788 188.342C167.826 187.829 168.804 187.212 169.704 186.502C170.065 186.254 170.392 185.964 170.676 185.638C169.386 186.506 168.035 187.289 166.632 187.984C163.387 189.511 159.695 189.968 156.144 189.281C152.728 188.477 149.726 186.546 147.678 183.834C146.85 182.647 146.119 181.401 145.491 180.108Z" fill="#263238"/>
<g opacity="0.3">
<path opacity="0.3" d="M167.486 187.744C166.818 188.834 165.908 189.773 164.819 190.497C163.73 191.221 162.487 191.713 161.178 191.939C158.558 192.478 155.831 192.299 153.315 191.424C151.397 190.874 149.665 189.86 148.289 188.48C147.585 187.721 147.06 186.829 146.748 185.863C146.437 184.897 146.346 183.879 146.481 182.877C149.077 185.831 151.507 188.103 155.229 189.391C158.952 190.679 163.725 189.722 167.477 187.744" fill="black"/>
</g>
<path d="M130.171 147.402C131.189 148.96 132.347 150.431 133.632 151.8C134.803 153.278 136.104 154.659 137.52 155.931C136.49 154.36 135.319 152.877 134.02 151.496C132.862 150.031 131.574 148.662 130.171 147.402Z" fill="#263238"/>
<path d="M202.577 161.57C202.703 161.644 204.258 159.252 206.28 156.372C208.302 153.493 210.022 151.202 209.915 151.119C208.379 152.639 207.02 154.311 205.862 156.106C204.565 157.812 203.464 159.644 202.577 161.57Z" fill="#263238"/>
<path d="M155.104 134.32C155.104 134.32 155.104 134.458 155.259 134.697C155.415 134.936 155.541 135.295 155.813 135.727C156.561 136.965 157.444 138.124 158.447 139.187C159.938 140.772 161.663 142.145 163.57 143.262C165.899 144.645 168.475 145.614 171.171 146.123C173.876 146.74 176.711 146.603 179.336 145.728C181.423 144.874 183.202 143.465 184.458 141.671C185.312 140.498 186.045 139.25 186.645 137.945C186.849 137.485 187.005 137.117 187.102 136.868C187.199 136.62 187.248 136.491 187.228 136.482C186.937 136.924 186.681 137.385 186.46 137.862C185.802 139.125 185.035 140.334 184.166 141.477C182.911 143.176 181.177 144.505 179.161 145.314C176.617 146.135 173.88 146.253 171.268 145.654C166.45 144.708 162.061 142.367 158.71 138.957C157.358 137.521 156.151 135.968 155.104 134.32Z" fill="#263238"/>
<path d="M200.351 219.033L200.409 218.61C200.409 218.307 200.477 217.883 200.536 217.341C200.633 216.209 200.789 214.581 200.983 212.446C201.313 208.168 201.624 201.931 202.091 194.129V194.193C203.081 192.39 203.86 190.49 204.414 188.526L204.336 188.627L225.876 177.505L226.051 177.413L225.973 177.247L218.809 160.825C217.585 157.945 216.214 155.038 214.649 152.149C213.862 150.714 213.026 149.279 212.093 147.881C211.617 147.181 211.121 146.491 210.577 145.829C210.036 145.122 209.38 144.501 208.633 143.989L192.925 138.129L184.527 134.991L184.264 134.89L184.187 135.166C183.87 136.514 183.266 137.787 182.412 138.907C181.558 140.027 180.472 140.97 179.22 141.68C177.963 142.329 176.568 142.703 175.137 142.775C174.781 142.798 174.424 142.798 174.068 142.775C173.715 142.793 173.362 142.793 173.009 142.775C172.299 142.673 171.59 142.627 170.899 142.489C168.155 142.006 165.582 140.88 163.415 139.214C161.359 137.573 159.819 135.427 158.963 133.013L158.886 132.783L158.662 132.857L144.587 137.255L138.007 139.315C135.959 140.117 134.075 141.251 132.437 142.664C130.894 143.986 129.559 145.51 128.472 147.191C127.444 148.742 126.6 150.396 125.954 152.122C124.739 155.452 123.855 158.562 122.98 161.377C121.279 167.017 120.015 171.497 119.16 174.561L118.188 178.084L117.955 179.004C117.955 179.207 117.887 179.308 117.887 179.308L117.994 179.013L118.266 178.093C118.499 177.284 118.849 176.106 119.296 174.588C120.2 171.534 121.512 167.063 123.242 161.451C124.137 158.645 125.041 155.517 126.265 152.251C126.911 150.549 127.751 148.92 128.773 147.393C129.845 145.751 131.153 144.258 132.661 142.959C134.264 141.58 136.109 140.478 138.114 139.702L144.685 137.659L158.769 133.299L158.477 133.142C159.349 135.649 160.937 137.877 163.065 139.582C165.294 141.299 167.94 142.462 170.763 142.968C171.473 143.106 172.202 143.152 172.921 143.253C173.286 143.294 173.653 143.313 174.02 143.308C174.389 143.331 174.759 143.331 175.128 143.308C176.632 143.23 178.099 142.837 179.424 142.158C180.757 141.457 181.898 140.471 182.758 139.279C183.644 138.084 184.284 136.742 184.644 135.323L184.303 135.497L192.701 138.644L208.428 144.44C209.1 144.923 209.693 145.496 210.188 146.142C210.722 146.786 211.208 147.467 211.675 148.157C212.647 149.527 213.434 150.917 214.212 152.379C215.767 155.25 217.128 158.139 218.372 161.018L225.565 177.422L225.662 177.155L204.161 188.351H204.093V188.425C203.555 190.369 202.792 192.251 201.819 194.037C201.401 201.839 201.148 208.067 200.847 212.345C200.691 214.47 200.565 216.117 200.477 217.249C200.477 217.801 200.419 218.215 200.4 218.518C200.371 218.689 200.355 218.861 200.351 219.033Z" fill="#263238"/>
<path d="M178.82 199.585C179.17 199.585 189.454 198.343 190.639 197.634C191.553 197.092 194.595 191.967 195.985 189.354C196.187 188.909 196.241 188.417 196.14 187.942C196.039 187.467 195.789 187.033 195.422 186.696C193.633 185.509 190.931 183.936 189.658 184.248C187.927 184.861 186.268 185.644 184.71 186.585C184.71 186.585 185.303 189.235 187.753 188.48C190.202 187.726 191.281 188.664 191.281 188.664L188.248 192.694H172.871L178.82 199.585Z" fill="#A2675F"/>
<path d="M195.111 190.799C195.111 190.799 192.195 199.622 191.087 199.879C188.91 200.385 176.4 200.799 176.4 200.799L174.991 197.57L188.891 195.96L195.111 190.799Z" fill="#A2675F"/>
<path d="M122.63 179.934C122.63 179.934 124.758 204.028 125.653 207.819C128.52 219.935 133.429 219.006 139.572 218.5C142.595 218.242 178.957 199.962 178.957 199.962L173.718 191.995L142.303 198.849L141.137 182.565L122.63 179.934Z" fill="#A2675F"/>
<path d="M191.951 184.653C192.455 185.074 192.998 185.45 193.575 185.775C194.09 186.107 194.722 186.502 195.402 186.981C196.082 187.459 196.17 188.315 195.917 189.179L194.401 191.599L192.457 194.81C191.844 195.785 191.358 196.723 190.843 197.395C190.657 197.665 190.416 197.897 190.134 198.077C189.852 198.257 189.535 198.382 189.201 198.444C188.945 198.461 188.688 198.461 188.433 198.444C188.433 198.444 188.666 198.646 189.22 198.637C189.604 198.607 189.977 198.498 190.312 198.319C190.648 198.139 190.938 197.893 191.164 197.597C191.791 196.773 192.368 195.916 192.894 195.031C193.526 194.037 194.197 192.97 194.897 191.847L196.393 189.409C196.546 188.926 196.579 188.416 196.491 187.919C196.441 187.673 196.342 187.439 196.199 187.229C196.051 187.044 195.87 186.886 195.664 186.76C194.945 186.3 194.294 185.932 193.72 185.628C193.172 185.24 192.579 184.913 191.951 184.653Z" fill="#7A4A45"/>
<path d="M171.229 192.703C171.628 192.464 173.397 188.857 177.722 188.287C182.048 187.717 186.111 188.287 186.927 187.717C187.744 187.146 192.808 184.957 193.527 187.165C194.246 189.373 191.583 190.421 190.446 190.946C187.167 192.196 183.811 193.256 180.395 194.12L171.229 192.703Z" fill="#A2675F"/>
<path d="M183.427 193.494C183.916 193.398 184.394 193.259 184.856 193.08L188.686 191.765C189.492 191.47 190.367 191.213 191.32 190.845C192.385 190.442 193.25 189.673 193.74 188.692C193.949 188.111 193.918 187.476 193.653 186.916C193.486 186.626 193.236 186.386 192.932 186.223C192.627 186.06 192.281 185.982 191.932 185.996C190.615 186.035 189.321 186.333 188.132 186.87C187.821 186.999 187.529 187.128 187.228 187.284C187.085 187.358 186.939 187.441 186.79 187.533C186.683 187.595 186.564 187.639 186.44 187.662C185.836 187.752 185.225 187.795 184.613 187.79C183.388 187.79 182.183 187.79 181.046 187.836C179.909 187.882 178.82 187.965 177.809 188.103C176.857 188.228 175.935 188.512 175.087 188.94C173.88 189.582 172.841 190.472 172.045 191.544C171.763 191.912 171.569 192.216 171.433 192.418C171.359 192.516 171.291 192.617 171.229 192.722C171.277 192.722 171.617 192.354 172.201 191.654C173.023 190.656 174.06 189.835 175.243 189.244C176.73 188.462 178.8 188.324 181.075 188.278C182.202 188.278 183.388 188.278 184.632 188.278C185.283 188.285 185.933 188.242 186.576 188.149C186.77 188.109 186.954 188.037 187.121 187.938L187.5 187.717L188.365 187.321C189.485 186.816 190.702 186.531 191.942 186.484C192.2 186.461 192.46 186.509 192.691 186.621C192.922 186.734 193.114 186.906 193.244 187.119C193.457 187.571 193.488 188.081 193.332 188.554C192.884 189.427 192.112 190.115 191.164 190.486C190.28 190.882 189.366 191.176 188.579 191.489L184.817 192.942C184.338 193.088 183.873 193.272 183.427 193.494Z" fill="#7A4A45"/>
<path d="M146.89 227.038C142.924 237.084 145.859 246.275 154.005 250.958C163.18 256.202 170.412 256.56 177.673 251.206C185.857 245.134 146.89 227.038 146.89 227.038Z" fill="#455A64"/>
<g opacity="0.3">
<path opacity="0.3" d="M146.89 227.038C142.924 237.084 145.859 246.275 154.005 250.958C163.18 256.202 170.412 256.56 177.673 251.206C185.857 245.134 146.89 227.038 146.89 227.038Z" fill="black"/>
</g>
<path d="M170.461 255.061C169.168 255.282 167.263 254.26 166.087 253.727C164.911 253.193 163.939 251.942 162.665 251.418C160.673 250.59 157.805 251.353 156.707 249.44C155.968 248.106 156.707 246.302 156.24 244.84C155.511 242.77 153.752 243.303 153.218 241.16C152.586 238.611 155.317 237.204 155.035 234.572C154.87 233.064 153.713 231.426 155.132 229.411C155.735 228.556 157.737 227.921 158.525 227.249C159.545 226.384 159.497 225.409 160.303 224.37C161.392 222.99 162.354 222.447 165.679 223.045C167.623 223.394 168.245 223.551 169.673 222.042C171.462 220.156 172.531 220.478 173.406 220.984C174.524 221.646 174.796 222.226 175.914 222.778C177.615 223.606 179.16 222.18 180.647 223.532C182.135 224.885 181.619 226.541 182.65 228.28C183.233 229.246 184.36 229.696 185.06 230.589C185.979 231.756 186.525 233.148 186.635 234.6C186.869 237.256 186.422 239.926 185.332 242.383C182.582 249.173 176.886 253.966 170.461 255.061Z" fill="#455A64"/>
<g opacity="0.3">
<path opacity="0.3" d="M170.461 255.061C169.168 255.282 167.263 254.26 166.087 253.727C164.911 253.193 163.939 251.942 162.665 251.418C160.673 250.59 157.805 251.353 156.707 249.44C155.968 248.106 156.707 246.302 156.24 244.84C155.511 242.77 153.752 243.303 153.218 241.16C152.586 238.611 155.317 237.204 155.035 234.572C154.87 233.064 153.713 231.426 155.132 229.411C155.735 228.556 157.737 227.921 158.525 227.249C159.545 226.384 159.497 225.409 160.303 224.37C161.392 222.99 162.354 222.447 165.679 223.045C167.623 223.394 168.245 223.551 169.673 222.042C171.462 220.156 172.531 220.478 173.406 220.984C174.524 221.646 174.796 222.226 175.914 222.778C177.615 223.606 179.16 222.18 180.647 223.532C182.135 224.885 181.619 226.541 182.65 228.28C183.233 229.246 184.36 229.696 185.06 230.589C185.979 231.756 186.525 233.148 186.635 234.6C186.869 237.256 186.422 239.926 185.332 242.383C182.582 249.173 176.886 253.966 170.461 255.061Z" fill="black"/>
</g>
<path d="M157.446 216.338C158.668 215.62 160.081 215.247 161.519 215.262C163.035 215.372 164.435 216.182 165.942 216.274C168.323 216.375 171.025 214.682 172.852 216.117C174.136 217.12 174.029 219.07 175.108 220.257C176.653 221.95 178.267 220.864 179.637 222.686C181.27 224.866 178.986 227.102 180.298 229.476C181.037 230.828 182.874 231.969 182.174 234.342C181.873 235.336 180.055 236.606 179.491 237.507C178.772 238.657 179.209 239.531 178.762 240.801C178.169 242.466 177.382 243.294 173.718 243.855C171.55 244.177 170.87 244.242 169.975 246.137C168.848 248.51 167.623 248.566 166.515 248.382C165.115 248.142 164.571 247.692 163.23 247.554C161.159 247.342 160.11 249.2 158.049 248.474C155.823 247.646 155.901 245.98 154.161 244.702C153.189 243.993 151.848 243.956 150.778 243.349C149.413 242.592 148.311 241.472 147.61 240.129C146.234 237.488 145.582 234.561 145.714 231.619C146.035 225.805 151.235 219.53 157.446 216.338Z" fill="#455A64"/>
<path d="M173.426 230.92C173.126 230.706 172.799 230.527 172.454 230.386C172.049 230.185 171.63 230.01 171.2 229.862C170.643 229.645 170.076 229.454 169.499 229.292C167.998 228.846 166.455 228.538 164.892 228.372C162.972 228.187 161.038 228.187 159.118 228.372C157.198 228.573 155.306 228.962 153.471 229.531C151.975 229.998 150.53 230.599 149.155 231.325C148.627 231.607 148.114 231.914 147.619 232.245C147.231 232.471 146.861 232.723 146.511 232.999C146.189 233.207 145.892 233.447 145.627 233.717C145.695 233.8 146.978 232.797 149.33 231.647C150.706 230.972 152.14 230.408 153.616 229.963C155.428 229.44 157.285 229.073 159.167 228.868C161.055 228.703 162.955 228.703 164.843 228.868C166.384 229.018 167.908 229.289 169.402 229.678C171.909 230.322 173.387 231.049 173.426 230.92Z" fill="#263238"/>
<path d="M171.666 221.922C171.077 221.891 170.488 221.976 169.936 222.171C167.196 222.932 164.836 224.601 163.287 226.872C162.938 227.317 162.687 227.824 162.549 228.362C163.642 226.859 164.951 225.506 166.437 224.342C168.048 223.302 169.809 222.487 171.666 221.922Z" fill="#263238"/>
<path d="M167.904 240.12C167.143 239.73 166.35 239.398 165.533 239.126C163.6 238.439 161.793 237.471 160.177 236.256C158.637 234.969 157.594 233.234 157.212 231.325C157.102 230.523 157.06 229.713 157.086 228.905C156.972 229.104 156.902 229.323 156.882 229.549C156.784 230.159 156.784 230.779 156.882 231.389C157.175 233.421 158.235 235.283 159.866 236.633C161.52 237.886 163.401 238.846 165.416 239.467C166.218 239.77 167.052 239.989 167.904 240.12Z" fill="#263238"/>
<path d="M156.736 241.905C156.736 241.822 156.007 241.61 154.967 240.985C153.632 240.095 152.479 238.982 151.565 237.7C150.622 236.436 149.882 235.048 149.369 233.579C148.98 232.447 148.902 231.739 148.824 231.739C148.737 232.398 148.807 233.068 149.028 233.698C149.457 235.242 150.175 236.7 151.147 238.004C152.095 239.336 153.335 240.46 154.783 241.298C155.368 241.655 156.041 241.864 156.736 241.905Z" fill="#263238"/>
<path d="M156.844 221.784C156.263 221.918 155.717 222.162 155.24 222.502C154.022 223.248 152.974 224.218 152.159 225.354C151.344 226.496 150.803 227.793 150.574 229.154C150.444 229.708 150.444 230.283 150.574 230.837C150.74 230.306 150.866 229.765 150.953 229.218C151.278 227.937 151.838 226.72 152.606 225.621C154.414 223.036 156.96 221.922 156.844 221.784Z" fill="#263238"/>
<g opacity="0.3">
<path opacity="0.3" d="M161.889 227.084C156.833 227.231 151.977 228.988 148.106 232.07C152.198 229.807 158.458 228.151 162.919 228.445C167.626 228.906 172.223 230.09 176.527 231.95C172.401 228.754 167.22 227.032 161.889 227.084Z" fill="black"/>
</g>
<path d="M162.725 216.724C162.725 216.724 162.53 216.43 161.947 216.228C161.106 215.988 160.202 216.044 159.4 216.384C156.848 217.439 154.537 218.955 152.596 220.846C150.638 222.729 149.063 224.937 147.95 227.36C147.622 228.093 147.346 228.846 147.124 229.614C147.019 229.892 146.96 230.183 146.949 230.478C147.027 230.478 147.386 229.301 148.281 227.498C149.463 225.163 151.042 223.027 152.956 221.177C154.871 219.331 157.111 217.815 159.575 216.697C160.304 216.356 161.132 216.255 161.928 216.412C162.2 216.5 162.466 216.605 162.725 216.724Z" fill="white"/>
<path d="M172.211 217.552C172.27 217.552 172.143 217.175 171.648 216.826C170.99 216.411 170.191 216.25 169.412 216.375C168.667 216.505 167.957 216.774 167.322 217.166C166.846 217.46 166.584 217.681 166.613 217.736C166.642 217.792 166.982 217.681 167.488 217.47C168.124 217.184 168.797 216.976 169.49 216.853C170.151 216.751 170.83 216.844 171.434 217.12C171.93 217.341 172.153 217.598 172.211 217.552Z" fill="white"/>
<path d="M178.694 224.48C178.752 224.48 178.538 224.047 177.984 223.56C177.261 222.934 176.364 222.515 175.399 222.352C174.433 222.189 173.439 222.289 172.531 222.64C171.841 222.916 171.559 223.219 171.559 223.265C172.765 222.85 174.053 222.692 175.331 222.805C176.573 223.111 177.724 223.684 178.694 224.48Z" fill="white"/>
<path d="M180.706 234.398C180.765 234.398 180.862 234.103 180.833 233.606C180.781 232.952 180.561 232.321 180.191 231.766C179.83 231.211 179.329 230.749 178.733 230.423C178.266 230.184 177.946 230.138 177.917 230.193C177.887 230.248 178.995 230.828 179.763 232.033C180.166 232.787 180.482 233.58 180.706 234.398Z" fill="white"/>
<path d="M109.167 230H184.177C186.121 230 187.394 231.012 187.093 232.263C184.151 243.15 181.202 254.037 178.247 264.923C178.024 265.573 177.59 266.14 177.008 266.545C176.425 266.949 175.723 267.17 175.001 267.177H118.44C117.718 267.179 117.013 266.966 116.425 266.568C115.838 266.17 115.397 265.608 115.165 264.96C112.21 254.073 109.261 243.187 106.319 232.3C105.95 231.04 107.243 230 109.167 230ZM173.271 261.786C173.271 261.961 173.378 262.108 173.514 262.108H175.011C175.137 262.108 175.244 261.961 175.244 261.786V251.059H173.3L173.271 261.786ZM173.271 249.099H175.215V238.372C175.215 238.197 175.108 238.059 174.982 238.059H173.485C173.349 238.059 173.242 238.197 173.242 238.372L173.271 249.099ZM169.597 261.814C169.597 261.988 169.704 262.136 169.83 262.136H171.327C171.453 262.136 171.56 261.988 171.56 261.814V251.059H169.616L169.597 261.814ZM169.597 249.127H171.541V238.372C171.541 238.197 171.434 238.059 171.307 238.059H169.81C169.684 238.059 169.577 238.197 169.577 238.372L169.597 249.127ZM165.913 261.814C165.913 261.988 166.02 262.136 166.146 262.136H167.653C167.779 262.136 167.886 261.988 167.886 261.814V251.059H165.942L165.913 261.814ZM165.913 249.127H167.857V238.372C167.857 238.197 167.75 238.059 167.623 238.059H166.117C165.991 238.059 165.884 238.197 165.884 238.372L165.913 249.127ZM158.555 261.814C158.555 261.988 158.662 262.136 158.788 262.136H160.295C160.421 262.136 160.528 261.988 160.528 261.814V251.059H158.584L158.555 261.814ZM158.555 249.127H160.499V238.372C160.499 238.197 160.392 238.059 160.265 238.059H158.759C158.632 238.059 158.526 238.197 158.526 238.372L158.555 249.127ZM154.881 261.814C154.881 261.988 154.987 262.136 155.114 262.136H156.611C156.737 262.136 156.844 261.988 156.844 261.814V251.059H154.9L154.881 261.814ZM154.881 249.127H156.825V238.372C156.825 238.197 156.718 238.059 156.591 238.059H155.094C154.968 238.059 154.861 238.197 154.861 238.372L154.881 249.127ZM151.197 261.814C151.197 261.988 151.304 262.136 151.43 262.136H152.937C153.063 262.136 153.17 261.988 153.17 261.814V251.059H151.226L151.197 261.814ZM151.197 249.127H153.141V238.372C153.141 238.197 153.034 238.059 152.907 238.059H151.401C151.274 238.059 151.168 238.197 151.168 238.372L151.197 249.127ZM147.523 261.814C147.523 261.988 147.629 262.136 147.756 262.136H149.253C149.379 262.136 149.486 261.988 149.486 261.814V251.059H147.542L147.523 261.814ZM147.523 249.127H149.467V238.372C149.467 238.197 149.36 238.059 149.233 238.059H147.736C147.61 238.059 147.503 238.197 147.503 238.372L147.523 249.127ZM143.839 261.814C143.839 261.988 143.946 262.136 144.072 262.136H145.569C145.705 262.136 145.802 261.988 145.802 261.814V251.059H143.858L143.839 261.814ZM143.839 249.127H145.783V238.372C145.783 238.197 145.685 238.059 145.549 238.059H144.052C143.926 238.059 143.819 238.197 143.819 238.372L143.839 249.127ZM140.164 261.814C140.164 261.988 140.262 262.136 140.398 262.136H141.895C142.021 262.136 142.128 261.988 142.128 261.814V251.059H140.184L140.164 261.814ZM140.164 249.127H142.108V238.372C142.108 238.197 142.002 238.059 141.875 238.059H140.437C140.301 238.059 140.203 238.197 140.203 238.372L140.164 249.127ZM136.481 261.814C136.481 261.988 136.588 262.136 136.714 262.136H138.211C138.347 262.136 138.444 261.988 138.444 261.814V251.059H136.5L136.481 261.814ZM136.481 249.127H138.425V238.372C138.425 238.197 138.327 238.059 138.191 238.059H136.694C136.568 238.059 136.461 238.197 136.461 238.372L136.481 249.127ZM132.806 261.814C132.806 261.988 132.904 262.136 133.04 262.136H134.537C134.663 262.136 134.77 261.988 134.77 261.814V251.059H132.826L132.806 261.814ZM132.806 249.127H134.75V238.372C134.75 238.197 134.644 238.059 134.517 238.059H133.02C132.884 238.059 132.787 238.197 132.787 238.372L132.806 249.127ZM125.439 261.814C125.439 261.988 125.546 262.136 125.682 262.136H127.179C127.305 262.136 127.412 261.988 127.412 261.814V251.059H125.468L125.439 261.814ZM125.439 249.127H127.383V238.372C127.383 238.197 127.276 238.059 127.149 238.059H125.653C125.516 238.059 125.41 238.197 125.41 238.372L125.439 249.127ZM121.765 261.814C121.765 261.988 121.871 262.136 121.998 262.136H123.495C123.621 262.136 123.728 261.988 123.728 261.814V251.059H121.784L121.765 261.814ZM121.765 249.127H123.709V238.372C123.709 238.197 123.602 238.059 123.475 238.059H121.969C121.842 238.059 121.735 238.197 121.735 238.372L121.765 249.127ZM118.081 261.814C118.081 261.988 118.188 262.136 118.324 262.136H119.821C119.947 262.136 120.054 261.988 120.054 261.814V251.059H118.11L118.081 261.814ZM118.081 249.127H120.025V238.372C120.025 238.197 119.918 238.059 119.791 238.059H118.294C118.158 238.059 118.051 238.197 118.051 238.372L118.081 249.127Z" fill="#FF4545"/>
<path d="M101.634 231.932C101.628 232.059 101.648 232.186 101.693 232.305C101.738 232.425 101.808 232.535 101.899 232.629C101.989 232.723 102.098 232.799 102.219 232.853C102.341 232.907 102.472 232.938 102.606 232.944H190.718C190.852 232.938 190.984 232.907 191.105 232.853C191.227 232.799 191.336 232.723 191.426 232.629C191.516 232.535 191.586 232.425 191.631 232.305C191.677 232.186 191.697 232.059 191.69 231.932V228.252C191.697 228.125 191.677 227.998 191.631 227.879C191.586 227.759 191.516 227.649 191.426 227.555C191.336 227.461 191.227 227.385 191.105 227.331C190.984 227.277 190.852 227.246 190.718 227.24H102.616C102.482 227.246 102.35 227.277 102.229 227.331C102.108 227.385 101.999 227.461 101.908 227.555C101.818 227.649 101.748 227.759 101.703 227.879C101.658 227.998 101.638 228.125 101.644 228.252L101.634 231.932Z" fill="#FF4545"/>
<path d="M103.413 232.935C103.413 233.064 122.619 233.174 146.326 233.174C170.034 233.174 189.24 233.064 189.24 232.935C189.24 232.806 170.024 232.696 146.326 232.696C122.629 232.696 103.413 232.806 103.413 232.935Z" fill="#263238"/>
<g opacity="0.3">
<path opacity="0.3" d="M185.148 232.935C173.165 234.936 161.023 235.97 148.854 236.026C135.324 236.136 120.326 235.492 107.116 232.935H185.148Z" fill="black"/>
</g>
<path d="M143.731 231.279C144.326 231.276 144.896 231.052 145.316 230.654C145.737 230.256 145.974 229.716 145.977 229.154V196.751C145.974 196.188 145.737 195.649 145.316 195.251C144.896 194.853 144.326 194.628 143.731 194.626C143.136 194.626 142.565 194.85 142.144 195.248C141.722 195.647 141.486 196.188 141.486 196.751V229.154C141.486 229.717 141.722 230.258 142.144 230.656C142.565 231.055 143.136 231.279 143.731 231.279Z" fill="#455A64"/>
<path d="M143.732 231.279C143.458 231.236 143.188 231.171 142.925 231.086C142.568 230.939 142.258 230.707 142.026 230.411C141.794 230.116 141.648 229.768 141.603 229.402C141.603 227.387 141.603 224.535 141.662 221.039C141.72 217.543 141.662 213.293 141.72 208.628C141.72 206.282 141.72 203.835 141.72 201.268C141.72 199.999 141.72 198.711 141.72 197.395C141.701 197.089 141.701 196.782 141.72 196.475C141.764 196.18 141.888 195.901 142.079 195.666C142.26 195.419 142.501 195.218 142.783 195.081C143.064 194.943 143.376 194.872 143.693 194.874C144.166 194.87 144.625 195.03 144.983 195.323C145.34 195.616 145.573 196.022 145.637 196.466C145.656 196.772 145.656 197.08 145.637 197.386V201.259C145.637 203.808 145.637 206.255 145.637 208.619C145.637 213.284 145.637 217.488 145.686 221.039C145.734 224.59 145.734 227.378 145.754 229.393C145.707 229.759 145.559 230.108 145.326 230.403C145.092 230.699 144.78 230.931 144.422 231.076C144.162 231.161 143.896 231.226 143.625 231.27C143.909 231.301 144.197 231.263 144.461 231.159C144.852 231.024 145.197 230.791 145.459 230.485C145.721 230.179 145.89 229.811 145.948 229.42C146.016 227.424 146.016 224.572 146.045 221.039C146.074 217.506 146.045 213.284 146.104 208.619C146.104 206.273 146.104 203.826 146.104 201.259C146.104 199.99 146.104 198.692 146.104 197.386C146.127 197.043 146.127 196.699 146.104 196.356C146.047 195.99 145.897 195.642 145.666 195.344C145.435 195.04 145.13 194.792 144.778 194.621C144.426 194.451 144.035 194.362 143.64 194.362C143.244 194.362 142.854 194.451 142.501 194.621C142.149 194.792 141.844 195.04 141.613 195.344C141.382 195.646 141.232 195.996 141.176 196.365C141.152 196.705 141.152 197.046 141.176 197.386V201.259C141.176 203.808 141.176 206.255 141.176 208.619C141.176 213.284 141.176 217.488 141.224 221.03C141.273 224.572 141.224 227.47 141.331 229.42C141.386 229.812 141.554 230.181 141.816 230.488C142.078 230.795 142.425 231.027 142.818 231.159C143.105 231.279 143.422 231.32 143.732 231.279Z" fill="#263238"/>
</svg>
