<svg width="138" height="138" viewBox="0 0 138 138" fill="none" xmlns="http://www.w3.org/2000/svg">
<rect width="138" height="138" rx="68.5625" fill="#DAE9FF"/>
<path d="M69 12.6504L128.756 87.2566H9.24425L69 12.6504Z" fill="#FFC555"/>
<rect x="54.625" y="12.6484" width="28.75" height="28.75" rx="14.375" fill="#FFE7A9"/>
<path d="M0 69.0418L24.2089 66.6409C32.9135 65.7776 41.6506 67.9278 48.9604 72.7321C61.509 80.9795 77.7255 81.1103 90.4055 73.0664L91.0501 72.6574C98.5538 67.8972 107.447 65.8146 116.284 66.748L138 69.0418C138 107.125 107.083 137.998 69 137.998C30.9165 137.998 0 107.125 0 69.0418Z" fill="#FFE7A9"/>
<path d="M15.3696 44.1396H30.5425V49.1972H20.933V58.5538H28.5701V63.6114H20.933V74.4853H30.5425V79.543H15.3696V44.1396ZM33.7431 44.1396H39.3065V74.4853H48.4608V79.543H33.7431V44.1396ZM51.1287 44.1396H66.3016V49.1972H56.6921V58.5538H64.3291V63.6114H56.6921V74.4853H66.3016V79.543H51.1287V44.1396ZM73.8517 49.1972H68.0354V44.1396H85.2313V49.1972H79.415V79.543H73.8517V49.1972ZM87.9249 44.1396H96.1688C99.0348 44.1396 101.125 44.8139 102.44 46.1626C103.755 47.4776 104.413 49.5175 104.413 52.2823V54.4571C104.413 58.1323 103.199 60.4588 100.771 61.4367V61.5378C102.12 61.9424 103.064 62.7685 103.604 64.016C104.177 65.2636 104.463 66.9326 104.463 69.0231V75.244C104.463 76.2555 104.497 77.0816 104.565 77.7222C104.632 78.3291 104.801 78.9361 105.07 79.543H99.4057C99.2034 78.9698 99.0686 78.4303 99.0011 77.9245C98.9337 77.4188 98.9 76.5084 98.9 75.1934V68.7196C98.9 67.1012 98.6302 65.9717 98.0907 65.331C97.585 64.6904 96.6915 64.3701 95.4102 64.3701H93.4883V79.543H87.9249V44.1396ZM95.5114 59.3124C96.624 59.3124 97.4501 59.0258 97.9896 58.4526C98.5628 57.8795 98.8494 56.9185 98.8494 55.5698V52.8387C98.8494 51.5574 98.6134 50.6302 98.1413 50.057C97.703 49.4838 96.9949 49.1972 96.0171 49.1972H93.4883V59.3124H95.5114ZM116.365 80.0487C113.634 80.0487 111.543 79.2732 110.094 77.7222C108.644 76.1712 107.919 73.9796 107.919 71.1473V52.5352C107.919 49.7029 108.644 47.5113 110.094 45.9603C111.543 44.4093 113.634 43.6338 116.365 43.6338C119.096 43.6338 121.187 44.4093 122.636 45.9603C124.086 47.5113 124.811 49.7029 124.811 52.5352V71.1473C124.811 73.9796 124.086 76.1712 122.636 77.7222C121.187 79.2732 119.096 80.0487 116.365 80.0487ZM116.365 74.9911C118.287 74.9911 119.248 73.8278 119.248 71.5013V52.1812C119.248 49.8547 118.287 48.6914 116.365 48.6914C114.443 48.6914 113.482 49.8547 113.482 52.1812V71.5013C113.482 73.8278 114.443 74.9911 116.365 74.9911Z" fill="#3C8EFC"/>
<path d="M66.6188 65.4517H76.0007C79.0536 65.4517 81.3432 66.2708 82.8696 67.9089C84.396 69.547 85.1593 71.9483 85.1593 75.1128V94.8818C85.1593 98.0464 84.396 100.448 82.8696 102.086C81.3432 103.724 79.0536 104.543 76.0007 104.543H66.6188V65.4517ZM75.889 98.9585C76.8942 98.9585 77.6575 98.6607 78.1787 98.065C78.7371 97.4693 79.0163 96.5013 79.0163 95.1611V74.8336C79.0163 73.4933 78.7371 72.5254 78.1787 71.9297C77.6575 71.334 76.8942 71.0362 75.889 71.0362H72.7617V98.9585H75.889ZM89.3057 65.4517H106.059V71.0362H95.4486V81.3674H103.881V86.9519H95.4486V98.9585H106.059V104.543H89.3057V65.4517ZM109.593 65.4517H115.736V98.9585H125.844V104.543H109.593V65.4517Z" fill="#2DD1AC"/>
</svg>
