<svg width="3721" height="2160" viewBox="0 0 3721 2160" fill="none" xmlns="http://www.w3.org/2000/svg">
<path d="M157.268 1967.53C149.662 1967.53 140.767 1967.32 130.513 1966.85C120.259 1966.37 109.666 1965.49 98.7336 1964.2C87.8009 1962.84 77.004 1961.21 66.2751 1959.18C55.5461 1957.14 45.7678 1954.42 36.8044 1950.82C12.2908 1941.45 0 1925.16 0 1902V1589.5C0 1580.13 2.58042 1572.87 7.67328 1567.77C12.7661 1562.68 19.8282 1558.54 28.7237 1555.41C43.8665 1550.05 62.8799 1546.18 85.628 1543.73C108.376 1541.29 131.803 1540.07 155.91 1540.07C213.017 1540.07 256.952 1549.64 287.713 1568.86C318.474 1588.08 333.888 1617.68 333.888 1657.88C333.888 1677.98 328.116 1695.23 316.504 1709.76C304.893 1724.29 289.275 1734.82 269.65 1741.54C291.923 1747.79 310.597 1759.2 325.536 1775.7C340.475 1792.2 347.944 1812.98 347.944 1837.9C347.944 1882.04 331.579 1914.77 298.781 1935.95C265.983 1956.87 218.857 1967.53 157.268 1967.53ZM113.741 1709.9H162.564C181.713 1709.9 195.702 1706.37 204.394 1699.17C213.085 1692.04 217.431 1681.58 217.431 1667.73C217.431 1655.71 212.406 1646.07 202.356 1638.94C192.306 1631.81 177.299 1628.21 157.2 1628.21C150.545 1628.21 142.804 1628.41 134.112 1628.89C125.42 1629.36 118.63 1629.97 113.741 1630.92V1709.9ZM113.741 1873.14C119.988 1874.91 128.001 1876.13 137.847 1876.81C147.625 1877.49 156.996 1877.83 165.959 1877.83C183.818 1877.83 198.622 1874.16 210.437 1866.76C222.253 1859.42 228.16 1847.95 228.16 1832.26C228.16 1817.53 223.271 1807.07 213.425 1800.82C203.579 1794.58 188.64 1791.45 168.608 1791.45H113.741V1873.14Z" fill="url(#paint0_linear_2501_11844)"/>
<path d="M740.089 1794.16C740.089 1821.8 735.879 1846.45 727.39 1868.11C718.902 1889.77 706.951 1907.91 691.605 1922.64C676.19 1937.38 657.788 1948.51 636.398 1956.12C615.008 1963.72 591.105 1967.53 564.826 1967.53C538.479 1967.53 514.645 1963.52 493.255 1955.51C471.865 1947.49 453.462 1936.02 438.048 1921.01C422.634 1906.07 410.75 1887.87 402.262 1866.48C393.774 1845.09 389.564 1820.99 389.564 1794.23C389.564 1767.89 393.774 1744.05 402.262 1722.66C410.75 1701.27 422.702 1683.07 438.048 1668.13C453.462 1653.19 471.865 1641.72 493.255 1633.71C514.645 1625.69 538.547 1621.69 564.826 1621.69C591.173 1621.69 615.008 1625.83 636.398 1634.05C657.788 1642.33 676.19 1653.87 691.605 1668.81C707.019 1683.75 718.902 1701.95 727.39 1723.34C735.811 1744.66 740.089 1768.29 740.089 1794.16ZM505.885 1794.16C505.885 1821.39 511.114 1842.24 521.639 1856.7C532.096 1871.24 546.764 1878.43 565.438 1878.43C584.179 1878.43 598.575 1871.1 608.625 1856.37C618.675 1841.63 623.7 1820.92 623.7 1794.16C623.7 1767.41 618.539 1746.77 608.285 1732.24C598.032 1717.77 583.5 1710.51 564.758 1710.51C546.017 1710.51 531.553 1717.77 521.299 1732.24C510.978 1746.77 505.885 1767.41 505.885 1794.16Z" fill="url(#paint1_linear_2501_11844)"/>
<path d="M930.77 1621.55C954.876 1621.55 976.809 1624 996.705 1628.89C1016.53 1633.78 1033.51 1641.25 1047.57 1651.3C1061.62 1661.35 1072.42 1674.04 1080.02 1689.46C1087.63 1704.87 1091.43 1723 1091.43 1743.99V1893.85C1091.43 1905.46 1088.17 1914.9 1081.72 1922.3C1075.27 1929.64 1067.53 1936.02 1058.63 1941.39C1029.64 1958.77 988.828 1967.46 936.202 1967.46C912.571 1967.46 891.249 1965.22 872.304 1960.74C853.358 1956.26 837.061 1949.6 823.48 1940.64C809.899 1931.74 799.374 1920.33 792.04 1906.48C784.706 1892.7 780.972 1876.6 780.972 1858.27C780.972 1827.51 790.139 1803.88 808.405 1787.31C826.671 1770.81 854.988 1760.55 893.354 1756.55L981.019 1747.18V1742.49C981.019 1729.59 975.315 1720.29 963.975 1714.72C952.567 1709.15 936.202 1706.37 914.812 1706.37C897.836 1706.37 881.335 1708.13 865.309 1711.73C849.216 1715.33 834.752 1719.74 821.782 1725.11C816.01 1721.1 811.053 1714.99 807.047 1706.71C803.041 1698.49 801.003 1689.87 801.003 1680.97C801.003 1669.36 803.788 1660.12 809.356 1653.2C814.924 1646.27 823.48 1640.36 835.092 1635.47C847.994 1630.59 863.272 1626.99 880.928 1624.75C898.515 1622.64 915.152 1621.55 930.77 1621.55ZM936.134 1884.55C943.739 1884.55 952.092 1883.8 961.259 1882.17C970.426 1880.61 977.217 1878.51 981.63 1875.79V1822.28L933.418 1826.29C920.923 1827.17 910.67 1829.89 902.657 1834.3C894.644 1838.78 890.638 1845.44 890.638 1854.4C890.638 1863.36 894.101 1870.56 901.027 1876.13C907.886 1881.76 919.633 1884.55 936.134 1884.55Z" fill="url(#paint2_linear_2501_11844)"/>
<path d="M1440.67 1905.94C1440.67 1914.83 1438.77 1921.76 1434.97 1926.65C1431.16 1931.54 1425.26 1936.5 1417.24 1941.38C1408.35 1947.16 1395.58 1952.66 1379.08 1957.75C1362.58 1962.84 1343.63 1965.42 1322.18 1965.42C1298.07 1965.42 1276 1962.3 1255.9 1956.05C1235.8 1949.8 1218.55 1940.09 1204.02 1926.92C1189.49 1913.75 1178.35 1897.04 1170.54 1876.74C1162.74 1856.44 1158.86 1831.99 1158.86 1803.47C1158.86 1774.47 1162.87 1749.62 1170.88 1728.84C1178.9 1708.06 1189.69 1691.02 1203.34 1677.64C1216.92 1664.26 1233.02 1654.42 1251.55 1648.17C1270.09 1641.92 1289.79 1638.8 1310.77 1638.8C1325.03 1638.8 1338.88 1640.57 1352.26 1644.17C1365.63 1647.76 1377.25 1652.18 1387.02 1657.54V1523.02C1389.27 1522.14 1392.73 1521.12 1397.41 1520.04C1402.1 1518.95 1406.85 1518.34 1411.81 1518.34C1430.96 1518.34 1440.6 1526.35 1440.6 1542.44V1905.94H1440.67ZM1387.16 1705.89C1378.2 1699.64 1367.94 1694.28 1356.4 1689.8C1344.79 1685.32 1331.41 1683.14 1316.27 1683.14C1302.42 1683.14 1289.38 1685.25 1277.15 1689.53C1264.86 1693.8 1254.07 1700.66 1244.7 1710.3C1235.33 1719.88 1227.86 1732.51 1222.29 1748.13C1216.72 1763.75 1213.94 1782.69 1213.94 1805.03C1213.94 1846.11 1223.71 1875.72 1243.41 1894.05C1263.03 1912.32 1289.11 1921.49 1321.7 1921.49C1337.32 1921.49 1350.15 1919.79 1360.2 1916.46C1370.25 1913.14 1379.28 1908.99 1387.3 1904.1V1705.89H1387.16Z" fill="url(#paint3_linear_2501_11844)"/>
<path d="M1580.49 1833.69C1592.51 1892.15 1630.87 1921.35 1695.59 1921.35C1714.33 1921.35 1731.24 1918.23 1746.45 1911.98C1761.59 1905.73 1773.68 1899.08 1782.57 1891.88C1793.3 1898.13 1798.6 1906.62 1798.6 1917.28C1798.6 1923.52 1795.81 1929.57 1790.24 1935.34C1784.68 1941.11 1777.07 1946.27 1767.5 1950.75C1757.92 1955.24 1746.79 1958.77 1734.02 1961.48C1721.32 1964.13 1707.6 1965.49 1692.87 1965.49C1641.13 1965.49 1600.18 1951.43 1570.1 1923.32C1540.02 1895.21 1524.94 1854.19 1524.94 1800.21C1524.94 1774.81 1528.61 1752.13 1536.01 1732.3C1543.34 1712.48 1553.6 1695.64 1566.77 1681.78C1579.94 1668 1595.63 1657.34 1613.96 1650C1632.23 1642.67 1652.13 1638.93 1673.52 1638.93C1693.62 1638.93 1712.09 1642.26 1729.06 1648.98C1746.04 1655.64 1760.64 1665.15 1772.86 1677.44C1785.15 1689.73 1794.73 1704.19 1801.65 1720.96C1808.58 1737.67 1812.04 1756.07 1812.04 1776.17C1812.04 1786.02 1809.8 1793.01 1805.32 1797.22C1800.84 1801.5 1794.59 1804.01 1786.58 1804.89L1580.49 1833.69ZM1672.84 1682.46C1645.61 1682.46 1623.06 1691.97 1605.27 1710.91C1587.41 1729.86 1578.04 1756.95 1577.16 1792.2L1761.18 1766.8C1758.94 1742.29 1750.38 1722.05 1735.45 1706.23C1720.44 1690.34 1699.59 1682.46 1672.84 1682.46Z" fill="url(#paint4_linear_2501_11844)"/>
<path d="M2125.9 1943.42C2119.65 1948.79 2109.94 1953.47 2096.77 1957.48C2083.6 1961.48 2069.2 1963.52 2053.58 1963.52C2034.84 1963.52 2018.81 1960.74 2005.37 1955.17C1991.99 1949.6 1982.82 1941.93 1977.94 1932.08C1973.05 1921.83 1967 1908.59 1959.87 1892.29C1952.74 1875.99 1945.27 1857.79 1937.46 1837.76C1929.65 1817.66 1921.64 1796.41 1913.36 1773.86C1905.07 1751.32 1897.2 1728.5 1889.59 1705.28C1881.99 1682.12 1874.86 1659.31 1868.2 1637.04C1861.55 1614.76 1855.71 1593.78 1850.82 1574.16C1857.06 1567.91 1866.1 1562.2 1877.91 1557.11C1889.73 1552.02 1902.36 1549.44 1915.73 1549.44C1932.24 1549.44 1945.75 1552.9 1956.21 1559.83C1966.66 1566.75 1974.4 1579.59 1979.29 1598.33C1991.31 1642.06 2003.47 1683.89 2015.76 1723.82C2028.05 1763.75 2040.88 1805.37 2054.26 1848.63H2058.27C2070.29 1806.73 2082.71 1760.96 2095.41 1711.46C2108.11 1661.96 2120.26 1612.66 2131.88 1563.56C2139.89 1559.56 2148.51 1556.23 2157.61 1553.51C2166.78 1550.86 2177.1 1549.51 2188.71 1549.51C2205.21 1549.51 2219.27 1553.17 2230.88 1560.57C2242.49 1567.91 2248.26 1580.06 2248.26 1597.04C2248.26 1606.89 2245.96 1621.15 2241.27 1639.89C2236.58 1658.63 2230.54 1679.68 2223.21 1703.11C2215.87 1726.53 2207.59 1750.98 2198.42 1776.38C2189.26 1801.77 2180.16 1825.81 2170.99 1848.29C2161.82 1870.83 2153.27 1890.66 2145.25 1907.84C2137.24 1924.82 2130.79 1936.7 2125.9 1943.42Z" fill="url(#paint5_linear_2501_11844)"/>
<path d="M2448.37 1967.53C2422.03 1967.53 2397.65 1963.86 2375.11 1956.46C2352.56 1949.13 2332.94 1938.06 2316.23 1923.32C2299.53 1908.59 2286.35 1890.12 2276.78 1867.78C2267.2 1845.5 2262.38 1819.36 2262.38 1789.48C2262.38 1760.01 2267.14 1734.75 2276.78 1713.56C2286.35 1692.38 2298.98 1674.99 2314.6 1661.35C2330.22 1647.77 2348.08 1637.72 2368.11 1631.26C2388.21 1624.81 2408.72 1621.55 2429.7 1621.55C2453.33 1621.55 2474.86 1625.15 2494.28 1632.28C2513.7 1639.41 2530.4 1649.26 2544.46 1661.75C2558.52 1674.25 2569.45 1689.19 2577.26 1706.57C2585.07 1723.95 2588.94 1742.97 2588.94 1763.47C2588.94 1778.62 2584.66 1790.23 2576.24 1798.24C2567.75 1806.25 2555.94 1811.42 2540.79 1813.66L2375.51 1838.44C2380.4 1853.18 2390.45 1864.18 2405.6 1871.58C2420.74 1878.91 2438.12 1882.65 2457.81 1882.65C2476.08 1882.65 2493.4 1880.27 2509.69 1875.59C2525.99 1870.9 2539.23 1865.47 2549.49 1859.22C2556.62 1863.7 2562.66 1869.95 2567.55 1877.96C2572.44 1885.98 2574.88 1894.46 2574.88 1903.36C2574.88 1923.46 2565.51 1938.4 2546.77 1948.18C2532.51 1955.78 2516.42 1960.87 2498.56 1963.59C2480.7 1966.17 2463.99 1967.53 2448.37 1967.53ZM2429.63 1704.53C2418.9 1704.53 2409.67 1706.3 2401.86 1709.9C2394.05 1713.5 2387.67 1718.05 2382.78 1723.61C2377.89 1729.18 2374.15 1735.43 2371.71 1742.36C2369.27 1749.28 2367.77 1756.28 2367.36 1763.41L2481.78 1744.67C2480.43 1735.77 2475.54 1726.81 2467.05 1717.91C2458.63 1709.02 2446.13 1704.53 2429.63 1704.53Z" fill="url(#paint6_linear_2501_11844)"/>
<path d="M2849.89 1750.71C2849.89 1736.86 2845.96 1726.74 2838.21 1720.29C2830.41 1713.84 2819.81 1710.58 2806.44 1710.58C2797.47 1710.58 2788.71 1711.66 2780.02 1713.9C2771.33 1716.15 2763.86 1719.47 2757.61 1723.95V1956.12C2753.13 1957.48 2746.14 1958.77 2736.56 1960.13C2726.99 1961.49 2717.07 1962.16 2706.75 1962.16C2696.9 1962.16 2688.14 1961.49 2680.34 1960.13C2672.53 1958.77 2665.94 1956.12 2660.58 1952.11C2655.21 1948.11 2651.07 1942.61 2648.22 1935.75C2645.3 1928.82 2643.87 1919.79 2643.87 1908.66V1707.93C2643.87 1695.91 2646.45 1686.06 2651.54 1678.46C2656.64 1670.85 2663.7 1663.99 2672.6 1657.68C2687.74 1646.95 2706.82 1638.26 2729.84 1631.6C2752.79 1624.88 2778.32 1621.55 2806.44 1621.55C2856.82 1621.55 2895.66 1632.62 2922.89 1654.69C2950.12 1676.76 2963.7 1707.45 2963.7 1746.7V1956.12C2959.22 1957.48 2952.23 1958.77 2942.65 1960.13C2933.08 1961.49 2923.16 1962.16 2912.84 1962.16C2903 1962.16 2894.24 1961.49 2886.43 1960.13C2878.62 1958.77 2872.03 1956.12 2866.67 1952.11C2861.3 1948.11 2857.16 1942.61 2854.31 1935.75C2851.39 1928.82 2849.96 1919.79 2849.96 1908.66V1750.71H2849.89Z" fill="url(#paint7_linear_2501_11844)"/>
<path d="M3019.87 1794.17C3019.87 1764.7 3024.35 1739.16 3033.24 1717.57C3042.14 1695.91 3054.57 1677.98 3070.39 1663.72C3086.21 1649.46 3104.75 1638.87 3125.93 1631.94C3147.12 1625.02 3170 1621.55 3194.52 1621.55C3203.41 1621.55 3212.11 1622.37 3220.59 1623.93C3229.08 1625.49 3236.01 1627.39 3241.37 1629.63V1521.26C3245.85 1519.9 3252.98 1518.47 3262.76 1516.91C3272.54 1515.35 3282.59 1514.53 3292.84 1514.53C3302.62 1514.53 3311.45 1515.21 3319.26 1516.57C3327.07 1517.93 3333.66 1520.58 3339.02 1524.58C3344.38 1528.59 3348.39 1534.09 3351.04 1540.95C3353.69 1547.88 3355.05 1556.91 3355.05 1568.04V1885.23C3355.05 1906.21 3345.2 1922.91 3325.57 1935.41C3312.6 1943.9 3295.9 1951.37 3275.39 1957.82C3254.89 1964.27 3231.26 1967.53 3204.43 1967.53C3175.44 1967.53 3149.43 1963.52 3126.48 1955.51C3103.53 1947.5 3084.11 1935.88 3068.28 1920.74C3052.46 1905.6 3040.37 1887.4 3032.16 1866.21C3023.94 1844.96 3019.87 1820.99 3019.87 1794.17ZM3209.87 1710.58C3185.76 1710.58 3167.29 1717.5 3154.32 1731.35C3141.35 1745.21 3134.9 1766.12 3134.9 1794.23C3134.9 1821.87 3140.94 1842.72 3152.96 1856.77C3164.98 1870.83 3182.43 1877.82 3205.18 1877.82C3213.19 1877.82 3220.46 1876.6 3226.91 1874.16C3233.36 1871.71 3238.39 1868.93 3241.98 1865.81V1718.59C3233.09 1713.22 3222.36 1710.58 3209.87 1710.58Z" fill="url(#paint8_linear_2501_11844)"/>
<path d="M3559.84 1621.55C3583.95 1621.55 3605.88 1624 3625.78 1628.89C3645.6 1633.78 3662.58 1641.25 3676.64 1651.3C3690.69 1661.35 3701.49 1674.04 3709.09 1689.46C3716.7 1704.87 3720.5 1723 3720.5 1743.99V1893.85C3720.5 1905.46 3717.24 1914.9 3710.79 1922.3C3704.34 1929.64 3696.6 1936.02 3687.7 1941.39C3658.71 1958.77 3617.9 1967.46 3565.27 1967.46C3541.64 1967.46 3520.32 1965.22 3501.37 1960.74C3482.43 1956.26 3466.13 1949.6 3452.55 1940.64C3438.97 1931.74 3428.44 1920.33 3421.11 1906.48C3413.78 1892.7 3410.04 1876.6 3410.04 1858.27C3410.04 1827.51 3419.21 1803.88 3437.48 1787.31C3455.74 1770.81 3484.06 1760.55 3522.42 1756.55L3610.09 1747.18V1742.49C3610.09 1729.59 3604.39 1720.29 3593.05 1714.72C3581.64 1709.15 3565.27 1706.37 3543.88 1706.37C3526.91 1706.37 3510.41 1708.13 3494.38 1711.73C3478.29 1715.33 3463.82 1719.74 3450.85 1725.11C3445.08 1721.1 3440.12 1714.99 3436.12 1706.71C3432.11 1698.49 3430.07 1689.87 3430.07 1680.97C3430.07 1669.36 3432.86 1660.12 3438.43 1653.2C3443.99 1646.27 3452.55 1640.36 3464.16 1635.47C3477.06 1630.59 3492.34 1626.99 3510 1624.75C3527.59 1622.64 3544.22 1621.55 3559.84 1621.55ZM3565.2 1884.55C3572.81 1884.55 3581.16 1883.8 3590.33 1882.17C3599.5 1880.61 3606.29 1878.51 3610.7 1875.79V1822.28L3562.49 1826.29C3549.99 1827.17 3539.74 1829.89 3531.73 1834.3C3523.71 1838.78 3519.71 1845.44 3519.71 1854.4C3519.71 1863.36 3523.17 1870.56 3530.1 1876.13C3536.96 1881.76 3548.64 1884.55 3565.2 1884.55Z" fill="url(#paint9_linear_2501_11844)"/>
<path d="M2163.59 333.196C2166.17 353.5 2167.32 373.939 2168.34 394.378C2169.43 417.805 2168.27 441.3 2165.97 464.456C2163.86 485.642 2161.55 507.508 2145.12 524.823C2122.78 548.386 2079.73 542.411 2065.06 511.242C2056.77 493.655 2059.22 475.321 2060.78 457.394C2063.63 423.713 2064.58 390.236 2060.51 356.691C2059.56 348.814 2061.46 340.598 2057.79 333.06C2059.08 330.48 2057.93 327.967 2057.52 325.523C2052.7 298.157 2046.11 271.267 2035.11 245.531C2021.4 213.412 2003.88 184.077 1978.48 159.767C1954.17 136.476 1926.8 119.024 1893.74 110.4C1853.33 99.943 1813.88 102.184 1775.58 117.802C1729.27 136.747 1695.25 170.292 1669.24 212.461C1650.02 243.63 1637.67 277.65 1628.91 313.028C1627.34 319.411 1626.73 321.652 1624.63 332.313C1620.21 352.277 1619.13 361.988 1618.31 376.791C1616.48 408.706 1616.07 440.757 1617.97 472.672C1618.92 488.358 1615.33 502.619 1608.81 516.132C1600.52 533.244 1570.92 543.701 1552.92 536.91C1529.09 527.947 1517 509.816 1514.89 485.099C1511.77 448.906 1512.86 412.645 1515.37 376.519C1516.39 361.852 1517.75 347.388 1519.78 332.789C1521.89 318.664 1525.22 306.917 1528.07 294.151C1536.56 256.667 1548.57 220.406 1566.09 186.046C1591.76 135.593 1625.71 91.9981 1671.96 58.7926C1702.65 36.7236 1735.79 19.0683 1772.86 10.1049C1810.21 1.00566 1847.7 -2.86492 1886.2 4.26509C1903.45 7.45662 1920.69 10.5124 1937.19 16.0806C1968.63 26.6737 1998.17 41.4769 2024.18 62.5274C2042.38 77.2628 2058.61 93.8315 2073.75 111.826C2104.72 148.766 2125.83 190.664 2141.52 235.617C2151.09 263.118 2155.92 291.842 2160.87 320.498C2161.62 324.912 2162.64 329.054 2163.59 333.196Z" fill="url(#paint10_linear_2501_11844)"/>
<path d="M1409.24 1021.55L1424.11 1106.56C1430.97 1107.31 1439.52 1107.11 1449.85 1106.02C1460.17 1104.93 1470.01 1103.58 1479.32 1101.95C1497.92 1098.69 1512.66 1092.17 1523.66 1082.32C1534.59 1072.48 1538.67 1059.44 1535.81 1043.21C1533.1 1027.86 1526.1 1017.88 1514.76 1013.13C1503.42 1008.44 1487.26 1007.9 1466.35 1011.57L1409.24 1021.55Z" fill="url(#paint11_linear_2501_11844)"/>
<path d="M2485.86 1188.66L2406.55 780.283C2404.04 796.987 2401.32 814.167 2398.27 831.823C2393.38 859.935 2388.22 886.622 2382.78 911.746C2377.35 936.871 2372.06 959.144 2366.83 978.429C2361.6 997.782 2357.05 1011.36 2353.18 1019.24C2347.68 1025.96 2338.37 1032.62 2325.41 1039.2C2312.44 1045.79 2297.84 1050.48 2281.54 1053.33C2262.05 1056.72 2244.8 1056.79 2229.86 1053.4C2214.92 1050 2203.99 1043.69 2197.06 1034.38C2190.07 1024.6 2181.38 1011.91 2170.99 996.22C2160.6 980.602 2149.46 963.014 2137.72 943.526C2125.9 924.037 2113.68 903.326 2100.98 881.393C2088.28 859.46 2075.85 837.051 2063.77 814.303C2051.61 791.555 2040.07 769.146 2029 747.145C2017.93 725.144 2008.09 704.365 1999.39 684.809C2004.76 677.203 2013.11 669.598 2024.52 662.128C2035.86 654.659 2048.56 649.634 2062.48 647.189C2079.66 644.202 2094.32 645.288 2106.55 650.585C2118.7 655.881 2129.09 667.832 2137.58 686.438C2158.09 729.762 2178.39 771.116 2198.42 810.433C2218.45 849.749 2239.44 890.764 2261.23 933.34L2265.44 932.593C2270.33 886.758 2274.88 836.847 2279.09 782.999C2283.3 729.15 2286.97 675.574 2290.09 622.336C2297.7 616.7 2306.05 611.675 2315.08 607.193C2324.11 602.712 2334.64 599.452 2346.73 597.347C2355.22 595.853 2363.16 595.446 2370.77 595.989L2344.01 458.142C2325.13 355.81 2303.81 269.978 2184.3 287.294L1474.9 397.435C1355.18 413.733 1332.57 443.271 1319.46 565.5L1290.81 784.425C1303.23 778.721 1317.9 773.424 1334.81 768.535C1358.03 761.813 1382.21 756.312 1407.26 751.899C1466.75 741.509 1514.21 743.478 1549.8 757.806C1585.38 772.202 1606.77 800.247 1614.1 842.076C1617.77 862.991 1614.85 882.072 1605.41 899.252C1595.97 916.5 1581.64 930.352 1562.43 940.878C1586.8 943.322 1608.26 951.742 1626.8 966.206C1645.34 980.67 1656.95 1000.91 1661.5 1026.91C1669.58 1072.88 1658.44 1109.89 1628.16 1137.94C1597.87 1165.98 1550.68 1185.61 1486.58 1196.81C1478.7 1198.17 1469.33 1199.59 1458.6 1201.02C1447.8 1202.45 1436.67 1203.47 1424.99 1204.01C1413.38 1204.62 1401.76 1204.82 1390.29 1204.69C1378.74 1204.55 1368.01 1203.47 1358.1 1201.36C1330.87 1196.06 1315.12 1181.4 1310.84 1157.22L1271.39 932.05L1232.27 1231.1C1209.25 1375.6 1313.56 1399.98 1436.46 1396.11L2305.92 1395.57C2435.68 1396.52 2512.96 1325.56 2485.86 1188.66ZM2058.2 967.157C2051.88 996.763 2040.07 1022.77 2022.69 1045.18C2005.3 1067.59 1983.03 1085.99 1955.87 1100.32C1928.71 1114.65 1897.67 1124.9 1862.84 1130.94C1854.96 1132.3 1845.86 1133.66 1835.54 1135.02C1825.22 1136.38 1814.49 1137.26 1803.35 1137.8C1792.22 1138.34 1780.94 1138.48 1769.67 1138.28C1758.4 1138.07 1747.81 1136.99 1737.82 1134.88C1710.59 1129.59 1694.84 1114.92 1690.56 1090.74L1633.59 765.344C1631.89 755.565 1633.25 747.553 1637.67 741.305C1642.08 735.058 1648.6 729.422 1657.36 724.601C1676.17 714.619 1696.61 706.606 1718.54 700.63C1740.47 694.655 1760.23 690.105 1777.89 686.982C1814.15 680.666 1847.76 679.308 1878.79 682.975C1909.83 686.642 1937.53 695.809 1961.91 710.409C1986.29 725.076 2006.66 745.312 2023.16 771.116C2039.66 796.987 2051.21 828.903 2057.93 866.997C2064.45 904.209 2064.51 937.55 2058.2 967.157Z" fill="url(#paint12_linear_2501_11844)"/>
<path d="M1887.08 801.809C1863.86 784.086 1836.02 778.11 1803.49 783.746C1796.97 784.9 1790.39 786.259 1783.73 787.888C1777.08 789.518 1770.35 791.419 1763.56 793.592L1806 1036.08C1811.3 1036.15 1817.68 1035.81 1825.22 1035.2C1832.76 1034.59 1839.82 1033.7 1846.34 1032.55C1862.09 1029.77 1876.22 1024.94 1888.65 1017.95C1901.07 1011.02 1911.19 1001.79 1919 990.38C1926.81 978.972 1932.04 964.984 1934.62 948.483C1937.2 931.982 1936.65 912.833 1932.78 890.968C1925.59 849.274 1910.31 819.532 1887.08 801.809Z" fill="url(#paint13_linear_2501_11844)"/>
<path d="M1473.75 846.558C1462 840.99 1445.63 839.972 1424.79 843.639C1417.79 844.861 1409.85 846.491 1400.88 848.528C1391.92 850.565 1384.93 852.534 1379.97 854.368L1394.36 936.6L1445.23 927.705C1465.19 924.174 1479.04 917.926 1486.85 908.963C1494.59 899.932 1497.24 888.252 1494.73 873.856C1492.49 861.226 1485.49 852.127 1473.75 846.558Z" fill="url(#paint14_linear_2501_11844)"/>
<path d="M1564.12 562.714C1597.57 562.714 1624.69 535.596 1624.69 502.143C1624.69 468.691 1597.57 441.572 1564.12 441.572C1530.67 441.572 1503.55 468.691 1503.55 502.143C1503.55 535.596 1530.67 562.714 1564.12 562.714Z" fill="url(#paint15_linear_2501_11844)"/>
<path d="M2123.46 484.216C2156.91 484.216 2184.03 457.097 2184.03 423.645C2184.03 390.192 2156.91 363.074 2123.46 363.074C2090.01 363.074 2062.89 390.192 2062.89 423.645C2062.89 457.097 2090.01 484.216 2123.46 484.216Z" fill="url(#paint16_linear_2501_11844)"/>
<path d="M353.848 2155.35V2148.56C359.212 2151.34 365.595 2152.7 372.929 2152.7C379.719 2152.7 385.016 2151.21 388.751 2148.29C392.485 2145.3 394.319 2141.29 394.319 2136.2C394.319 2131.58 392.825 2127.71 389.905 2124.72C386.917 2121.67 382.436 2118.88 376.324 2116.37C369.262 2113.38 363.83 2109.99 360.095 2106.25C356.36 2102.52 354.459 2097.63 354.459 2091.52C354.459 2085.14 356.768 2079.97 361.317 2076.04C365.867 2072.17 372.182 2070.2 380.263 2070.2C383.658 2070.2 386.849 2070.47 389.905 2071.08C392.893 2071.62 395.066 2072.23 396.356 2072.78L398.325 2073.59V2080.38C392.825 2078.01 386.781 2076.85 380.33 2076.85C374.83 2076.85 370.416 2078.14 367.225 2080.72C364.033 2083.3 362.404 2086.83 362.404 2091.18C362.404 2095.32 363.83 2098.85 366.818 2101.7C369.737 2104.56 374.355 2107.27 380.67 2109.78C388.004 2112.7 393.436 2116.17 397.035 2120.04C400.634 2123.98 402.468 2129 402.468 2135.18C402.468 2142.38 399.955 2148.22 394.862 2152.7C389.769 2157.18 382.436 2159.42 372.861 2159.42C369.262 2159.42 365.935 2159.08 362.743 2158.4C359.552 2157.73 357.311 2157.05 355.953 2156.37L353.848 2155.35Z" fill="#575756"/>
<path d="M521.773 2159.49C512.538 2159.49 505.273 2156.91 499.976 2151.82C494.68 2146.73 492.031 2139.12 492.031 2129.07V2071.22H499.976V2129.07C499.976 2136.95 501.877 2142.86 505.612 2146.8C509.347 2150.73 514.711 2152.7 521.773 2152.7C528.7 2152.7 534.064 2150.73 537.935 2146.8C541.805 2142.86 543.843 2136.95 543.911 2129.07V2071.22H551.855V2128.94C551.855 2139.05 549.207 2146.73 543.843 2151.82C538.478 2156.91 531.076 2159.49 521.773 2159.49Z" fill="#575756"/>
<path d="M636.541 2158.41L666.827 2070.88H673.006L703.088 2158.41H695.143L687.266 2135.52H651.955L644.282 2158.41H636.541ZM654.4 2128.53H685.025L669.543 2083.44L654.4 2128.53Z" fill="#575756"/>
<path d="M991.543 2158.41V2071.22H999.488V2151.35H1036.5V2158.41H991.543Z" fill="#575756"/>
<path d="M1147.58 2159.49C1136.79 2159.49 1128.5 2155.69 1122.66 2148.08C1116.89 2140.48 1113.97 2129.41 1113.97 2114.88C1113.97 2100.21 1116.82 2089.07 1122.59 2081.54C1128.37 2074 1136.65 2070.2 1147.52 2070.2C1158.45 2070.2 1166.8 2074 1172.57 2081.54C1178.34 2089.07 1181.2 2100.21 1181.2 2114.88C1181.2 2129.41 1178.28 2140.48 1172.5 2148.08C1166.8 2155.69 1158.52 2159.49 1147.58 2159.49ZM1147.58 2152.63C1164.63 2152.63 1173.12 2140 1173.12 2114.74C1173.12 2089.41 1164.63 2076.78 1147.58 2076.78C1130.61 2076.78 1122.12 2089.41 1122.12 2114.74C1122.19 2140.07 1130.67 2152.63 1147.58 2152.63Z" fill="#575756"/>
<path d="M1271.52 2159.49C1269.82 2159.49 1268.12 2159.36 1266.42 2159.02C1264.73 2158.68 1263.44 2158.34 1262.62 2157.93L1261.4 2157.46V2150.67C1264.25 2152.02 1267.37 2152.7 1270.77 2152.7C1273.96 2152.7 1276.27 2151.75 1277.7 2149.78C1279.19 2147.81 1279.87 2144.62 1279.87 2140.14V2071.22H1287.81V2140.34C1287.88 2153.11 1282.45 2159.49 1271.52 2159.49Z" fill="#575756"/>
<path d="M1374.32 2158.41L1404.6 2070.88H1410.78L1440.86 2158.41H1432.92L1425.04 2135.52H1389.73L1382.06 2158.41H1374.32ZM1392.11 2128.53H1422.73L1407.25 2083.44L1392.11 2128.53Z" fill="#575756"/>
<path d="M1729.26 2158.41V2071.22H1736.26L1782.37 2144.83V2071.22H1789.7V2158.41H1782.37L1736.6 2085.14V2158.41H1729.26Z" fill="#575756"/>
<path d="M1915.19 2159.49C1904.39 2159.49 1896.1 2155.69 1890.27 2148.08C1884.49 2140.48 1881.57 2129.41 1881.57 2114.88C1881.57 2100.21 1884.43 2089.07 1890.2 2081.54C1895.97 2074 1904.25 2070.2 1915.12 2070.2C1926.05 2070.2 1934.4 2074 1940.18 2081.54C1945.95 2089.07 1948.8 2100.21 1948.8 2114.88C1948.8 2129.41 1945.88 2140.48 1940.11 2148.08C1934.4 2155.69 1926.05 2159.49 1915.19 2159.49ZM1915.19 2152.63C1932.23 2152.63 1940.72 2140 1940.72 2114.74C1940.72 2089.41 1932.23 2076.78 1915.19 2076.78C1898.21 2076.78 1889.72 2089.41 1889.72 2114.74C1889.72 2140.07 1898.21 2152.63 1915.19 2152.63Z" fill="#575756"/>
<path d="M2245.34 2158.41V2071.22H2268.23C2281.06 2071.22 2290.77 2074.88 2297.42 2082.22C2304.08 2089.55 2307.41 2100.14 2307.41 2114.07C2307.41 2128.46 2304.08 2139.39 2297.42 2147C2290.77 2154.6 2280.99 2158.41 2268.23 2158.41H2245.34ZM2253.29 2151.35H2268.29C2278.34 2151.35 2286.02 2148.22 2291.31 2141.97C2296.61 2135.73 2299.26 2126.42 2299.26 2114.07C2299.26 2102.05 2296.61 2093.08 2291.31 2087.17C2286.02 2081.27 2278.34 2078.28 2268.29 2078.28H2253.29V2151.35Z" fill="#575756"/>
<path d="M2399.21 2158.41V2071.22H2407.16V2158.41H2399.21Z" fill="#575756"/>
<path d="M2538.35 2159.49C2531.29 2159.49 2525.18 2158.41 2520.01 2156.17C2514.85 2153.92 2510.78 2150.8 2507.72 2146.66C2504.67 2142.58 2502.43 2137.9 2501 2132.6C2499.58 2127.31 2498.9 2121.4 2498.9 2114.81C2498.9 2101.37 2502.09 2090.5 2508.4 2082.35C2514.72 2074.2 2524.43 2070.13 2537.47 2070.13C2541.61 2070.13 2545.41 2070.47 2548.87 2071.15C2552.34 2071.83 2554.71 2072.51 2556.14 2073.19L2558.18 2074.14V2080.86C2552.81 2078.21 2546.02 2076.85 2537.74 2076.85C2517.3 2076.85 2507.05 2089.48 2507.05 2114.74C2507.05 2126.42 2509.56 2135.66 2514.65 2142.52C2519.74 2149.37 2527.62 2152.77 2538.35 2152.77C2540.18 2152.77 2542.02 2152.63 2543.78 2152.43C2545.55 2152.23 2547.31 2151.82 2549.15 2151.34C2550.98 2150.87 2551.93 2150.6 2552 2150.6V2118H2529.59V2111.08H2559.4V2155.49C2553.49 2158.13 2546.5 2159.49 2538.35 2159.49Z" fill="#575756"/>
<path d="M2652.56 2158.41V2071.22H2660.5V2158.41H2652.56Z" fill="#575756"/>
<path d="M2772.69 2158.41V2078.28H2746.75V2071.22H2806.37V2078.28H2780.43V2158.41H2772.69Z" fill="#575756"/>
<path d="M2876.45 2158.41L2906.73 2070.88H2912.91L2942.99 2158.41H2935.05L2927.17 2135.52H2891.86L2884.19 2158.41H2876.45ZM2894.24 2128.53H2924.86L2909.38 2083.44L2894.24 2128.53Z" fill="#575756"/>
<path d="M3030.04 2158.41V2071.22H3037.99V2151.35H3074.99V2158.41H3030.04Z" fill="#575756"/>
<path d="M3227.92 2078.48C3228.74 2076.58 3228.74 2074.48 3229.28 2072.51C3233.02 2059.74 3240.96 2050.71 3253.32 2045.96C3269.34 2039.85 3286.46 2044.53 3297.53 2057.64C3300.99 2061.71 3303.43 2066.4 3304.93 2071.56C3305.61 2074 3304.99 2075.7 3303.16 2076.24C3301.26 2076.79 3299.83 2075.77 3299.09 2073.32C3297.66 2068.5 3295.22 2064.22 3291.89 2060.42C3277.29 2043.99 3250.33 2046.37 3238.92 2065.17C3227.45 2084.05 3236.48 2108.02 3257.6 2114.54C3259.09 2115.02 3260.52 2115.56 3260.79 2117.33C3261.13 2119.57 3259.16 2121.2 3256.92 2120.59C3249.18 2118.48 3242.66 2114.41 3237.43 2108.36C3232.27 2102.39 3229.21 2095.46 3228.13 2087.58C3228.06 2087.31 3228.26 2086.9 3227.79 2086.77C3227.79 2086.23 3227.79 2085.61 3227.79 2085.07C3227.99 2084.87 3227.99 2084.66 3227.79 2084.53C3227.79 2083.37 3227.79 2082.29 3227.79 2081.13C3227.99 2081 3227.92 2080.79 3227.92 2080.59C3227.92 2080.39 3227.92 2080.18 3227.79 2080.05C3227.92 2079.43 3227.92 2078.96 3227.92 2078.48Z" fill="#575756"/>
<path d="M3227.92 2079.91C3228.26 2079.98 3228.19 2080.25 3228.19 2080.45C3228.12 2080.59 3228.06 2080.59 3227.92 2080.45C3227.92 2080.32 3227.92 2080.12 3227.92 2079.91Z" fill="#575756"/>
<path d="M3227.92 2080.52C3227.99 2080.52 3228.06 2080.52 3228.19 2080.52C3228.26 2080.79 3228.26 2081 3227.92 2081.13C3227.92 2080.86 3227.92 2080.66 3227.92 2080.52Z" fill="#575756"/>
<path d="M3227.92 2084.46C3228.26 2084.66 3228.26 2084.87 3227.92 2085C3227.92 2084.87 3227.92 2084.66 3227.92 2084.46Z" fill="#575756"/>
<path d="M3240.07 2082.56C3240.21 2069.59 3249.04 2058.73 3261.73 2056.01C3273.75 2053.43 3286.59 2059.81 3291.75 2070.88C3292.7 2072.85 3292.22 2074.55 3290.59 2075.36C3289.03 2076.18 3287.33 2075.57 3286.38 2073.66C3284.21 2069.32 3281.02 2065.99 3276.67 2063.68C3264.38 2057.16 3248.22 2065.38 3246.32 2079.16C3245.03 2088.6 3249.17 2096.82 3257.59 2101.37C3258.41 2101.84 3259.29 2102.18 3259.83 2103.07C3260.51 2104.22 3260.44 2105.31 3259.7 2106.39C3258.95 2107.41 3257.86 2107.89 3256.57 2107.48C3253.79 2106.6 3251.55 2104.9 3249.37 2103.07C3243.54 2098.18 3239.94 2090.17 3240.07 2082.56Z" fill="#575756"/>
<path d="M3372.97 2111.55C3372.22 2105.24 3369.98 2099.4 3365.7 2094.65C3357.89 2085.75 3349.95 2076.99 3341.87 2068.37C3336.1 2062.25 3325.98 2064.43 3322.85 2072.24C3322.51 2073.19 3322.24 2073.12 3321.5 2072.64C3315.32 2068.91 3307.37 2071.49 3304.72 2078.14C3304.32 2079.16 3303.98 2079.09 3303.16 2078.62C3299.16 2076.17 3293.59 2076.65 3289.92 2079.64C3288.15 2081.13 3286.93 2082.97 3285.98 2085.41C3285.44 2084.73 3285.1 2084.19 3284.62 2083.78C3281.09 2080.39 3277.9 2076.58 3274.1 2073.46C3268.19 2068.64 3258.48 2071.69 3256.24 2079.03C3254.75 2083.92 3256.1 2087.99 3259.63 2091.52C3272.74 2104.63 3285.85 2117.73 3298.95 2130.84C3299.29 2131.18 3299.77 2131.45 3299.97 2132.06C3299.83 2132.13 3299.7 2132.2 3299.56 2132.2C3292.36 2133.35 3285.1 2134.57 3277.83 2135.59C3272.2 2136.41 3267.58 2138.58 3265.27 2144.08C3261.67 2152.36 3267.24 2158.48 3273.89 2158.41C3292.57 2158.27 3311.24 2158.34 3329.92 2158.34C3338.81 2158.34 3346.55 2155.42 3353.07 2149.31C3356.6 2145.98 3360.07 2142.52 3363.46 2139.05C3368.01 2134.37 3371.07 2128.87 3372.42 2122.49C3372.63 2121.47 3372.49 2120.31 3373.17 2119.43C3373.17 2117.05 3373.17 2114.68 3373.17 2112.3C3372.9 2112.16 3373.04 2111.83 3372.97 2111.55ZM3359.73 2134.23C3355.99 2138.24 3352.19 2142.11 3348.11 2145.71C3343.02 2150.33 3336.84 2152.3 3330.05 2152.3C3321.02 2152.3 3311.99 2152.3 3302.96 2152.3C3293.45 2152.3 3283.94 2152.3 3274.44 2152.3C3271.04 2152.3 3269.68 2150.53 3270.64 2147.27C3271.59 2144.08 3273.83 2142.31 3277.09 2141.84C3286.86 2140.28 3296.57 2138.78 3306.35 2137.29C3307.78 2137.09 3309 2136.61 3309.54 2135.12C3310.09 2133.55 3309.27 2132.47 3308.25 2131.45C3293.52 2116.71 3278.78 2101.98 3263.98 2087.24C3262.55 2085.82 3261.54 2084.19 3261.81 2082.08C3262.08 2079.91 3263.3 2078.35 3265.41 2077.53C3267.44 2076.79 3269.34 2077.19 3270.97 2078.55C3271.38 2078.89 3271.72 2079.23 3272.13 2079.64C3281.7 2089.21 3291.28 2098.79 3300.85 2108.36C3301.53 2109.04 3302.21 2109.72 3303.16 2109.86C3304.32 2110.06 3305.33 2109.65 3306.01 2108.77C3306.76 2107.75 3306.9 2106.66 3306.29 2105.58C3305.95 2105.03 3305.47 2104.49 3305.06 2104.08C3301.33 2100.35 3297.59 2096.55 3293.86 2092.81C3292.36 2091.32 3291.55 2089.55 3292.02 2087.45C3292.91 2083.31 3297.8 2081.68 3301.06 2084.39C3302.01 2085.21 3302.82 2086.09 3303.7 2086.97C3306.9 2090.16 3310.09 2093.35 3313.21 2096.48C3314.09 2097.36 3315.04 2098.04 3316.33 2097.77C3317.49 2097.57 3318.3 2096.89 3318.64 2095.73C3319.12 2094.44 3318.64 2093.35 3317.76 2092.47C3315.93 2090.57 3314.09 2088.81 3312.26 2086.97C3311.79 2086.5 3311.31 2086.02 3310.97 2085.48C3309.48 2083.31 3309.88 2080.32 3311.79 2078.48C3313.75 2076.65 3316.95 2076.38 3319.05 2078.21C3321.22 2080.11 3323.26 2082.29 3325.37 2084.39C3326.11 2085.14 3326.93 2085.75 3328.08 2085.68C3330.32 2085.61 3331.68 2083.24 3330.59 2081.27C3330.32 2080.79 3329.98 2080.45 3329.64 2080.05C3327.68 2077.6 3327.88 2074.27 3330.12 2072.3C3332.36 2070.34 3335.82 2070.47 3337.93 2072.78C3345.47 2081 3352.94 2089.28 3360.47 2097.57C3361.63 2098.86 3362.71 2100.28 3363.53 2101.78C3369.57 2112.57 3368.21 2125.07 3359.73 2134.23Z" fill="#575756"/>
<defs>
<linearGradient id="paint0_linear_2501_11844" x1="-388.249" y1="1594.04" x2="5371" y2="3301.18" gradientUnits="userSpaceOnUse">
<stop stop-color="#721FA3"/>
<stop offset="0.0628" stop-color="#6F1E9D"/>
<stop offset="0.4346" stop-color="#5D1A81"/>
<stop offset="0.7595" stop-color="#531870"/>
<stop offset="1" stop-color="#4F176A"/>
</linearGradient>
<linearGradient id="paint1_linear_2501_11844" x1="-365.94" y1="1518.76" x2="5393.31" y2="3225.9" gradientUnits="userSpaceOnUse">
<stop stop-color="#721FA3"/>
<stop offset="0.0628" stop-color="#6F1E9D"/>
<stop offset="0.4346" stop-color="#5D1A81"/>
<stop offset="0.7595" stop-color="#531870"/>
<stop offset="1" stop-color="#4F176A"/>
</linearGradient>
<linearGradient id="paint2_linear_2501_11844" x1="-336.156" y1="1418.29" x2="5423.09" y2="3125.43" gradientUnits="userSpaceOnUse">
<stop stop-color="#721FA3"/>
<stop offset="0.0628" stop-color="#6F1E9D"/>
<stop offset="0.4346" stop-color="#5D1A81"/>
<stop offset="0.7595" stop-color="#531870"/>
<stop offset="1" stop-color="#4F176A"/>
</linearGradient>
<linearGradient id="paint3_linear_2501_11844" x1="-287.889" y1="1255.47" x2="5471.36" y2="2962.61" gradientUnits="userSpaceOnUse">
<stop stop-color="#721FA3"/>
<stop offset="0.0628" stop-color="#6F1E9D"/>
<stop offset="0.4346" stop-color="#5D1A81"/>
<stop offset="0.7595" stop-color="#531870"/>
<stop offset="1" stop-color="#4F176A"/>
</linearGradient>
<linearGradient id="paint4_linear_2501_11844" x1="-278.107" y1="1222.47" x2="5481.14" y2="2929.61" gradientUnits="userSpaceOnUse">
<stop stop-color="#721FA3"/>
<stop offset="0.0628" stop-color="#6F1E9D"/>
<stop offset="0.4346" stop-color="#5D1A81"/>
<stop offset="0.7595" stop-color="#531870"/>
<stop offset="1" stop-color="#4F176A"/>
</linearGradient>
<linearGradient id="paint5_linear_2501_11844" x1="-230.127" y1="1060.61" x2="5529.12" y2="2767.75" gradientUnits="userSpaceOnUse">
<stop stop-color="#721FA3"/>
<stop offset="0.0628" stop-color="#6F1E9D"/>
<stop offset="0.4346" stop-color="#5D1A81"/>
<stop offset="0.7595" stop-color="#531870"/>
<stop offset="1" stop-color="#4F176A"/>
</linearGradient>
<linearGradient id="paint6_linear_2501_11844" x1="-214.798" y1="1008.88" x2="5544.45" y2="2716.02" gradientUnits="userSpaceOnUse">
<stop stop-color="#721FA3"/>
<stop offset="0.0628" stop-color="#6F1E9D"/>
<stop offset="0.4346" stop-color="#5D1A81"/>
<stop offset="0.7595" stop-color="#531870"/>
<stop offset="1" stop-color="#4F176A"/>
</linearGradient>
<linearGradient id="paint7_linear_2501_11844" x1="-187.434" y1="916.553" x2="5571.82" y2="2623.69" gradientUnits="userSpaceOnUse">
<stop stop-color="#721FA3"/>
<stop offset="0.0628" stop-color="#6F1E9D"/>
<stop offset="0.4346" stop-color="#5D1A81"/>
<stop offset="0.7595" stop-color="#531870"/>
<stop offset="1" stop-color="#4F176A"/>
</linearGradient>
<linearGradient id="paint8_linear_2501_11844" x1="-135.234" y1="740.467" x2="5624.02" y2="2447.61" gradientUnits="userSpaceOnUse">
<stop stop-color="#721FA3"/>
<stop offset="0.0628" stop-color="#6F1E9D"/>
<stop offset="0.4346" stop-color="#5D1A81"/>
<stop offset="0.7595" stop-color="#531870"/>
<stop offset="1" stop-color="#4F176A"/>
</linearGradient>
<linearGradient id="paint9_linear_2501_11844" x1="-123.82" y1="701.943" x2="5635.43" y2="2409.08" gradientUnits="userSpaceOnUse">
<stop stop-color="#721FA3"/>
<stop offset="0.0628" stop-color="#6F1E9D"/>
<stop offset="0.4346" stop-color="#5D1A81"/>
<stop offset="0.7595" stop-color="#531870"/>
<stop offset="1" stop-color="#4F176A"/>
</linearGradient>
<linearGradient id="paint10_linear_2501_11844" x1="1105.99" y1="-130.344" x2="3073.84" y2="1109.59" gradientUnits="userSpaceOnUse">
<stop stop-color="#721FA3"/>
<stop offset="0.0628" stop-color="#701E9D"/>
<stop offset="0.4346" stop-color="#661A81"/>
<stop offset="0.7595" stop-color="#601870"/>
<stop offset="1" stop-color="#5E176A"/>
</linearGradient>
<linearGradient id="paint11_linear_2501_11844" x1="72.5103" y1="405.523" x2="3453.07" y2="1988.93" gradientUnits="userSpaceOnUse">
<stop stop-color="#4F176A"/>
<stop offset="0.0806" stop-color="#722063"/>
<stop offset="0.2115" stop-color="#A42D58"/>
<stop offset="0.335" stop-color="#CB3750"/>
<stop offset="0.4476" stop-color="#E83F4A"/>
<stop offset="0.5457" stop-color="#F94346"/>
<stop offset="0.6182" stop-color="#FF4545"/>
</linearGradient>
<linearGradient id="paint12_linear_2501_11844" x1="214.146" y1="103.122" x2="3594.7" y2="1686.53" gradientUnits="userSpaceOnUse">
<stop stop-color="#4F176A"/>
<stop offset="0.0806" stop-color="#722063"/>
<stop offset="0.2115" stop-color="#A42D58"/>
<stop offset="0.324204" stop-color="#CB3750"/>
<stop offset="0.4476" stop-color="#E83F4A"/>
<stop offset="0.5457" stop-color="#F94346"/>
<stop offset="0.6182" stop-color="#FF4545"/>
</linearGradient>
<linearGradient id="paint13_linear_2501_11844" x1="194.959" y1="144.094" x2="3575.51" y2="1727.5" gradientUnits="userSpaceOnUse">
<stop stop-color="#4F176A"/>
<stop offset="0.0806" stop-color="#722063"/>
<stop offset="0.2115" stop-color="#A42D58"/>
<stop offset="0.335" stop-color="#CB3750"/>
<stop offset="0.4476" stop-color="#E83F4A"/>
<stop offset="0.5457" stop-color="#F94346"/>
<stop offset="0.6182" stop-color="#FF4545"/>
</linearGradient>
<linearGradient id="paint14_linear_2501_11844" x1="130.781" y1="281.112" x2="3511.34" y2="1864.52" gradientUnits="userSpaceOnUse">
<stop stop-color="#4F176A"/>
<stop offset="0.0806" stop-color="#722063"/>
<stop offset="0.2115" stop-color="#A42D58"/>
<stop offset="0.335" stop-color="#CB3750"/>
<stop offset="0.4476" stop-color="#E83F4A"/>
<stop offset="0.5457" stop-color="#F94346"/>
<stop offset="0.6182" stop-color="#FF4545"/>
</linearGradient>
<linearGradient id="paint15_linear_2501_11844" x1="1503.5" y1="502.111" x2="1624.68" y2="502.111" gradientUnits="userSpaceOnUse">
<stop stop-color="#721FA3"/>
<stop offset="0.0628" stop-color="#701E9D"/>
<stop offset="0.4346" stop-color="#661A81"/>
<stop offset="0.7595" stop-color="#601870"/>
<stop offset="1" stop-color="#5E176A"/>
</linearGradient>
<linearGradient id="paint16_linear_2501_11844" x1="2062.88" y1="423.658" x2="2184.06" y2="423.658" gradientUnits="userSpaceOnUse">
<stop stop-color="#721FA3"/>
<stop offset="0.0628" stop-color="#701E9D"/>
<stop offset="0.4346" stop-color="#661A81"/>
<stop offset="0.7595" stop-color="#601870"/>
<stop offset="1" stop-color="#5E176A"/>
</linearGradient>
</defs>
</svg>
