<svg width="3583" height="1417" viewBox="0 0 3583 1417" fill="none" xmlns="http://www.w3.org/2000/svg">
<path d="M1458.6 390.349C1477.41 390.349 1495 393.472 1511.37 399.651C1527.73 405.831 1541.92 415.066 1553.94 427.221C1565.96 439.444 1575.33 454.79 1582.12 473.396C1588.91 492.002 1592.31 513.664 1592.31 538.449C1592.31 563.642 1588.78 585.643 1581.85 604.384C1574.86 623.194 1564.94 638.677 1552.18 650.831C1539.41 663.054 1524.06 672.221 1506.34 678.401C1488.55 684.58 1468.86 687.704 1447.26 687.704C1425.67 687.704 1406.59 685.123 1390.02 679.895C1373.45 674.734 1359.94 668.69 1349.55 661.9C1341.13 656.332 1335.15 650.695 1331.55 645.127C1327.95 639.559 1326.19 632.361 1326.19 623.534V290.189C1328.97 289.374 1332.98 288.423 1338.21 287.201C1343.37 285.979 1349.01 285.436 1354.98 285.436C1366.59 285.436 1375.08 287.609 1380.45 292.022C1385.81 296.436 1388.53 303.838 1388.53 314.227V408.954C1397.29 404.133 1407.47 399.855 1419.08 396.052C1430.63 392.25 1443.8 390.349 1458.6 390.349ZM1448.42 440.666C1435.65 440.666 1424.24 442.771 1414.26 446.981C1404.28 451.191 1395.66 456.08 1388.46 461.649V621.089C1394.03 625.096 1401.84 628.694 1411.82 631.886C1421.8 635.078 1433.41 636.707 1446.58 636.707C1470.96 636.707 1490.72 628.694 1505.93 612.737C1521.14 596.779 1528.75 571.994 1528.75 538.381C1528.75 504.429 1521.28 479.643 1506.27 464.025C1491.27 448.475 1471.98 440.666 1448.42 440.666Z" fill="url(#paint0_linear_2501_11900)"/>
<path d="M1907.04 538.994C1907.04 561.742 1903.65 582.385 1896.86 600.719C1890.07 619.121 1880.56 634.671 1868.4 647.505C1856.18 660.271 1841.31 670.186 1823.72 677.18C1806.13 684.174 1786.58 687.637 1764.98 687.637C1743.39 687.637 1723.83 684.106 1706.25 677.18C1688.66 670.186 1673.79 660.271 1661.57 647.505C1649.34 634.739 1639.9 619.121 1633.11 600.719C1626.32 582.317 1622.93 561.742 1622.93 538.994C1622.93 516.178 1626.32 495.602 1633.11 477.268C1639.9 458.866 1649.48 443.316 1661.91 430.482C1674.33 417.648 1689.27 407.801 1706.86 400.807C1724.45 393.813 1743.8 390.35 1764.98 390.35C1786.17 390.35 1805.52 393.881 1823.11 400.807C1840.7 407.801 1855.71 417.783 1868.06 430.821C1880.42 443.791 1890.07 459.409 1896.86 477.608C1903.65 495.738 1907.04 516.245 1907.04 538.994ZM1764.98 440.667C1741.01 440.667 1722 449.291 1708.01 466.471C1694.02 483.651 1687.03 507.825 1687.03 538.994C1687.03 570.162 1693.82 594.268 1707.4 611.244C1720.98 628.22 1740.2 636.708 1764.98 636.708C1789.77 636.708 1808.92 628.22 1822.57 611.244C1836.15 594.268 1842.94 570.162 1842.94 538.994C1842.94 508.233 1836.01 484.126 1822.23 466.743C1808.44 449.359 1789.36 440.667 1764.98 440.667Z" fill="url(#paint1_linear_2501_11900)"/>
<path d="M2057.52 390.35C2094.67 390.35 2124.27 398.431 2146.27 414.66C2168.28 430.821 2179.28 456.353 2179.28 491.121V630.801C2179.28 639.968 2177.17 647.098 2172.96 652.055C2168.75 657.08 2163.05 661.765 2155.85 666.179C2145.46 672.155 2132.08 677.384 2115.65 681.797C2099.28 686.211 2080.27 688.384 2058.68 688.384C2019.9 688.384 1989.62 680.779 1967.82 665.636C1946.02 650.425 1935.16 628.085 1935.16 598.478C1935.16 572.131 1943.65 551.895 1960.62 537.907C1977.6 523.919 2002.11 515.295 2034.1 512.103L2117.41 503.683V490.509C2117.41 472.922 2111.71 460.156 2100.3 452.143C2088.89 444.131 2073 440.124 2052.63 440.124C2036.68 440.124 2021.26 442.297 2006.46 446.711C1991.66 451.125 1978.48 456.082 1966.87 461.718C1962.86 458.526 1959.47 454.656 1956.68 450.038C1953.9 445.421 1952.47 440.328 1952.47 434.76C1952.47 427.969 1954.17 422.401 1957.57 417.987C1960.96 413.573 1966.26 409.771 1973.46 406.579C1984.66 401.011 1997.43 396.869 2011.82 394.288C2026.35 391.64 2041.56 390.35 2057.52 390.35ZM2058.75 639.153C2072.73 639.153 2084.89 637.727 2095.35 634.943C2105.74 632.159 2113.14 629.171 2117.55 625.98V549.858L2052.23 556.445C2033.82 558.482 2020.04 562.556 2010.87 568.736C2001.7 574.915 1997.09 584.422 1997.09 597.188C1997.09 610.361 2002.11 620.683 2012.09 628.085C2021.94 635.418 2037.56 639.153 2058.75 639.153Z" fill="url(#paint2_linear_2501_11900)"/>
<path d="M2459.78 390.349C2471.8 390.349 2483.08 391.639 2493.67 394.219C2504.26 396.8 2513.56 400.127 2521.58 404.133V290.189C2524.36 289.374 2528.37 288.423 2533.6 287.201C2538.76 285.979 2544.39 285.436 2550.37 285.436C2561.98 285.436 2570.54 287.609 2576.17 292.022C2581.74 296.436 2584.59 303.838 2584.59 314.227V628.355C2584.59 636.775 2582.76 643.634 2579.23 649.066C2575.63 654.43 2570.06 659.591 2562.46 664.344C2553.22 670.32 2540.79 675.753 2524.97 680.506C2509.15 685.327 2491.09 687.704 2470.72 687.704C2447.97 687.704 2427.12 684.784 2408.38 679.012C2389.57 673.24 2373.61 664.209 2360.44 652.054C2347.27 639.899 2337.08 624.484 2329.88 605.878C2322.68 587.272 2319.08 565.407 2319.08 540.214C2319.08 514.207 2322.75 491.731 2330.15 472.785C2337.55 453.84 2347.6 438.221 2360.44 425.999C2373.21 413.844 2388.14 404.812 2405.12 399.04C2421.96 393.201 2440.23 390.349 2459.78 390.349ZM2522.12 456.895C2515.33 452.481 2507.32 448.679 2498.15 445.487C2488.98 442.296 2478.73 440.666 2467.59 440.666C2455.57 440.666 2444.51 442.432 2434.32 446.031C2424.13 449.63 2415.24 455.537 2407.63 463.686C2400.03 471.902 2394.05 482.292 2389.64 494.854C2385.22 507.417 2383.05 522.763 2383.05 540.69C2383.05 574.235 2390.93 598.681 2406.75 613.823C2422.5 629.034 2443.62 636.571 2469.97 636.571C2481.99 636.571 2492.04 635.281 2500.25 632.701C2508.47 630.12 2515.74 626.997 2522.12 623.398V456.895V456.895Z" fill="url(#paint3_linear_2501_11900)"/>
<path d="M2694.21 570.773C2699.78 593.589 2710.71 610.429 2726.87 621.43C2743.03 632.43 2763.74 637.931 2788.94 637.931C2805.71 637.931 2821.12 635.35 2835.11 630.122C2849.1 624.961 2860.31 619.325 2868.66 613.349C2879.86 619.732 2885.43 628.764 2885.43 640.307C2885.43 647.098 2882.85 653.413 2877.62 659.185C2872.39 664.957 2865.33 669.982 2856.37 674.192C2847.34 678.402 2836.81 681.662 2824.59 684.106C2812.36 686.483 2799.33 687.705 2785.34 687.705C2762.18 687.705 2741.06 684.514 2722.12 678.13C2703.11 671.747 2686.81 662.173 2673.23 649.339C2659.65 636.573 2649.12 620.751 2641.72 601.941C2634.32 583.132 2630.65 561.402 2630.65 536.617C2630.65 512.646 2634.25 491.528 2641.45 473.398C2648.65 455.199 2658.42 440.056 2670.85 427.833C2683.21 415.678 2697.81 406.375 2714.65 399.924C2731.42 393.541 2749.42 390.35 2768.63 390.35C2787.85 390.35 2805.3 393.473 2821.06 399.653C2836.88 405.832 2850.46 414.456 2861.8 425.457C2873.21 436.457 2881.97 449.563 2888.15 464.706C2894.33 479.916 2897.45 496.485 2897.45 514.48C2897.45 524.462 2895.07 531.796 2890.25 536.345C2885.43 540.963 2878.44 544.018 2869.27 545.648L2694.21 570.773ZM2768.57 438.902C2746.56 438.902 2728.3 446.304 2713.7 461.107C2699.1 475.91 2691.43 497.096 2690.61 524.666L2838.1 503.683C2836.47 485.688 2829.88 470.41 2818.34 457.847C2806.73 445.217 2790.16 438.902 2768.57 438.902Z" fill="url(#paint4_linear_2501_11900)"/>
<path d="M948.413 337.587C951.062 358.23 952.216 378.941 953.235 399.72C954.389 423.486 953.167 447.389 950.79 470.816C948.617 492.274 946.308 514.479 929.604 532.134C906.923 556.104 863.261 549.993 848.322 518.349C839.902 500.49 842.414 481.952 843.976 463.686C846.896 429.53 847.846 395.509 843.704 361.421C842.753 353.408 844.655 345.124 840.988 337.451C842.346 334.87 841.124 332.29 840.716 329.778C835.827 301.937 829.105 274.707 817.968 248.563C804.048 215.969 786.257 186.227 760.453 161.509C735.803 137.879 708.03 120.087 674.485 111.396C633.539 100.735 593.407 103.043 554.566 118.933C507.507 138.15 473.012 172.238 446.665 215.018C427.176 246.662 414.614 281.226 405.718 317.079C404.156 323.53 403.545 325.839 401.372 336.704C396.891 356.94 395.804 366.854 394.921 381.861C393.088 414.251 392.613 446.778 394.582 479.236C395.532 495.126 391.866 509.657 385.279 523.306C376.859 540.622 346.845 551.283 328.578 544.425C304.404 535.325 292.113 516.923 290.008 491.866C286.885 455.13 287.971 418.325 290.484 381.657C291.502 366.786 292.86 352.05 294.965 337.247C297.07 322.919 300.466 310.968 303.386 298.066C311.942 259.971 324.232 223.235 341.956 188.332C368.031 137.132 402.459 92.8577 449.381 59.109C480.549 36.7004 514.23 18.8414 551.781 9.67428C589.672 0.439227 627.767 -3.49922 666.812 3.7666C684.332 7.02603 701.851 10.0817 718.556 15.7178C750.471 26.5147 780.417 41.4537 806.832 62.8438C825.302 77.8507 841.735 94.5553 857.149 112.89C888.589 150.373 910.047 192.881 925.937 238.581C935.647 266.49 940.536 295.689 945.561 324.753C946.444 329.166 947.531 333.309 948.413 337.587Z" fill="url(#paint5_linear_2501_11900)"/>
<path d="M182.733 1036.33L197.876 1122.63C204.802 1123.38 213.494 1123.18 224.019 1122.09C234.476 1121 244.458 1119.58 253.897 1117.95C272.775 1114.62 287.782 1108.03 298.918 1098.05C310.054 1088.07 314.197 1074.83 311.277 1058.33C308.561 1042.78 301.431 1032.59 289.887 1027.84C278.343 1023.09 261.978 1022.54 240.792 1026.21L182.733 1036.33Z" fill="url(#paint6_linear_2501_11900)"/>
<path d="M1275.59 1205.89L1195.05 791.328C1192.54 808.304 1189.69 825.756 1186.63 843.683C1181.67 872.271 1176.44 899.297 1170.94 924.761C1165.44 950.293 1160.08 972.838 1154.72 992.462C1149.42 1012.09 1144.8 1025.94 1140.86 1033.88C1135.23 1040.67 1125.86 1047.46 1112.68 1054.12C1099.51 1060.77 1084.71 1065.6 1068.2 1068.45C1048.38 1071.91 1030.92 1071.91 1015.71 1068.52C1000.57 1065.12 989.435 1058.67 982.441 1049.16C975.379 1039.25 966.551 1026.35 955.958 1010.39C945.365 994.499 934.161 976.64 922.141 956.88C910.19 937.12 897.763 916.069 884.862 893.796C871.96 871.524 859.397 848.843 847.039 825.688C834.748 802.6 823 779.852 811.796 757.511C800.592 735.171 790.61 714.12 781.782 694.224C787.215 686.483 795.703 678.81 807.246 671.204C818.79 663.599 831.624 658.574 845.816 656.062C863.268 653.006 878.139 654.16 890.498 659.525C902.856 664.889 913.382 677.044 922.006 695.922C942.852 739.924 963.427 781.889 983.799 821.817C1004.17 861.745 1025.42 903.371 1047.56 946.626L1051.77 945.879C1056.73 899.365 1061.35 848.708 1065.62 794.044C1069.9 739.381 1073.64 684.989 1076.83 631.005C1084.57 625.301 1093.06 620.14 1102.22 615.658C1111.39 611.109 1122.12 607.781 1134.34 605.676C1142.9 604.182 1151.05 603.707 1158.72 604.318L1131.56 464.366C1112.34 360.54 1090.75 273.35 969.471 290.937L249.34 402.641C127.791 419.21 104.907 449.156 91.5298 573.218L62.4665 795.47C75.0968 789.63 89.9679 784.266 107.08 779.309C130.643 772.518 155.225 766.882 180.689 762.401C241.056 751.807 289.269 753.844 325.326 768.444C361.383 783.044 383.181 811.496 390.583 853.936C394.317 875.122 391.397 894.475 381.823 911.995C372.248 929.446 357.717 943.571 338.228 954.232C362.945 956.744 384.743 965.3 403.62 979.967C422.498 994.635 434.177 1015.21 438.863 1041.63C447.011 1088.28 435.739 1125.9 405.046 1154.35C374.285 1182.8 326.412 1202.76 261.36 1214.17C253.347 1215.6 243.84 1216.96 232.976 1218.45C222.043 1219.88 210.703 1220.89 198.887 1221.5C187.072 1222.12 175.324 1222.32 163.645 1222.18C151.965 1222.05 141.032 1220.89 130.982 1218.79C103.345 1213.42 87.3197 1198.49 83.0417 1173.97L42.9778 945.404L3.25353 1248.94C-20.1057 1395.61 85.7579 1420.33 210.499 1416.46L1093.06 1415.92C1224.59 1416.93 1303.16 1344.89 1275.59 1205.89ZM841.471 981.054C835.087 1011.07 823.068 1037.48 805.413 1060.3C787.758 1083.05 765.145 1101.72 737.576 1116.25C710.007 1130.78 678.499 1141.17 643.188 1147.35C635.176 1148.78 625.941 1150.14 615.483 1151.5C605.026 1152.85 594.161 1153.8 582.821 1154.28C571.481 1154.82 560.073 1154.96 548.665 1154.82C537.189 1154.62 526.46 1153.46 516.342 1151.36C488.705 1145.99 472.68 1131.06 468.402 1106.54L410.547 776.253C408.781 766.339 410.207 758.191 414.621 751.807C419.103 745.424 425.757 739.788 434.585 734.831C453.666 724.713 474.377 716.565 496.65 710.453C518.923 704.342 539.022 699.724 556.949 696.601C593.754 690.15 627.842 688.792 659.35 692.526C690.858 696.261 718.97 705.564 743.688 720.435C768.405 735.307 789.116 755.814 805.888 782.093C822.593 808.304 834.408 840.763 841.131 879.4C847.786 917.156 847.922 951.04 841.471 981.054Z" fill="url(#paint7_linear_2501_11900)"/>
<path d="M667.757 813.262C644.194 795.267 615.878 789.156 582.876 794.928C576.289 796.082 569.567 797.508 562.844 799.138C556.054 800.836 549.263 802.737 542.337 804.91L585.456 1051.06C590.821 1051.13 597.34 1050.79 605.013 1050.18C612.686 1049.57 619.816 1048.69 626.403 1047.53C642.429 1044.75 656.756 1039.79 669.387 1032.73C682.017 1025.67 692.271 1016.3 700.215 1004.75C708.16 993.142 713.457 979.018 716.105 962.245C718.754 945.473 718.142 926.052 714.272 903.915C706.802 861.407 691.32 831.189 667.757 813.262Z" fill="url(#paint8_linear_2501_11900)"/>
<path d="M248.174 858.622C236.223 852.918 219.654 851.967 198.468 855.634C191.406 856.856 183.325 858.554 174.158 860.591C165.059 862.696 157.997 864.665 152.972 866.499L167.571 949.954L219.179 940.922C239.415 937.391 253.539 931.008 261.416 921.841C269.293 912.674 271.941 900.791 269.361 886.191C267.188 873.561 260.125 864.326 248.174 858.622Z" fill="url(#paint9_linear_2501_11900)"/>
<path d="M1606.75 1176.89C1598.94 1183 1587.6 1187.96 1572.6 1191.9C1557.59 1195.77 1540.68 1197.74 1521.8 1197.74C1500.14 1197.74 1481.4 1194.95 1465.58 1189.39C1449.76 1183.82 1438.82 1174.99 1432.71 1162.77C1427.69 1153.33 1421.71 1140.16 1414.79 1123.18C1407.86 1106.27 1400.46 1087.39 1392.72 1066.55C1384.91 1045.7 1376.89 1023.36 1368.54 999.525C1360.19 975.69 1352.31 952.059 1344.78 928.768C1337.24 905.476 1330.45 883 1324.4 861.338C1318.29 839.677 1313.27 820.527 1309.4 803.891C1317.14 796.15 1327.6 789.291 1340.63 783.519C1353.67 777.68 1368 774.76 1383.55 774.76C1402.97 774.76 1418.93 778.766 1431.42 786.847C1443.92 794.927 1453.22 810.002 1459.33 832.207L1491.79 959.596C1497.9 984.585 1503.74 1007.2 1509.31 1027.43C1514.88 1047.74 1519.02 1063.36 1521.8 1074.49H1525.95C1536.47 1033.41 1547.61 987.913 1559.29 937.935C1570.97 887.957 1581.49 838.862 1590.93 790.514C1600.37 785.489 1611.03 781.618 1622.98 778.834C1634.93 776.05 1646.41 774.692 1657.55 774.692C1676.97 774.692 1693.33 778.834 1706.64 787.186C1719.95 795.539 1726.6 809.934 1726.6 830.51C1726.6 839.405 1724.5 852.307 1720.36 869.215C1716.22 886.191 1710.92 905.341 1704.54 926.663C1698.15 948.053 1690.68 970.665 1682.06 994.5C1673.44 1018.4 1664.68 1041.69 1655.85 1064.44C1646.95 1087.19 1638.19 1108.44 1629.64 1128.14C1621.01 1147.83 1613.41 1164.13 1606.75 1176.89Z" fill="url(#paint10_linear_2501_11900)"/>
<path d="M1999.77 1201C1966.97 1201 1936.62 1196.45 1908.58 1187.28C1880.53 1178.11 1856.09 1164.4 1835.31 1146.06C1814.53 1127.73 1798.1 1104.71 1786.21 1076.94C1774.26 1049.16 1768.29 1016.7 1768.29 979.492C1768.29 942.823 1774.26 911.383 1786.21 884.968C1798.16 858.621 1813.85 836.96 1833.27 820.051C1852.69 803.143 1874.9 790.649 1899.88 782.568C1924.87 774.555 1950.41 770.481 1976.48 770.481C2005.88 770.481 2032.71 774.963 2056.81 783.79C2080.99 792.686 2101.77 804.909 2119.29 820.459C2136.8 836.009 2150.39 854.615 2160.1 876.277C2169.81 897.938 2174.7 921.501 2174.7 947.033C2174.7 965.911 2169.4 980.375 2158.87 990.357C2148.35 1000.34 2133.61 1006.72 2114.74 1009.51L1909.05 1040.33C1915.16 1058.67 1927.66 1072.39 1946.54 1081.55C1965.41 1090.72 1987.07 1095.27 2011.52 1095.27C2034.27 1095.27 2055.79 1092.35 2076.03 1086.51C2096.27 1080.67 2112.83 1073.88 2125.6 1066.14C2134.5 1071.71 2141.97 1079.45 2148.08 1089.43C2154.19 1099.41 2157.24 1110.01 2157.24 1121.07C2157.24 1146.06 2145.56 1164.67 2122.27 1176.89C2104.48 1186.33 2084.52 1192.71 2062.31 1196.04C2039.97 1199.37 2019.19 1201 1999.77 1201ZM1976.41 873.764C1963.1 873.764 1951.56 876.005 1941.85 880.419C1932.14 884.901 1924.19 890.536 1918.08 897.463C1911.97 904.389 1907.35 912.198 1904.37 920.754C1901.31 929.378 1899.48 938.138 1898.93 946.965L2041.33 923.674C2039.63 912.606 2033.52 901.469 2023 890.333C2012.54 879.332 1996.99 873.764 1976.41 873.764Z" fill="url(#paint11_linear_2501_11900)"/>
<path d="M2499.35 931.211C2499.35 914.032 2494.46 901.401 2484.75 893.321C2475.04 885.308 2461.87 881.234 2445.23 881.234C2434.1 881.234 2423.16 882.66 2412.37 885.376C2401.57 888.16 2392.27 892.302 2384.46 897.87V1186.81C2378.89 1188.5 2370.13 1190.13 2358.25 1191.83C2346.3 1193.53 2333.94 1194.34 2321.17 1194.34C2308.95 1194.34 2298.02 1193.53 2288.31 1191.83C2278.59 1190.13 2270.38 1186.81 2263.72 1181.85C2257.07 1176.82 2251.91 1170.03 2248.31 1161.48C2244.71 1152.85 2242.88 1141.65 2242.88 1127.73V877.906C2242.88 862.899 2246.07 850.744 2252.45 841.238C2258.83 831.799 2267.59 823.175 2278.66 815.434C2297.54 802.125 2321.24 791.26 2349.83 782.975C2378.41 774.623 2410.19 770.481 2445.17 770.481C2507.91 770.481 2556.19 784.198 2590.07 811.699C2623.96 839.2 2640.87 877.363 2640.87 926.187V1186.81C2635.3 1188.5 2626.54 1190.13 2614.66 1191.83C2602.7 1193.53 2590.35 1194.34 2577.58 1194.34C2565.36 1194.34 2554.42 1193.53 2544.71 1191.83C2535 1190.13 2526.79 1186.81 2520.13 1181.85C2513.48 1176.82 2508.32 1170.03 2504.72 1161.48C2501.12 1152.85 2499.29 1141.65 2499.29 1127.73V931.211H2499.35Z" fill="url(#paint12_linear_2501_11900)"/>
<path d="M2710.89 985.331C2710.89 948.662 2716.46 916.951 2727.53 889.992C2738.59 863.102 2754.01 840.761 2773.77 822.97C2793.46 805.179 2816.48 792.006 2842.9 783.45C2869.24 774.826 2897.69 770.548 2928.25 770.548C2939.32 770.548 2950.19 771.499 2960.71 773.468C2971.24 775.437 2979.86 777.746 2986.51 780.53V645.603C2992.08 643.905 3000.91 642.14 3013.13 640.171C3025.36 638.201 3037.85 637.251 3050.62 637.251C3062.84 637.251 3073.77 638.066 3083.48 639.763C3093.19 641.461 3101.41 644.788 3108.06 649.745C3114.72 654.77 3119.74 661.561 3123.07 670.117C3126.4 678.741 3128.1 689.945 3128.1 703.865V1098.53C3128.1 1124.6 3115.87 1145.45 3091.43 1161C3075.33 1171.53 3054.49 1180.83 3028.95 1188.91C3003.42 1196.92 2974.02 1201 2940.68 1201C2904.62 1201 2872.23 1195.97 2843.64 1185.99C2815.05 1176.01 2790.88 1161.54 2771.19 1142.67C2751.5 1123.79 2736.49 1101.18 2726.24 1074.83C2715.98 1048.48 2710.89 1018.67 2710.89 985.331ZM2947.33 881.233C2917.39 881.233 2894.3 889.857 2878.21 907.037C2862.11 924.216 2854.03 950.36 2854.03 985.331C2854.03 1019.76 2861.5 1045.7 2876.51 1063.22C2891.52 1080.67 2913.18 1089.43 2941.43 1089.43C2951.41 1089.43 2960.44 1087.93 2968.52 1084.88C2976.53 1081.82 2982.78 1078.36 2987.26 1074.49V891.283C2976.19 884.56 2962.88 881.233 2947.33 881.233Z" fill="url(#paint13_linear_2501_11900)"/>
<path d="M3382.8 770.481C3412.81 770.481 3440.11 773.536 3464.82 779.648C3489.54 785.759 3510.59 795.062 3528.11 807.557C3545.63 820.051 3559.08 835.873 3568.52 855.022C3577.95 874.171 3582.64 896.784 3582.64 922.859V1109.39C3582.64 1123.86 3578.63 1135.61 3570.55 1144.77C3562.47 1153.94 3552.9 1161.82 3541.83 1168.54C3505.7 1190.2 3454.91 1201 3389.45 1201C3360.05 1201 3333.5 1198.21 3309.93 1192.65C3286.3 1187.08 3266.07 1178.79 3249.16 1167.66C3232.25 1156.59 3219.21 1142.4 3210.05 1125.22C3200.88 1108.04 3196.33 1088 3196.33 1065.26C3196.33 1026.96 3207.67 997.555 3230.49 976.979C3253.23 956.472 3288.48 943.706 3336.21 938.681L3445.27 927.001V921.162C3445.27 905.068 3438.21 893.524 3424.01 886.598C3409.89 879.672 3389.45 876.209 3362.83 876.209C3341.71 876.209 3321.21 878.449 3301.24 882.863C3281.28 887.345 3263.22 892.845 3247.12 899.5C3239.92 894.475 3233.81 886.87 3228.79 876.616C3223.76 866.363 3221.32 855.701 3221.32 844.565C3221.32 830.169 3224.78 818.625 3231.71 810.001C3238.63 801.377 3249.29 794.044 3263.76 787.932C3279.85 781.821 3298.87 777.407 3320.8 774.623C3342.73 771.907 3363.38 770.481 3382.8 770.481ZM3389.52 1097.78C3398.96 1097.78 3409.35 1096.83 3420.75 1094.86C3432.09 1092.89 3440.58 1090.31 3446.15 1086.92V1020.3L3386.19 1025.33C3370.64 1026.48 3357.87 1029.81 3347.89 1035.31C3337.91 1040.88 3332.89 1049.16 3332.89 1060.3C3332.89 1071.43 3337.16 1080.4 3345.79 1087.39C3354.34 1094.32 3368.94 1097.78 3389.52 1097.78Z" fill="url(#paint14_linear_2501_11900)"/>
<path d="M339.933 570.569C373.91 570.569 401.455 543.024 401.455 509.047C401.455 475.069 373.91 447.525 339.933 447.525C305.955 447.525 278.411 475.069 278.411 509.047C278.411 543.024 305.955 570.569 339.933 570.569Z" fill="url(#paint15_linear_2501_11900)"/>
<path d="M907.734 490.916C941.711 490.916 969.256 463.372 969.256 429.395C969.256 395.417 941.711 367.873 907.734 367.873C873.756 367.873 846.212 395.417 846.212 429.395C846.212 463.372 873.756 490.916 907.734 490.916Z" fill="url(#paint16_linear_2501_11900)"/>
<path d="M1431.28 1331.64V1324.85C1436.65 1327.64 1443.03 1329 1450.36 1329C1457.15 1329 1462.45 1327.5 1466.18 1324.58C1469.92 1321.59 1471.75 1317.59 1471.75 1312.49C1471.75 1307.88 1470.26 1304.01 1467.34 1301.02C1464.35 1297.96 1459.87 1295.18 1453.76 1292.67C1446.7 1289.68 1441.26 1286.28 1437.53 1282.55C1433.79 1278.81 1431.89 1273.92 1431.89 1267.81C1431.89 1261.43 1434.2 1256.27 1438.75 1252.33C1443.3 1248.46 1449.62 1246.49 1457.7 1246.49C1461.09 1246.49 1464.28 1246.76 1467.34 1247.37C1470.33 1247.92 1472.5 1248.53 1473.79 1249.07L1475.76 1249.89V1256.68C1470.26 1254.3 1464.22 1253.15 1457.76 1253.15C1452.26 1253.15 1447.85 1254.44 1444.66 1257.02C1441.47 1259.6 1439.84 1263.13 1439.84 1267.47C1439.84 1271.62 1441.26 1275.15 1444.25 1278C1447.17 1280.85 1451.79 1283.57 1458.1 1286.08C1465.44 1289 1470.87 1292.46 1474.47 1296.33C1478.07 1300.27 1479.9 1305.3 1479.9 1311.48C1479.9 1318.67 1477.39 1324.51 1472.3 1329C1467.2 1333.48 1459.87 1335.72 1450.29 1335.72C1446.7 1335.72 1443.37 1335.38 1440.18 1334.7C1436.99 1334.02 1434.74 1333.34 1433.39 1332.66L1431.28 1331.64Z" fill="#575756"/>
<path d="M1562.35 1335.79C1553.12 1335.79 1545.85 1333.21 1540.55 1328.11C1535.26 1323.02 1532.61 1315.42 1532.61 1305.37V1247.51H1540.55V1305.37C1540.55 1313.24 1542.45 1319.15 1546.19 1323.09C1549.92 1327.03 1555.29 1329 1562.35 1329C1569.28 1329 1574.64 1327.03 1578.51 1323.09C1582.38 1319.15 1584.42 1313.24 1584.49 1305.37V1247.51H1592.43V1305.23C1592.43 1315.35 1589.78 1323.02 1584.42 1328.11C1579.06 1333.21 1571.65 1335.79 1562.35 1335.79Z" fill="#575756"/>
<path d="M1640.22 1334.63L1670.51 1247.1H1676.69L1706.77 1334.63H1698.82L1690.95 1311.75H1655.64L1647.96 1334.63H1640.22ZM1658.01 1304.82H1688.64L1673.15 1259.73L1658.01 1304.82Z" fill="#575756"/>
<path d="M1884.55 1334.63V1247.44H1892.49V1327.57H1929.5V1334.63H1884.55V1334.63Z" fill="#575756"/>
<path d="M2003.73 1335.79C1992.93 1335.79 1984.65 1331.98 1978.81 1324.38C1973.04 1316.77 1970.12 1305.7 1970.12 1291.17C1970.12 1276.5 1972.97 1265.37 1978.74 1257.83C1984.51 1250.29 1992.8 1246.49 2003.66 1246.49C2014.59 1246.49 2022.95 1250.29 2028.72 1257.83C2034.49 1265.37 2037.34 1276.5 2037.34 1291.17C2037.34 1305.7 2034.42 1316.77 2028.65 1324.38C2022.95 1331.92 2014.59 1335.79 2003.73 1335.79ZM2003.73 1328.93C2020.77 1328.93 2029.26 1316.3 2029.26 1291.04C2029.26 1265.71 2020.77 1253.08 2003.73 1253.08C1986.75 1253.08 1978.26 1265.71 1978.26 1291.04C1978.33 1316.3 1986.75 1328.93 2003.73 1328.93Z" fill="#575756"/>
<path d="M2090.77 1335.79C2089.07 1335.79 2087.37 1335.65 2085.67 1335.31C2083.97 1334.97 2082.68 1334.63 2081.87 1334.23L2080.65 1333.75V1326.96C2083.5 1328.32 2086.62 1329 2090.02 1329C2093.21 1329 2095.52 1328.05 2096.94 1326.08C2098.44 1324.11 2099.12 1320.92 2099.12 1316.44V1247.51H2107.06V1316.64C2107.06 1329.41 2101.63 1335.79 2090.77 1335.79Z" fill="#575756"/>
<path d="M2156.64 1334.63L2186.93 1247.1H2193.11L2223.19 1334.63H2215.24L2207.37 1311.75H2172.06L2164.38 1334.63H2156.64ZM2174.43 1304.82H2205.06L2189.58 1259.73L2174.43 1304.82Z" fill="#575756"/>
<path d="M2400.97 1334.63V1247.44H2407.96L2454.07 1321.05V1247.44H2461.4V1334.63H2454.07L2408.3 1261.36V1334.63H2400.97Z" fill="#575756"/>
<path d="M2550.02 1335.79C2539.22 1335.79 2530.94 1331.98 2525.1 1324.38C2519.33 1316.77 2516.41 1305.7 2516.41 1291.17C2516.41 1276.5 2519.26 1265.37 2525.03 1257.83C2530.8 1250.29 2539.09 1246.49 2549.95 1246.49C2560.88 1246.49 2569.24 1250.29 2575.01 1257.83C2580.78 1265.37 2583.63 1276.5 2583.63 1291.17C2583.63 1305.7 2580.71 1316.77 2574.94 1324.38C2569.24 1331.92 2560.88 1335.79 2550.02 1335.79ZM2550.02 1328.93C2567.06 1328.93 2575.55 1316.3 2575.55 1291.04C2575.55 1265.71 2567.06 1253.08 2550.02 1253.08C2533.04 1253.08 2524.55 1265.71 2524.55 1291.04C2524.55 1316.3 2533.04 1328.93 2550.02 1328.93Z" fill="#575756"/>
<path d="M2769.48 1334.63V1247.44H2792.37C2805.2 1247.44 2814.91 1251.11 2821.57 1258.44C2828.22 1265.78 2831.55 1276.37 2831.55 1290.29C2831.55 1304.69 2828.22 1315.62 2821.57 1323.22C2814.91 1330.83 2805.13 1334.63 2792.37 1334.63H2769.48V1334.63ZM2777.43 1327.57H2792.44C2802.49 1327.57 2810.16 1324.45 2815.46 1318.2C2820.75 1311.95 2823.4 1302.65 2823.4 1290.29C2823.4 1278.27 2820.75 1269.31 2815.46 1263.4C2810.16 1257.49 2802.49 1254.5 2792.44 1254.5H2777.43V1327.57Z" fill="#575756"/>
<path d="M2886.49 1334.63V1247.44H2894.43V1334.63H2886.49Z" fill="#575756"/>
<path d="M2988.75 1335.79C2981.69 1335.79 2975.58 1334.7 2970.42 1332.46C2965.26 1330.22 2961.18 1327.1 2958.13 1322.95C2955.07 1318.88 2952.83 1314.19 2951.4 1308.9C2949.98 1303.6 2949.3 1297.69 2949.3 1291.11C2949.3 1277.66 2952.49 1266.8 2958.81 1258.65C2965.12 1250.5 2974.83 1246.42 2987.87 1246.42C2992.01 1246.42 2995.81 1246.76 2999.28 1247.44C3002.74 1248.12 3005.12 1248.8 3006.54 1249.48L3008.58 1250.43V1257.15C3003.22 1254.51 2996.42 1253.15 2988.14 1253.15C2967.7 1253.15 2957.45 1265.78 2957.45 1291.04C2957.45 1302.72 2959.96 1311.95 2965.05 1318.81C2970.15 1325.67 2978.02 1329.06 2988.75 1329.06C2990.58 1329.06 2992.42 1328.93 2994.18 1328.73C2995.95 1328.52 2997.72 1328.11 2999.55 1327.64C3001.38 1327.16 3002.33 1326.89 3002.4 1326.89V1294.3H2979.99V1287.37H3009.8V1331.92C3003.89 1334.43 2996.83 1335.79 2988.75 1335.79Z" fill="#575756"/>
<path d="M3066.01 1334.63V1247.44H3073.95V1334.63H3066.01Z" fill="#575756"/>
<path d="M3149.27 1334.63V1254.5H3123.33V1247.44H3182.95V1254.5H3157.01V1334.63H3149.27Z" fill="#575756"/>
<path d="M3216.17 1334.63L3246.46 1247.1H3252.63L3282.72 1334.63H3274.77L3266.89 1311.75H3231.58L3223.91 1334.63H3216.17ZM3233.96 1304.82H3264.59L3249.1 1259.73L3233.96 1304.82Z" fill="#575756"/>
<path d="M3332.88 1334.63V1247.44H3340.83V1327.57H3377.83V1334.63H3332.88V1334.63Z" fill="#575756"/>
<path d="M3437.34 1254.78C3438.16 1252.88 3438.16 1250.77 3438.7 1248.8C3442.43 1236.04 3450.38 1227.01 3462.74 1222.25C3478.76 1216.14 3495.87 1220.83 3506.94 1233.93C3510.41 1238.01 3512.85 1242.69 3514.34 1247.85C3515.02 1250.3 3514.41 1251.99 3512.58 1252.54C3510.68 1253.08 3509.25 1252.06 3508.51 1249.62C3507.08 1244.8 3504.63 1240.52 3501.31 1236.72C3486.71 1220.28 3459.75 1222.66 3448.34 1241.47C3436.87 1260.35 3445.9 1284.32 3467.02 1290.84C3468.51 1291.31 3469.94 1291.85 3470.21 1293.62C3470.55 1295.86 3468.58 1297.49 3466.34 1296.88C3458.59 1294.77 3452.08 1290.7 3446.85 1284.66C3441.69 1278.68 3438.63 1271.75 3437.54 1263.88C3437.48 1263.61 3437.68 1263.2 3437.21 1263.06C3437.21 1262.52 3437.21 1261.91 3437.21 1261.37C3437.41 1261.16 3437.41 1260.96 3437.21 1260.82C3437.21 1259.67 3437.21 1258.58 3437.21 1257.43C3437.41 1257.29 3437.34 1257.09 3437.34 1256.88C3437.34 1256.68 3437.34 1256.48 3437.21 1256.34C3437.34 1255.66 3437.34 1255.25 3437.34 1254.78Z" fill="#575756"/>
<path d="M3437.34 1256.14C3437.68 1256.2 3437.61 1256.48 3437.61 1256.68C3437.54 1256.82 3437.47 1256.82 3437.34 1256.68C3437.34 1256.54 3437.34 1256.34 3437.34 1256.14Z" fill="#575756"/>
<path d="M3437.34 1256.75C3437.4 1256.75 3437.47 1256.75 3437.61 1256.75C3437.68 1257.02 3437.68 1257.22 3437.34 1257.36C3437.34 1257.09 3437.34 1256.95 3437.34 1256.75Z" fill="#575756"/>
<path d="M3437.34 1260.69C3437.68 1260.89 3437.68 1261.09 3437.34 1261.23C3437.34 1261.09 3437.34 1260.89 3437.34 1260.69Z" fill="#575756"/>
<path d="M3449.49 1258.79C3449.62 1245.82 3458.45 1234.95 3471.15 1232.23C3483.17 1229.65 3496 1236.04 3501.16 1247.11C3502.11 1249.07 3501.64 1250.77 3500.01 1251.59C3498.45 1252.4 3496.75 1251.79 3495.8 1249.89C3493.62 1245.54 3490.43 1242.22 3486.09 1239.91C3473.8 1233.39 3457.63 1241.61 3455.73 1255.39C3454.44 1264.83 3458.59 1273.04 3467.01 1277.59C3467.82 1278.07 3468.7 1278.41 3469.25 1279.29C3469.93 1280.45 3469.86 1281.53 3469.11 1282.62C3468.36 1283.64 3467.28 1284.11 3465.99 1283.71C3463.2 1282.82 3460.96 1281.13 3458.79 1279.29C3452.95 1274.4 3449.42 1266.46 3449.49 1258.79Z" fill="#575756"/>
<path d="M3582.46 1287.78C3581.72 1281.47 3579.48 1275.63 3575.2 1270.87C3567.39 1261.98 3559.44 1253.22 3551.36 1244.59C3545.59 1238.48 3535.47 1240.66 3532.35 1248.47C3532.01 1249.42 3531.74 1249.35 3530.99 1248.87C3524.81 1245.14 3516.87 1247.72 3514.22 1254.37C3513.81 1255.39 3513.47 1255.32 3512.66 1254.85C3508.65 1252.4 3503.08 1252.88 3499.42 1255.87C3497.65 1257.36 3496.43 1259.19 3495.48 1261.64C3494.93 1260.96 3494.59 1260.42 3494.12 1260.01C3490.59 1256.61 3487.4 1252.81 3483.59 1249.69C3477.69 1244.87 3467.98 1247.92 3465.74 1255.26C3464.24 1260.14 3465.6 1264.22 3469.13 1267.75C3482.24 1280.86 3495.34 1293.96 3508.45 1307.07C3508.79 1307.41 3509.26 1307.68 3509.47 1308.29C3509.33 1308.36 3509.19 1308.43 3509.06 1308.43C3501.86 1309.58 3494.59 1310.8 3487.33 1311.82C3481.69 1312.64 3477.08 1314.81 3474.77 1320.31C3471.17 1328.59 3476.74 1334.7 3483.39 1334.64C3502.06 1334.5 3520.74 1334.57 3539.41 1334.57C3548.31 1334.57 3556.05 1331.65 3562.57 1325.54C3566.1 1322.21 3569.56 1318.75 3572.96 1315.28C3577.51 1310.6 3580.56 1305.1 3581.92 1298.71C3582.12 1297.7 3581.99 1296.54 3582.67 1295.66C3582.67 1293.28 3582.67 1290.91 3582.67 1288.53C3582.33 1288.39 3582.46 1288.05 3582.46 1287.78ZM3569.15 1310.46C3565.42 1314.47 3561.62 1318.34 3557.54 1321.94C3552.45 1326.56 3546.27 1328.52 3539.48 1328.52C3530.45 1328.52 3521.42 1328.52 3512.39 1328.52C3502.88 1328.52 3493.37 1328.52 3483.87 1328.52C3480.47 1328.52 3479.11 1326.76 3480.06 1323.5C3481.01 1320.31 3483.25 1318.54 3486.51 1318.07C3496.29 1316.51 3506 1315.01 3515.78 1313.52C3517.21 1313.31 3518.43 1312.84 3518.97 1311.34C3519.52 1309.78 3518.7 1308.7 3517.68 1307.68C3502.95 1292.94 3488.21 1278.21 3473.41 1263.47C3471.98 1262.05 3470.96 1260.42 3471.24 1258.31C3471.51 1256.14 3472.73 1254.58 3474.83 1253.76C3476.87 1253.01 3478.77 1253.42 3480.4 1254.78C3480.81 1255.12 3481.15 1255.46 3481.56 1255.87C3491.13 1265.44 3500.71 1275.02 3510.28 1284.59C3510.96 1285.27 3511.64 1285.95 3512.59 1286.08C3513.74 1286.29 3514.76 1285.88 3515.44 1285C3516.19 1284.05 3516.32 1282.89 3515.71 1281.81C3515.37 1281.26 3514.9 1280.72 3514.49 1280.31C3510.76 1276.58 3507.02 1272.77 3503.29 1269.04C3501.79 1267.55 3500.98 1265.78 3501.45 1263.68C3502.34 1259.53 3507.23 1257.9 3510.48 1260.62C3511.44 1261.43 3512.25 1262.32 3513.13 1263.2C3516.32 1266.39 3519.52 1269.58 3522.64 1272.71C3523.52 1273.59 3524.47 1274.27 3525.76 1274C3526.92 1273.79 3527.73 1273.11 3528.07 1271.96C3528.55 1270.67 3528.07 1269.58 3527.19 1268.7C3525.36 1266.8 3523.52 1265.03 3521.69 1263.2C3521.21 1262.73 3520.74 1262.25 3520.4 1261.71C3518.9 1259.53 3519.31 1256.55 3521.21 1254.71C3523.18 1252.88 3526.37 1252.61 3528.48 1254.44C3530.65 1256.34 3532.69 1258.51 3534.79 1260.62C3535.54 1261.37 3536.36 1261.98 3537.51 1261.91C3539.75 1261.84 3541.11 1259.47 3540.02 1257.5C3539.75 1257.02 3539.41 1256.68 3539.07 1256.27C3537.1 1253.83 3537.31 1250.5 3539.55 1248.53C3541.79 1246.56 3545.25 1246.7 3547.36 1249.01C3554.89 1257.22 3562.36 1265.51 3569.9 1273.79C3571.06 1275.08 3572.14 1276.51 3572.96 1278C3579 1288.8 3577.64 1301.36 3569.15 1310.46Z" fill="#575756"/>
<defs>
<linearGradient id="paint0_linear_2501_11900" x1="-126.167" y1="-247.35" x2="7366.72" y2="3393.23" gradientUnits="userSpaceOnUse">
<stop stop-color="#721FA3"/>
<stop offset="0.0628" stop-color="#6F1E9D"/>
<stop offset="0.4346" stop-color="#5D1A81"/>
<stop offset="0.7595" stop-color="#531870"/>
<stop offset="1" stop-color="#4F176A"/>
</linearGradient>
<linearGradient id="paint1_linear_2501_11900" x1="-74.1519" y1="-354.415" x2="7418.74" y2="3286.16" gradientUnits="userSpaceOnUse">
<stop stop-color="#721FA3"/>
<stop offset="0.0628" stop-color="#6F1E9D"/>
<stop offset="0.4346" stop-color="#5D1A81"/>
<stop offset="0.7595" stop-color="#531870"/>
<stop offset="1" stop-color="#4F176A"/>
</linearGradient>
<linearGradient id="paint2_linear_2501_11900" x1="-18.599" y1="-468.745" x2="7474.29" y2="3171.83" gradientUnits="userSpaceOnUse">
<stop stop-color="#721FA3"/>
<stop offset="0.0628" stop-color="#6F1E9D"/>
<stop offset="0.4346" stop-color="#5D1A81"/>
<stop offset="0.7595" stop-color="#531870"/>
<stop offset="1" stop-color="#4F176A"/>
</linearGradient>
<linearGradient id="paint3_linear_2501_11900" x1="85.5752" y1="-683.167" x2="7578.46" y2="2957.41" gradientUnits="userSpaceOnUse">
<stop stop-color="#721FA3"/>
<stop offset="0.0628" stop-color="#6F1E9D"/>
<stop offset="0.4346" stop-color="#5D1A81"/>
<stop offset="0.7595" stop-color="#531870"/>
<stop offset="1" stop-color="#4F176A"/>
</linearGradient>
<linearGradient id="paint4_linear_2501_11900" x1="118.051" y1="-749.972" x2="7610.95" y2="2890.61" gradientUnits="userSpaceOnUse">
<stop stop-color="#721FA3"/>
<stop offset="0.0628" stop-color="#6F1E9D"/>
<stop offset="0.4346" stop-color="#5D1A81"/>
<stop offset="0.7595" stop-color="#531870"/>
<stop offset="1" stop-color="#4F176A"/>
</linearGradient>
<linearGradient id="paint5_linear_2501_11900" x1="-125.12" y1="-132.976" x2="1872.43" y2="1125.67" gradientUnits="userSpaceOnUse">
<stop stop-color="#721FA3"/>
<stop offset="0.0628" stop-color="#701E9D"/>
<stop offset="0.4346" stop-color="#661A81"/>
<stop offset="0.7595" stop-color="#601870"/>
<stop offset="1" stop-color="#5E176A"/>
</linearGradient>
<linearGradient id="paint6_linear_2501_11900" x1="-1174.18" y1="410.977" x2="2257.39" y2="2018.28" gradientUnits="userSpaceOnUse">
<stop stop-color="#4F176A"/>
<stop offset="0.0806" stop-color="#722063"/>
<stop offset="0.2115" stop-color="#A42D58"/>
<stop offset="0.335" stop-color="#CB3750"/>
<stop offset="0.4476" stop-color="#E83F4A"/>
<stop offset="0.5457" stop-color="#F94346"/>
<stop offset="0.6182" stop-color="#FF4545"/>
</linearGradient>
<linearGradient id="paint7_linear_2501_11900" x1="-1030.41" y1="104.013" x2="2401.16" y2="1711.32" gradientUnits="userSpaceOnUse">
<stop stop-color="#4F176A"/>
<stop offset="0.0806" stop-color="#722063"/>
<stop offset="0.2115" stop-color="#A42D58"/>
<stop offset="0.335" stop-color="#CB3750"/>
<stop offset="0.4476" stop-color="#E83F4A"/>
<stop offset="0.5457" stop-color="#F94346"/>
<stop offset="0.6182" stop-color="#FF4545"/>
</linearGradient>
<linearGradient id="paint8_linear_2501_11900" x1="-1049.9" y1="145.604" x2="2381.67" y2="1752.91" gradientUnits="userSpaceOnUse">
<stop stop-color="#4F176A"/>
<stop offset="0.0806" stop-color="#722063"/>
<stop offset="0.2115" stop-color="#A42D58"/>
<stop offset="0.335" stop-color="#CB3750"/>
<stop offset="0.4476" stop-color="#E83F4A"/>
<stop offset="0.5457" stop-color="#F94346"/>
<stop offset="0.6182" stop-color="#FF4545"/>
</linearGradient>
<linearGradient id="paint9_linear_2501_11900" x1="-1115.05" y1="284.687" x2="2316.52" y2="1891.99" gradientUnits="userSpaceOnUse">
<stop stop-color="#4F176A"/>
<stop offset="0.0806" stop-color="#722063"/>
<stop offset="0.2115" stop-color="#A42D58"/>
<stop offset="0.335" stop-color="#CB3750"/>
<stop offset="0.4476" stop-color="#E83F4A"/>
<stop offset="0.5457" stop-color="#F94346"/>
<stop offset="0.6182" stop-color="#FF4545"/>
</linearGradient>
<linearGradient id="paint10_linear_2501_11900" x1="-284.882" y1="79.2726" x2="7208.01" y2="3719.85" gradientUnits="userSpaceOnUse">
<stop stop-color="#721FA3"/>
<stop offset="0.0628" stop-color="#6F1E9D"/>
<stop offset="0.4346" stop-color="#5D1A81"/>
<stop offset="0.7595" stop-color="#531870"/>
<stop offset="1" stop-color="#4F176A"/>
</linearGradient>
<linearGradient id="paint11_linear_2501_11900" x1="-208.284" y1="-78.4051" x2="7284.61" y2="3562.17" gradientUnits="userSpaceOnUse">
<stop stop-color="#721FA3"/>
<stop offset="0.0628" stop-color="#6F1E9D"/>
<stop offset="0.4346" stop-color="#5D1A81"/>
<stop offset="0.7595" stop-color="#531870"/>
<stop offset="1" stop-color="#4F176A"/>
</linearGradient>
<linearGradient id="paint12_linear_2501_11900" x1="-126.96" y1="-245.77" x2="7365.93" y2="3394.81" gradientUnits="userSpaceOnUse">
<stop stop-color="#721FA3"/>
<stop offset="0.0628" stop-color="#6F1E9D"/>
<stop offset="0.4346" stop-color="#5D1A81"/>
<stop offset="0.7595" stop-color="#531870"/>
<stop offset="1" stop-color="#4F176A"/>
</linearGradient>
<linearGradient id="paint13_linear_2501_11900" x1="8.07803" y1="-523.68" x2="7500.97" y2="3116.9" gradientUnits="userSpaceOnUse">
<stop stop-color="#721FA3"/>
<stop offset="0.0628" stop-color="#6F1E9D"/>
<stop offset="0.4346" stop-color="#5D1A81"/>
<stop offset="0.7595" stop-color="#531870"/>
<stop offset="1" stop-color="#4F176A"/>
</linearGradient>
<linearGradient id="paint14_linear_2501_11900" x1="59.8402" y1="-630.238" x2="7552.73" y2="3010.34" gradientUnits="userSpaceOnUse">
<stop stop-color="#721FA3"/>
<stop offset="0.0628" stop-color="#6F1E9D"/>
<stop offset="0.4346" stop-color="#5D1A81"/>
<stop offset="0.7595" stop-color="#531870"/>
<stop offset="1" stop-color="#4F176A"/>
</linearGradient>
<linearGradient id="paint15_linear_2501_11900" x1="278.415" y1="509.024" x2="401.421" y2="509.024" gradientUnits="userSpaceOnUse">
<stop stop-color="#721FA3"/>
<stop offset="0.0628" stop-color="#701E9D"/>
<stop offset="0.4346" stop-color="#661A81"/>
<stop offset="0.7595" stop-color="#601870"/>
<stop offset="1" stop-color="#5E176A"/>
</linearGradient>
<linearGradient id="paint16_linear_2501_11900" x1="846.207" y1="429.387" x2="969.214" y2="429.387" gradientUnits="userSpaceOnUse">
<stop stop-color="#721FA3"/>
<stop offset="0.0628" stop-color="#701E9D"/>
<stop offset="0.4346" stop-color="#661A81"/>
<stop offset="0.7595" stop-color="#601870"/>
<stop offset="1" stop-color="#5E176A"/>
</linearGradient>
</defs>
</svg>
