<svg width="174" height="69" viewBox="0 0 174 69" fill="none" xmlns="http://www.w3.org/2000/svg">
<path d="M70.8382 19.0097C71.7518 19.0097 72.6059 19.1618 73.4007 19.4627C74.1955 19.7637 74.8848 20.2134 75.4685 20.8054C76.0523 21.4006 76.5074 22.148 76.8372 23.0541C77.167 23.9602 77.3319 25.0151 77.3319 26.2222C77.3319 27.4491 77.1604 28.5205 76.824 29.4333C76.4843 30.3493 76.0028 31.1033 75.3828 31.6952C74.7628 32.2905 74.0174 32.7369 73.1567 33.0379C72.2926 33.3388 71.3362 33.4909 70.2875 33.4909C69.2387 33.4909 68.312 33.3653 67.5073 33.1106C66.7026 32.8593 66.0463 32.565 65.5417 32.2343C65.1328 31.9631 64.8425 31.6886 64.6678 31.4175C64.493 31.1463 64.4072 30.7957 64.4072 30.3658V14.1319C64.5424 14.0922 64.737 14.0459 64.991 13.9864C65.2416 13.9268 65.5153 13.9004 65.8056 13.9004C66.3695 13.9004 66.7817 14.0062 67.0423 14.2212C67.3028 14.4361 67.4347 14.7966 67.4347 15.3026V19.9158C67.8602 19.681 68.3549 19.4726 68.9188 19.2875C69.4795 19.1023 70.1193 19.0097 70.8382 19.0097ZM70.3435 21.4601C69.7235 21.4601 69.1695 21.5627 68.6847 21.7677C68.1999 21.9727 67.781 22.2108 67.4314 22.482V30.2468C67.7019 30.4419 68.0811 30.6172 68.5659 30.7726C69.0507 30.928 69.6147 31.0074 70.2545 31.0074C71.4384 31.0074 72.3982 30.6172 73.1369 29.84C73.8756 29.0629 74.245 27.8558 74.245 26.2189C74.245 24.5654 73.8822 23.3584 73.1534 22.5977C72.4245 21.8404 71.4879 21.4601 70.3435 21.4601Z" fill="url(#paint0_linear_2704_2)"/>
<path d="M92.618 26.2487C92.618 27.3566 92.4531 28.3619 92.1233 29.2548C91.7935 30.151 91.3317 30.9083 90.7414 31.5333C90.1478 32.155 89.4255 32.6378 88.5714 32.9784C87.7172 33.3191 86.7674 33.4877 85.7186 33.4877C84.6699 33.4877 83.7201 33.3158 82.8659 32.9784C82.0118 32.6378 81.2895 32.155 80.6959 31.5333C80.1022 30.9116 79.6438 30.151 79.314 29.2548C78.9842 28.3586 78.8193 27.3566 78.8193 26.2487C78.8193 25.1376 78.9842 24.1356 79.314 23.2427C79.6438 22.3465 80.1088 21.5892 80.7124 20.9642C81.3159 20.3392 82.0414 19.8597 82.8956 19.519C83.7498 19.1784 84.6897 19.0098 85.7186 19.0098C86.7476 19.0098 87.6875 19.1817 88.5417 19.519C89.3959 19.8597 90.1247 20.3458 90.7249 20.9807C91.3252 21.6124 91.7935 22.373 92.1233 23.2592C92.4531 24.1422 92.618 25.1409 92.618 26.2487ZM85.7186 21.4602C84.5545 21.4602 83.631 21.8802 82.9517 22.7169C82.2723 23.5536 81.9326 24.7308 81.9326 26.2487C81.9326 27.7667 82.2624 28.9406 82.922 29.7674C83.5816 30.5941 84.5149 31.0075 85.7186 31.0075C86.9224 31.0075 87.8524 30.5941 88.5153 29.7674C89.1749 28.9406 89.5047 27.7667 89.5047 26.2487C89.5047 24.7507 89.1683 23.5767 88.4988 22.7301C87.8293 21.8835 86.9026 21.4602 85.7186 21.4602Z" fill="url(#paint1_linear_2704_2)"/>
<path d="M99.9253 19.0098C101.729 19.0098 103.167 19.4033 104.236 20.1937C105.304 20.9807 105.839 22.2241 105.839 23.9173V30.7198C105.839 31.1662 105.736 31.5135 105.532 31.7549C105.327 31.9996 105.05 32.2278 104.701 32.4427C104.196 32.7337 103.546 32.9884 102.748 33.2033C101.954 33.4183 101.03 33.5241 99.9814 33.5241C98.0983 33.5241 96.6274 33.1537 95.5687 32.4163C94.5101 31.6755 93.9824 30.5875 93.9824 29.1457C93.9824 27.8625 94.3947 26.8771 95.2192 26.1958C96.0436 25.5146 97.2342 25.0946 98.7875 24.9392L102.834 24.5291V23.8876C102.834 23.0311 102.557 22.4093 102.003 22.0191C101.449 21.6289 100.677 21.4338 99.6879 21.4338C98.9129 21.4338 98.1642 21.5396 97.4453 21.7546C96.7263 21.9695 96.0865 22.2109 95.5226 22.4854C95.328 22.33 95.1631 22.1415 95.0279 21.9166C94.8926 21.6917 94.8234 21.4437 94.8234 21.1725C94.8234 20.8418 94.9058 20.5707 95.0707 20.3557C95.2356 20.1408 95.4929 19.9556 95.8425 19.8001C96.3866 19.529 97.0066 19.3272 97.7058 19.2016C98.4116 19.0726 99.1503 19.0098 99.9253 19.0098ZM99.9847 31.1265C100.664 31.1265 101.254 31.0571 101.762 30.9215C102.267 30.7859 102.626 30.6404 102.841 30.485V26.7779L99.6681 27.0986C98.7743 27.1978 98.1049 27.3963 97.6596 27.6972C97.2144 27.9981 96.9901 28.4611 96.9901 29.0828C96.9901 29.7244 97.2342 30.227 97.719 30.5875C98.1972 30.9447 98.9557 31.1265 99.9847 31.1265Z" fill="url(#paint2_linear_2704_2)"/>
<path d="M119.464 19.0097C120.048 19.0097 120.595 19.0725 121.11 19.1982C121.624 19.3238 122.076 19.4859 122.465 19.681V14.1319C122.601 14.0922 122.795 14.0459 123.049 13.9864C123.3 13.9268 123.573 13.9004 123.864 13.9004C124.428 13.9004 124.843 14.0062 125.117 14.2212C125.387 14.4361 125.526 14.7966 125.526 15.3026V30.6006C125.526 31.0107 125.437 31.3447 125.265 31.6093C125.09 31.8705 124.82 32.1218 124.451 32.3533C124.002 32.6443 123.399 32.9089 122.63 33.1404C121.862 33.3752 120.985 33.4909 119.995 33.4909C118.89 33.4909 117.878 33.3487 116.968 33.0676C116.054 32.7866 115.279 32.3467 114.639 31.7548C114 31.1628 113.505 30.4121 113.155 29.506C112.806 28.5999 112.631 27.5351 112.631 26.3082C112.631 25.0416 112.809 23.947 113.168 23.0243C113.528 22.1017 114.016 21.3411 114.639 20.7458C115.259 20.1539 115.985 19.7141 116.809 19.433C117.627 19.1486 118.514 19.0097 119.464 19.0097ZM122.492 22.2505C122.162 22.0356 121.773 21.8504 121.328 21.6949C120.882 21.5395 120.384 21.4601 119.843 21.4601C119.26 21.4601 118.722 21.5461 118.227 21.7214C117.733 21.8967 117.301 22.1844 116.931 22.5812C116.562 22.9813 116.272 23.4873 116.057 24.0991C115.843 24.7109 115.738 25.4583 115.738 26.3313C115.738 27.965 116.12 29.1555 116.889 29.8929C117.654 30.6337 118.679 31.0008 119.959 31.0008C120.543 31.0008 121.031 30.9379 121.43 30.8123C121.829 30.6866 122.182 30.5345 122.492 30.3592V22.2505Z" fill="url(#paint3_linear_2704_2)"/>
<path d="M130.848 27.7964C131.118 28.9076 131.649 29.7277 132.434 30.2634C133.219 30.7991 134.225 31.067 135.448 31.067C136.263 31.067 137.011 30.9413 137.691 30.6867C138.37 30.4354 138.914 30.1609 139.32 29.8699C139.864 30.1807 140.135 30.6206 140.135 31.1828C140.135 31.5135 140.009 31.821 139.755 32.1021C139.501 32.3832 139.158 32.6279 138.723 32.8329C138.284 33.038 137.773 33.1967 137.18 33.3158C136.586 33.4315 135.953 33.491 135.273 33.491C134.149 33.491 133.123 33.3356 132.203 33.0247C131.28 32.7139 130.488 32.2476 129.829 31.6226C129.169 31.0009 128.658 30.2303 128.298 29.3143C127.939 28.3983 127.761 27.34 127.761 26.133C127.761 24.9656 127.936 23.9372 128.285 23.0542C128.635 22.1679 129.11 21.4305 129.713 20.8352C130.313 20.2433 131.022 19.7902 131.84 19.4761C132.655 19.1652 133.529 19.0098 134.462 19.0098C135.395 19.0098 136.243 19.1619 137.008 19.4628C137.777 19.7638 138.436 20.1837 138.987 20.7195C139.541 21.2552 139.966 21.8935 140.267 22.6309C140.567 23.3717 140.718 24.1786 140.718 25.0549C140.718 25.541 140.603 25.8982 140.369 26.1198C140.135 26.3446 139.795 26.4935 139.35 26.5728L130.848 27.7964ZM134.459 21.3743C133.39 21.3743 132.503 21.7347 131.794 22.4556C131.085 23.1766 130.712 24.2083 130.673 25.551L137.836 24.5291C137.757 23.6528 137.437 22.9087 136.876 22.2969C136.312 21.6818 135.508 21.3743 134.459 21.3743Z" fill="url(#paint4_linear_2704_2)"/>
<path d="M46.0621 16.4405C46.1907 17.4459 46.2468 18.4545 46.2963 19.4664C46.3523 20.6239 46.293 21.7879 46.1776 22.9288C46.072 23.9738 45.9599 25.0552 45.1486 25.915C44.0471 27.0824 41.9265 26.7848 41.201 25.2437C40.792 24.374 40.914 23.4712 40.9899 22.5816C41.1317 20.9182 41.1779 19.2614 40.9767 17.6013C40.9305 17.2111 41.0229 16.8076 40.8448 16.4339C40.9107 16.3083 40.8514 16.1826 40.8316 16.0602C40.5941 14.7044 40.2676 13.3783 39.7268 12.1051C39.0507 10.5177 38.1866 9.06929 36.9334 7.86555C35.7363 6.71472 34.3874 5.84829 32.7582 5.42499C30.7695 4.9058 28.8205 5.01823 26.934 5.79207C24.6486 6.72794 22.9732 8.38805 21.6936 10.4714C20.7471 12.0125 20.137 13.6958 19.7049 15.4418C19.6291 15.756 19.5994 15.8684 19.4939 16.3976C19.2762 17.383 19.2234 17.8659 19.1805 18.5967C19.0915 20.1741 19.0684 21.7582 19.1641 23.3389C19.2102 24.1127 19.0321 24.8204 18.7122 25.4851C18.3033 26.3284 16.8456 26.8476 15.9585 26.5136C14.7844 26.0705 14.1875 25.1743 14.0852 23.954C13.9335 22.1649 13.9863 20.3725 14.1083 18.5868C14.1578 17.8625 14.2237 17.1449 14.326 16.424C14.4282 15.7262 14.5931 15.1442 14.7349 14.5159C15.1505 12.6607 15.7474 10.8716 16.6082 9.1718C17.8746 6.67834 19.5466 4.52219 21.8255 2.87862C23.3393 1.78732 24.975 0.917582 26.7988 0.47114C28.6391 0.0213904 30.4892 -0.170413 32.3855 0.183434C33.2364 0.342169 34.0873 0.490981 34.8986 0.765461C36.4486 1.29127 37.903 2.01881 39.1859 3.0605C40.0829 3.79135 40.8811 4.60486 41.6297 5.49775C43.1566 7.3232 44.1988 9.39337 44.9705 11.619C45.4421 12.9781 45.6796 14.4001 45.9236 15.8155C45.9665 16.0305 46.0193 16.2322 46.0621 16.4405Z" fill="url(#paint5_linear_2704_2)"/>
<path d="M8.87305 50.4688L9.60849 54.6719C9.94488 54.7083 10.367 54.6984 10.8782 54.6455C11.3861 54.5926 11.8709 54.5231 12.3293 54.4437C13.2461 54.2817 13.975 53.9609 14.5158 53.4748C15.0567 52.9887 15.2579 52.3438 15.1161 51.5402C14.9841 50.7829 14.6379 50.2869 14.0772 50.0554C13.5166 49.8239 12.7218 49.7975 11.6928 49.976L8.87305 50.4688Z" fill="url(#paint6_linear_2704_2)"/>
<path d="M61.9517 58.7273L58.0403 38.5382C57.9183 39.365 57.7798 40.2149 57.6313 41.0879C57.3906 42.4802 57.1367 43.7963 56.8695 45.0364C56.6024 46.2799 56.3419 47.3778 56.0813 48.3335C55.8241 49.2892 55.5998 49.9638 55.4085 50.3508C55.1348 50.6815 54.6797 51.0122 54.0399 51.3362C53.4001 51.6603 52.6811 51.8951 51.8797 52.034C50.9167 52.2027 50.0692 52.2027 49.3304 52.0373C48.595 51.872 48.0541 51.5578 47.7144 51.0948C47.3714 50.612 46.9427 49.9837 46.4282 49.2065C45.9137 48.4327 45.3696 47.563 44.7858 46.6006C44.2054 45.6383 43.6019 44.6132 42.9753 43.5285C42.3487 42.4438 41.7385 41.3392 41.1383 40.2116C40.5414 39.0872 39.9708 37.9794 39.4267 36.8914C38.8825 35.8034 38.3977 34.7782 37.969 33.8093C38.2328 33.4323 38.6451 33.0586 39.2057 32.6882C39.7664 32.3178 40.3897 32.0731 41.0789 31.9507C41.9265 31.8019 42.6488 31.8581 43.249 32.1194C43.8492 32.3806 44.3604 32.9726 44.7792 33.8919C45.7917 36.0348 46.791 38.0786 47.7804 40.0231C48.7698 41.9676 49.802 43.9948 50.8772 46.1013L51.0816 46.0649C51.3224 43.7996 51.5466 41.3326 51.7544 38.6705C51.9622 36.0084 52.1436 33.3595 52.2986 30.7305C52.6745 30.4527 53.0868 30.2013 53.532 29.9831C53.9772 29.7615 54.4983 29.5995 55.0919 29.4969C55.5075 29.4242 55.9032 29.4011 56.2759 29.4308L54.9567 22.6151C54.0234 17.5588 52.9747 13.3126 47.0845 14.1691L12.1098 19.6091C6.20645 20.416 5.09504 21.8744 4.44535 27.9162L3.03383 38.74C3.64724 38.4556 4.36949 38.1943 5.20057 37.9529C6.34496 37.6222 7.53882 37.3477 8.77555 37.1295C11.7074 36.6136 14.049 36.7128 15.8002 37.4238C17.5514 38.1348 18.61 39.5204 18.9695 41.5873C19.1509 42.619 19.0091 43.5615 18.5441 44.4147C18.0791 45.2646 17.3733 45.9525 16.4268 46.4717C17.6272 46.594 18.6859 47.0107 19.6027 47.725C20.5195 48.4393 21.0868 49.4413 21.3144 50.7278C21.7101 52.9997 21.1626 54.8317 19.672 56.2173C18.178 57.603 15.8529 58.5752 12.6935 59.1308C12.3044 59.2002 11.8426 59.2664 11.315 59.3391C10.784 59.4086 10.2332 59.4582 9.6594 59.4879C9.08556 59.5177 8.51501 59.5276 7.94777 59.521C7.38052 59.5144 6.84955 59.4582 6.36145 59.3557C5.01919 59.0944 4.24087 58.3669 4.0331 57.1731L2.08731 46.0418L0.158015 60.824C-0.976479 67.967 4.16502 69.1708 10.2234 68.9823L53.0868 68.9558C59.4749 69.0054 63.2906 65.4967 61.9517 58.7273ZM40.8679 47.7779C40.5579 49.2396 39.9741 50.526 39.1167 51.6372C38.2592 52.745 37.161 53.6544 35.822 54.3621C34.4831 55.0698 32.9528 55.5758 31.2379 55.8767C30.8487 55.9462 30.4002 56.0123 29.8923 56.0784C29.3844 56.1446 28.8568 56.1909 28.306 56.214C27.7552 56.2405 27.2012 56.2471 26.6471 56.2405C26.0898 56.2306 25.5687 56.1744 25.0773 56.0718C23.735 55.8106 22.9567 55.083 22.749 53.8892L19.9391 37.8041C19.8534 37.3213 19.9226 36.9244 20.137 36.6136C20.3546 36.3027 20.6778 36.0282 21.1066 35.7868C22.0333 35.2941 23.0392 34.8973 24.1209 34.5996C25.2026 34.302 26.1788 34.0771 27.0495 33.925C28.837 33.6108 30.4925 33.5447 32.0228 33.7266C33.553 33.9085 34.9184 34.3615 36.1188 35.0858C37.3193 35.81 38.3252 36.8087 39.1398 38.0885C39.9511 39.365 40.5249 40.9457 40.8514 42.8274C41.1746 44.6661 41.1812 46.3162 40.8679 47.7779Z" fill="url(#paint7_linear_2704_2)"/>
<path d="M32.4312 39.6066C31.2868 38.7303 29.9115 38.4326 28.3087 38.7137C27.9888 38.7699 27.6623 38.8394 27.3358 38.9188C27.006 39.0014 26.6762 39.094 26.3398 39.1999L28.434 51.1877C28.6946 51.191 29.0112 51.1744 29.3838 51.1447C29.7565 51.1149 30.1028 51.0719 30.4227 51.0157C31.201 50.8801 31.8969 50.6387 32.5103 50.2948C33.1237 49.9508 33.6217 49.4945 34.0076 48.9323C34.3934 48.3668 34.6507 47.679 34.7793 46.8621C34.9079 46.0453 34.8782 45.0995 34.6902 44.0214C34.3275 41.9513 33.5755 40.4797 32.4312 39.6066Z" fill="url(#paint8_linear_2704_2)"/>
<path d="M12.0524 41.814C11.472 41.5362 10.6673 41.4899 9.63834 41.6684C9.29535 41.728 8.90289 41.8107 8.45767 41.9099C8.01574 42.0124 7.67276 42.1083 7.42871 42.1976L8.13777 46.2618L10.6442 45.822C11.627 45.65 12.313 45.3392 12.6955 44.8928C13.0781 44.4463 13.2067 43.8676 13.0814 43.1566C12.9759 42.5415 12.6329 42.0917 12.0524 41.814Z" fill="url(#paint9_linear_2704_2)"/>
<path d="M78.0355 57.3157C77.6562 57.6134 77.1054 57.8548 76.3766 58.0466C75.6477 58.2351 74.8266 58.331 73.9097 58.331C72.8577 58.331 71.9475 58.1954 71.179 57.9242C70.4106 57.6531 69.8796 57.2232 69.5828 56.6279C69.3388 56.1682 69.0486 55.5267 68.7122 54.6999C68.3758 53.8765 68.0163 52.9571 67.6403 51.9419C67.2611 50.9267 66.8719 49.8387 66.4663 48.6779C66.0606 47.5172 65.6781 46.3663 65.312 45.2321C64.9459 44.0978 64.6161 43.0032 64.3226 41.9482C64.0258 40.8933 63.7817 39.9607 63.5938 39.1505C63.9697 38.7735 64.4776 38.4395 65.1108 38.1584C65.744 37.874 66.4399 37.7318 67.1951 37.7318C68.1383 37.7318 68.9133 37.9269 69.5202 38.3205C70.127 38.714 70.5788 39.4481 70.8756 40.5295L72.452 46.7334C72.7488 47.9504 73.0325 49.0516 73.3029 50.0371C73.5733 51.0259 73.7745 51.7865 73.9097 52.3288H74.1109C74.6221 50.3281 75.1629 48.1124 75.7302 45.6785C76.2974 43.2446 76.8086 40.8536 77.267 38.499C77.7255 38.2543 78.2432 38.0658 78.8237 37.9302C79.4041 37.7947 79.9615 37.7285 80.5023 37.7285C81.4455 37.7285 82.2403 37.9302 82.8867 38.337C83.5331 38.7438 83.8563 39.4448 83.8563 40.4469C83.8563 40.8801 83.7541 41.5084 83.5529 42.3318C83.3518 43.1586 83.0945 44.0911 82.7845 45.1295C82.4745 46.1712 82.1117 47.2725 81.6929 48.4332C81.274 49.5973 80.8486 50.7316 80.4199 51.8394C79.9878 52.9472 79.5624 53.9823 79.1469 54.9413C78.728 55.9004 78.3587 56.694 78.0355 57.3157Z" fill="url(#paint10_linear_2704_2)"/>
<path d="M97.1236 58.4897C95.5307 58.4897 94.0565 58.2681 92.6944 57.8217C91.3324 57.3752 90.1451 56.7072 89.1359 55.8143C88.1268 54.9215 87.3287 53.8004 86.7515 52.4478C86.1711 51.0953 85.8809 49.5145 85.8809 47.7023C85.8809 45.9166 86.1711 44.3854 86.7515 43.099C87.332 41.8159 88.0938 40.761 89.037 39.9375C89.9802 39.1141 91.0586 38.5056 92.2723 38.1121C93.4859 37.7219 94.726 37.5234 95.9924 37.5234C97.4204 37.5234 98.7231 37.7417 99.8938 38.1716C101.068 38.6048 102.077 39.2001 102.928 39.9574C103.779 40.7147 104.438 41.6208 104.91 42.6757C105.382 43.7306 105.619 44.8782 105.619 46.1216C105.619 47.0409 105.362 47.7453 104.851 48.2314C104.339 48.7176 103.624 49.0284 102.707 49.164L92.7175 50.6654C93.0143 51.5583 93.6211 52.2263 94.538 52.6727C95.4548 53.1192 96.5069 53.3407 97.6941 53.3407C98.7989 53.3407 99.8444 53.1985 100.827 52.9141C101.81 52.6297 102.615 52.299 103.235 51.922C103.667 52.1932 104.029 52.5702 104.326 53.0563C104.623 53.5424 104.772 54.0583 104.772 54.5974C104.772 55.8143 104.204 56.7204 103.073 57.3157C102.209 57.7754 101.239 58.0862 100.161 58.2483C99.076 58.4103 98.0668 58.4897 97.1236 58.4897ZM95.9891 42.5533C95.3427 42.5533 94.782 42.6625 94.3104 42.8774C93.8388 43.0957 93.4529 43.3702 93.1561 43.7075C92.8593 44.0448 92.6351 44.4251 92.49 44.8418C92.3415 45.2618 92.2525 45.6884 92.2261 46.1183L99.1419 44.984C99.0595 44.4449 98.7626 43.9026 98.2515 43.3603C97.7436 42.8245 96.9883 42.5533 95.9891 42.5533Z" fill="url(#paint11_linear_2704_2)"/>
<path d="M121.387 45.3511C121.387 44.5144 121.15 43.8993 120.678 43.5058C120.206 43.1155 119.567 42.9171 118.759 42.9171C118.218 42.9171 117.687 42.9866 117.162 43.1188C116.638 43.2544 116.186 43.4562 115.807 43.7273V57.7985C115.536 57.8812 115.111 57.9606 114.534 58.0432C113.953 58.1259 113.353 58.1656 112.733 58.1656C112.14 58.1656 111.609 58.1259 111.137 58.0432C110.665 57.9606 110.266 57.7985 109.943 57.5571C109.62 57.3124 109.369 56.9817 109.194 56.565C109.02 56.145 108.931 55.5994 108.931 54.9214V42.7551C108.931 42.0242 109.086 41.4323 109.396 40.9693C109.706 40.5096 110.131 40.0897 110.669 39.7127C111.586 39.0645 112.736 38.5354 114.125 38.1319C115.513 37.7252 117.057 37.5234 118.755 37.5234C121.803 37.5234 124.147 38.1914 125.793 39.5308C127.439 40.8701 128.26 42.7286 128.26 45.1063V57.7985C127.99 57.8812 127.564 57.9606 126.987 58.0432C126.406 58.1259 125.806 58.1656 125.186 58.1656C124.593 58.1656 124.062 58.1259 123.59 58.0432C123.118 57.9606 122.719 57.7985 122.396 57.5571C122.073 57.3124 121.822 56.9817 121.648 56.565C121.473 56.145 121.384 55.5994 121.384 54.9214V45.3511H121.387Z" fill="url(#paint12_linear_2704_2)"/>
<path d="M131.662 47.9867C131.662 46.201 131.933 44.6566 132.47 43.3437C133.008 42.0342 133.756 40.9462 134.716 40.0797C135.672 39.2133 136.79 38.5718 138.073 38.1551C139.353 37.7351 140.735 37.5267 142.219 37.5267C142.756 37.5267 143.284 37.5731 143.795 37.669C144.306 37.7649 144.725 37.8773 145.048 38.0129V31.4419C145.319 31.3592 145.748 31.2733 146.341 31.1774C146.935 31.0815 147.542 31.0352 148.162 31.0352C148.755 31.0352 149.286 31.0748 149.758 31.1575C150.23 31.2402 150.629 31.4022 150.952 31.6436C151.275 31.8884 151.519 32.2191 151.681 32.6357C151.842 33.0557 151.925 33.6014 151.925 34.2793V53.4995C151.925 54.7693 151.331 55.7846 150.144 56.5419C149.362 57.0545 148.35 57.5075 147.11 57.9011C145.87 58.2913 144.442 58.4897 142.822 58.4897C141.071 58.4897 139.498 58.245 138.11 57.7589C136.721 57.2727 135.547 56.5683 134.591 55.649C133.634 54.7297 132.905 53.6284 132.407 52.3453C131.909 51.0622 131.662 49.6105 131.662 47.9867ZM143.146 42.9171C141.691 42.9171 140.57 43.3371 139.788 44.1738C139.007 45.0104 138.614 46.2836 138.614 47.9867C138.614 49.6634 138.977 50.9266 139.706 51.7798C140.435 52.6297 141.487 53.0563 142.859 53.0563C143.343 53.0563 143.782 52.9836 144.175 52.8348C144.564 52.6859 144.867 52.5173 145.085 52.3288V43.4066C144.547 43.0792 143.901 42.9171 143.146 42.9171Z" fill="url(#paint13_linear_2704_2)"/>
<path d="M164.293 37.5234C165.75 37.5234 167.076 37.6722 168.276 37.9699C169.477 38.2675 170.499 38.7206 171.35 39.329C172.201 39.9375 172.854 40.7081 173.312 41.6406C173.771 42.5732 173.998 43.6744 173.998 44.9443V54.0286C173.998 54.733 173.804 55.3051 173.411 55.7515C173.019 56.1979 172.554 56.5816 172.016 56.9089C170.262 57.9639 167.795 58.4897 164.616 58.4897C163.188 58.4897 161.898 58.3541 160.754 58.0829C159.606 57.8118 158.623 57.4083 157.802 56.866C156.981 56.3269 156.348 55.6358 155.903 54.7991C155.457 53.9624 155.236 52.9869 155.236 51.879C155.236 50.0139 155.787 48.582 156.895 47.58C158 46.5813 159.712 45.9595 162.03 45.7148L167.327 45.146V44.8616C167.327 44.0779 166.984 43.5157 166.294 43.1784C165.608 42.8411 164.616 42.6724 163.323 42.6724C162.297 42.6724 161.301 42.7815 160.332 42.9965C159.362 43.2147 158.485 43.4826 157.703 43.8067C157.354 43.562 157.057 43.1916 156.813 42.6922C156.569 42.1929 156.45 41.6737 156.45 41.1314C156.45 40.4303 156.618 39.8681 156.955 39.4481C157.291 39.0281 157.809 38.671 158.511 38.3733C159.293 38.0757 160.216 37.8607 161.281 37.7252C162.347 37.5929 163.349 37.5234 164.293 37.5234ZM164.619 53.4631C165.077 53.4631 165.582 53.4168 166.136 53.3209C166.687 53.225 167.099 53.0993 167.369 52.934V49.6898L164.457 49.9345C163.702 49.9907 163.082 50.1528 162.597 50.4207C162.113 50.6918 161.869 51.0953 161.869 51.6376C161.869 52.18 162.076 52.6165 162.495 52.9571C162.911 53.2944 163.62 53.4631 164.619 53.4631Z" fill="url(#paint14_linear_2704_2)"/>
<path d="M16.5094 27.7872C18.1596 27.7872 19.4974 26.4458 19.4974 24.791C19.4974 23.1363 18.1596 21.7949 16.5094 21.7949C14.8592 21.7949 13.5215 23.1363 13.5215 24.791C13.5215 26.4458 14.8592 27.7872 16.5094 27.7872Z" fill="url(#paint15_linear_2704_2)"/>
<path d="M44.0876 23.9083C45.7378 23.9083 47.0755 22.5669 47.0755 20.9121C47.0755 19.2574 45.7378 17.916 44.0876 17.916C42.4374 17.916 41.0996 19.2574 41.0996 20.9121C41.0996 22.5669 42.4374 23.9083 44.0876 23.9083Z" fill="url(#paint16_linear_2704_2)"/>
<path d="M69.5127 64.8501V64.5194C69.7732 64.655 70.0832 64.7211 70.4394 64.7211C70.7692 64.7211 71.0265 64.6484 71.2078 64.5062C71.3892 64.3606 71.4783 64.1655 71.4783 63.9175C71.4783 63.6926 71.4057 63.5041 71.2639 63.3586C71.1188 63.2098 70.9011 63.0742 70.6043 62.9519C70.2613 62.8064 69.9975 62.641 69.8161 62.4591C69.6347 62.2773 69.5424 62.0391 69.5424 61.7415C69.5424 61.4307 69.6545 61.1793 69.8755 60.9875C70.0964 60.799 70.4031 60.7031 70.7956 60.7031C70.9605 60.7031 71.1155 60.7164 71.2639 60.7461C71.409 60.7726 71.5146 60.8023 71.5772 60.8288L71.6729 60.8685V61.1992C71.4057 61.0834 71.1122 61.0272 70.7989 61.0272C70.5318 61.0272 70.3174 61.09 70.1624 61.2157C70.0074 61.3414 69.9282 61.5133 69.9282 61.725C69.9282 61.9267 69.9975 62.0987 70.1426 62.2376C70.2844 62.3765 70.5087 62.5087 70.8154 62.6311C71.1716 62.7733 71.4354 62.942 71.6102 63.1305C71.785 63.3223 71.874 63.567 71.874 63.8679C71.874 64.2184 71.752 64.5029 71.5047 64.7211C71.2573 64.9394 70.9011 65.0485 70.4361 65.0485C70.2613 65.0485 70.0997 65.032 69.9447 64.9989C69.7897 64.9658 69.6809 64.9328 69.6149 64.8997L69.5127 64.8501Z" fill="#575756"/>
<path d="M75.8771 65.053C75.4286 65.053 75.0757 64.9273 74.8185 64.6793C74.5612 64.4313 74.4326 64.0609 74.4326 63.5714V60.7539H74.8185V63.5714C74.8185 63.9551 74.9108 64.2428 75.0922 64.4346C75.2736 64.6264 75.5341 64.7223 75.8771 64.7223C76.2135 64.7223 76.4741 64.6264 76.662 64.4346C76.85 64.2428 76.9489 63.9551 76.9522 63.5714V60.7539H77.3381V63.5648C77.3381 64.0576 77.2095 64.4313 76.949 64.6793C76.6884 64.9273 76.3289 65.053 75.8771 65.053Z" fill="#575756"/>
<path d="M79.6611 64.9971L81.132 60.7344H81.4321L82.8931 64.9971H82.5073L82.1247 63.8826H80.4098L80.0371 64.9971H79.6611ZM80.5252 63.5453H82.0126L81.2606 61.3495L80.5252 63.5453Z" fill="#575756"/>
<path d="M91.5273 64.9962V60.75H91.9132V64.6522H93.7106V64.9962H91.5273Z" fill="#575756"/>
<path d="M97.3151 65.0518C96.7907 65.0518 96.3884 64.8666 96.1048 64.4962C95.8244 64.1258 95.6826 63.5868 95.6826 62.8791C95.6826 62.1648 95.8211 61.6225 96.1015 61.2554C96.3818 60.8883 96.7841 60.7031 97.3118 60.7031C97.8428 60.7031 98.2484 60.8883 98.5287 61.2554C98.8091 61.6225 98.9476 62.1648 98.9476 62.8791C98.9476 63.5868 98.8058 64.1258 98.5254 64.4962C98.2484 64.8633 97.8428 65.0518 97.3151 65.0518ZM97.3151 64.7178C98.1429 64.7178 98.5551 64.1027 98.5551 62.8725C98.5551 61.639 98.1429 61.0239 97.3151 61.0239C96.4906 61.0239 96.0784 61.639 96.0784 62.8725C96.0817 64.1027 96.4906 64.7178 97.3151 64.7178Z" fill="#575756"/>
<path d="M101.542 65.053C101.46 65.053 101.377 65.0464 101.295 65.0298C101.212 65.0133 101.15 64.9968 101.11 64.9769L101.051 64.9538V64.6231C101.189 64.6892 101.341 64.7223 101.506 64.7223C101.661 64.7223 101.773 64.676 101.842 64.5801C101.915 64.4842 101.948 64.3287 101.948 64.1105V60.7539H102.334V64.1204C102.334 64.7421 102.07 65.053 101.542 65.053Z" fill="#575756"/>
<path d="M104.741 64.9971L106.212 60.7344H106.512L107.973 64.9971H107.587L107.205 63.8826H105.49L105.117 64.9971H104.741ZM105.605 63.5453H107.093L106.341 61.3495L105.605 63.5453Z" fill="#575756"/>
<path d="M116.609 64.9962V60.75H116.949L119.188 64.3348V60.75H119.545V64.9962H119.188L116.966 61.4279V64.9962H116.609Z" fill="#575756"/>
<path d="M123.845 65.0518C123.321 65.0518 122.919 64.8666 122.635 64.4962C122.355 64.1258 122.213 63.5868 122.213 62.8791C122.213 62.1648 122.351 61.6225 122.632 61.2554C122.912 60.8883 123.314 60.7031 123.842 60.7031C124.373 60.7031 124.779 60.8883 125.059 61.2554C125.339 61.6225 125.478 62.1648 125.478 62.8791C125.478 63.5868 125.336 64.1258 125.056 64.4962C124.779 64.8633 124.373 65.0518 123.845 65.0518ZM123.845 64.7178C124.673 64.7178 125.085 64.1027 125.085 62.8725C125.085 61.639 124.673 61.0239 123.845 61.0239C123.021 61.0239 122.609 61.639 122.609 62.8725C122.609 64.1027 123.021 64.7178 123.845 64.7178Z" fill="#575756"/>
<path d="M134.506 64.9962V60.75H135.617C136.241 60.75 136.712 60.9286 137.035 61.2857C137.359 61.6429 137.52 62.1588 137.52 62.8367C137.52 63.5378 137.359 64.0702 137.035 64.4406C136.712 64.811 136.237 64.9962 135.617 64.9962H134.506ZM134.892 64.6522H135.621C136.109 64.6522 136.481 64.5001 136.739 64.1959C136.996 63.8916 137.124 63.4386 137.124 62.8367C137.124 62.2514 136.996 61.8148 136.739 61.5271C136.481 61.2394 136.109 61.0939 135.621 61.0939H134.892V64.6522Z" fill="#575756"/>
<path d="M140.188 64.9962V60.75H140.573V64.9962H140.188Z" fill="#575756"/>
<path d="M145.155 65.0532C144.812 65.0532 144.516 65.0002 144.265 64.8911C144.014 64.782 143.816 64.6299 143.668 64.4281C143.52 64.2297 143.411 64.0015 143.341 63.7436C143.272 63.4856 143.239 63.1979 143.239 62.8772C143.239 62.2224 143.394 61.6933 143.701 61.2964C144.008 60.8996 144.479 60.7012 145.112 60.7012C145.314 60.7012 145.498 60.7177 145.667 60.7508C145.835 60.7838 145.95 60.8169 146.019 60.85L146.118 60.8963V61.2237C145.858 61.0947 145.528 61.0286 145.126 61.0286C144.133 61.0286 143.635 61.6437 143.635 62.8739C143.635 63.4427 143.757 63.8924 144.004 64.2264C144.252 64.5604 144.634 64.7258 145.155 64.7258C145.244 64.7258 145.333 64.7192 145.419 64.7092C145.505 64.6993 145.591 64.6795 145.68 64.6563C145.769 64.6332 145.815 64.6199 145.818 64.6199V63.0326H144.73V62.6953H146.178V64.8647C145.891 64.987 145.548 65.0532 145.155 65.0532Z" fill="#575756"/>
<path d="M148.907 64.9962V60.75H149.293V64.9962H148.907Z" fill="#575756"/>
<path d="M152.951 64.9962V61.0939H151.691V60.75H154.587V61.0939H153.327V64.9962H152.951Z" fill="#575756"/>
<path d="M156.199 64.9971L157.67 60.7344H157.97L159.431 64.9971H159.045L158.663 63.8826H156.948L156.575 64.9971H156.199ZM157.063 63.5453H158.551L157.799 61.3495L157.063 63.5453Z" fill="#575756"/>
<path d="M161.87 64.9962V60.75H162.256V64.6522H164.053V64.9962H161.87Z" fill="#575756"/>
<path d="M166.942 61.1077C166.982 61.0151 166.982 60.9126 167.008 60.8167C167.189 60.195 167.575 59.7551 168.176 59.5236C168.954 59.226 169.785 59.4542 170.323 60.0924C170.491 60.2909 170.609 60.519 170.682 60.7704C170.715 60.8894 170.685 60.9721 170.596 60.9985C170.504 61.025 170.435 60.9754 170.398 60.8563C170.329 60.6216 170.21 60.4132 170.049 60.228C169.34 59.4277 168.03 59.5435 167.476 60.4595C166.919 61.3788 167.358 62.5462 168.383 62.8637C168.456 62.8868 168.525 62.9133 168.538 62.9993C168.555 63.1084 168.459 63.1878 168.35 63.158C167.974 63.0555 167.658 62.8571 167.404 62.5628C167.153 62.2717 167.005 61.9344 166.952 61.5508C166.949 61.5376 166.959 61.5177 166.936 61.5111C166.936 61.4847 166.936 61.4549 166.936 61.4285C166.945 61.4185 166.945 61.4086 166.936 61.402C166.936 61.3458 166.936 61.2929 166.936 61.2367C166.945 61.23 166.942 61.2201 166.942 61.2102C166.942 61.2003 166.942 61.1904 166.936 61.1837C166.942 61.1507 166.942 61.1308 166.942 61.1077Z" fill="#575756"/>
<path d="M166.942 61.1738C166.959 61.1771 166.956 61.1904 166.956 61.2004C166.952 61.207 166.949 61.207 166.942 61.2004C166.942 61.1937 166.942 61.1838 166.942 61.1738Z" fill="#575756"/>
<path d="M166.942 61.2051C166.946 61.2051 166.949 61.2051 166.956 61.2051C166.959 61.2183 166.959 61.2283 166.942 61.2349C166.942 61.2217 166.942 61.215 166.942 61.2051Z" fill="#575756"/>
<path d="M166.942 61.3965C166.959 61.4066 166.959 61.4167 166.942 61.4235C166.942 61.4167 166.942 61.4066 166.942 61.3965Z" fill="#575756"/>
<path d="M167.533 61.3036C167.54 60.6718 167.969 60.1425 168.585 60.0102C169.169 59.8845 169.792 60.1955 170.043 60.7347C170.089 60.8306 170.066 60.9133 169.987 60.953C169.911 60.9927 169.829 60.9629 169.782 60.8703C169.677 60.6586 169.522 60.4965 169.311 60.384C168.714 60.0665 167.929 60.4667 167.837 61.1382C167.774 61.5981 167.975 61.9983 168.384 62.2199C168.424 62.2431 168.467 62.2596 168.493 62.3026C168.526 62.3589 168.523 62.4118 168.486 62.4647C168.45 62.5144 168.397 62.5375 168.335 62.5177C168.199 62.4747 168.091 62.392 167.985 62.3026C167.701 62.0645 167.53 61.6774 167.533 61.3036Z" fill="#575756"/>
<path d="M173.989 62.7164C173.953 62.4089 173.844 62.1245 173.636 61.893C173.257 61.4598 172.871 61.0332 172.479 60.6132C172.199 60.3156 171.707 60.4214 171.555 60.8017C171.539 60.848 171.526 60.8447 171.489 60.8215C171.189 60.6397 170.803 60.7653 170.675 61.0894C170.655 61.139 170.639 61.1357 170.599 61.1126C170.404 60.9935 170.134 61.0167 169.956 61.1622C169.87 61.2349 169.811 61.3242 169.765 61.4433C169.738 61.4102 169.722 61.3837 169.699 61.3639C169.527 61.1985 169.372 61.0133 169.187 60.8612C168.901 60.6264 168.429 60.7752 168.32 61.1324C168.248 61.3705 168.314 61.5689 168.485 61.7409C169.122 62.3791 169.758 63.0174 170.395 63.6556C170.411 63.6722 170.434 63.6854 170.444 63.7151C170.437 63.7185 170.431 63.7218 170.424 63.7218C170.075 63.778 169.722 63.8375 169.369 63.8871C169.095 63.9268 168.871 64.0326 168.759 64.3005C168.584 64.7039 168.854 65.0016 169.178 64.9983C170.085 64.9916 170.991 64.9949 171.898 64.9949C172.33 64.9949 172.706 64.8528 173.023 64.5551C173.194 64.3931 173.363 64.2244 173.528 64.0558C173.749 63.8276 173.897 63.5597 173.963 63.2489C173.973 63.1993 173.966 63.143 173.999 63.1001C173.999 62.9843 173.999 62.8686 173.999 62.7528C173.983 62.7462 173.989 62.7297 173.989 62.7164ZM173.343 63.821C173.162 64.0161 172.977 64.2046 172.779 64.3799C172.532 64.6047 172.232 64.7006 171.902 64.7006C171.463 64.7006 171.024 64.7006 170.586 64.7006C170.124 64.7006 169.662 64.7006 169.201 64.7006C169.036 64.7006 168.97 64.6147 169.016 64.4559C169.062 64.3005 169.171 64.2145 169.329 64.1914C169.804 64.1153 170.276 64.0425 170.751 63.9698C170.82 63.9599 170.879 63.9367 170.906 63.864C170.932 63.7879 170.893 63.735 170.843 63.6854C170.127 62.9678 169.412 62.2502 168.693 61.5325C168.624 61.4631 168.574 61.3837 168.587 61.2812C168.6 61.1754 168.66 61.0993 168.762 61.0596C168.861 61.0233 168.953 61.0431 169.032 61.1092C169.052 61.1258 169.069 61.1423 169.089 61.1622C169.554 61.6284 170.019 62.0947 170.484 62.561C170.517 62.5941 170.55 62.6272 170.596 62.6338C170.652 62.6437 170.701 62.6238 170.734 62.5809C170.77 62.5346 170.777 62.4783 170.747 62.4254C170.731 62.399 170.708 62.3725 170.688 62.3527C170.507 62.1708 170.325 61.9856 170.144 61.8037C170.071 61.731 170.032 61.645 170.055 61.5425C170.098 61.3407 170.335 61.2614 170.493 61.3937C170.54 61.4333 170.579 61.4763 170.622 61.5193C170.777 61.6747 170.932 61.8302 171.084 61.9823C171.127 62.0253 171.173 62.0584 171.236 62.0451C171.292 62.0352 171.331 62.0021 171.348 61.9459C171.371 61.8831 171.348 61.8302 171.305 61.7872C171.216 61.6946 171.127 61.6086 171.038 61.5193C171.015 61.4962 170.991 61.473 170.975 61.4466C170.902 61.3407 170.922 61.1952 171.015 61.1059C171.11 61.0167 171.265 61.0034 171.367 61.0927C171.473 61.1853 171.572 61.2911 171.674 61.3937C171.71 61.43 171.75 61.4598 171.806 61.4565C171.915 61.4532 171.981 61.3374 171.928 61.2415C171.915 61.2184 171.898 61.2018 171.882 61.182C171.786 61.0629 171.796 60.9009 171.905 60.805C172.014 60.7091 172.182 60.7157 172.284 60.8282C172.65 61.2283 173.013 61.6318 173.379 62.0352C173.435 62.098 173.488 62.1675 173.528 62.2402C173.821 62.766 173.755 63.3778 173.343 63.821Z" fill="#575756"/>
<defs>
<linearGradient id="paint0_linear_2704_2" x1="-6.12968" y1="-12.0464" x2="358.159" y2="164.467" gradientUnits="userSpaceOnUse">
<stop stop-color="#721FA3"/>
<stop offset="0.0628" stop-color="#6F1E9D"/>
<stop offset="0.4346" stop-color="#5D1A81"/>
<stop offset="0.7595" stop-color="#531870"/>
<stop offset="1" stop-color="#4F176A"/>
</linearGradient>
<linearGradient id="paint1_linear_2704_2" x1="-3.60311" y1="-17.2605" x2="360.685" y2="159.253" gradientUnits="userSpaceOnUse">
<stop stop-color="#721FA3"/>
<stop offset="0.0628" stop-color="#6F1E9D"/>
<stop offset="0.4346" stop-color="#5D1A81"/>
<stop offset="0.7595" stop-color="#531870"/>
<stop offset="1" stop-color="#4F176A"/>
</linearGradient>
<linearGradient id="paint2_linear_2704_2" x1="-0.906145" y1="-22.8283" x2="363.382" y2="153.685" gradientUnits="userSpaceOnUse">
<stop stop-color="#721FA3"/>
<stop offset="0.0628" stop-color="#6F1E9D"/>
<stop offset="0.4346" stop-color="#5D1A81"/>
<stop offset="0.7595" stop-color="#531870"/>
<stop offset="1" stop-color="#4F176A"/>
</linearGradient>
<linearGradient id="paint3_linear_2704_2" x1="4.15549" y1="-33.2708" x2="368.444" y2="143.243" gradientUnits="userSpaceOnUse">
<stop stop-color="#721FA3"/>
<stop offset="0.0628" stop-color="#6F1E9D"/>
<stop offset="0.4346" stop-color="#5D1A81"/>
<stop offset="0.7595" stop-color="#531870"/>
<stop offset="1" stop-color="#4F176A"/>
</linearGradient>
<linearGradient id="paint4_linear_2704_2" x1="5.73073" y1="-36.5241" x2="370.019" y2="139.99" gradientUnits="userSpaceOnUse">
<stop stop-color="#721FA3"/>
<stop offset="0.0628" stop-color="#6F1E9D"/>
<stop offset="0.4346" stop-color="#5D1A81"/>
<stop offset="0.7595" stop-color="#531870"/>
<stop offset="1" stop-color="#4F176A"/>
</linearGradient>
<linearGradient id="paint5_linear_2704_2" x1="-6.07639" y1="-6.47596" x2="91.0895" y2="54.5805" gradientUnits="userSpaceOnUse">
<stop stop-color="#721FA3"/>
<stop offset="0.0628" stop-color="#701E9D"/>
<stop offset="0.4346" stop-color="#661A81"/>
<stop offset="0.7595" stop-color="#601870"/>
<stop offset="1" stop-color="#5E176A"/>
</linearGradient>
<linearGradient id="paint6_linear_2704_2" x1="-57.0286" y1="20.0141" x2="109.797" y2="97.9397" gradientUnits="userSpaceOnUse">
<stop stop-color="#4F176A"/>
<stop offset="0.0806" stop-color="#722063"/>
<stop offset="0.2115" stop-color="#A42D58"/>
<stop offset="0.335" stop-color="#CB3750"/>
<stop offset="0.4476" stop-color="#E83F4A"/>
<stop offset="0.5457" stop-color="#F94346"/>
<stop offset="0.6182" stop-color="#FF4545"/>
</linearGradient>
<linearGradient id="paint7_linear_2704_2" x1="-50.0442" y1="5.06585" x2="116.781" y2="82.9914" gradientUnits="userSpaceOnUse">
<stop stop-color="#4F176A"/>
<stop offset="0.0806" stop-color="#722063"/>
<stop offset="0.2115" stop-color="#A42D58"/>
<stop offset="0.335" stop-color="#CB3750"/>
<stop offset="0.4476" stop-color="#E83F4A"/>
<stop offset="0.5457" stop-color="#F94346"/>
<stop offset="0.6182" stop-color="#FF4545"/>
</linearGradient>
<linearGradient id="paint8_linear_2704_2" x1="-50.9909" y1="7.09154" x2="115.835" y2="85.0171" gradientUnits="userSpaceOnUse">
<stop stop-color="#4F176A"/>
<stop offset="0.0806" stop-color="#722063"/>
<stop offset="0.2115" stop-color="#A42D58"/>
<stop offset="0.335" stop-color="#CB3750"/>
<stop offset="0.4476" stop-color="#E83F4A"/>
<stop offset="0.5457" stop-color="#F94346"/>
<stop offset="0.6182" stop-color="#FF4545"/>
</linearGradient>
<linearGradient id="paint9_linear_2704_2" x1="-54.1555" y1="13.8632" x2="112.67" y2="91.7887" gradientUnits="userSpaceOnUse">
<stop stop-color="#4F176A"/>
<stop offset="0.0806" stop-color="#722063"/>
<stop offset="0.2115" stop-color="#A42D58"/>
<stop offset="0.335" stop-color="#CB3750"/>
<stop offset="0.4476" stop-color="#E83F4A"/>
<stop offset="0.5457" stop-color="#F94346"/>
<stop offset="0.6182" stop-color="#FF4545"/>
</linearGradient>
<linearGradient id="paint10_linear_2704_2" x1="-13.836" y1="3.86145" x2="350.452" y2="180.375" gradientUnits="userSpaceOnUse">
<stop stop-color="#721FA3"/>
<stop offset="0.0628" stop-color="#6F1E9D"/>
<stop offset="0.4346" stop-color="#5D1A81"/>
<stop offset="0.7595" stop-color="#531870"/>
<stop offset="1" stop-color="#4F176A"/>
</linearGradient>
<linearGradient id="paint11_linear_2704_2" x1="-10.1156" y1="-3.8175" x2="354.173" y2="172.696" gradientUnits="userSpaceOnUse">
<stop stop-color="#721FA3"/>
<stop offset="0.0628" stop-color="#6F1E9D"/>
<stop offset="0.4346" stop-color="#5D1A81"/>
<stop offset="0.7595" stop-color="#531870"/>
<stop offset="1" stop-color="#4F176A"/>
</linearGradient>
<linearGradient id="paint12_linear_2704_2" x1="-6.16574" y1="-11.9682" x2="358.122" y2="164.545" gradientUnits="userSpaceOnUse">
<stop stop-color="#721FA3"/>
<stop offset="0.0628" stop-color="#6F1E9D"/>
<stop offset="0.4346" stop-color="#5D1A81"/>
<stop offset="0.7595" stop-color="#531870"/>
<stop offset="1" stop-color="#4F176A"/>
</linearGradient>
<linearGradient id="paint13_linear_2704_2" x1="0.394115" y1="-25.5024" x2="364.682" y2="151.011" gradientUnits="userSpaceOnUse">
<stop stop-color="#721FA3"/>
<stop offset="0.0628" stop-color="#6F1E9D"/>
<stop offset="0.4346" stop-color="#5D1A81"/>
<stop offset="0.7595" stop-color="#531870"/>
<stop offset="1" stop-color="#4F176A"/>
</linearGradient>
<linearGradient id="paint14_linear_2704_2" x1="2.90577" y1="-30.6919" x2="367.194" y2="145.822" gradientUnits="userSpaceOnUse">
<stop stop-color="#721FA3"/>
<stop offset="0.0628" stop-color="#6F1E9D"/>
<stop offset="0.4346" stop-color="#5D1A81"/>
<stop offset="0.7595" stop-color="#531870"/>
<stop offset="1" stop-color="#4F176A"/>
</linearGradient>
<linearGradient id="paint15_linear_2704_2" x1="13.5216" y1="24.7899" x2="19.4957" y2="24.7899" gradientUnits="userSpaceOnUse">
<stop stop-color="#721FA3"/>
<stop offset="0.0628" stop-color="#701E9D"/>
<stop offset="0.4346" stop-color="#661A81"/>
<stop offset="0.7595" stop-color="#601870"/>
<stop offset="1" stop-color="#5E176A"/>
</linearGradient>
<linearGradient id="paint16_linear_2704_2" x1="41.0994" y1="20.9118" x2="47.0735" y2="20.9118" gradientUnits="userSpaceOnUse">
<stop stop-color="#721FA3"/>
<stop offset="0.0628" stop-color="#701E9D"/>
<stop offset="0.4346" stop-color="#661A81"/>
<stop offset="0.7595" stop-color="#601870"/>
<stop offset="1" stop-color="#5E176A"/>
</linearGradient>
</defs>
</svg>
