<svg width="29" height="29" viewBox="0 0 29 29" fill="none" xmlns="http://www.w3.org/2000/svg">
<path d="M21.4348 2.63636H1.26087V0H21.4348V2.63636ZM20.8043 14.5H18.913V21.0909L23.4648 23.9382L24.4104 22.33L20.8043 20.1023V14.5ZM29 19.7727C29 24.8741 25.0535 29 20.1739 29C15.723 29 12.0665 25.5595 11.4487 21.0909H1.26087V13.1818H0V10.5455L1.26087 3.95455H21.4348L22.6957 10.5455V10.9277C26.3396 12.0745 29 15.5941 29 19.7727ZM2.57217 10.5455H20.1235L19.367 6.59091H3.3287L2.57217 10.5455ZM3.78261 18.4545H11.3478V13.1818H3.78261V18.4545ZM26.4783 19.7727C26.4783 16.1345 23.6539 13.1818 20.1739 13.1818C16.6939 13.1818 13.8696 16.1345 13.8696 19.7727C13.8696 23.4109 16.6939 26.3636 20.1739 26.3636C23.6539 26.3636 26.4783 23.4109 26.4783 19.7727Z" fill="#AC4EDF"/>
</svg>
