<svg width="18" height="14" viewBox="0 0 18 14" fill="none" xmlns="http://www.w3.org/2000/svg">
<path d="M3.27273 0H18V10.5H3.27273V0ZM10.6364 2.625C11.2873 2.625 11.9117 2.90156 12.372 3.39384C12.8323 3.88613 13.0909 4.55381 13.0909 5.25C13.0909 5.94619 12.8323 6.61387 12.372 7.10616C11.9117 7.59844 11.2873 7.875 10.6364 7.875C9.98538 7.875 9.36105 7.59844 8.90074 7.10616C8.44042 6.61387 8.18182 5.94619 8.18182 5.25C8.18182 4.55381 8.44042 3.88613 8.90074 3.39384C9.36105 2.90156 9.98538 2.625 10.6364 2.625ZM6.54545 1.75C6.54545 2.21413 6.37305 2.65925 6.06617 2.98744C5.7593 3.31563 5.34308 3.5 4.90909 3.5V7C5.34308 7 5.7593 7.18437 6.06617 7.51256C6.37305 7.84075 6.54545 8.28587 6.54545 8.75H14.7273C14.7273 8.28587 14.8997 7.84075 15.2066 7.51256C15.5134 7.18437 15.9296 7 16.3636 7V3.5C15.9296 3.5 15.5134 3.31563 15.2066 2.98744C14.8997 2.65925 14.7273 2.21413 14.7273 1.75H6.54545ZM0 3.5H1.63636V12.25H14.7273V14H0V3.5Z" fill="#363F4E"/>
</svg>
