<svg width="449" height="380" viewBox="0 0 449 380" fill="none" xmlns="http://www.w3.org/2000/svg">
<path d="M53.7922 228.902C117.834 184.392 96.6335 95.0837 134.241 51.0494C223.397 -35.6282 467.94 -5.27129 432.972 153.92C417.77 213.208 308.559 241.258 277.528 265.298C227.184 295.226 181.17 339.932 125.731 356.623C40.0366 389.774 -24.0401 273.481 53.7922 228.902Z" fill="#FF7A00"/>
<path opacity="0.9" d="M53.7922 228.902C117.834 184.392 96.6335 95.0837 134.241 51.0494C223.397 -35.6282 467.94 -5.27129 432.972 153.92C417.77 213.208 308.559 241.258 277.528 265.298C227.184 295.226 181.17 339.932 125.731 356.623C40.0366 389.774 -24.0401 273.481 53.7922 228.902Z" fill="white"/>
<path d="M224.5 398.536C348.488 398.536 449 392.662 449 385.415C449 378.168 348.488 372.294 224.5 372.294C100.512 372.294 0 378.168 0 385.415C0 392.662 100.512 398.536 224.5 398.536Z" fill="#F5F5F5"/>
<path d="M226.424 303.397L227.733 298.912H164.05L140.047 380.779H151.626L163.204 341.369H178.581L190.16 380.779H203.776L215.355 341.369H230.639L242.218 380.779H249.165L226.424 303.397ZM164.107 338.286L170.881 315.197L177.643 338.286H164.107ZM194.571 372.387L185.493 341.416H203.66L194.571 372.387ZM204.575 338.286H184.567L174.343 303.397L174.737 302.041H215.239L204.575 338.286ZM216.154 338.286L222.927 315.197L229.689 338.286H216.154Z" fill="#FF7A00"/>
<path opacity="0.2" d="M226.424 303.397L227.733 298.912H164.05L140.047 380.779H151.626L163.204 341.369H178.581L190.16 380.779H203.776L215.355 341.369H230.639L242.218 380.779H249.165L226.424 303.397ZM164.107 338.286L170.881 315.197L177.643 338.286H164.107ZM194.571 372.387L185.493 341.416H203.66L194.571 372.387ZM204.575 338.286H184.567L174.343 303.397L174.737 302.041H215.239L204.575 338.286ZM216.154 338.286L222.927 315.197L229.689 338.286H216.154Z" fill="black"/>
<path d="M230.119 298.912H171.125L195.128 380.779H202.075L190.496 341.369H235.653L247.232 380.779H254.179L230.119 298.912ZM189.593 338.321L178.964 302.076H224.121L234.739 338.321H189.593Z" fill="#FF7A00"/>
<path opacity="0.4" d="M230.119 298.912H171.125L195.128 380.779H202.075L190.496 341.369H235.653L247.232 380.779H254.179L230.119 298.912ZM189.651 338.286L179.022 302.041H224.179L234.796 338.286H189.651Z" fill="white"/>
<path d="M228.913 4.85941C228.913 4.85941 231.472 -1.22587 245.413 0.223005C255.544 1.27779 261.704 12.1965 260.94 27.6473C260.176 43.0982 253.842 49.763 253.842 49.763L220.611 32.4692C220.611 32.4692 218.342 6.88784 228.913 4.85941Z" fill="#263238"/>
<path d="M258.855 21.1794V45.1381C264.066 23.5672 258.855 21.1794 258.855 21.1794Z" fill="#263238"/>
<path d="M257.164 11.5122L262.583 34.8449C261.379 8.71876 255.763 7.5133 257.164 11.5122Z" fill="#263238"/>
<path d="M256.299 70.0818C257.144 72.3304 258.035 74.7182 258.985 77.0364C259.934 79.3546 260.884 81.6728 261.914 83.991C262.945 86.3092 264.045 88.4651 265.191 90.5979C265.782 91.6527 266.349 92.6843 266.997 93.6811C267.298 94.2143 267.634 94.6431 267.958 95.1416L268.387 95.7675C268.449 95.8618 268.519 95.951 268.595 96.0341C269.1 96.5102 269.706 96.8667 270.367 97.0773C271.317 97.3977 272.299 97.6115 273.296 97.7148C275.606 97.9396 277.933 97.9396 280.243 97.7148C282.713 97.5231 285.171 97.202 287.607 96.7527C290.074 96.347 292.586 95.8023 294.983 95.2575L296.546 99.6273C291.645 101.86 286.511 103.54 281.239 104.635C278.453 105.22 275.611 105.499 272.764 105.469C271.173 105.432 269.592 105.214 268.051 104.82C266.204 104.367 264.482 103.503 263.014 102.293C262.602 101.934 262.215 101.547 261.856 101.134C261.648 100.902 261.567 100.786 261.451 100.647L261.115 100.23C260.687 99.6621 260.201 99.0709 259.819 98.5261L258.661 96.7991L257.503 95.0488C256.069 92.7442 254.751 90.3689 253.554 87.9319C252.397 85.5094 251.239 83.0869 250.22 80.6296C249.201 78.1723 248.251 75.7266 247.395 73.0954L256.299 70.0818Z" fill="#FFC3BD"/>
<path d="M294.379 100.508L300.169 102.004L301.153 94.145C301.153 94.145 295.283 94.0754 292.48 96.6602L294.379 100.508Z" fill="#FFC3BD"/>
<path d="M307.335 102.456L306.513 96.66L301.094 94.1448L300.121 102.003L307.335 102.456Z" fill="#FFC3BD"/>
<path opacity="0.2" d="M307.335 102.455L306.513 96.6599L304.046 95.5125L301.094 102.061L307.335 102.455Z" fill="black"/>
<path d="M240.192 63.7533C240.551 66.767 242.74 72.5741 244.523 76.9207C245.82 80.0503 246.838 82.4033 246.838 82.4033L248.564 81.7542L262.898 76.3412C262.169 68.552 260.802 60.0442 252.605 55.7555C247.51 53.0548 239.555 58.3635 240.192 63.7533Z" fill="#FF7A00"/>
<path opacity="0.3" d="M244.523 76.9207C245.82 80.0503 246.839 82.4033 246.839 82.4033L248.564 81.7542C248.472 78.6942 248.09 73.8491 246.561 71.5889C245.503 73.1968 244.808 75.0163 244.523 76.9207V76.9207Z" fill="black"/>
<path d="M190.555 289.616L199.841 290.497L202.33 269.053L193.056 268.172L190.555 289.616Z" fill="#FFC3BD"/>
<path d="M114.121 264.475L121.601 270.12L136.48 254.402L129 248.769L114.121 264.475Z" fill="#FFC3BD"/>
<path d="M123.073 269.343L117.712 260.267C117.621 260.112 117.477 259.995 117.306 259.939C117.135 259.883 116.95 259.893 116.785 259.966L109.201 263.316C109.011 263.411 108.843 263.545 108.707 263.709C108.571 263.872 108.47 264.062 108.41 264.267C108.35 264.471 108.333 264.686 108.36 264.897C108.386 265.108 108.456 265.312 108.564 265.495C110.498 268.613 111.575 270.027 113.937 274.014C115.384 276.471 118.244 282.128 120.247 285.501C122.251 288.874 125.62 287.019 125.076 285.42C122.656 278.268 122.911 274.211 123.385 270.989C123.478 270.421 123.367 269.838 123.073 269.343V269.343Z" fill="#263238"/>
<path d="M201.022 287.773H189.965C189.769 287.775 189.58 287.843 189.427 287.964C189.274 288.086 189.166 288.255 189.119 288.445L186.954 297.197C186.903 297.408 186.901 297.628 186.947 297.84C186.994 298.052 187.089 298.251 187.224 298.421C187.359 298.591 187.531 298.728 187.727 298.821C187.923 298.914 188.138 298.961 188.355 298.958C192.246 298.958 194.145 298.68 198.961 298.68C201.949 298.68 209.683 298.97 213.817 298.97C217.95 298.97 218.587 294.878 216.908 294.507C209.359 292.85 204.982 290.567 202.609 288.376C202.175 287.981 201.608 287.766 201.022 287.773V287.773Z" fill="#263238"/>
<path opacity="0.2" d="M202.328 269.053L201.043 280.111H191.652L193.042 268.172L202.328 269.053Z" fill="black"/>
<path opacity="0.2" d="M129.001 248.769L136.469 254.414L128.804 262.504L121.324 256.86L129.001 248.769Z" fill="black"/>
<path d="M196.133 94.3188L231.367 108.228C258.276 60.0673 254.86 57.2275 254.86 57.2275C254.86 57.2275 249.302 53.5184 243.478 50.3541C242.598 49.8788 241.707 49.4152 240.827 48.9631C235.652 46.4828 230.309 44.3719 224.836 42.646C224.026 42.3678 223.227 42.1128 222.417 41.8578C218.06 40.5486 213.629 39.5035 209.147 38.7283C208.314 45.5902 207.526 51.3857 206.716 56.4162C205.674 62.9767 204.632 68.2158 203.52 72.7363C201.641 80.1176 199.171 87.3352 196.133 94.3188V94.3188Z" fill="#FF7A00"/>
<path opacity="0.3" d="M203.523 72.702C207.182 67.9728 210.969 56.7296 210.297 52.3713L206.719 56.3818C205.677 62.9076 204.635 68.1815 203.523 72.702Z" fill="black"/>
<path d="M247.87 51.3159C246.4 43.4572 222.605 37.627 222.605 37.627L236.083 61.0408L238.214 61.8985C238.214 61.8985 248.82 56.5435 247.87 51.3159Z" fill="#FF7A00"/>
<path opacity="0.3" d="M247.87 51.3159C246.4 43.4572 222.605 37.627 222.605 37.627L236.083 61.0408L238.214 61.8985C238.214 61.8985 248.82 56.5435 247.87 51.3159Z" fill="black"/>
<path d="M231.32 32.5042C229.953 36.9667 227.846 41.325 224.824 42.6116C224.824 42.6116 223.191 54.2026 233.867 65.2952C245.944 57.9697 240.814 48.9287 240.814 48.9287C235.569 45.2775 236.854 41.3829 240.733 35.5758L236.796 32.0058C236.527 31.479 236.106 31.0449 235.588 30.7594C235.07 30.4739 234.479 30.35 233.89 30.4035C233.301 30.4571 232.742 30.6858 232.284 31.0601C231.826 31.4345 231.49 31.9374 231.32 32.5042Z" fill="#FFC3BD"/>
<path d="M221.945 41.6838L222.605 37.627C222.605 37.627 228.104 40.5942 230.385 45.3929C232.666 50.1916 229.135 59.2326 229.135 59.2326L220.59 51.0609L221.945 41.6838Z" fill="#FF7A00"/>
<path opacity="0.2" d="M236.81 31.9939C236.555 31.4998 236.167 31.0872 235.69 30.8026C235.212 30.5181 234.665 30.373 234.109 30.3839C233.554 30.3947 233.012 30.5611 232.546 30.864C232.08 31.167 231.708 31.5945 231.473 32.0982C232.386 36.0071 234.485 39.5376 237.482 42.2056C238.147 39.8127 239.25 37.5645 240.736 35.5755L236.81 31.9939Z" fill="black"/>
<path d="M227.547 16.5433C227.802 25.8856 227.721 29.8382 232.178 34.8687C238.894 42.4492 250.091 40.3396 252.58 31.1595C254.815 22.9067 254.016 9.02071 245.193 4.81317C243.269 3.8713 241.132 3.44977 238.995 3.59045C236.858 3.73113 234.795 4.42913 233.011 5.6151C231.227 6.80107 229.784 8.43372 228.826 10.3508C227.867 12.268 227.426 14.4028 227.547 16.5433V16.5433Z" fill="#FFC3BD"/>
<path d="M228.438 8.33641C235.385 15.6851 248.608 11.2342 248.608 11.2342L255.555 15.4417L251.873 7.07299L243.768 2.30908C243.768 2.30908 224.883 4.56933 228.438 8.33641Z" fill="#263238"/>
<path d="M229.203 5.43921C231.696 7.80204 233.61 10.7098 234.795 13.9354C237.111 19.7309 227.848 24.1703 227.848 24.1703C227.848 24.1703 220.322 16.2536 229.203 5.43921Z" fill="#263238"/>
<path d="M225.198 25.0275C225.559 26.8022 226.597 28.3658 228.092 29.3858C230.072 30.7187 231.74 29.1192 231.763 26.8473C231.763 24.8073 230.779 21.6546 228.521 21.2373C226.263 20.82 224.758 22.8484 225.198 25.0275Z" fill="#FFC3BD"/>
<path d="M231.368 108.228C231.368 108.228 225.127 155.31 220.565 191.521C216.941 220.301 203.66 275.776 203.66 275.776L190.102 274.431C190.102 274.431 195.764 211.48 200.962 191.277C197.755 149.723 189.384 109.491 203.058 96.8452L231.368 108.228Z" fill="#263238"/>
<path d="M187.938 271.129L205.815 271.674L204.842 277.782L188.111 277.527L187.938 271.129Z" fill="#FF7A00"/>
<path opacity="0.3" d="M209.124 132.557L195.554 121.268C195.079 135.791 197.452 154.569 199.456 174.586C206.322 160.19 211.081 144.786 209.124 132.557Z" fill="black"/>
<path d="M223.633 105.307C223.633 105.307 198.53 157.687 188.48 192.622C175.929 220.244 133.759 259.85 133.759 259.85L124.148 251.261C124.148 251.261 157.854 194.685 169.305 185.088C174.794 144.624 179.09 105.771 196.122 94.342L223.633 105.307Z" fill="#263238"/>
<path d="M133.294 262.933L120.824 252.582L124.066 246.996L137.741 259.015L133.294 262.933Z" fill="#FF7A00"/>
<path d="M196.365 92.0238L193.621 94.5854C193.413 94.7824 193.621 95.1534 194.015 95.304L230.963 109.897C231.287 110.025 231.6 109.978 231.692 109.781L233.174 106.721C233.267 106.513 233.058 106.211 232.711 106.072L197.037 91.9774C196.931 91.9253 196.813 91.9021 196.695 91.9103C196.577 91.9184 196.463 91.9576 196.365 92.0238Z" fill="#FF7A00"/>
<path opacity="0.2" d="M196.365 92.0238L193.621 94.5854C193.413 94.7824 193.621 95.1534 194.015 95.304L230.963 109.897C231.287 110.025 231.6 109.978 231.692 109.781L233.174 106.721C233.267 106.513 233.058 106.211 232.711 106.072L197.037 91.9774C196.931 91.9253 196.813 91.9021 196.695 91.9103C196.577 91.9184 196.463 91.9576 196.365 92.0238Z" fill="white"/>
<path d="M199.7 97.947L198.738 97.5645C198.553 97.495 198.449 97.3327 198.495 97.2168L200.452 93.2643C200.51 93.1484 200.707 93.1136 200.892 93.1831L201.853 93.5656C202.038 93.6352 202.154 93.7975 202.096 93.9134L200.186 97.8775C200.093 97.9934 199.885 98.0282 199.7 97.947Z" fill="#263238"/>
<path d="M228.161 109.19L227.2 108.807C227.014 108.738 226.899 108.576 226.956 108.46L228.902 104.496C228.902 104.38 229.168 104.345 229.353 104.426L230.314 104.797C230.499 104.878 230.615 105.029 230.557 105.145L228.601 109.109C228.543 109.271 228.346 109.271 228.161 109.19Z" fill="#263238"/>
<path d="M213.93 103.568L212.969 103.186C212.784 103.116 212.668 102.954 212.726 102.838L214.671 98.874C214.729 98.7581 214.937 98.7233 215.123 98.8045L216.084 99.187C216.269 99.2565 216.385 99.4072 216.327 99.5347L214.382 103.476C214.324 103.603 214.081 103.638 213.93 103.568Z" fill="#263238"/>
<path d="M240.922 19.8814C240.922 20.6464 241.281 21.2839 241.767 21.3071C242.253 21.3302 242.669 20.7391 242.692 19.9857C242.716 19.2323 242.334 18.5832 241.848 18.56C241.362 18.5368 240.957 19.1279 240.922 19.8814Z" fill="#263238"/>
<path d="M249.34 20.3565C249.34 21.1099 249.699 21.7474 250.185 21.7821C250.671 21.8169 251.076 21.2142 251.11 20.4492C251.145 19.6842 250.752 19.0583 250.266 19.0351C249.78 19.0119 249.375 19.603 249.34 20.3565Z" fill="#263238"/>
<path d="M250.059 19.0584L251.864 18.6414C251.864 18.6414 250.892 20.02 250.059 19.0584Z" fill="#263238"/>
<path d="M248.389 21.4229C248.997 23.1882 249.838 24.8644 250.89 26.407C250.498 26.6623 250.055 26.827 249.593 26.8892C249.13 26.9514 248.659 26.9094 248.215 26.7663L248.389 21.4229Z" fill="#ED847E"/>
<path d="M244.683 29.6876C244.721 29.6662 244.753 29.6361 244.777 29.5999C244.801 29.5636 244.816 29.5222 244.822 29.479C244.819 29.4203 244.795 29.3645 244.755 29.3219C244.715 29.2792 244.66 29.2527 244.602 29.2472C243.665 29.2089 242.75 28.9521 241.93 28.4973C241.11 28.0426 240.407 27.4023 239.878 26.6276C239.846 26.579 239.798 26.5437 239.743 26.5287C239.687 26.5137 239.628 26.52 239.576 26.5465C239.527 26.5797 239.491 26.6299 239.477 26.6875C239.462 26.7452 239.468 26.8064 239.495 26.8594C240.062 27.7001 240.819 28.3953 241.704 28.8886C242.589 29.382 243.578 29.6597 244.59 29.6992L244.683 29.6876Z" fill="#263238"/>
<path d="M240.19 16.9378C240.266 16.9132 240.331 16.8643 240.376 16.7987C240.71 16.3658 241.143 16.0197 241.639 15.7897C242.134 15.5597 242.678 15.4526 243.224 15.4773C243.34 15.4872 243.456 15.4517 243.546 15.3783C243.637 15.3048 243.696 15.1991 243.71 15.0832C243.72 14.9656 243.685 14.8485 243.612 14.7559C243.539 14.6633 243.433 14.6021 243.317 14.5848C242.624 14.5391 241.931 14.6655 241.298 14.9526C240.666 15.2397 240.114 15.6788 239.692 16.2307C239.62 16.3236 239.587 16.4409 239.6 16.5578C239.613 16.6747 239.671 16.7819 239.762 16.8567C239.821 16.9053 239.891 16.9382 239.966 16.9524C240.041 16.9666 240.118 16.9616 240.19 16.9378V16.9378Z" fill="#263238"/>
<path d="M124.522 274.188L124.661 274.246C124.864 274.299 125.078 274.297 125.281 274.243C125.484 274.188 125.669 274.081 125.819 273.933C125.928 273.853 126.013 273.745 126.066 273.621C126.119 273.497 126.138 273.36 126.12 273.226C125.969 272.067 122.982 270.549 122.646 270.386C122.613 270.362 122.572 270.349 122.53 270.349C122.489 270.349 122.448 270.362 122.415 270.386C122.382 270.414 122.358 270.451 122.345 270.492C122.333 270.533 122.333 270.577 122.345 270.618C122.716 271.8 123.468 273.736 124.522 274.188ZM122.947 271.024C124.105 271.661 125.622 272.658 125.691 273.284C125.701 273.344 125.693 273.406 125.668 273.461C125.644 273.517 125.603 273.564 125.552 273.597C125.452 273.696 125.329 273.769 125.193 273.807C125.057 273.846 124.914 273.849 124.777 273.817C124.175 273.632 123.503 272.6 122.947 271.024V271.024Z" fill="#FF7A00"/>
<path d="M122.68 270.884C123.699 271.336 125.957 271.626 126.674 270.942C126.803 270.822 126.888 270.661 126.913 270.486C126.938 270.311 126.903 270.133 126.813 269.981C126.748 269.824 126.648 269.683 126.522 269.569C126.396 269.455 126.246 269.37 126.084 269.32C124.81 268.926 122.541 270.328 122.448 270.398C122.415 270.418 122.388 270.447 122.369 270.482C122.351 270.517 122.342 270.555 122.344 270.595C122.345 270.633 122.357 270.67 122.377 270.703C122.398 270.735 122.426 270.762 122.46 270.78L122.68 270.884ZM126.049 269.784C126.216 269.861 126.348 269.997 126.42 270.166C126.535 270.432 126.42 270.548 126.42 270.618C125.945 271.07 124.104 270.954 123.085 270.56C123.945 269.992 124.962 269.709 125.991 269.749L126.049 269.784Z" fill="#FF7A00"/>
<path d="M205.977 289.545C206.728 289.599 207.477 289.417 208.119 289.024C208.284 288.899 208.417 288.738 208.51 288.553C208.602 288.368 208.651 288.165 208.651 287.958C208.661 287.841 208.639 287.723 208.589 287.617C208.538 287.512 208.459 287.421 208.362 287.356C207.332 286.684 203.615 288.387 202.885 288.746C202.844 288.764 202.809 288.795 202.788 288.835C202.767 288.875 202.761 288.922 202.77 288.966C202.775 289.012 202.795 289.056 202.826 289.091C202.857 289.127 202.898 289.152 202.943 289.163C203.939 289.392 204.955 289.52 205.977 289.545V289.545ZM207.679 287.634C207.832 287.619 207.985 287.651 208.119 287.726C208.152 287.749 208.178 287.781 208.194 287.818C208.211 287.854 208.217 287.895 208.212 287.935C208.212 288.079 208.179 288.221 208.115 288.35C208.051 288.479 207.957 288.591 207.841 288.676C207.204 289.163 205.687 289.232 203.696 288.862C204.952 288.248 206.295 287.833 207.679 287.634V287.634Z" fill="#FF7A00"/>
<path d="M202.992 289.164H203.073C204.312 288.642 206.767 286.625 206.547 285.582C206.547 285.35 206.35 285.072 205.783 285.003C203.571 284.736 202.761 288.735 202.726 288.909C202.715 288.948 202.717 288.989 202.731 289.027C202.746 289.064 202.772 289.096 202.807 289.117C202.832 289.139 202.862 289.155 202.894 289.163C202.926 289.171 202.96 289.171 202.992 289.164V289.164ZM205.632 285.455H205.783C206.014 285.455 206.142 285.547 206.165 285.652C206.257 286.266 204.567 287.854 203.316 288.549C203.583 287.564 204.312 285.455 205.632 285.455Z" fill="#FF7A00"/>
<path d="M241.637 18.5947L243.442 18.166C243.442 18.166 242.47 19.5331 241.637 18.5947Z" fill="#263238"/>
<path d="M209.163 53.8777C205.423 57.355 201.649 60.9598 198.036 64.5762C196.23 66.396 194.481 68.2505 192.814 70.1167C191.183 71.883 189.678 73.7615 188.31 75.7383C187.838 76.4075 187.45 77.1314 187.152 77.8943C187.152 77.8943 187.152 77.8943 187.152 77.8943C187.152 77.8943 187.152 77.7436 187.152 77.8943C187.141 78.037 187.141 78.1804 187.152 78.3231C187.184 78.6413 187.246 78.9557 187.337 79.262C188.108 81.0182 189.331 82.5382 190.88 83.6666C194.793 86.603 199.095 88.9789 203.663 90.7255L202.506 95.2344C201.058 95.0258 199.761 94.7476 198.407 94.4231C197.053 94.1042 195.716 93.7173 194.4 93.264C191.662 92.3772 189.035 91.1753 186.573 89.6823C185.23 88.8622 183.98 87.8983 182.845 86.8078C181.554 85.5643 180.495 84.1002 179.719 82.4843C179.292 81.5774 178.984 80.619 178.804 79.6329C178.711 79.1275 178.653 78.6163 178.63 78.1029C178.608 77.7671 178.608 77.4303 178.63 77.0945C178.63 76.7699 178.711 76.4106 178.769 76.1324C178.974 75.1521 179.293 74.1991 179.719 73.2926C180.078 72.5045 180.46 71.809 180.876 71.1367C182.38 68.699 184.06 66.3746 185.902 64.1821C187.662 62.0609 189.491 60.0557 191.344 58.0968C195.049 54.1559 198.858 50.4815 202.922 46.8767L209.163 53.8777Z" fill="#FFC3BD"/>
<path d="M200.004 94.3424L204.635 100.416L209.267 94.0295C209.267 94.0295 204.925 90.0886 201.162 90.1697L200.004 94.3424Z" fill="#FFC3BD"/>
<path d="M208.419 104.38L211.638 99.5003L209.241 94.0293L204.598 100.416L208.419 104.38Z" fill="#FFC3BD"/>
<path d="M209.148 38.6934C204.516 38.1602 194.871 49.1253 194.871 49.1253L203.52 64.4139C203.52 64.4139 216.338 55.3381 215.863 49.531C215.446 44.4309 215.041 39.3657 209.148 38.6934Z" fill="#FF7A00"/>
<path d="M315.737 182.663L312.957 187.479L313.959 188.059L316.739 183.242L315.737 182.663Z" fill="#FF7A00"/>
<path d="M328.666 160.308L318.598 177.75L319.6 178.33L329.668 160.888L328.666 160.308Z" fill="#FF7A00"/>
<path d="M361.141 49.4036L280.61 86.0659H311.792L205.117 270.896H261.494L368.169 86.0659H399.35L361.141 49.4036Z" fill="#FF7A00"/>
<path d="M261.495 270.896H205.118L166.77 204.434H223.135L261.495 270.896Z" fill="#FF7A00"/>
<path opacity="0.3" d="M261.495 270.896H205.118L166.77 204.434H223.135L261.495 270.896Z" fill="black"/>
<path d="M223.342 204.317H166.886L60.082 380.501H116.527L223.342 204.317Z" fill="#FF7A00"/>
</svg>
