<svg width="475" height="396" viewBox="0 0 475 396" fill="none" xmlns="http://www.w3.org/2000/svg">
<g clip-path="url(#clip0_4397_6631)">
<path d="M239.66 460.81C372.021 460.81 479.32 398.86 479.32 322.44C479.32 246.021 372.021 184.07 239.66 184.07C107.299 184.07 0 246.021 0 322.44C0 398.86 107.299 460.81 239.66 460.81Z" fill="#FFF6ED"/>
<path d="M52.4608 309.85C75.4608 321.7 82.9008 346.59 112.791 347.66C123.181 348.57 138.571 343.39 131.291 332.1C116.811 315.26 92.4408 315.1 75.1808 301.29C68.9108 296.59 63.1808 289.34 56.5008 285.2C49.3108 281.12 41.1808 278.05 32.8208 279.98C31.2286 280.16 29.7519 280.899 28.6533 282.065C27.5547 283.232 26.9053 284.75 26.8208 286.35C25.9208 296.99 44.3908 305.07 52.4608 309.85Z" fill="#E0E0E0"/>
<path d="M69.0505 438.27L369.641 264.72L320.901 236.58L20.3105 410.13L69.0505 438.27Z" fill="#E0E0E0"/>
<path d="M67.8792 302.51C68.4492 299.51 65.4892 297.71 64.0692 296.04C61.8592 293.46 61.0692 289.37 61.0692 286.21C60.9392 282.26 60.3692 279.46 62.6092 275.81C65.2592 271.49 68.9792 266.4 81.6092 253.81L64.2392 245.59C61.0792 251.18 53.8592 262.73 53.8592 262.73L53.1892 263.73C51.6692 265.73 50.8292 267.35 48.4492 269.14L47.5692 269.65C46.0692 270.79 42.1992 272.09 42.4192 275.87C42.6392 279.65 44.0992 280.53 45.8792 283.56C47.279 285.507 48.0375 287.842 48.0492 290.24C48.2292 293.24 48.0492 294.6 48.1592 297.32C48.2192 299.61 50.4092 302.86 54.7392 304.2C61.0092 306.14 67.3292 305.48 67.8792 302.51Z" fill="#9E6767"/>
<path d="M40.1701 276.07C38.4103 278.722 36.9545 281.563 35.8301 284.54L40.3601 290.54L43.7201 284.15C42.0276 281.711 40.8222 278.967 40.1701 276.07Z" fill="#263238"/>
<path d="M40.3594 290.58L46.2394 289.95C46.4608 288.659 46.201 287.332 45.5094 286.22C45.0342 285.454 44.4284 284.777 43.7194 284.22L40.3594 290.58Z" fill="black"/>
<path d="M41.2898 274.63C40.8449 274.992 40.4747 275.437 40.1998 275.94C40.0819 278.156 40.61 280.358 41.7198 282.28C43.0198 284.12 45.0998 286.05 45.7198 288.71C46.3398 291.37 45.3698 295.53 46.5498 299.24C47.7298 302.95 51.4098 307.11 59.0898 307.83C64.5798 308.36 66.5998 307.21 68.3798 305.97C68.9498 303.51 68.8598 302.88 65.7898 300.97C62.7198 299.06 41.2898 274.63 41.2898 274.63Z" fill="#263238"/>
<path d="M51.0696 264.35C48.7396 267.45 47.9096 268.64 45.7096 270.07C43.0496 271.8 42.5096 272.48 41.2896 274.63C40.8696 277.9 41.5596 279.22 44.6096 283.27C46.6196 285.646 47.662 288.691 47.5296 291.8C47.6496 296.53 46.0996 298.8 51.8796 303.46C56.3796 307.07 65.8796 306.97 68.3796 304.25C70.3796 297.72 64.6896 298.39 63.0796 291.6C62.1896 287.84 61.3796 283.68 62.3796 279.85C62.7401 278.556 63.2893 277.323 64.0096 276.19C64.6496 275.19 66.5696 272.81 65.4196 271.57L64.6596 272.68C63.2896 273.05 60.2296 272.54 57.9496 270.79C52.4496 266.57 53.1796 263.79 53.1796 263.79L53.8496 262.79C53.2496 262.14 52.3996 262.6 51.0696 264.35Z" fill="#37474F"/>
<path d="M84.5795 189.81L97.4695 172.22C97.4695 172.22 115.259 162.63 121.899 155.85C125.82 167.489 126.687 179.94 124.419 192.01C121.3 207.587 114.332 222.136 104.149 234.33C98.6695 240.75 70.2395 266.02 70.2395 266.02C67.3895 265.61 59.4395 259.36 58.4395 255.26C58.4395 255.26 64.6595 244.11 68.3395 238.38C73.1395 230.91 74.5495 227.33 83.5595 221.05C82.8395 213.37 84.5795 189.81 84.5795 189.81Z" fill="#37474F"/>
<path d="M62.1193 254.53L61.5293 254.15L61.8793 253.6C70.5193 240.09 78.7393 227.53 97.8793 223.42L98.0293 224.1C79.1693 228.1 71.0293 240.57 62.4693 253.98L62.1193 254.53Z" fill="#263238"/>
<path d="M77.4598 225.92L78.3898 225.07L78.7798 224.73L79.7798 223.91L80.2498 223.54C80.5998 223.26 80.9698 222.97 81.3598 222.68L81.8298 222.32L83.5898 221.05C83.5898 220.74 83.5398 220.39 83.5198 220.05C83.5198 219.96 83.5198 219.86 83.5198 219.77C83.5198 219.42 83.5198 219.06 83.5198 218.67C83.5144 218.637 83.5144 218.603 83.5198 218.57C83.5198 218.15 83.5198 217.7 83.5198 217.24C83.5198 217.13 83.5198 217.03 83.5198 216.92V215.45C83.5198 214.94 83.5198 214.45 83.5198 213.86V213.59C83.5198 213.08 83.5198 212.59 83.5198 212.02V211.92C83.5198 211.32 83.5198 210.71 83.5198 210.09V210.03C83.5198 209.42 83.5198 208.8 83.5898 208.18L108.66 187.14C108.78 186.6 120.66 178.91 120.66 178.91C119.8 186.43 112.07 189.91 112.07 189.91L114.7 218.91C114.55 219.17 112.49 222.74 112.33 223C112.17 223.26 111.97 223.6 111.78 223.89C111.49 224.36 111.2 224.81 110.91 225.26L110.46 225.95C110.04 226.58 109.63 227.2 109.22 227.79L108.77 228.41L107.96 229.55L107.47 230.21L106.74 231.21L106.29 231.79L105.55 232.72L105.21 233.14C104.87 233.57 104.53 233.97 104.21 234.34C101.26 237.8 91.6498 246.72 83.4198 254.22C83.2817 250.259 83.4086 246.294 83.7998 242.35L77.2598 226.14L77.4598 225.92Z" fill="#263238"/>
<path d="M56.1608 258.96C56.1608 258.96 55.9008 262.53 60.5908 266.18C62.6922 267.886 65.335 268.784 68.0408 268.71L73.5908 263.28C73.5908 263.28 70.5908 264.08 65.9908 260.08C63.1463 257.708 61.3266 254.33 60.9108 250.65L56.1608 258.96Z" fill="#455A64"/>
<path d="M107.28 320.22C108.76 324.58 113.9 325.54 117.93 324.22C120.21 323.47 121.3 320.89 122.74 319.22C124.86 316.69 128 315.22 131.09 314.08C134.18 312.94 137.39 311.84 139.98 309.79C142.189 308.046 143.825 305.682 144.68 303C144.992 302.161 145.095 301.258 144.98 300.37C144.6 298.25 142.28 296.96 140.12 296.95C137.96 296.94 135.95 297.9 133.98 298.76C131.312 299.905 128.585 300.906 125.81 301.76C124.951 302.07 124.051 302.248 123.14 302.29C121.7 302.29 119.51 301.16 118.96 299.93C118.09 297.93 117.09 276.19 117.1 275.18L96.3398 280.44C96.3398 280.44 104.12 303.97 105.34 307.94C105.476 308.332 105.583 308.733 105.66 309.14C106.26 312.79 106.05 316.63 107.28 320.22Z" fill="#9E6767"/>
<path d="M78.1096 157.38C71.0296 172.12 68.3997 177.91 71.3497 192.75C73.3497 202.86 79.7796 219.67 87.5096 242.34C86.9696 255.34 88.9197 259.27 91.6697 268.34C95.8897 282.17 100.98 294.5 100.98 294.5C100.98 294.5 104.63 288.72 118.04 289.5C117.22 276.42 116.45 250.77 115.36 241.29C113.73 227.22 109.14 187.05 109.14 187.05C109.14 187.05 125.92 185.05 125.92 157.4L78.1096 157.38Z" fill="#37474F"/>
<path d="M105.559 291.14C102.468 283.254 99.7748 275.217 97.4893 267.06C95.9416 261.354 94.9371 255.515 94.4893 249.62C94.2693 246.12 94.2193 241.82 94.1393 240.3C93.8793 235.3 91.7193 224.65 87.7993 213.01C84.9555 204.189 82.7958 195.163 81.3393 186.01H81.6893C83.0904 186.008 84.4473 185.52 85.5293 184.63C88.9993 181.91 91.3593 175.27 92.5293 164.9L91.8393 164.82C90.6893 174.82 88.3493 181.52 85.0793 184.09C83.9955 184.98 82.6065 185.411 81.2093 185.29C79.7693 175.39 82.3193 168.29 84.5793 162.04C85.1493 160.43 85.6893 158.91 86.1693 157.37H85.4393C84.9793 158.82 84.4393 160.27 83.9193 161.8C81.6193 168.2 79.0093 175.45 80.5593 185.67C81.9928 195.021 84.1901 204.238 87.1293 213.23C90.8493 224.32 93.1793 235.41 93.4293 240.34C93.5093 241.81 93.5593 246.12 93.7793 249.57C94.2071 255.49 95.2392 261.35 96.8593 267.06C98.5993 273.63 101.979 283.84 104.949 291.44C105.129 291.34 105.349 291.25 105.559 291.14Z" fill="#263238"/>
<path d="M143.45 296.02C141.61 294.09 137.89 295.36 135.45 296.34C130.4 298.39 128.87 299.79 125.12 300.5C119.69 301.5 119.86 298.43 119.86 298.43C119.86 298.43 115.86 295.56 108.86 299.43C103.86 302.15 103.92 305.69 103.92 305.69C104.981 308.316 105.57 311.109 105.66 313.94C105.85 319.03 106.3 320.64 106.95 322.07L129.59 307.27L131.2 306.89C136.09 304.22 143.45 296.02 143.45 296.02Z" fill="#37474F"/>
<path d="M146.22 299.72C146.141 298.623 145.631 297.601 144.8 296.88C144.54 296.69 143.62 296.15 143.45 296.02C141.12 294.35 136.65 297.49 132.86 300.61C128.44 304.24 120.79 304.77 117.11 309.82C113.43 314.87 109.11 316.66 107.57 318.89C107.073 319.581 106.822 320.417 106.854 321.266C106.887 322.116 107.202 322.93 107.75 323.58C107.96 323.83 108.75 324.58 108.88 324.78C109.95 325.91 111.88 326.44 114.29 326.1C119.07 325.42 122.56 324.1 126.75 318.69C130.94 313.28 135.75 316.09 140.53 312.69C142.615 311.295 144.258 309.333 145.267 307.035C146.275 304.738 146.605 302.2 146.22 299.72Z" fill="#263238"/>
<path d="M146.22 299.72C145.16 293.35 139.12 297.44 134.22 301.47C129.8 305.1 122.15 305.63 118.47 310.67C114.79 315.71 110.35 317.45 108.94 319.75C106.36 323.92 109.51 326.75 114.3 326.1C119.09 325.45 122.57 324.1 126.76 318.69C130.95 313.28 135.76 316.09 140.54 312.69C142.624 311.294 144.265 309.331 145.272 307.034C146.278 304.736 146.607 302.199 146.22 299.72Z" fill="black"/>
<path d="M129.13 315.66L118.46 310.66C114.79 315.71 110.34 317.44 108.93 319.74C108.259 320.742 107.725 321.828 107.34 322.97L109 326.58L109.56 327.19C110.63 328.3 112.56 328.82 114.93 328.49C119.72 327.81 123.2 326.49 127.4 321.08C128.26 319.96 129.04 318.96 129.78 318.08L129.13 315.66Z" fill="#263238"/>
<path d="M109.591 322.14C107.021 326.32 110.171 329.14 114.951 328.5C119.731 327.86 123.221 326.5 127.421 321.09C128.281 319.97 129.061 318.97 129.801 318.09L119.131 313.09C115.451 318.14 111.011 319.86 109.591 322.14Z" fill="black"/>
<path d="M98.1191 287.14L101.619 296.39C101.619 296.39 106.019 290.98 118.159 291.8L117.589 281.64C117.589 281.64 105.659 279.14 98.1191 287.14Z" fill="#455A64"/>
<path d="M77.4902 157.63C78.6702 153.94 81.9102 152.49 82.1902 143.24C82.3302 138.66 82.1902 128.15 82.1902 128.15C82.1902 128.15 90.3102 123.46 90.8302 105.75L99.6802 103.85L104.46 103.04L116.97 105.74L123.13 108.63C125.02 110.93 128.57 114.63 131.04 119.81C134.6 127.29 134.18 134.81 128.41 139.41C128.18 140.47 126.58 156.9 127.13 161.12C127.433 163.128 126.946 165.175 125.77 166.83C119.78 173.64 90.3402 176.94 77.4902 157.63Z" fill="#FAFAFA"/>
<path d="M202.061 97.1403C203.181 96.9003 203.391 97.9703 202.701 98.7703C201.061 100.67 197.981 100.56 196.531 101.36C196.191 101.59 192.131 105.31 192.011 106.45C193.161 105.94 196.651 104.04 197.831 103.59C198.171 103.46 199.131 103.28 202.111 102.73C202.614 102.587 203.14 102.54 203.661 102.59C204.021 102.7 204.391 103.45 203.731 104.2C202.571 105.54 200.431 105.49 198.781 106.15C197.971 106.45 195.471 107.54 194.731 109.15C197.171 108.45 198.731 108.54 202.511 108.88C202.951 108.88 203.031 109.15 203.011 109.44C202.971 109.682 202.875 109.911 202.728 110.108C202.582 110.304 202.391 110.463 202.171 110.57C201.171 111.12 199.631 110.9 197.971 111.12C196.269 111.435 194.67 112.159 193.311 113.23C192.795 113.604 192.362 114.081 192.041 114.63C191.685 115.35 191.368 116.087 191.091 116.84C190.408 118.281 189.31 119.485 187.938 120.298C186.566 121.11 184.982 121.494 183.391 121.4C183.244 121.41 183.097 121.383 182.963 121.323C182.83 121.262 182.713 121.169 182.624 121.052C182.535 120.935 182.476 120.798 182.453 120.653C182.429 120.508 182.442 120.359 182.491 120.22C182.621 116.62 184.371 113.3 185.661 109.93C186.091 108.82 189.431 100.55 189.601 100.27C189.671 100.15 198.311 97.8503 198.601 97.8203C199.421 97.6703 200.981 97.3303 202.061 97.1403Z" fill="#874C4C"/>
<path d="M132.9 113.04C136.55 115.47 155.31 126.41 155.31 126.41C155.31 126.41 171.17 118.21 174.66 116.14C179.41 113.3 180.88 109.87 182.2 106.87C184.09 102.56 184.77 102.33 186.82 100.99C188.09 100.16 190.94 97.8102 191.05 97.7302C191.503 97.4532 192.006 97.2664 192.53 97.1802C192.8 97.1002 193.94 96.8302 194.22 96.7702C195.81 96.3902 196.81 96.2402 198.39 95.8602C198.877 95.7309 199.377 95.6505 199.88 95.6202C199.987 95.614 200.093 95.6346 200.19 95.6802C200.267 95.7532 200.321 95.8467 200.345 95.9496C200.37 96.0525 200.365 96.1603 200.33 96.2602C200.203 96.7397 199.977 97.1875 199.667 97.5749C199.357 97.9623 198.97 98.2808 198.53 98.5102C197.651 98.9549 196.721 99.2907 195.76 99.5102C195.18 99.6902 194.84 99.7402 193.66 100.09C193.193 100.259 192.778 100.549 192.46 100.93C190.743 102.572 189.211 104.396 187.89 106.37C189.936 105.875 191.812 104.839 193.32 103.37C194.71 101.97 196.01 103.77 194.71 106.02C193.22 108.61 190.95 109.02 189.05 112.46C187.15 115.9 189.97 119.31 185.5 122.14C182.957 123.52 180.508 125.066 178.17 126.77C174.73 129.39 164.17 138.9 161.54 140.62C155.72 144.38 155.43 144.19 142.94 138.27C125.33 129.92 127.62 130.5 127.62 130.5L123.25 108.2C126.69 109.322 129.943 110.954 132.9 113.04Z" fill="#9E6767"/>
<path d="M123.26 107.83C127.035 109.095 130.626 110.853 133.94 113.06C145.12 119.77 155.23 126 155.23 126L166.28 120.35C165.87 122.607 166.221 124.935 167.28 126.97C167.869 128.109 168.733 129.084 169.792 129.806C170.852 130.529 172.074 130.977 173.35 131.11C173.35 131.11 169.35 134.64 164.44 138.64C159.53 142.64 157.51 143.44 155.9 143.69C154.29 143.94 152.35 142.85 148.44 141.15C144.53 139.45 127.14 130.63 127.14 130.63L123.26 107.83Z" fill="#FF7A00"/>
<path d="M187.85 106.41C186.693 106.884 185.604 107.51 184.61 108.27C184.24 108.6 184.36 107.46 185.93 106.27C187.5 105.08 188.83 105.18 189.19 104.64L187.85 106.41Z" fill="#874C4C"/>
<path d="M116.939 105.74L123.229 107.82C128.619 113.58 134.529 123.31 133.819 129.88C133.414 133.779 131.738 137.437 129.049 140.29C129.049 140.29 127.529 154.77 127.839 162.02C128.149 169.27 128.989 186.19 128.989 186.19C126.261 187.601 123.281 188.461 120.219 188.72C120.219 179.48 121.929 145.93 123.509 138.08C125.089 130.23 127.389 117.79 116.939 105.74Z" fill="#FF7A00"/>
<path opacity="0.3" d="M116.939 105.74L123.229 107.82C128.619 113.58 134.529 123.31 133.819 129.88C133.414 133.779 131.738 137.437 129.049 140.29C129.049 140.29 127.529 154.77 127.839 162.02C128.149 169.27 128.989 186.19 128.989 186.19C126.261 187.601 123.281 188.461 120.219 188.72C120.219 179.48 121.929 145.93 123.509 138.08C125.089 130.23 127.389 117.79 116.939 105.74Z" fill="black"/>
<path opacity="0.2" d="M123.85 141.92C124.72 139.92 125.64 137.92 126.57 135.92C127.5 133.92 128.41 131.92 129.28 129.92C129.725 128.947 130.102 127.945 130.41 126.92C130.74 125.92 130.18 125.01 129.62 124.11C128.384 122.341 126.955 120.714 125.36 119.26L125.21 119.12L125.28 118.93C125.66 117.83 125.855 116.674 125.86 115.51C125.868 114.337 125.654 113.174 125.23 112.08C124.733 111.007 124.056 110.027 123.23 109.18C122.402 108.315 121.483 107.541 120.49 106.87C121.544 107.462 122.521 108.181 123.4 109.01C124.302 109.838 125.045 110.824 125.59 111.92C126.09 113.049 126.359 114.266 126.38 115.5C126.417 116.74 126.231 117.976 125.83 119.15L125.75 118.82C127.408 120.292 128.891 121.949 130.17 123.76C130.485 124.237 130.747 124.746 130.95 125.28C131.003 125.422 131.04 125.57 131.06 125.72C131.11 125.868 131.134 126.024 131.13 126.18C131.135 126.482 131.091 126.782 131 127.07C130.676 128.13 130.278 129.166 129.81 130.17C128.92 132.17 127.9 134.12 126.91 136.07C125.92 138.02 124.87 139.99 123.85 141.92Z" fill="black"/>
<path d="M99.6602 103.85C99.6602 103.85 101.77 107.85 103.94 116.65C106.11 125.45 108.29 133.54 106.94 141.14C105.59 148.74 96.2702 187.64 96.2702 187.64C96.2702 187.64 85.0802 187.4 75.8902 181.72L79.3302 166.62L73.0802 180.49C71.2503 179.523 69.5888 178.267 68.1602 176.77C73.4702 161.37 79.5502 154.19 80.8502 148.39C81.7402 144.39 80.2502 132.69 81.3302 122.54C82.0248 116.846 83.5265 111.28 85.7902 106.01L99.6602 103.85Z" fill="#FF7A00"/>
<path opacity="0.3" d="M99.6602 103.85C99.6602 103.85 101.77 107.85 103.94 116.65C106.11 125.45 108.29 133.54 106.94 141.14C105.59 148.74 96.2702 187.64 96.2702 187.64C96.2702 187.64 85.0802 187.4 75.8902 181.72L79.3302 166.62L73.0802 180.49C71.2503 179.523 69.5888 178.267 68.1602 176.77C73.4702 161.37 79.5502 154.19 80.8502 148.39C81.7402 144.39 80.2502 132.69 81.3302 122.54C82.0248 116.846 83.5265 111.28 85.7902 106.01L99.6602 103.85Z" fill="black"/>
<path opacity="0.2" d="M105.07 143.14C104.715 141.108 104.012 139.152 102.99 137.36C101.99 135.54 100.99 133.78 99.8501 132.04C99.3001 131.17 98.7401 130.31 98.1701 129.44L97.3101 128.15C97.1701 127.92 97.0301 127.72 96.8801 127.47C96.8408 127.407 96.8073 127.34 96.7801 127.27C96.7801 127.17 96.7201 127.06 96.7001 126.96C96.6793 126.784 96.6793 126.606 96.7001 126.43C97.0614 125.395 97.5993 124.431 98.2901 123.58C98.9301 122.75 99.6001 121.95 100.29 121.18V121.69L97.7201 118L96.4601 116.14L96.1501 115.67L95.9901 115.44C95.9027 115.328 95.8319 115.203 95.7801 115.07C95.7322 114.836 95.7322 114.594 95.7801 114.36C95.7801 114.17 95.8801 113.98 95.9401 113.79C96.4564 112.362 97.0643 110.97 97.7601 109.62C98.4401 108.27 99.1301 106.93 99.8801 105.62C99.2801 107 98.6701 108.38 98.0901 109.77C97.4931 111.143 96.9658 112.544 96.5101 113.97C96.4104 114.27 96.363 114.584 96.3701 114.9C96.3701 114.81 96.3701 114.95 96.4601 115.01L96.6201 115.24L96.9601 115.69L98.3001 117.53L100.95 121.21L101.14 121.48L100.91 121.73C100.24 122.49 99.5801 123.28 98.9801 124.1C98.3549 124.852 97.8551 125.699 97.5001 126.61C97.5001 126.69 97.5001 126.8 97.5001 126.85C97.5042 126.873 97.5042 126.897 97.5001 126.92C97.5173 126.97 97.5409 127.017 97.5701 127.06C97.6801 127.26 97.8301 127.49 97.9601 127.7L98.8001 129.01C99.3601 129.88 99.9101 130.76 100.45 131.64C101.5 133.43 102.51 135.26 103.38 137.15C103.814 138.099 104.188 139.074 104.5 140.07C104.84 141.06 105.032 142.094 105.07 143.14Z" fill="black"/>
<path d="M101.909 100.39C102.693 100.219 103.457 99.9675 104.189 99.64C105.248 99.1192 106.42 98.8717 107.599 98.92C109.049 99.1 110.219 100.1 111.599 100.5C112.371 100.71 113.177 100.761 113.969 100.65C114.459 100.59 114.969 100.44 115.419 100.34C116.214 100.169 117.034 100.141 117.839 100.26C118.661 100.45 119.516 100.45 120.339 100.26C121.629 99.85 122.399 98.49 123.649 97.96C124.899 97.43 126.649 97.96 128.159 97.69C128.832 97.5585 129.47 97.2831 130.027 96.8827C130.585 96.4823 131.049 95.9663 131.389 95.37C132.064 94.1521 132.34 92.7532 132.179 91.37C131.97 90.4463 131.987 89.4857 132.229 88.57C132.535 88.0075 132.938 87.5032 133.419 87.08C134.309 86.15 135.059 84.85 134.679 83.62C134.349 82.55 133.219 81.77 133.169 80.62C133.172 80.3618 133.232 80.1075 133.346 79.8756C133.459 79.6436 133.623 79.4398 133.825 79.279C134.027 79.1181 134.262 79.0043 134.514 78.9456C134.765 78.887 135.027 78.8851 135.279 78.94C135.527 79.0209 135.754 79.1555 135.944 79.3343C136.134 79.5132 136.282 79.7318 136.377 79.9744C136.473 80.2171 136.513 80.478 136.496 80.7382C136.479 80.9985 136.405 81.2518 136.279 81.48C136.839 81.1396 137.315 80.6782 137.673 80.1296C138.031 79.5811 138.262 78.9594 138.349 78.31C138.291 77.198 137.799 76.1531 136.979 75.4C136.166 74.6885 135.391 73.9341 134.659 73.14C134.291 72.6699 134.026 72.1284 133.879 71.55C133.816 71.2646 133.792 70.9719 133.809 70.68C133.809 70.16 134.069 69.68 134.159 69.15C134.336 68.0959 134.131 67.0133 133.581 66.0968C133.031 65.1803 132.172 64.49 131.159 64.15C130.059 63.83 128.729 63.88 127.999 62.99C127.605 62.2543 127.328 61.4613 127.179 60.64C126.409 58.64 123.739 58 121.729 58.73C120.729 59.09 119.729 59.73 118.729 59.46C118.044 59.1912 117.431 58.7667 116.939 58.22C115.982 57.4123 114.864 56.819 113.659 56.48C113.083 56.2932 112.49 56.1659 111.889 56.1C111.589 56.1 111.289 56.1 110.989 56.1C110.689 56.1 110.519 56.1 110.299 56.1C110.104 56.0629 109.907 56.0362 109.709 56.02C109.459 56.02 109.219 56.02 108.969 56.02C107.985 56.132 107.034 56.4379 106.169 56.92C105.468 57.3112 104.84 57.8184 104.309 58.42C103.956 58.8856 103.565 59.3205 103.139 59.72C101.979 60.65 100.359 60.6 98.8888 60.72C97.1754 60.8578 95.5309 61.4555 94.1288 62.45C93.4351 62.9503 92.8541 63.5906 92.4234 64.3296C91.9928 65.0686 91.7221 65.8898 91.6288 66.74C91.6832 67.5051 91.5706 68.2728 91.2988 68.99C90.9784 69.485 90.5193 69.8745 89.9788 70.11C88.7175 70.644 87.4888 71.2518 86.2988 71.93C85.7058 72.2721 85.2105 72.7607 84.8603 73.349C84.5101 73.9373 84.3168 74.6056 84.2988 75.29C84.5101 76.4318 85.0248 77.4957 85.7888 78.37C86.1779 78.81 86.4591 79.3346 86.6102 79.9022C86.7612 80.4699 86.7778 81.0648 86.6588 81.64C86.3226 82.2913 85.9276 82.9105 85.4788 83.49C85.2678 83.8898 85.1376 84.3273 85.0958 84.7775C85.0539 85.2277 85.1012 85.6816 85.2349 86.1135C85.3687 86.5454 85.5862 86.9466 85.8752 87.2944C86.1641 87.6421 86.5188 87.9295 86.9188 88.14C87.9188 88.63 89.3788 88.79 89.6488 89.88C89.6814 90.5077 89.5791 91.1352 89.3488 91.72C88.9988 93.58 90.7488 95.32 92.6188 95.62C93.6688 95.79 94.8688 95.62 95.6988 96.33C96.5288 97.04 96.6188 97.89 97.1088 98.66C97.6029 99.4224 98.3676 99.9692 99.2488 100.19C99.6788 100.31 100.119 100.26 100.549 100.37C100.995 100.481 101.46 100.488 101.909 100.39Z" fill="#263238"/>
<path d="M100.748 93.7502C99.9618 93.9576 99.1258 93.85 98.4179 93.4502C97.2219 92.8223 96.2557 91.8316 95.6579 90.6202C94.8688 89.0437 94.6872 87.232 95.1479 85.5302C95.3316 84.9722 95.638 84.4624 96.0447 84.0384C96.4514 83.6144 96.948 83.287 97.4979 83.0802C97.9273 82.8734 98.3999 82.7718 98.8764 82.784C99.3529 82.7962 99.8196 82.9217 100.238 83.1502C100.627 83.421 100.938 83.7902 101.138 84.2202C101.359 84.7034 101.536 85.2054 101.668 85.7202C101.788 86.1602 101.848 87.2902 102.488 87.3202C102.778 87.3202 102.938 87.0802 103.048 86.8502C103.248 86.3171 103.34 85.7493 103.318 85.1802C103.318 84.8502 103.008 82.1802 103.078 82.1802C106.448 80.4302 105.668 74.6902 107.438 72.2702C110.208 68.4802 115.028 69.2702 116.618 70.0502C117.535 69.3478 118.629 68.9133 119.778 68.7951C120.927 68.6768 122.087 68.8793 123.128 69.3802C125.488 70.5202 127.128 73.0702 128.288 81.9802C129.478 91.0702 128.138 97.2102 126.108 99.2302C124.708 100.62 120.918 101.46 117.698 101.4L116.938 105.72C116.938 105.72 122.748 112.41 113.188 112.14C104.558 111.9 100.588 104.02 100.588 104.02C100.588 104.02 102.528 92.3302 102.528 92.2902C102.365 92.6552 102.12 92.9772 101.811 93.2307C101.502 93.4841 101.138 93.662 100.748 93.7502Z" fill="#9E6767"/>
<path d="M115.169 83.2599C115.082 83.5434 114.913 83.795 114.684 83.9835C114.456 84.1719 114.176 84.2888 113.881 84.3195C113.586 84.3502 113.289 84.2934 113.026 84.1562C112.763 84.019 112.547 83.8075 112.403 83.548C112.26 83.2885 112.196 82.9925 112.22 82.6969C112.243 82.4014 112.354 82.1193 112.536 81.886C112.719 81.6526 112.967 81.4783 113.248 81.3848C113.53 81.2912 113.832 81.2825 114.119 81.3599C114.313 81.4151 114.494 81.5082 114.652 81.6337C114.81 81.7593 114.941 81.9148 115.039 82.0914C115.137 82.268 115.198 82.4621 115.221 82.6627C115.243 82.8632 115.225 83.0662 115.169 83.2599Z" fill="#263238"/>
<path d="M118.459 92.3799C118.422 92.5299 118.357 92.6712 118.266 92.7957C118.175 92.9202 118.06 93.0255 117.928 93.1054C117.796 93.1853 117.649 93.2384 117.497 93.2615C117.344 93.2845 117.188 93.2772 117.039 93.2399C116.741 93.1494 116.489 92.9464 116.338 92.6739C116.187 92.4014 116.148 92.0808 116.229 91.7799C116.256 91.6204 116.315 91.4684 116.405 91.3334C116.494 91.1984 116.61 91.0836 116.746 90.9963C116.882 90.9089 117.035 90.851 117.195 90.8262C117.355 90.8014 117.518 90.8103 117.674 90.8523C117.83 90.8944 117.976 90.9686 118.102 91.0702C118.227 91.1718 118.331 91.2986 118.404 91.4425C118.478 91.5863 118.521 91.744 118.531 91.9055C118.54 92.0669 118.516 92.2285 118.459 92.3799Z" fill="#874C4C"/>
<path d="M126.209 77.42L122.969 75.84C123.06 75.6238 123.195 75.4286 123.365 75.2664C123.534 75.1042 123.736 74.9785 123.956 74.897C124.176 74.8155 124.41 74.78 124.645 74.7925C124.879 74.805 125.109 74.8654 125.319 74.97C125.753 75.186 126.088 75.5609 126.254 76.017C126.419 76.4731 126.403 76.9754 126.209 77.42Z" fill="#263238"/>
<path d="M123.148 82.4499C123.268 82.7224 123.465 82.9534 123.716 83.114C123.966 83.2747 124.258 83.3577 124.556 83.3528C124.853 83.3479 125.143 83.2552 125.388 83.0863C125.633 82.9175 125.822 82.6801 125.933 82.4038C126.043 82.1276 126.07 81.8248 126.009 81.5336C125.948 81.2424 125.802 80.9757 125.59 80.767C125.378 80.5582 125.109 80.4168 124.817 80.3604C124.525 80.304 124.223 80.3351 123.948 80.4499C123.582 80.6146 123.293 80.9151 123.144 81.2883C122.995 81.6614 122.996 82.0779 123.148 82.4499Z" fill="#263238"/>
<path d="M113.659 76.42L110.199 78.14C110.075 77.9209 109.997 77.6789 109.97 77.4287C109.943 77.1785 109.967 76.9254 110.041 76.6848C110.115 76.4442 110.237 76.2213 110.4 76.0296C110.563 75.8379 110.764 75.6815 110.989 75.57C111.457 75.3336 111.999 75.2903 112.498 75.4492C112.997 75.6082 113.414 75.9567 113.659 76.42Z" fill="#263238"/>
<path d="M124.408 86.7699L119.608 88.8299L118.498 79.8599L124.408 86.7699Z" fill="#874C4C"/>
<path d="M117.658 101.42C113.028 101.42 107.438 99.6399 104.838 95.6299C105.538 99.3599 110.498 101.98 113.128 102.63C114.492 103.05 115.911 103.266 117.338 103.27L117.658 101.42Z" fill="#874C4C"/>
<path d="M53.4501 193.82C54.235 193.711 54.9892 193.442 55.6667 193.031C56.3442 192.62 56.9307 192.075 57.3901 191.43C57.8313 190.157 57.8313 188.773 57.3901 187.5C56.8701 186.7 54.5701 183.36 53.6201 183.5C52.6701 183.64 50.9201 188.26 51.4201 190.22C51.834 191.55 52.526 192.777 53.4501 193.82Z" fill="#874C4C"/>
<path d="M43.4097 185.84C43.3248 183.504 43.405 181.165 43.6497 178.84C43.958 176.811 44.4091 174.806 44.9997 172.84C46.2597 167.84 49.4097 153.02 52.0797 145.51L64.2197 155.14C64.2197 155.14 56.2197 170.84 55.3197 173.49C54.8197 175.06 56.2497 177.29 56.7497 178.83C57.1705 180.305 57.3991 181.827 57.4297 183.36C57.5288 185.01 57.7799 186.647 58.1797 188.25C58.2429 188.447 58.2667 188.654 58.2497 188.86C58.1857 189.111 58.027 189.327 57.8069 189.463C57.5869 189.599 57.3226 189.645 57.0697 189.59C56.5628 189.464 56.1166 189.163 55.8097 188.74C55.0513 187.745 54.488 186.615 54.1497 185.41C54.0897 185.24 53.9997 185.04 53.8197 185C53.7372 184.999 53.6559 185.02 53.5839 185.06C53.5119 185.101 53.4518 185.159 53.4097 185.23C53.1703 185.673 52.9952 186.148 52.8897 186.64C52.7289 187.904 52.8623 189.187 53.2797 190.39C53.3652 191.052 53.6532 191.672 54.1043 192.164C54.5554 192.657 55.1475 192.997 55.7997 193.14C55.6097 193.26 55.0097 193.66 54.7997 193.76C54.4118 193.951 54.0067 194.106 53.5897 194.22C52.7935 194.36 51.9742 194.181 51.3097 193.72C50.3897 193.19 49.8097 192.13 48.8097 191.78C48.5336 191.698 48.2531 191.632 47.9697 191.58C47.3306 191.464 46.761 191.106 46.3797 190.58C46.0697 190.12 45.9697 189.52 45.5597 189.14C45.3255 188.962 45.0743 188.808 44.8097 188.68C44.3556 188.363 43.9891 187.937 43.7443 187.44C43.4995 186.944 43.3844 186.393 43.4097 185.84Z" fill="#9E6767"/>
<path d="M67.7994 149.61C67.7994 149.61 81.9894 134.22 84.9594 130.79C87.9294 127.36 93.8794 114.18 89.3894 105.45C81.9294 105.45 79.4994 106.45 73.3894 114.14C67.2794 121.83 57.9994 133.9 55.0794 138.03C52.8794 141.15 52.0094 144.23 50.5094 149.88C49.1994 154.81 48.3594 158.74 48.3594 158.74C48.3594 158.74 49.3594 160.49 54.3594 161.99C58.9094 163.37 60.7694 162.05 60.7694 162.05L67.7994 149.61Z" fill="#FF7A00"/>
<path d="M130.779 352.59L171.399 376.05L127.589 335.18L86.9688 311.72L130.779 352.59Z" fill="#FF7A00"/>
<path opacity="0.3" d="M86.9688 311.72L130.779 352.59L171.399 376.05L127.589 335.18L86.9688 311.72Z" fill="black"/>
<path d="M201.119 206.34L241.739 229.79L310.229 295.89L269.609 272.44L201.119 206.34Z" fill="#FF7A00"/>
<path opacity="0.3" d="M201.119 206.34L241.739 229.79L310.229 295.89L269.609 272.44L201.119 206.34Z" fill="black"/>
<path d="M44.6797 400.75L85.2997 424.2L127.59 335.18L86.9697 311.72L44.6797 400.75Z" fill="#FF7A00"/>
<path d="M135.57 342.63L171.4 376.05L241.74 229.79L201.12 206.34L135.57 342.63Z" fill="#FF7A00"/>
<path d="M274.77 261.66L310.23 295.89L417.04 72.5198L376.42 49.0698L274.77 261.66Z" fill="#FF7A00"/>
<path d="M362.141 41.83L430.571 81.34L425.811 0L362.141 41.83Z" fill="#FF7A00"/>
</g>
<defs>
<clipPath id="clip0_4397_6631">
<rect width="479" height="396" fill="white"/>
</clipPath>
</defs>
</svg>
