<svg width="110" height="112" viewBox="0 0 110 112" fill="none" xmlns="http://www.w3.org/2000/svg">
<g filter="url(#filter0_d_2419_1536)">
<path d="M49.2003 23.7506C51.8162 19.3527 58.1838 19.3527 60.7997 23.7506C62.5311 26.6615 66.152 27.838 69.2637 26.5007C73.965 24.4804 79.1165 28.2231 78.6477 33.3187C78.3375 36.6913 80.5753 39.7714 83.8788 40.5186C88.8698 41.6474 90.8375 47.7034 87.4632 51.5502C85.2298 54.0964 85.2298 57.9036 87.4632 60.4498C90.8375 64.2966 88.8698 70.3526 83.8788 71.4814C80.5753 72.2286 78.3375 75.3087 78.6477 78.6814C79.1165 83.7769 73.965 87.5196 69.2637 85.4993C66.152 84.162 62.5311 85.3385 60.7997 88.2494C58.1838 92.6473 51.8162 92.6473 49.2003 88.2494C47.4689 85.3385 43.848 84.162 40.7363 85.4993C36.035 87.5196 30.8835 83.7769 31.3523 78.6814C31.6625 75.3087 29.4247 72.2286 26.1212 71.4814C21.1302 70.3526 19.1625 64.2966 22.5368 60.4498C24.7702 57.9036 24.7702 54.0964 22.5368 51.5502C19.1625 47.7034 21.1302 41.6474 26.1212 40.5186C29.4247 39.7714 31.6625 36.6913 31.3523 33.3187C30.8835 28.2231 36.035 24.4804 40.7363 26.5007C43.848 27.838 47.4689 26.6615 49.2003 23.7506Z" fill="#FF7A00"/>
<path d="M32.8505 48.645C33.8205 47.885 34.6155 47.23 35.2355 46.68C35.8555 46.13 36.3755 45.565 36.7955 44.985C37.2155 44.395 37.4255 43.835 37.4255 43.305C37.4255 42.985 37.3505 42.735 37.2005 42.555C37.0605 42.375 36.8505 42.285 36.5705 42.285C36.2805 42.285 36.0555 42.41 35.8955 42.66C35.7355 42.9 35.6605 43.255 35.6705 43.725H32.8205C32.8505 42.835 33.0455 42.1 33.4055 41.52C33.7655 40.93 34.2355 40.5 34.8155 40.23C35.3955 39.95 36.0405 39.81 36.7505 39.81C37.9805 39.81 38.8955 40.115 39.4955 40.725C40.0955 41.335 40.3955 42.125 40.3955 43.095C40.3955 44.135 40.0455 45.11 39.3455 46.02C38.6555 46.93 37.7905 47.745 36.7505 48.465H40.5005V50.85H32.8505V48.645ZM44.5255 47.685C44.6455 48.365 45.0155 48.705 45.6355 48.705C46.0855 48.705 46.3905 48.495 46.5505 48.075C46.7205 47.645 46.8055 46.96 46.8055 46.02C46.6055 46.31 46.3255 46.54 45.9655 46.71C45.6055 46.88 45.2005 46.965 44.7505 46.965C43.7905 46.965 43.0105 46.665 42.4105 46.065C41.8105 45.465 41.5105 44.6 41.5105 43.47C41.5105 42.73 41.6655 42.085 41.9755 41.535C42.2855 40.975 42.7255 40.545 43.2955 40.245C43.8755 39.945 44.5505 39.795 45.3205 39.795C46.8505 39.795 47.9155 40.26 48.5155 41.19C49.1255 42.11 49.4305 43.45 49.4305 45.21C49.4305 47.18 49.1355 48.65 48.5455 49.62C47.9655 50.59 46.9655 51.075 45.5455 51.075C44.7755 51.075 44.1105 50.92 43.5505 50.61C43.0005 50.29 42.5755 49.875 42.2755 49.365C41.9855 48.845 41.8205 48.285 41.7805 47.685H44.5255ZM45.4555 44.685C45.8055 44.685 46.0805 44.585 46.2805 44.385C46.4805 44.175 46.5805 43.895 46.5805 43.545C46.5805 43.145 46.4755 42.845 46.2655 42.645C46.0655 42.445 45.7855 42.345 45.4255 42.345C45.0655 42.345 44.7805 42.45 44.5705 42.66C44.3705 42.86 44.2705 43.15 44.2705 43.53C44.2705 43.88 44.3705 44.16 44.5705 44.37C44.7805 44.58 45.0755 44.685 45.4555 44.685ZM53.9972 48.48L52.3922 52.86H50.5322L51.3122 48.48H53.9972ZM55.474 49.2V46.77L60.079 40.2H63.304V46.65H64.459V49.2H63.304V51H60.334V49.2H55.474ZM60.559 43.515L58.489 46.65H60.559V43.515ZM65.4701 42.855C65.4701 42.005 65.7101 41.355 66.1901 40.905C66.6701 40.455 67.3001 40.23 68.0801 40.23C68.8501 40.23 69.4751 40.455 69.9551 40.905C70.4351 41.355 70.6751 42.005 70.6751 42.855C70.6751 43.695 70.4351 44.345 69.9551 44.805C69.4751 45.255 68.8501 45.48 68.0801 45.48C67.3101 45.48 66.6801 45.255 66.1901 44.805C65.7101 44.345 65.4701 43.695 65.4701 42.855ZM76.1201 40.395L70.4351 51H67.6151L73.3001 40.395H76.1201ZM68.0651 41.955C67.6551 41.955 67.4501 42.255 67.4501 42.855C67.4501 43.455 67.6551 43.755 68.0651 43.755C68.2651 43.755 68.4201 43.68 68.5301 43.53C68.6501 43.38 68.7101 43.155 68.7101 42.855C68.7101 42.555 68.6501 42.33 68.5301 42.18C68.4201 42.03 68.2651 41.955 68.0651 41.955ZM73.0601 48.525C73.0601 47.685 73.3001 47.04 73.7801 46.59C74.2701 46.13 74.9001 45.9 75.6701 45.9C76.4401 45.9 77.0601 46.13 77.5301 46.59C78.0101 47.04 78.2501 47.685 78.2501 48.525C78.2501 49.375 78.0101 50.03 77.5301 50.49C77.0601 50.94 76.4401 51.165 75.6701 51.165C74.9001 51.165 74.2701 50.94 73.7801 50.49C73.3001 50.03 73.0601 49.375 73.0601 48.525ZM75.6551 47.625C75.2351 47.625 75.0251 47.925 75.0251 48.525C75.0251 49.135 75.2351 49.44 75.6551 49.44C75.8451 49.44 75.9951 49.365 76.1051 49.215C76.2251 49.055 76.2851 48.825 76.2851 48.525C76.2851 48.235 76.2251 48.015 76.1051 47.865C75.9951 47.705 75.8451 47.625 75.6551 47.625ZM44.0152 72.14C42.6819 72.14 41.4552 71.8267 40.3352 71.2C39.2286 70.5733 38.3486 69.7067 37.6952 68.6C37.0419 67.4933 36.7152 66.2467 36.7152 64.86C36.7152 63.4733 37.0419 62.2267 37.6952 61.12C38.3486 60.0133 39.2286 59.1533 40.3352 58.54C41.4552 57.9133 42.6819 57.6 44.0152 57.6C45.3486 57.6 46.5686 57.9133 47.6752 58.54C48.7819 59.1533 49.6552 60.0133 50.2952 61.12C50.9486 62.2267 51.2752 63.4733 51.2752 64.86C51.2752 66.2467 50.9486 67.4933 50.2952 68.6C49.6552 69.7067 48.7752 70.5733 47.6552 71.2C46.5486 71.8267 45.3352 72.14 44.0152 72.14ZM44.0152 68C44.8952 68 45.5752 67.72 46.0552 67.16C46.5352 66.5867 46.7752 65.82 46.7752 64.86C46.7752 63.8867 46.5352 63.12 46.0552 62.56C45.5752 61.9867 44.8952 61.7 44.0152 61.7C43.1219 61.7 42.4352 61.9867 41.9552 62.56C41.4752 63.12 41.2352 63.8867 41.2352 64.86C41.2352 65.82 41.4752 66.5867 41.9552 67.16C42.4352 67.72 43.1219 68 44.0152 68ZM62.877 57.84V61.36H57.317V63.32H61.317V66.66H57.317V72H52.877V57.84H62.877ZM74.3809 57.84V61.36H68.8209V63.32H72.8209V66.66H68.8209V72H64.3809V57.84H74.3809Z" fill="white"/>
</g>
<defs>
<filter id="filter0_d_2419_1536" x="0.856445" y="0.453125" width="108.287" height="111.094" filterUnits="userSpaceOnUse" color-interpolation-filters="sRGB">
<feFlood flood-opacity="0" result="BackgroundImageFix"/>
<feColorMatrix in="SourceAlpha" type="matrix" values="0 0 0 0 0 0 0 0 0 0 0 0 0 0 0 0 0 0 127 0" result="hardAlpha"/>
<feOffset/>
<feGaussianBlur stdDeviation="10"/>
<feComposite in2="hardAlpha" operator="out"/>
<feColorMatrix type="matrix" values="0 0 0 0 0.211765 0 0 0 0 0.247059 0 0 0 0 0.305882 0 0 0 0.2 0"/>
<feBlend mode="normal" in2="BackgroundImageFix" result="effect1_dropShadow_2419_1536"/>
<feBlend mode="normal" in="SourceGraphic" in2="effect1_dropShadow_2419_1536" result="shape"/>
</filter>
</defs>
</svg>
