<svg width="84" height="84" viewBox="0 0 84 84" fill="none" xmlns="http://www.w3.org/2000/svg">
<path d="M36.2003 9.75062C38.8162 5.35274 45.1838 5.35274 47.7997 9.75061V9.75061C49.5311 12.6615 53.152 13.838 56.2637 12.5007V12.5007C60.965 10.4804 66.1165 14.2231 65.6477 19.3187V19.3187C65.3375 22.6913 67.5753 25.7714 70.8788 26.5186V26.5186C75.8698 27.6474 77.8375 33.7034 74.4632 37.5502V37.5502C72.2298 40.0964 72.2298 43.9036 74.4632 46.4498V46.4498C77.8375 50.2966 75.8698 56.3526 70.8788 57.4814V57.4814C67.5753 58.2286 65.3375 61.3087 65.6477 64.6813V64.6813C66.1165 69.7769 60.965 73.5196 56.2637 71.4993V71.4993C53.152 70.162 49.5311 71.3385 47.7997 74.2494V74.2494C45.1838 78.6473 38.8162 78.6473 36.2003 74.2494V74.2494C34.4689 71.3385 30.848 70.162 27.7363 71.4993V71.4993C23.035 73.5196 17.8835 69.7769 18.3523 64.6813V64.6813C18.6625 61.3087 16.4247 58.2286 13.1212 57.4814V57.4814C8.13024 56.3526 6.16254 50.2966 9.53682 46.4498V46.4498C11.7702 43.9036 11.7702 40.0964 9.53682 37.5502V37.5502C6.16254 33.7034 8.13024 27.6474 13.1212 26.5186V26.5186C16.4247 25.7714 18.6625 22.6913 18.3523 19.3187V19.3187C17.8835 14.2231 23.035 10.4804 27.7363 12.5007V12.5007C30.848 13.838 34.4689 12.6615 36.2003 9.75062V9.75062Z" fill="#FF7A00"/>
</svg>
