<svg width="474" height="401" viewBox="0 0 474 401" fill="none" xmlns="http://www.w3.org/2000/svg">
<path d="M56.7878 241.552C124.396 194.583 102.014 100.339 141.716 53.8708C235.836 -37.5969 493.995 -5.5624 457.08 162.426C441.031 224.99 325.74 254.591 292.981 279.959C239.834 311.541 191.258 358.718 132.732 376.332C42.2663 411.314 -25.3781 288.595 56.7878 241.552Z" fill="#FF7A00"/>
<path opacity="0.9" d="M56.7878 241.552C124.396 194.583 102.014 100.339 141.716 53.8708C235.836 -37.5969 493.995 -5.5624 457.08 162.426C441.031 224.99 325.74 254.591 292.981 279.959C239.834 311.541 191.258 358.718 132.732 376.332C42.2663 411.314 -25.3781 288.595 56.7878 241.552Z" fill="white"/>
<path d="M237 420.56C367.891 420.56 474 414.361 474 406.714C474 399.067 367.891 392.868 237 392.868C106.109 392.868 0 399.067 0 406.714C0 414.361 106.109 420.56 237 420.56Z" fill="#F5F5F5"/>
<path d="M239.031 320.164L240.412 315.43H173.183L147.844 401.822H160.067L172.291 360.234H188.523L200.747 401.822H215.122L227.345 360.234H243.48L255.703 401.822H263.037L239.031 320.164ZM173.244 356.981L180.395 332.616L187.533 356.981H173.244ZM205.404 392.966L195.821 360.283H214.999L205.404 392.966ZM215.965 356.981H194.843L184.05 320.164L184.465 318.733H227.223L215.965 356.981ZM228.188 356.981L235.339 332.616L242.478 356.981H228.188Z" fill="#FF7A00"/>
<path opacity="0.2" d="M239.031 320.164L240.412 315.43H173.183L147.844 401.822H160.067L172.291 360.234H188.523L200.747 401.822H215.122L227.345 360.234H243.48L255.703 401.822H263.037L239.031 320.164ZM173.244 356.981L180.395 332.616L187.533 356.981H173.244ZM205.404 392.966L195.821 360.283H214.999L205.404 392.966ZM215.965 356.981H194.843L184.05 320.164L184.465 318.733H227.223L215.965 356.981ZM228.188 356.981L235.339 332.616L242.478 356.981H228.188Z" fill="black"/>
<path d="M242.929 315.43H180.65L205.99 401.822H213.324L201.1 360.234H248.772L260.995 401.822H268.329L242.929 315.43ZM200.147 357.018L188.926 318.769H236.597L247.806 357.018H200.147Z" fill="#FF7A00"/>
<path opacity="0.4" d="M242.929 315.43H180.65L205.99 401.822H213.324L201.1 360.234H248.772L260.995 401.822H268.329L242.929 315.43ZM200.208 356.981L188.987 318.733H236.658L247.867 356.981H200.208Z" fill="white"/>
<path d="M241.658 5.12796C241.658 5.12796 244.359 -1.29362 259.076 0.235329C269.772 1.3484 276.275 12.8705 275.468 29.1752C274.661 45.4799 267.975 52.5131 267.975 52.5131L232.894 34.2636C232.894 34.2636 230.498 7.26848 241.658 5.12796Z" fill="#263238"/>
<path d="M273.268 22.3501V47.6328C278.768 24.8698 273.268 22.3501 273.268 22.3501Z" fill="#263238"/>
<path d="M271.481 12.1486L277.202 36.7708C275.931 9.2008 270.002 7.92872 271.481 12.1486Z" fill="#263238"/>
<path d="M270.568 73.9546C271.46 76.3275 272.401 78.8472 273.404 81.2935C274.406 83.7398 275.408 86.1862 276.496 88.6325C277.584 91.0788 278.745 93.3539 279.955 95.6045C280.579 96.7175 281.178 97.8062 281.862 98.8581C282.18 99.4207 282.535 99.8733 282.877 100.399L283.329 101.06C283.395 101.159 283.468 101.253 283.549 101.341C284.082 101.844 284.721 102.22 285.419 102.442C286.422 102.78 287.459 103.006 288.512 103.115C290.951 103.352 293.407 103.352 295.846 103.115C298.453 102.912 301.048 102.574 303.62 102.099C306.224 101.671 308.876 101.096 311.406 100.522L313.056 105.133C307.883 107.489 302.463 109.261 296.897 110.417C293.955 111.034 290.955 111.329 287.949 111.298C286.271 111.258 284.602 111.029 282.975 110.613C281.025 110.134 279.207 109.223 277.657 107.946C277.222 107.568 276.813 107.159 276.435 106.723C276.215 106.478 276.129 106.356 276.007 106.209L275.653 105.769C275.2 105.17 274.687 104.546 274.284 103.971L273.061 102.148L271.839 100.301C270.325 97.8694 268.934 95.3628 267.671 92.7912C266.448 90.2348 265.226 87.6784 264.15 85.0853C263.075 82.4922 262.073 79.9114 261.168 77.1348L270.568 73.9546Z" fill="#FFC3BD"/>
<path d="M310.768 106.063L316.88 107.641L317.919 99.3478C317.919 99.3478 311.722 99.2745 308.764 102.002L310.768 106.063Z" fill="#FFC3BD"/>
<path d="M324.447 108.118L323.579 102.002L317.859 99.3477L316.832 107.641L324.447 108.118Z" fill="#FFC3BD"/>
<path opacity="0.2" d="M324.446 108.118L323.578 102.002L320.974 100.791L317.857 107.702L324.446 108.118Z" fill="black"/>
<path d="M253.563 67.2765C253.942 70.4567 256.253 76.5847 258.135 81.1716C259.504 84.4741 260.58 86.9571 260.58 86.9571L262.401 86.2721L277.534 80.56C276.763 72.3404 275.321 63.3624 266.667 58.8367C261.289 55.9868 252.891 61.5888 253.563 67.2765Z" fill="#FF7A00"/>
<path opacity="0.3" d="M258.135 81.1714C259.504 84.474 260.579 86.957 260.579 86.957L262.401 86.272C262.303 83.0429 261.9 77.9301 260.286 75.5449C259.169 77.2417 258.435 79.1618 258.135 81.1714V81.1714Z" fill="black"/>
<path d="M201.164 305.621L210.967 306.55L213.595 283.922L203.804 282.992L201.164 305.621Z" fill="#FFC3BD"/>
<path d="M120.473 279.091L128.369 285.048L144.076 268.462L136.18 262.517L120.473 279.091Z" fill="#FFC3BD"/>
<path d="M129.924 284.228L124.264 274.651C124.169 274.486 124.017 274.363 123.836 274.304C123.656 274.246 123.46 274.256 123.286 274.333L115.28 277.867C115.08 277.969 114.902 278.11 114.758 278.282C114.615 278.455 114.508 278.656 114.445 278.871C114.382 279.087 114.364 279.313 114.392 279.536C114.42 279.759 114.493 279.974 114.608 280.167C116.649 283.457 117.786 284.95 120.279 289.157C121.807 291.75 124.827 297.719 126.941 301.279C129.056 304.838 132.613 302.881 132.038 301.193C129.484 293.646 129.753 289.365 130.254 285.965C130.352 285.365 130.235 284.75 129.924 284.228V284.228Z" fill="#263238"/>
<path d="M212.214 303.676H200.541C200.334 303.679 200.135 303.75 199.973 303.878C199.812 304.007 199.697 304.185 199.649 304.386L197.363 313.621C197.309 313.844 197.306 314.076 197.356 314.3C197.405 314.524 197.505 314.733 197.648 314.913C197.79 315.092 197.972 315.236 198.179 315.335C198.386 315.433 198.613 315.483 198.842 315.48C202.949 315.48 204.953 315.186 210.038 315.186C213.192 315.186 221.357 315.492 225.721 315.492C230.085 315.492 230.757 311.174 228.985 310.783C221.015 309.034 216.395 306.624 213.889 304.312C213.431 303.896 212.833 303.669 212.214 303.676V303.676Z" fill="#263238"/>
<path opacity="0.2" d="M213.594 283.922L212.237 295.591H202.324L203.791 282.992L213.594 283.922Z" fill="black"/>
<path opacity="0.2" d="M136.18 262.517L144.064 268.474L135.973 277.012L128.076 271.055L136.18 262.517Z" fill="black"/>
<path d="M207.053 99.5313L244.249 114.209C272.656 63.387 269.05 60.3902 269.05 60.3902C269.05 60.3902 263.183 56.4761 257.034 53.1369C256.105 52.6354 255.164 52.1462 254.235 51.6691C248.772 49.0518 243.131 46.8241 237.355 45.0029C236.499 44.7094 235.656 44.4403 234.8 44.1712C230.201 42.7896 225.523 41.6868 220.792 40.8687C219.912 48.1097 219.081 54.2255 218.225 59.534C217.125 66.4571 216.025 71.9858 214.851 76.7561C212.868 84.5453 210.26 92.1618 207.053 99.5313V99.5313Z" fill="#FF7A00"/>
<path opacity="0.3" d="M214.852 76.7198C218.714 71.7293 222.711 59.8647 222.002 55.2656L218.225 59.4977C217.125 66.3841 216.025 71.9495 214.852 76.7198Z" fill="black"/>
<path d="M261.67 54.152C260.117 45.859 234.998 39.7065 234.998 39.7065L249.226 64.4143L251.475 65.3195C251.475 65.3195 262.672 59.6685 261.67 54.152Z" fill="#FF7A00"/>
<path opacity="0.3" d="M261.67 54.152C260.117 45.859 234.998 39.7065 234.998 39.7065L249.226 64.4143L251.475 65.3195C251.475 65.3195 262.672 59.6685 261.67 54.152Z" fill="black"/>
<path d="M244.2 34.3004C242.758 39.0095 240.533 43.6086 237.343 44.9663C237.343 44.9663 235.619 57.1979 246.889 68.9035C259.638 61.1732 254.223 51.6325 254.223 51.6325C248.686 47.7796 250.043 43.6698 254.138 37.5418L249.982 33.7744C249.697 33.2185 249.253 32.7605 248.706 32.4592C248.159 32.1579 247.535 32.0271 246.913 32.0837C246.292 32.1402 245.701 32.3815 245.218 32.7765C244.734 33.1716 244.38 33.7022 244.2 34.3004Z" fill="#FFC3BD"/>
<path d="M234.299 43.9876L234.996 39.7065C234.996 39.7065 240.802 42.8378 243.21 47.9017C245.618 52.9656 241.89 62.5062 241.89 62.5062L232.869 53.8829L234.299 43.9876Z" fill="#FF7A00"/>
<path opacity="0.2" d="M249.996 33.7621C249.727 33.2407 249.317 32.8053 248.813 32.505C248.309 32.2047 247.731 32.0516 247.145 32.0631C246.558 32.0746 245.987 32.2501 245.495 32.5698C245.003 32.8895 244.61 33.3407 244.361 33.8722C245.326 37.9971 247.542 41.7226 250.705 44.5381C251.407 42.013 252.572 39.6405 254.14 37.5416L249.996 33.7621Z" fill="black"/>
<path d="M240.216 17.4573C240.485 27.316 240.399 31.4869 245.105 36.7954C252.195 44.7949 264.015 42.5687 266.643 32.8813C269.002 24.1725 268.159 9.51904 258.844 5.07898C256.813 4.08506 254.558 3.64023 252.302 3.78869C250.046 3.93715 247.868 4.67372 245.985 5.92523C244.101 7.17674 242.578 8.89961 241.566 10.9227C240.554 12.9457 240.088 15.1986 240.216 17.4573V17.4573Z" fill="#FFC3BD"/>
<path d="M241.156 8.79694C248.49 16.5518 262.449 11.8548 262.449 11.8548L269.783 16.2949L265.896 7.4637L257.34 2.43652C257.34 2.43652 237.403 4.82168 241.156 8.79694Z" fill="#263238"/>
<path d="M241.964 5.73975C244.596 8.23315 246.616 11.3016 247.867 14.7055C250.312 20.8213 240.533 25.506 240.533 25.506C240.533 25.506 232.588 17.1518 241.964 5.73975Z" fill="#263238"/>
<path d="M237.735 26.4107C238.116 28.2834 239.213 29.9334 240.791 31.0098C242.881 32.4164 244.641 30.7284 244.666 28.3311C244.666 26.1783 243.627 22.8513 241.243 22.411C238.86 21.9706 237.271 24.1112 237.735 26.4107Z" fill="#FFC3BD"/>
<path d="M244.252 114.209C244.252 114.209 237.663 163.893 232.847 202.105C229.021 232.476 215.001 291.016 215.001 291.016L200.688 289.597C200.688 289.597 206.665 223.167 212.153 201.848C208.767 157.998 199.93 115.542 214.366 102.197L244.252 114.209Z" fill="#263238"/>
<path d="M198.398 286.112L217.271 286.687L216.245 293.133L198.582 292.864L198.398 286.112Z" fill="#FF7A00"/>
<path opacity="0.3" d="M220.768 139.883L206.442 127.97C205.941 143.296 208.446 163.111 210.561 184.235C217.809 169.043 222.833 152.788 220.768 139.883Z" fill="black"/>
<path d="M236.084 111.127C236.084 111.127 209.584 166.401 198.974 203.267C185.724 232.415 141.206 274.21 141.206 274.21L131.061 265.147C131.061 265.147 166.643 205.444 178.732 195.317C184.526 152.616 189.061 111.616 207.041 99.5557L236.084 111.127Z" fill="#263238"/>
<path d="M140.717 277.464L127.553 266.541L130.975 260.646L145.411 273.33L140.717 277.464Z" fill="#FF7A00"/>
<path d="M207.296 97.1092L204.399 99.8124C204.179 100.02 204.399 100.412 204.815 100.571L243.82 115.97C244.162 116.105 244.492 116.056 244.59 115.848L246.154 112.619C246.252 112.399 246.032 112.081 245.666 111.934L208.005 97.0603C207.893 97.0053 207.769 96.9809 207.644 96.9895C207.52 96.9981 207.4 97.0394 207.296 97.1092Z" fill="#FF7A00"/>
<path opacity="0.2" d="M207.296 97.1092L204.399 99.8124C204.179 100.02 204.399 100.412 204.815 100.571L243.82 115.97C244.162 116.105 244.492 116.056 244.59 115.848L246.154 112.619C246.252 112.399 246.032 112.081 245.666 111.934L208.005 97.0603C207.893 97.0053 207.769 96.9809 207.644 96.9895C207.52 96.9981 207.4 97.0394 207.296 97.1092Z" fill="white"/>
<path d="M210.82 103.36L209.805 102.956C209.61 102.883 209.5 102.711 209.549 102.589L211.614 98.4182C211.676 98.2959 211.883 98.2592 212.079 98.3326L213.093 98.7362C213.289 98.8096 213.411 98.9809 213.35 99.1032L211.333 103.286C211.236 103.409 211.015 103.445 210.82 103.36Z" fill="#263238"/>
<path d="M240.863 115.224L239.849 114.821C239.653 114.747 239.531 114.576 239.592 114.454L241.646 110.27C241.646 110.148 241.927 110.111 242.122 110.197L243.137 110.588C243.332 110.674 243.455 110.833 243.393 110.955L241.328 115.139C241.267 115.31 241.059 115.31 240.863 115.224Z" fill="#263238"/>
<path d="M225.842 109.292L224.827 108.888C224.632 108.815 224.509 108.643 224.571 108.521L226.624 104.338C226.685 104.216 226.905 104.179 227.101 104.264L228.115 104.668C228.311 104.741 228.433 104.9 228.372 105.035L226.318 109.194C226.257 109.328 226.001 109.365 225.842 109.292Z" fill="#263238"/>
<path d="M254.334 20.9801C254.334 21.7873 254.713 22.4601 255.226 22.4845C255.739 22.509 256.179 21.8852 256.203 21.0901C256.228 20.2951 255.824 19.6101 255.311 19.5857C254.798 19.5612 254.371 20.185 254.334 20.9801Z" fill="#263238"/>
<path d="M263.219 21.4815C263.219 22.2766 263.597 22.9493 264.111 22.986C264.624 23.0227 265.051 22.3867 265.088 21.5794C265.125 20.7721 264.709 20.1116 264.196 20.0871C263.683 20.0627 263.255 20.6865 263.219 21.4815Z" fill="#263238"/>
<path d="M263.979 20.1115L265.884 19.6714C265.884 19.6714 264.858 21.1262 263.979 20.1115Z" fill="#263238"/>
<path d="M262.217 22.6064C262.859 24.4694 263.747 26.2382 264.857 27.866C264.444 28.1354 263.976 28.3093 263.488 28.3749C262.999 28.4405 262.502 28.3962 262.033 28.2452L262.217 22.6064Z" fill="#ED847E"/>
<path d="M258.307 31.3282C258.347 31.3056 258.381 31.2739 258.407 31.2356C258.432 31.1974 258.448 31.1537 258.454 31.1081C258.451 31.0461 258.426 30.9872 258.383 30.9422C258.341 30.8973 258.283 30.8693 258.221 30.8634C257.232 30.823 256.267 30.5521 255.401 30.0722C254.535 29.5922 253.793 28.9166 253.234 28.0991C253.201 28.0478 253.151 28.0106 253.092 27.9947C253.033 27.9789 252.971 27.9856 252.916 28.0135C252.864 28.0485 252.827 28.1015 252.811 28.1623C252.795 28.2232 252.802 28.2877 252.831 28.3437C253.429 29.2308 254.228 29.9644 255.162 30.4851C256.097 31.0057 257.141 31.2988 258.209 31.3405L258.307 31.3282Z" fill="#263238"/>
<path d="M253.563 17.874C253.643 17.848 253.712 17.7964 253.759 17.7272C254.111 17.2704 254.569 16.9052 255.092 16.6624C255.615 16.4197 256.19 16.3067 256.766 16.3328C256.888 16.3433 257.01 16.3058 257.106 16.2283C257.202 16.1508 257.264 16.0392 257.279 15.9169C257.29 15.7928 257.253 15.6693 257.176 15.5715C257.098 15.4738 256.987 15.4092 256.864 15.391C256.132 15.3428 255.4 15.4761 254.733 15.7791C254.065 16.0821 253.483 16.5454 253.038 17.1279C252.962 17.2259 252.927 17.3497 252.94 17.473C252.954 17.5963 253.015 17.7094 253.111 17.7884C253.173 17.8397 253.247 17.8745 253.326 17.8894C253.405 17.9044 253.487 17.8991 253.563 17.874V17.874Z" fill="#263238"/>
<path d="M131.454 289.341L131.601 289.402C131.816 289.457 132.041 289.456 132.256 289.398C132.47 289.34 132.665 289.228 132.823 289.072C132.938 288.987 133.028 288.874 133.084 288.742C133.14 288.611 133.16 288.467 133.141 288.326C132.982 287.102 129.828 285.5 129.474 285.329C129.438 285.303 129.396 285.289 129.352 285.289C129.308 285.289 129.265 285.303 129.23 285.329C129.195 285.358 129.169 285.397 129.156 285.44C129.143 285.484 129.143 285.53 129.156 285.574C129.547 286.821 130.342 288.864 131.454 289.341ZM129.792 286.002C131.014 286.674 132.615 287.726 132.689 288.387C132.699 288.45 132.691 288.515 132.665 288.574C132.639 288.632 132.596 288.682 132.542 288.717C132.436 288.822 132.306 288.898 132.163 288.939C132.019 288.98 131.868 288.983 131.723 288.949C131.087 288.754 130.379 287.665 129.792 286.002V286.002Z" fill="#FF7A00"/>
<path d="M129.511 285.854C130.587 286.331 132.97 286.637 133.728 285.916C133.864 285.788 133.953 285.618 133.98 285.434C134.006 285.249 133.969 285.061 133.875 284.901C133.805 284.735 133.7 284.587 133.567 284.466C133.434 284.346 133.276 284.256 133.105 284.204C131.76 283.788 129.364 285.268 129.266 285.341C129.231 285.363 129.203 285.393 129.183 285.43C129.164 285.466 129.155 285.507 129.156 285.549C129.158 285.589 129.17 285.628 129.192 285.663C129.213 285.697 129.243 285.725 129.279 285.744L129.511 285.854ZM133.068 284.693C133.244 284.774 133.383 284.918 133.459 285.096C133.581 285.378 133.459 285.5 133.459 285.573C132.958 286.05 131.014 285.928 129.939 285.512C130.847 284.913 131.92 284.614 133.007 284.656L133.068 284.693Z" fill="#FF7A00"/>
<path d="M217.443 305.546C218.235 305.603 219.026 305.411 219.704 304.996C219.878 304.865 220.019 304.695 220.117 304.5C220.214 304.304 220.265 304.09 220.266 303.871C220.277 303.748 220.254 303.624 220.2 303.512C220.146 303.4 220.064 303.305 219.961 303.236C218.873 302.527 214.949 304.324 214.179 304.703C214.135 304.722 214.099 304.755 214.077 304.797C214.054 304.839 214.047 304.888 214.057 304.935C214.063 304.984 214.083 305.03 214.116 305.067C214.149 305.105 214.192 305.131 214.24 305.143C215.291 305.384 216.364 305.52 217.443 305.546V305.546ZM219.24 303.529C219.401 303.514 219.563 303.548 219.704 303.627C219.739 303.651 219.766 303.685 219.784 303.723C219.801 303.762 219.807 303.805 219.802 303.847C219.803 303.999 219.768 304.149 219.7 304.285C219.632 304.421 219.533 304.539 219.411 304.629C218.738 305.143 217.137 305.216 215.035 304.825C216.36 304.177 217.779 303.74 219.24 303.529V303.529Z" fill="#FF7A00"/>
<path d="M214.292 305.144H214.378C215.686 304.593 218.277 302.465 218.045 301.364C218.045 301.12 217.837 300.826 217.238 300.753C214.904 300.471 214.048 304.691 214.011 304.875C214 304.916 214.002 304.959 214.017 304.999C214.033 305.039 214.061 305.073 214.097 305.095C214.123 305.118 214.155 305.135 214.189 305.143C214.223 305.152 214.258 305.152 214.292 305.144V305.144ZM217.079 301.23H217.238C217.483 301.23 217.617 301.328 217.642 301.438C217.74 302.086 215.955 303.762 214.635 304.496C214.916 303.456 215.686 301.23 217.079 301.23Z" fill="#FF7A00"/>
<path d="M255.09 19.6223L256.996 19.1699C256.996 19.1699 255.969 20.6125 255.09 19.6223Z" fill="#263238"/>
<path d="M220.808 56.8552C216.859 60.5246 212.875 64.3287 209.061 68.1449C207.154 70.0653 205.308 72.0223 203.548 73.9916C201.827 75.8555 200.238 77.8378 198.793 79.9239C198.295 80.63 197.885 81.394 197.571 82.199C197.571 82.199 197.571 82.199 197.571 82.199C197.571 82.199 197.571 82.04 197.571 82.199C197.559 82.3496 197.559 82.5009 197.571 82.6515C197.604 82.9873 197.67 83.3191 197.766 83.6423C198.58 85.4956 199.871 87.0995 201.507 88.2903C205.637 91.389 210.179 93.8962 215.002 95.7393L213.779 100.497C212.251 100.277 210.882 99.9837 209.452 99.6412C208.023 99.3047 206.611 98.8965 205.223 98.418C202.332 97.4823 199.559 96.214 196.96 94.6385C195.542 93.773 194.222 92.7559 193.024 91.605C191.661 90.2929 190.544 88.7479 189.723 87.0427C189.273 86.0857 188.948 85.0743 188.758 84.0337C188.66 83.5003 188.599 82.9609 188.574 82.4191C188.551 82.0648 188.551 81.7093 188.574 81.355C188.574 81.0125 188.66 80.6333 188.721 80.3398C188.938 79.3053 189.274 78.2996 189.723 77.343C190.102 76.5113 190.506 75.7774 190.946 75.068C192.533 72.4956 194.306 70.0427 196.251 67.729C198.109 65.4907 200.04 63.3746 201.996 61.3075C205.907 57.1487 209.929 53.2713 214.219 49.4673L220.808 56.8552Z" fill="#FFC3BD"/>
<path d="M211.137 99.556L216.026 105.965L220.915 99.2258C220.915 99.2258 216.332 95.0671 212.359 95.1527L211.137 99.556Z" fill="#FFC3BD"/>
<path d="M220.022 110.148L223.42 104.999L220.89 99.2256L215.988 105.965L220.022 110.148Z" fill="#FFC3BD"/>
<path d="M220.792 40.8319C215.903 40.2692 205.721 51.8403 205.721 51.8403L214.852 67.9737C214.852 67.9737 228.383 58.3964 227.882 52.2684C227.442 46.8865 227.014 41.5413 220.792 40.8319Z" fill="#FF7A00"/>
<path d="M333.318 192.757L330.383 197.84L331.441 198.452L334.376 193.369L333.318 192.757Z" fill="#FF7A00"/>
<path d="M346.966 169.167L336.338 187.574L337.396 188.186L348.025 169.779L346.966 169.167Z" fill="#FF7A00"/>
<path d="M381.248 52.1338L296.234 90.8222H329.152L216.537 285.867H276.053L388.667 90.8222H421.585L381.248 52.1338Z" fill="#FF7A00"/>
<path d="M276.057 285.867H216.541L176.057 215.731H235.56L276.057 285.867Z" fill="#FF7A00"/>
<path opacity="0.3" d="M276.057 285.867H216.541L176.057 215.731H235.56L276.057 285.867Z" fill="black"/>
<path d="M235.778 215.608H176.178L63.4277 401.528H123.015L235.778 215.608Z" fill="#FF7A00"/>
</svg>
