<svg width="358" height="348" viewBox="0 0 358 348" fill="none" xmlns="http://www.w3.org/2000/svg">
<path d="M341.371 138.712C332.627 120.664 322.672 102.75 312.335 85.9959C296.329 60.0492 275.371 35.7255 247.943 20.3774C184.315 -15.2105 111.03 -1.28347 62.704 39.7271C14.3784 80.7377 53.8482 133.349 44.9848 172.811C36.129 212.274 7.93844 210.725 0.690723 267.982C-6.557 325.238 75.5913 359.285 139.213 344.58C202.842 329.875 203.642 303.57 257.607 302.021C311.572 300.473 343.779 284.227 355.059 223.875C359.023 202.67 359.442 179.618 350.788 159.363C347.856 152.497 344.699 145.593 341.371 138.712Z" fill="#FF7A00"/>
<path opacity="0.8" d="M341.371 138.712C332.627 120.664 322.672 102.75 312.335 85.9959C296.329 60.0492 275.371 35.7255 247.943 20.3774C184.315 -15.2105 111.03 -1.28347 62.704 39.7271C14.3784 80.7377 53.8482 133.349 44.9848 172.811C36.129 212.274 7.93844 210.725 0.690723 267.982C-6.557 325.238 75.5913 359.285 139.213 344.58C202.842 329.875 203.642 303.57 257.607 302.021C311.572 300.473 343.779 284.227 355.059 223.875C359.023 202.67 359.442 179.618 350.788 159.363C347.856 152.497 344.699 145.593 341.371 138.712Z" fill="white"/>
<path d="M341.371 328.244H349.472" stroke="#263238" stroke-width="0.747959" stroke-miterlimit="10" stroke-linecap="round" stroke-linejoin="round"/>
<path d="M16.0687 328.244H333.936" stroke="#263238" stroke-width="0.747959" stroke-miterlimit="10" stroke-linecap="round" stroke-linejoin="round"/>
<g opacity="0.3">
<path opacity="0.3" d="M67.9996 81.9491C66.5485 80.4457 64.0354 79.0619 59.6748 78.9572C49.8765 78.7179 52.5018 85.6515 49.8765 87.3269C47.2437 89.0023 46.5331 86.3695 43.9003 88.0449C41.2675 89.7204 42.4642 93.0637 40.3176 93.5424C38.1635 94.0211 35.2988 91.3883 32.666 93.0637C30.0332 94.7392 30.0332 96.1678 28.8439 96.1678C27.6472 96.1678 25.2612 95.2104 23.8251 96.1678C22.389 97.1251 20.7211 98.3219 20.7211 98.3219H46.391" stroke="black" stroke-width="0.747959" stroke-miterlimit="10" stroke-linecap="round" stroke-linejoin="round"/>
<path opacity="0.3" d="M70.6997 86.2361C70.4679 86.1239 70.221 86.0117 69.9593 85.8995C69.9593 85.8995 69.877 84.7477 69.0767 83.3789" stroke="black" stroke-width="0.747959" stroke-miterlimit="10" stroke-linecap="round" stroke-linejoin="round"/>
<path opacity="0.3" d="M49.6671 98.324H81.1936C81.1936 98.324 81.9116 96.1699 79.2788 94.7413C76.646 93.3052 75.4567 94.5019 74.4993 93.3052C73.6467 92.2431 76.3992 89.6626 71.9488 86.9102" stroke="black" stroke-width="0.747959" stroke-miterlimit="10" stroke-linecap="round" stroke-linejoin="round"/>
</g>
<g opacity="0.3">
<path opacity="0.3" d="M291.34 240.055C289.889 238.551 287.376 237.167 283.015 237.063C273.217 236.823 275.842 243.757 273.217 245.432C270.584 247.108 269.874 244.475 267.241 246.15C264.608 247.826 265.805 251.169 263.658 251.648C261.504 252.127 258.639 249.494 256.006 251.169C253.374 252.845 253.374 254.273 252.184 254.273C250.988 254.273 248.602 253.316 247.166 254.273C245.729 255.231 244.062 256.427 244.062 256.427H269.731" stroke="black" stroke-width="0.747959" stroke-miterlimit="10" stroke-linecap="round" stroke-linejoin="round"/>
<path opacity="0.3" d="M294.04 244.332C293.808 244.22 293.561 244.107 293.3 243.995C293.3 243.995 293.217 242.843 292.417 241.475" stroke="black" stroke-width="0.747959" stroke-miterlimit="10" stroke-linecap="round" stroke-linejoin="round"/>
<path opacity="0.3" d="M273.007 256.42H304.534C304.534 256.42 305.252 254.266 302.619 252.837C299.986 251.401 298.797 252.598 297.84 251.401C296.987 250.339 299.74 247.758 295.289 245.006" stroke="black" stroke-width="0.747959" stroke-miterlimit="10" stroke-linecap="round" stroke-linejoin="round"/>
</g>
<g opacity="0.3">
<path opacity="0.3" d="M124.777 51.9632H158.338C158.338 51.9632 159.483 48.53 155.286 46.2413C151.09 43.9525 149.191 45.8598 147.665 43.9525C146.139 42.0452 151.861 37.0937 140.425 32.1348C140.425 32.1348 139.662 21.4614 124.029 21.0799C117.283 20.9154 114.231 22.8825 112.6 25.3807" stroke="black" stroke-width="0.747959" stroke-miterlimit="10" stroke-linecap="round" stroke-linejoin="round"/>
<path opacity="0.3" d="M114.538 51.9629H120.125" stroke="black" stroke-width="0.747959" stroke-miterlimit="10" stroke-linecap="round" stroke-linejoin="round"/>
<path opacity="0.3" d="M110.573 30.6543C110.095 32.2774 109.579 33.6835 108.404 34.4315C104.208 37.1017 103.064 32.9057 98.8753 35.5759C94.6793 38.2461 96.5866 43.579 93.1534 44.3419C89.7203 45.1049 85.1503 40.9088 80.9542 43.579C76.7582 46.2492 76.7582 48.538 74.8584 48.538C72.9511 48.538 69.1365 47.0122 66.8552 48.538C64.5665 50.0638 61.8962 51.9711 61.8962 51.9711H104.762" stroke="black" stroke-width="0.747959" stroke-miterlimit="10" stroke-linecap="round" stroke-linejoin="round"/>
</g>
<path d="M349.06 328.134V322.659L344.505 319.861L339.733 322.793L334.953 319.861L330.181 322.793L325.41 319.861L320.638 322.793L315.866 319.861L311.086 322.793L306.314 319.861L301.535 322.793L296.763 319.861L291.991 322.793L287.211 319.861L282.439 322.793L277.66 319.861L272.888 322.793L268.116 319.861L263.336 322.793L258.564 319.861L253.785 322.793L249.013 319.861L244.234 322.793L239.462 319.861L234.69 322.793L229.91 319.861L225.131 322.793L220.359 319.861L215.587 322.793L210.807 319.861L206.028 322.793L201.256 319.861L196.476 322.793L191.704 319.861L186.925 322.793L182.153 319.861L177.374 322.793L172.602 319.861L167.822 322.793L163.043 319.861L158.271 322.793L153.499 319.861L148.719 322.793L143.947 319.861L139.168 322.793L134.396 319.861L129.624 322.793L124.844 319.861L120.072 322.793L115.293 319.861L110.521 322.793L105.741 319.861L100.962 322.793L96.1901 319.861L91.4106 322.793L86.6386 319.861L81.8592 322.793L77.0797 319.861L72.3002 322.793L67.5208 319.861L62.7413 322.793L57.9694 319.861L53.1899 322.793L48.4104 319.861L43.6385 322.793L38.859 319.861L34.0795 322.793L29.3001 319.861L24.5206 322.793L19.7412 319.861L15.7471 322.307V328.134H349.06Z" fill="#FF7A00"/>
<path d="M341.76 228.085C341.76 228.085 316.599 230.576 303.839 246.171C303.839 246.171 290.36 228.1 266.164 228.467C259.141 220 254.915 209.132 254.915 197.269C254.907 170.253 276.8 148.353 303.809 148.338C330.825 148.33 352.725 170.223 352.74 197.232C352.748 208.945 348.634 219.693 341.768 228.115L341.76 228.085Z" fill="#FF7A00"/>
<path d="M341.76 228.085C341.76 228.085 316.599 230.576 303.839 246.171C303.839 246.171 290.36 228.1 266.164 228.467C259.141 220 254.915 209.132 254.915 197.269C254.907 170.253 276.8 148.353 303.809 148.338C330.825 148.33 352.725 170.223 352.74 197.232C352.748 208.945 348.634 219.693 341.768 228.115L341.76 228.085Z" fill="#FF7A00"/>
<path opacity="0.5" d="M341.76 228.085C341.76 228.085 316.599 230.576 303.839 246.171C303.839 246.171 290.36 228.1 266.164 228.467C259.141 220 254.915 209.132 254.915 197.269C254.907 170.253 276.8 148.353 303.809 148.338C330.825 148.33 352.725 170.223 352.74 197.232C352.748 208.945 348.634 219.693 341.768 228.115L341.76 228.085Z" fill="white"/>
<path d="M302.32 328.469L304.669 151.801L305.26 328.469H302.32Z" fill="#828282"/>
<path d="M303.397 241.422C303.397 241.422 294.9 226.134 279.612 221.459C279.612 221.459 295.753 225.281 303.824 238.445L303.397 241.422Z" fill="#828282"/>
<path d="M304.325 198.511C304.325 198.511 294.9 182.804 279.612 178.137C279.612 178.137 296.254 182.924 304.325 196.095V198.511Z" fill="#828282"/>
<path d="M303.996 220.844C303.996 220.844 294.908 204.464 279.612 199.789C279.612 199.789 296.142 204.374 304.213 217.538L303.996 220.844Z" fill="#828282"/>
<path d="M304.654 209.141C304.654 209.141 312.851 193.852 327.601 189.178C327.601 189.178 312.029 193 304.242 206.164L304.654 209.141Z" fill="#828282"/>
<path d="M304.654 230.373C304.654 230.373 312.851 215.085 327.601 210.41C327.601 210.41 312.029 214.232 304.242 227.396L304.654 230.373Z" fill="#828282"/>
<path d="M96.4819 228.085C96.4819 228.085 71.3205 230.576 58.5603 246.171C58.5603 246.171 45.0821 228.1 20.8857 228.467C13.8623 220 9.63635 209.132 9.63635 197.269C9.62887 170.253 31.5216 148.353 58.5304 148.338C85.5467 148.33 107.447 170.223 107.462 197.232C107.469 208.945 103.356 219.693 96.4893 228.115L96.4819 228.085Z" fill="#FF7A00"/>
<path opacity="0.5" d="M96.4818 228.085C96.4818 228.085 71.3205 230.576 58.5603 246.171C58.5603 246.171 45.0821 228.1 20.8857 228.467C13.8623 220 9.63635 209.132 9.63635 197.269C9.62888 170.253 31.5216 148.353 58.5304 148.338C85.5467 148.33 107.447 170.223 107.462 197.232C107.469 208.945 103.356 219.693 96.4893 228.115L96.4818 228.085Z" fill="white"/>
<path d="M57.0494 328.469L59.398 151.801L59.9889 328.469H57.0494Z" fill="#828282"/>
<path d="M58.1265 241.422C58.1265 241.422 49.6297 226.134 34.3414 221.459C34.3414 221.459 50.4824 225.281 58.5529 238.445L58.1265 241.422Z" fill="#828282"/>
<path d="M59.054 198.511C59.054 198.511 49.6297 182.804 34.3414 178.137C34.3414 178.137 50.9835 182.924 59.054 196.095V198.511Z" fill="#828282"/>
<path d="M58.7249 220.844C58.7249 220.844 49.6372 204.464 34.3414 199.789C34.3414 199.789 50.8713 204.374 58.9418 217.538L58.7249 220.844Z" fill="#828282"/>
<path d="M59.3831 209.141C59.3831 209.141 67.5807 193.852 82.3304 189.178C82.3304 189.178 66.7579 193 58.9717 206.164L59.3831 209.141Z" fill="#828282"/>
<path d="M59.3831 230.373C59.3831 230.373 67.5807 215.085 82.3304 210.41C82.3304 210.41 66.7579 214.232 58.9717 227.396L59.3831 230.373Z" fill="#828282"/>
<path d="M153.783 140.522C153.783 140.522 111.037 144.748 89.3763 171.249C89.3763 171.249 66.4887 140.552 25.3809 141.181C13.451 126.805 6.27805 108.338 6.27057 88.1952C6.25561 42.308 43.4367 5.09699 89.3239 5.08204C135.211 5.06708 172.422 42.2481 172.437 88.1354C172.445 108.024 165.459 126.281 153.805 140.59L153.783 140.522Z" fill="#FF7A00"/>
<path opacity="0.5" d="M153.783 140.522C153.783 140.522 111.037 144.748 89.3763 171.249C89.3763 171.249 66.4887 140.552 25.3809 141.181C13.451 126.805 6.27805 108.338 6.27057 88.1952C6.25562 42.308 43.4367 5.09699 89.3239 5.08204C135.211 5.06708 172.422 42.2481 172.437 88.1354C172.445 108.024 165.459 126.281 153.805 140.59L153.783 140.522Z" fill="white"/>
<path d="M86.5641 328.471L90.7901 10.9473L91.8522 328.471H86.5641Z" fill="#828282"/>
<path d="M88.6284 163.172C88.6284 163.172 74.2003 137.196 48.2236 129.26C48.2236 129.26 75.6363 135.752 89.3464 158.116L88.6284 163.172Z" fill="#828282"/>
<path d="M90.1991 90.2917C90.1991 90.2917 74.2003 63.6194 48.2236 55.6836C48.2236 55.6836 76.489 63.8214 90.1991 86.1854V90.2917Z" fill="#828282"/>
<path d="M89.6382 128.227C89.6382 128.227 74.1929 100.403 48.2237 92.4668C48.2237 92.4668 76.3021 100.253 90.0122 122.617L89.6382 128.227Z" fill="#828282"/>
<path d="M90.7676 108.348C90.7676 108.348 104.695 82.3714 129.751 74.4355C129.751 74.4355 103.296 80.9278 90.072 103.292L90.7676 108.348Z" fill="#828282"/>
<path d="M90.7676 144.421C90.7676 144.421 104.695 118.451 129.751 110.516C129.751 110.516 103.296 117.008 90.072 139.372L90.7676 144.421Z" fill="#828282"/>
<path d="M258.437 295.08C259.47 295.529 261.99 295.477 261.998 295.477C262.02 295.477 261.452 293.824 261.407 293.726C260.853 292.567 259.103 290.66 257.674 290.847C256.65 290.989 256.074 292.014 256.306 292.978C256.545 293.966 257.562 294.699 258.437 295.08Z" fill="#828282"/>
<path d="M259.312 302.387C260.382 302.545 262.633 301.894 262.813 301.841C263.172 303.105 263.636 304.37 264.182 305.619C264.488 306.337 264.825 307.047 265.169 307.758C264.967 307.459 264.78 307.189 264.75 307.152C263.912 306.18 261.713 304.796 260.397 305.364C259.447 305.768 259.163 306.913 259.642 307.78C260.128 308.67 261.302 309.112 262.252 309.246C263.217 309.388 265.147 308.865 265.655 308.723C265.79 308.992 265.924 309.269 266.059 309.538C266.71 310.839 267.368 312.126 267.974 313.42C268.191 313.876 268.378 314.325 268.58 314.781C268.4 314.512 268.243 314.287 268.213 314.258C267.375 313.285 265.176 311.901 263.86 312.47C262.91 312.874 262.626 314.018 263.105 314.886C263.591 315.776 264.765 316.217 265.715 316.352C266.635 316.486 268.423 316.023 269.028 315.858C269.215 316.329 269.402 316.801 269.559 317.264C269.664 317.586 269.784 317.885 269.866 318.214C269.956 318.536 270.046 318.857 270.135 319.172C270.285 319.785 270.442 320.421 270.569 321.019C270.659 321.438 270.741 321.842 270.824 322.238C270.614 321.782 270.195 320.907 270.15 320.832C269.47 319.748 267.51 318.05 266.119 318.401C265.117 318.656 264.668 319.74 265.004 320.675C265.356 321.625 266.441 322.238 267.36 322.522C268.37 322.829 270.607 322.552 270.883 322.515C271.018 323.181 271.138 323.831 271.25 324.452C271.489 325.814 271.669 327.033 271.811 328.065H272.753C272.589 326.995 272.372 325.724 272.088 324.303C271.953 323.622 271.796 322.904 271.631 322.163C271.796 322.096 272.753 321.715 273.598 321.236C274.331 322.036 276.216 322.964 276.463 323.083C276.209 323.712 275.955 324.325 275.7 324.901C275.177 326.098 274.683 327.167 274.249 328.072H275.266C275.64 327.235 276.052 326.285 276.486 325.238C276.747 324.594 277.017 323.906 277.286 323.203C277.555 323.263 279.769 323.712 280.801 323.48C281.736 323.27 282.866 322.739 283.285 321.812C283.696 320.907 283.329 319.792 282.342 319.463C280.981 319.007 278.902 320.555 278.139 321.588C278.094 321.647 277.682 322.365 277.428 322.822C277.533 322.53 277.645 322.253 277.75 321.947C277.967 321.356 278.168 320.757 278.385 320.114C278.483 319.8 278.572 319.486 278.67 319.164C278.774 318.85 278.842 318.498 278.924 318.169C279.111 317.391 279.261 316.591 279.395 315.791C279.911 315.978 281.766 316.629 282.731 316.554C283.688 316.486 284.885 316.135 285.439 315.282C285.985 314.452 285.79 313.293 284.87 312.814C283.591 312.156 281.302 313.367 280.39 314.272C280.33 314.332 279.754 315.05 279.44 315.454C279.515 314.968 279.597 314.482 279.657 313.988C279.836 312.56 279.971 311.116 280.106 309.673C280.151 309.231 280.195 308.79 280.24 308.349C280.427 308.416 282.611 309.231 283.688 309.156C284.646 309.089 285.843 308.738 286.396 307.885C286.935 307.055 286.748 305.895 285.828 305.417C284.549 304.758 282.26 305.97 281.347 306.875C281.28 306.943 280.442 307.982 280.248 308.259C280.353 307.287 280.465 306.322 280.607 305.372C280.809 304.063 281.078 302.791 281.437 301.572C281.519 301.602 283.801 302.462 284.908 302.387C285.865 302.32 287.062 301.969 287.615 301.116C288.161 300.286 287.967 299.126 287.047 298.648C285.768 297.989 283.479 299.201 282.566 300.106C282.492 300.181 281.602 301.295 281.452 301.512C281.474 301.438 281.489 301.363 281.512 301.288C281.908 299.994 282.454 298.797 283.015 297.698C283.344 297.054 283.688 296.464 284.04 295.895C284.451 296.097 286.321 297.01 287.324 297.047C288.281 297.084 289.515 296.867 290.158 296.082C290.787 295.312 290.727 294.137 289.859 293.569C288.662 292.776 286.254 293.726 285.252 294.526C285.199 294.571 284.691 295.072 284.332 295.446C284.496 295.192 284.661 294.923 284.818 294.683C285.416 293.778 286.022 292.986 286.568 292.29C286.882 291.894 287.166 291.549 287.443 291.22C287.944 291.213 289.979 291.153 290.869 290.734C291.736 290.33 292.731 289.567 292.941 288.573C293.143 287.6 292.544 286.591 291.52 286.478C290.091 286.321 288.393 288.281 287.87 289.455C287.825 289.56 287.301 291.22 287.324 291.22C287.324 291.22 287.346 291.22 287.353 291.22C287.084 291.527 286.8 291.856 286.493 292.23C285.932 292.918 285.312 293.696 284.683 294.594C284.055 295.491 283.404 296.479 282.806 297.578C282.207 298.685 281.639 299.874 281.205 301.183C281.198 301.198 281.198 301.213 281.19 301.228C281.198 300.809 281.183 299.627 281.168 299.538C281.003 298.266 279.934 295.903 278.52 295.641C277.503 295.454 276.643 296.254 276.56 297.241C276.478 298.251 277.211 299.268 277.929 299.904C278.737 300.622 280.973 301.325 281.153 301.378C280.756 302.627 280.442 303.936 280.21 305.282C280.076 306.052 279.956 306.83 279.851 307.616C279.844 307.249 279.836 306.928 279.829 306.883C279.664 305.611 278.595 303.248 277.181 302.986C276.164 302.799 275.304 303.592 275.222 304.586C275.139 305.596 275.872 306.613 276.59 307.249C277.316 307.9 279.216 308.528 279.717 308.693C279.679 308.992 279.642 309.291 279.605 309.59C279.433 311.034 279.268 312.47 279.059 313.884C278.984 314.377 278.894 314.863 278.812 315.35C278.804 315.028 278.797 314.751 278.797 314.714C278.632 313.442 277.563 311.079 276.149 310.817C275.132 310.63 274.264 311.43 274.189 312.418C274.107 313.427 274.84 314.445 275.558 315.08C276.254 315.701 277.996 316.299 278.595 316.494C278.49 316.988 278.385 317.489 278.258 317.96C278.169 318.282 278.101 318.603 277.989 318.917C277.884 319.231 277.787 319.553 277.682 319.86C277.465 320.451 277.248 321.064 277.024 321.64C276.867 322.044 276.717 322.418 276.56 322.799C276.635 322.306 276.77 321.341 276.77 321.258C276.792 320.406 276.486 319.022 275.887 318.042C275.895 317.915 275.887 317.788 275.865 317.668C275.708 316.688 274.788 315.955 273.785 316.225C272.394 316.591 271.512 319.03 271.452 320.316C271.444 320.391 271.497 321.214 271.534 321.737C271.467 321.438 271.399 321.139 271.325 320.832C271.183 320.219 271.018 319.605 270.846 318.955C270.749 318.641 270.652 318.326 270.562 318.005C270.472 317.683 270.337 317.362 270.225 317.032C269.948 316.285 269.634 315.537 269.305 314.789C269.844 314.661 271.744 314.175 272.506 313.592C273.269 313.008 274.077 312.051 274.07 311.041C274.062 310.047 273.262 309.186 272.23 309.299C270.801 309.456 269.559 311.729 269.298 312.986C269.283 313.061 269.2 313.988 269.163 314.497C268.961 314.048 268.759 313.599 268.535 313.158C267.899 311.872 267.211 310.593 266.53 309.306C266.321 308.91 266.119 308.521 265.917 308.124C266.111 308.079 268.385 307.556 269.238 306.898C270.001 306.314 270.809 305.357 270.801 304.347C270.794 303.352 269.993 302.492 268.961 302.604C267.533 302.761 266.291 305.035 266.029 306.292C266.007 306.389 265.887 307.713 265.88 308.057C265.431 307.189 264.989 306.322 264.586 305.447C264.032 304.242 263.553 303.031 263.179 301.826C263.269 301.804 265.648 301.265 266.523 300.592C267.286 300.009 268.093 299.052 268.086 298.042C268.079 297.047 267.278 296.187 266.246 296.299C264.817 296.456 263.576 298.73 263.314 299.986C263.292 300.084 263.164 301.512 263.164 301.774C263.142 301.699 263.112 301.632 263.09 301.557C262.708 300.263 262.499 298.962 262.364 297.728C262.282 297.017 262.244 296.329 262.229 295.656C262.686 295.603 264.75 295.327 265.603 294.811C266.426 294.317 267.331 293.457 267.435 292.447C267.54 291.46 266.837 290.517 265.797 290.517C264.361 290.517 262.88 292.642 262.484 293.861C262.461 293.928 262.319 294.624 262.222 295.14C262.215 294.841 262.207 294.526 262.207 294.235C262.207 293.15 262.274 292.155 262.349 291.273C262.394 290.772 262.439 290.323 262.491 289.897C262.91 289.612 264.571 288.438 265.079 287.6C265.58 286.785 265.984 285.603 265.61 284.653C265.244 283.726 264.189 283.217 263.269 283.688C261.99 284.347 261.654 286.92 261.87 288.184C261.885 288.296 262.372 289.971 262.394 289.956L262.416 289.941C262.357 290.345 262.304 290.779 262.252 291.258C262.162 292.14 262.072 293.135 262.05 294.227C262.02 295.319 262.02 296.501 262.132 297.75C262.244 298.999 262.424 300.316 262.783 301.639C262.79 301.654 262.79 301.669 262.798 301.684C262.574 301.325 261.908 300.36 261.848 300.286C261.01 299.313 258.811 297.93 257.495 298.498C256.545 298.902 256.261 300.046 256.739 300.914C257.188 301.812 258.363 302.253 259.312 302.387Z" fill="#828282"/>
<path d="M283.958 295.635C283.98 295.65 284.414 293.959 284.429 293.847C284.608 292.576 284.197 290.018 282.903 289.389C281.968 288.94 280.929 289.479 280.592 290.414C280.248 291.364 280.682 292.538 281.205 293.346C281.819 294.288 283.958 295.635 283.958 295.635Z" fill="#828282"/>
<path d="M301.176 307.128C301.834 307.412 303.434 307.374 303.434 307.374C303.449 307.374 303.09 306.327 303.06 306.26C302.709 305.527 301.594 304.308 300.697 304.435C300.046 304.525 299.68 305.175 299.829 305.789C299.979 306.417 300.622 306.881 301.176 307.128Z" fill="#828282"/>
<path d="M301.728 311.766C302.409 311.863 303.838 311.452 303.95 311.415C304.174 312.215 304.473 313.015 304.817 313.816C305.012 314.272 305.229 314.721 305.446 315.177C305.319 314.982 305.199 314.818 305.176 314.795C304.645 314.182 303.254 313.299 302.409 313.658C301.803 313.913 301.624 314.638 301.93 315.192C302.237 315.753 302.985 316.037 303.583 316.127C304.197 316.217 305.423 315.887 305.745 315.798C305.827 315.97 305.917 316.142 305.999 316.314C306.411 317.137 306.829 317.959 307.211 318.775C307.345 319.066 307.473 319.35 307.592 319.642C307.473 319.47 307.375 319.328 307.36 319.313C306.829 318.7 305.438 317.817 304.593 318.176C303.987 318.43 303.808 319.156 304.114 319.709C304.428 320.27 305.169 320.555 305.767 320.644C306.351 320.727 307.488 320.435 307.869 320.33C307.989 320.629 308.108 320.929 308.206 321.22C308.273 321.422 308.348 321.617 308.4 321.819C308.46 322.021 308.512 322.223 308.572 322.425C308.669 322.814 308.767 323.217 308.849 323.599C308.909 323.868 308.961 324.122 309.013 324.377C308.879 324.085 308.61 323.532 308.587 323.487C308.153 322.799 306.912 321.722 306.029 321.946C305.393 322.11 305.109 322.799 305.326 323.389C305.55 323.995 306.239 324.384 306.822 324.564C307.465 324.758 308.879 324.579 309.058 324.556C309.141 324.983 309.223 325.394 309.29 325.783C309.44 326.643 309.559 327.421 309.642 328.072H310.24C310.135 327.391 310.001 326.591 309.821 325.678C309.739 325.244 309.634 324.788 309.53 324.317C309.634 324.272 310.24 324.033 310.779 323.734C311.242 324.242 312.439 324.833 312.596 324.908C312.432 325.312 312.275 325.693 312.11 326.06C311.781 326.823 311.467 327.496 311.19 328.072H311.833C312.073 327.541 312.334 326.942 312.604 326.269C312.768 325.865 312.94 325.424 313.112 324.975C313.284 325.013 314.69 325.297 315.341 325.147C315.932 325.013 316.65 324.676 316.919 324.093C317.181 323.517 316.949 322.806 316.321 322.604C315.453 322.312 314.137 323.292 313.651 323.95C313.621 323.988 313.359 324.444 313.202 324.736C313.269 324.549 313.337 324.369 313.411 324.182C313.546 323.808 313.673 323.427 313.815 323.015C313.875 322.814 313.935 322.612 313.995 322.41C314.062 322.208 314.1 321.991 314.159 321.774C314.279 321.28 314.369 320.772 314.459 320.263C314.788 320.383 315.962 320.794 316.575 320.749C317.181 320.704 317.944 320.48 318.296 319.941C318.64 319.41 318.52 318.677 317.937 318.378C317.129 317.959 315.67 318.73 315.094 319.306C315.057 319.343 314.69 319.799 314.496 320.054C314.541 319.747 314.593 319.44 314.631 319.126C314.743 318.221 314.825 317.301 314.915 316.389C314.945 316.104 314.975 315.828 315.005 315.551C315.124 315.596 316.508 316.112 317.196 316.067C317.802 316.022 318.565 315.798 318.916 315.259C319.26 314.728 319.141 313.995 318.55 313.696C317.742 313.277 316.284 314.047 315.708 314.623C315.663 314.668 315.139 315.326 315.012 315.506C315.079 314.893 315.147 314.279 315.244 313.673C315.371 312.843 315.543 312.035 315.768 311.265C315.82 311.287 317.271 311.833 317.967 311.781C318.572 311.736 319.335 311.512 319.687 310.973C320.031 310.442 319.911 309.709 319.32 309.41C318.513 308.991 317.054 309.762 316.478 310.338C316.433 310.382 315.865 311.093 315.768 311.228C315.782 311.183 315.79 311.13 315.805 311.086C316.052 310.263 316.403 309.5 316.762 308.804C316.972 308.4 317.189 308.019 317.413 307.66C317.675 307.787 318.864 308.37 319.5 308.393C320.106 308.415 320.891 308.281 321.295 307.78C321.699 307.293 321.654 306.545 321.108 306.186C320.345 305.685 318.819 306.291 318.183 306.8C318.146 306.83 317.824 307.144 317.6 307.383C317.705 307.219 317.809 307.054 317.907 306.897C318.288 306.321 318.67 305.82 319.021 305.379C319.216 305.132 319.403 304.907 319.575 304.698C319.896 304.69 321.183 304.653 321.751 304.391C322.305 304.13 322.933 303.651 323.068 303.023C323.195 302.402 322.821 301.766 322.163 301.691C321.258 301.594 320.18 302.836 319.844 303.583C319.814 303.651 319.485 304.705 319.5 304.705C319.5 304.705 319.515 304.705 319.522 304.705C319.35 304.9 319.171 305.109 318.976 305.349C318.625 305.782 318.221 306.284 317.832 306.852C317.435 307.421 317.017 308.049 316.643 308.744C316.261 309.448 315.902 310.203 315.625 311.033C315.625 311.041 315.618 311.056 315.618 311.063C315.625 310.794 315.61 310.046 315.603 309.993C315.498 309.186 314.818 307.682 313.928 307.518C313.284 307.398 312.731 307.907 312.686 308.535C312.634 309.178 313.097 309.821 313.554 310.225C314.062 310.682 315.483 311.123 315.595 311.16C315.341 311.953 315.147 312.783 314.997 313.636C314.907 314.122 314.84 314.616 314.773 315.117C314.773 314.885 314.765 314.676 314.758 314.653C314.653 313.845 313.972 312.35 313.082 312.178C312.439 312.058 311.886 312.566 311.841 313.195C311.788 313.838 312.252 314.481 312.708 314.885C313.172 315.297 314.369 315.7 314.69 315.798C314.668 315.992 314.638 316.179 314.616 316.366C314.503 317.279 314.399 318.199 314.272 319.089C314.227 319.403 314.167 319.709 314.115 320.024C314.115 319.822 314.107 319.642 314.107 319.62C314.002 318.812 313.322 317.309 312.432 317.144C311.788 317.024 311.235 317.533 311.183 318.161C311.13 318.804 311.594 319.448 312.05 319.852C312.491 320.241 313.598 320.622 313.98 320.749C313.913 321.063 313.845 321.377 313.77 321.684C313.711 321.886 313.673 322.088 313.598 322.29C313.531 322.492 313.471 322.694 313.404 322.888C313.269 323.262 313.127 323.651 312.985 324.018C312.888 324.272 312.791 324.511 312.693 324.751C312.746 324.437 312.828 323.823 312.828 323.771C312.843 323.232 312.649 322.35 312.267 321.729C312.267 321.647 312.267 321.572 312.252 321.49C312.155 320.869 311.564 320.405 310.928 320.577C310.046 320.809 309.485 322.357 309.447 323.173C309.447 323.217 309.477 323.741 309.5 324.078C309.455 323.883 309.417 323.696 309.365 323.502C309.275 323.113 309.171 322.724 309.058 322.312C308.998 322.11 308.939 321.916 308.879 321.707C308.819 321.505 308.737 321.295 308.669 321.093C308.497 320.615 308.295 320.143 308.086 319.665C308.43 319.582 309.634 319.276 310.12 318.902C310.607 318.528 311.115 317.922 311.108 317.279C311.1 316.65 310.592 316.104 309.941 316.172C309.036 316.269 308.243 317.712 308.078 318.513C308.071 318.565 308.011 319.149 307.989 319.47C307.862 319.186 307.734 318.902 307.592 318.617C307.188 317.802 306.755 316.987 306.321 316.172C306.186 315.925 306.059 315.671 305.932 315.424C306.052 315.394 307.495 315.057 308.041 314.646C308.527 314.272 309.036 313.666 309.028 313.023C309.021 312.394 308.512 311.848 307.862 311.916C306.957 312.013 306.164 313.457 305.999 314.257C305.984 314.317 305.909 315.162 305.902 315.379C305.618 314.825 305.333 314.279 305.087 313.726C304.735 312.963 304.436 312.193 304.197 311.43C304.256 311.415 305.76 311.071 306.321 310.644C306.807 310.27 307.316 309.664 307.308 309.021C307.301 308.393 306.792 307.847 306.141 307.914C305.236 308.011 304.443 309.455 304.279 310.255C304.264 310.315 304.182 311.228 304.182 311.392C304.167 311.347 304.144 311.302 304.137 311.258C303.89 310.435 303.763 309.612 303.673 308.827C303.621 308.37 303.598 307.937 303.583 307.51C303.867 307.473 305.184 307.301 305.722 306.972C306.246 306.658 306.822 306.112 306.882 305.468C306.949 304.84 306.5 304.242 305.842 304.242C304.93 304.242 303.987 305.588 303.74 306.366C303.725 306.411 303.636 306.852 303.576 307.174C303.576 306.979 303.568 306.785 303.568 306.598C303.568 305.91 303.613 305.274 303.658 304.72C303.688 304.406 303.718 304.115 303.748 303.845C304.01 303.666 305.064 302.918 305.393 302.387C305.707 301.871 305.969 301.115 305.73 300.517C305.498 299.933 304.825 299.604 304.241 299.904C303.434 300.322 303.217 301.953 303.351 302.761C303.366 302.828 303.666 303.898 303.68 303.883L303.695 303.875C303.658 304.13 303.628 304.406 303.591 304.713C303.538 305.274 303.479 305.902 303.464 306.598C303.449 307.293 303.449 308.041 303.516 308.834C303.583 309.627 303.703 310.457 303.927 311.302C303.927 311.31 303.935 311.325 303.935 311.332C303.793 311.108 303.366 310.487 303.329 310.45C302.798 309.836 301.407 308.954 300.561 309.313C299.956 309.567 299.776 310.293 300.083 310.846C300.389 311.4 301.13 311.676 301.728 311.766Z" fill="#828282"/>
<path d="M317.376 307.482C317.391 307.489 317.668 306.419 317.676 306.345C317.788 305.537 317.533 303.914 316.711 303.517C316.12 303.233 315.454 303.577 315.245 304.168C315.028 304.774 315.305 305.514 315.634 306.023C316.023 306.629 317.376 307.482 317.376 307.482Z" fill="#828282"/>
<path d="M46.2039 305.999C46.8621 306.283 48.4628 306.246 48.4628 306.246C48.4777 306.246 48.1187 305.198 48.0888 305.131C47.7372 304.398 46.6228 303.179 45.7252 303.306C45.0745 303.396 44.708 304.047 44.8576 304.66C44.9997 305.288 45.643 305.752 46.2039 305.999Z" fill="#828282"/>
<path d="M46.7565 310.637C47.4372 310.735 48.8658 310.323 48.978 310.286C49.2023 311.086 49.5015 311.886 49.8456 312.687C50.04 313.143 50.257 313.592 50.4739 314.048C50.3467 313.853 50.227 313.689 50.2046 313.667C49.6736 313.053 48.2823 312.171 47.4372 312.53C46.8313 312.784 46.6518 313.509 46.9585 314.063C47.2651 314.624 48.0131 314.908 48.6114 314.998C49.2248 315.088 50.4514 314.759 50.773 314.669C50.8553 314.841 50.9451 315.013 51.0274 315.185C51.4387 316.008 51.8576 316.83 52.239 317.646C52.3737 317.937 52.5008 318.222 52.6205 318.513C52.5008 318.341 52.4036 318.199 52.3886 318.184C51.8576 317.571 50.4664 316.688 49.6212 317.047C49.0153 317.302 48.8358 318.027 49.1425 318.581C49.4566 319.142 50.1971 319.426 50.7955 319.508C51.3789 319.59 52.5158 319.299 52.8973 319.194C53.0169 319.493 53.1366 319.792 53.2338 320.084C53.3011 320.286 53.3759 320.48 53.4283 320.682C53.4881 320.884 53.5405 321.086 53.6003 321.288C53.6901 321.677 53.7948 322.081 53.8771 322.463C53.9369 322.732 53.9893 322.986 54.0416 323.24C53.907 322.949 53.6377 322.395 53.6153 322.35C53.1815 321.662 51.9399 320.585 51.0573 320.809C50.4215 320.974 50.1373 321.662 50.3542 322.253C50.5786 322.859 51.2667 323.248 51.8501 323.427C52.4934 323.622 53.907 323.442 54.0865 323.42C54.1688 323.846 54.2511 324.258 54.3184 324.647C54.468 325.507 54.5876 326.285 54.6699 326.935H55.2683C55.1636 326.255 55.0289 325.454 54.8494 324.542C54.7672 324.108 54.6624 323.652 54.5577 323.181C54.6624 323.136 55.2683 322.896 55.8068 322.597C56.2705 323.106 57.4673 323.697 57.6244 323.771C57.4598 324.175 57.3027 324.557 57.1382 324.923C56.8091 325.686 56.4949 326.359 56.2182 326.935H56.8614C57.1008 326.404 57.3626 325.806 57.6318 325.133C57.7964 324.729 57.9684 324.288 58.1404 323.839C58.3125 323.876 59.7186 324.16 60.3694 324.011C60.9602 323.876 61.6783 323.54 61.9476 322.956C62.2093 322.38 61.9775 321.67 61.3492 321.468C60.4816 321.176 59.1651 322.156 58.679 322.814C58.6491 322.851 58.3873 323.308 58.2302 323.599C58.2975 323.412 58.3648 323.24 58.4396 323.046C58.5743 322.672 58.7014 322.29 58.8435 321.879C58.9034 321.677 58.9632 321.475 59.023 321.273C59.0903 321.071 59.1277 320.854 59.1876 320.645C59.3073 320.151 59.397 319.643 59.4868 319.134C59.8159 319.254 60.9902 319.665 61.6035 319.62C62.2093 319.575 62.9723 319.351 63.3238 318.812C63.6679 318.281 63.5482 317.548 62.9648 317.249C62.157 316.83 60.6985 317.601 60.1225 318.177C60.0851 318.214 59.7186 318.67 59.5242 318.925C59.569 318.618 59.6214 318.311 59.6588 317.997C59.771 317.092 59.8533 316.172 59.943 315.26C59.9729 314.975 60.0029 314.699 60.0328 314.422C60.1525 314.467 61.5362 314.983 62.2243 314.938C62.8301 314.893 63.5931 314.669 63.9446 314.13C64.2887 313.599 64.169 312.866 63.5781 312.567C62.7703 312.148 61.3118 312.919 60.7359 313.494C60.691 313.539 60.1674 314.198 60.0403 314.377C60.1076 313.764 60.1749 313.15 60.2721 312.545C60.3993 311.714 60.5713 310.907 60.7957 310.136C60.8481 310.159 62.2991 310.705 62.9947 310.652C63.6005 310.607 64.3635 310.383 64.715 309.844C65.0591 309.313 64.9394 308.58 64.3485 308.281C63.5407 307.862 62.0822 308.633 61.5063 309.209C61.4614 309.254 60.8929 309.964 60.7957 310.099C60.8107 310.054 60.8181 310.002 60.8331 309.957C61.0799 309.134 61.4315 308.378 61.7905 307.675C61.9999 307.271 62.2168 306.89 62.4412 306.531C62.703 306.658 63.8922 307.242 64.528 307.264C65.1339 307.286 65.9192 307.152 66.3231 306.651C66.727 306.164 66.6821 305.417 66.1361 305.057C65.3732 304.556 63.8474 305.162 63.2116 305.671C63.1742 305.701 62.8526 306.015 62.6282 306.254C62.7329 306.09 62.8376 305.925 62.9349 305.768C63.3163 305.192 63.6978 304.691 64.0493 304.25C64.2438 304.003 64.4308 303.778 64.6028 303.569C64.9244 303.562 66.2109 303.524 66.7794 303.262C67.3329 303.001 67.9611 302.522 68.0958 301.894C68.2229 301.28 67.849 300.637 67.1907 300.562C66.2857 300.465 65.2087 301.707 64.8721 302.455C64.8422 302.522 64.5131 303.577 64.528 303.577C64.528 303.577 64.543 303.577 64.5505 303.577C64.3784 303.771 64.1989 303.98 64.0044 304.22C63.6529 304.654 63.249 305.155 62.8601 305.723C62.4636 306.292 62.0448 306.92 61.6708 307.616C61.2893 308.319 60.9303 309.074 60.6536 309.904C60.6536 309.912 60.6461 309.927 60.6461 309.934C60.6536 309.665 60.6386 308.917 60.6311 308.865C60.5264 308.057 59.8458 306.553 58.9557 306.389C58.3125 306.269 57.759 306.778 57.7141 307.406C57.6617 308.049 58.1255 308.693 58.5817 309.096C59.0904 309.553 60.5115 309.994 60.6237 310.031C60.3694 310.824 60.1749 311.654 60.0253 312.507C59.9355 312.993 59.8682 313.487 59.8009 313.988C59.8009 313.756 59.7934 313.547 59.786 313.524C59.6812 312.717 59.0006 311.221 58.1105 311.049C57.4673 310.929 56.9138 311.438 56.8689 312.066C56.8166 312.709 57.2803 313.352 57.7365 313.756C58.2003 314.168 59.397 314.572 59.7186 314.669C59.6962 314.856 59.6663 315.05 59.6438 315.237C59.5316 316.15 59.4269 317.07 59.2998 317.96C59.2549 318.274 59.1951 318.581 59.1427 318.895C59.1427 318.693 59.1352 318.513 59.1352 318.491C59.0305 317.683 58.3499 316.18 57.4598 316.015C56.8166 315.895 56.2631 316.404 56.2107 317.032C56.1584 317.676 56.6221 318.319 57.0783 318.723C57.5196 319.112 58.6266 319.493 59.0081 319.62C58.9408 319.934 58.8734 320.249 58.7986 320.555C58.7388 320.757 58.7014 320.959 58.6266 321.161C58.5593 321.363 58.4995 321.565 58.4321 321.759C58.2975 322.133 58.1554 322.522 58.0133 322.889C57.9161 323.143 57.8188 323.382 57.7216 323.622C57.7739 323.308 57.8562 322.694 57.8562 322.642C57.8712 322.103 57.6767 321.221 57.2952 320.6C57.2952 320.518 57.2953 320.443 57.2803 320.361C57.1831 319.74 56.5922 319.276 55.9564 319.448C55.0738 319.68 54.5128 321.228 54.4754 322.044C54.4754 322.089 54.5054 322.612 54.5278 322.949C54.4829 322.754 54.4455 322.567 54.3932 322.373C54.3034 321.984 54.1987 321.595 54.0865 321.183C54.0267 320.982 53.9668 320.787 53.907 320.578C53.8472 320.376 53.7649 320.166 53.6976 319.964C53.5255 319.486 53.3236 319.014 53.1142 318.536C53.4582 318.453 54.6624 318.147 55.1486 317.773C55.6348 317.399 56.1434 316.793 56.1359 316.15C56.1284 315.521 55.6198 314.975 54.9691 315.043C54.0641 315.14 53.2712 316.584 53.1067 317.384C53.0992 317.436 53.0394 318.02 53.0169 318.341C52.8898 318.057 52.7626 317.773 52.6205 317.489C52.2166 316.673 51.7828 315.858 51.349 315.043C51.2143 314.796 51.0872 314.542 50.96 314.295C51.0797 314.265 52.5233 313.928 53.0693 313.517C53.5555 313.143 54.0641 312.537 54.0566 311.894C54.0491 311.266 53.5405 310.72 52.8898 310.787C51.9847 310.884 51.1919 312.328 51.0274 313.128C51.0124 313.188 50.9376 314.033 50.9301 314.25C50.6459 313.696 50.3617 313.15 50.1148 312.597C49.7633 311.834 49.4641 311.064 49.2248 310.301C49.2846 310.286 50.788 309.942 51.349 309.515C51.8352 309.141 52.3438 308.536 52.3363 307.892C52.3288 307.264 51.8202 306.718 51.1695 306.785C50.2644 306.883 49.4791 308.326 49.307 309.126C49.2921 309.186 49.2098 310.099 49.2098 310.263C49.1949 310.218 49.1724 310.174 49.1649 310.129C48.9181 309.306 48.791 308.483 48.7012 307.698C48.6488 307.242 48.6264 306.808 48.6114 306.381C48.8957 306.344 50.2121 306.172 50.7506 305.843C51.2742 305.529 51.8501 304.983 51.9099 304.339C51.9773 303.711 51.5285 303.113 50.8703 303.113C49.9578 303.113 49.0153 304.459 48.7685 305.237C48.7536 305.282 48.6638 305.723 48.604 306.045C48.604 305.85 48.5965 305.656 48.5965 305.469C48.5965 304.781 48.6414 304.145 48.6862 303.591C48.7162 303.277 48.7461 302.986 48.776 302.716C49.0378 302.537 50.0924 301.789 50.4215 301.258C50.7356 300.742 50.9974 299.986 50.7581 299.388C50.5262 298.805 49.8531 298.475 49.2697 298.775C48.4619 299.193 48.2449 300.824 48.3796 301.632C48.3945 301.699 48.6937 302.769 48.7087 302.754L48.7236 302.746C48.6862 303.001 48.6563 303.277 48.6189 303.584C48.5666 304.145 48.5067 304.773 48.4918 305.469C48.4768 306.164 48.4768 306.912 48.5441 307.705C48.6114 308.498 48.7311 309.328 48.9555 310.174C48.9555 310.181 48.963 310.196 48.963 310.203C48.8209 309.979 48.3945 309.358 48.3571 309.321C47.8261 308.708 46.4349 307.825 45.5897 308.184C44.9838 308.438 44.8043 309.164 45.111 309.717C45.4102 310.271 46.1507 310.548 46.7565 310.637Z" fill="#828282"/>
<path d="M62.3972 306.353C62.4121 306.36 62.6889 305.291 62.6964 305.216C62.8086 304.408 62.5543 302.785 61.7315 302.388C61.1406 302.104 60.4749 302.448 60.2655 303.039C60.0486 303.645 60.3253 304.386 60.6544 304.894C61.0434 305.5 62.3972 306.353 62.3972 306.353Z" fill="#828282"/>
<path d="M177.646 187.125L188.738 198.217L198.303 185.574L203.854 193.432C203.854 193.432 194.201 208.719 192.153 210.09C190.104 211.46 187.709 212.738 184.382 210.09C181.051 207.441 172.902 191.379 172.902 191.379L176.118 186.428L177.646 187.125Z" fill="#FFBF9D"/>
<path d="M179.69 183.775C179.542 183.359 179.588 182.69 179.671 182.234C179.754 181.777 179.547 181.274 179.339 180.983C179.131 180.692 179.256 180.314 179.131 179.525C179.007 178.731 177.922 178.441 177.922 178.441C177.922 178.441 177.756 178.067 177.507 177.481C177.258 176.9 175.8 176.313 174.674 176.023C173.548 175.732 173.133 176.397 173.133 176.397L173.174 176.646L173.714 177.356L171.462 178.233L169.963 186.446L169.211 188.061L174.914 190.622L176.215 188.532C176.215 188.532 179.214 185.657 179.468 185.15C179.713 184.638 179.837 184.19 179.69 183.775Z" fill="#AE7461"/>
<path d="M173.484 176.683C173.484 176.683 172.556 175.645 171.786 175.806C171.015 175.968 169.474 176.789 169.446 177.693C169.418 178.598 170.457 178.57 171.121 178.409L171.467 178.247L172.03 178.625L174.282 177.749L173.484 176.683Z" fill="#FFBF9D"/>
<path d="M169.446 178.214C169.446 178.214 167.919 178.08 167.365 178.436C166.811 178.791 166.17 179.885 167.065 180.923L169.631 180.392L173.396 180.411C173.396 180.411 173.553 179.123 173.396 178.902C173.244 178.68 171.098 178.154 169.446 178.214Z" fill="#FFBF9D"/>
<path d="M166.89 180.97C166.89 180.97 166.068 181.473 166.179 182.424C166.29 183.374 167.185 183.711 167.185 183.711L169.889 182.534L175.897 182.645C175.897 182.645 176.829 181.487 175.634 180.965C174.439 180.444 171.467 180.398 170.226 180.389C168.985 180.393 166.89 180.97 166.89 180.97Z" fill="#FFBF9D"/>
<path d="M167.19 183.714C167.19 183.714 166.521 184.439 166.95 185.274C167.379 186.109 167.757 186.109 167.757 186.109C167.757 186.109 167.757 187.161 168.08 187.512C168.403 187.862 168.915 188.213 168.915 188.213L170.937 186.626C170.937 186.626 173.793 186.358 174.166 185.966C174.545 185.574 174.785 184.928 174.785 184.928C174.785 184.928 175.818 185.089 176.243 184.633C176.667 184.176 176.7 182.921 175.703 182.681L169.894 182.547L167.19 183.714Z" fill="#FFBF9D"/>
<path d="M153.592 189.072L160.273 196.261L169.206 188.057L176.538 188.214C176.538 188.214 165.233 207.27 162.626 208.798C160.019 210.325 158.044 209.624 155.119 207.842C152.193 206.061 142.457 193.718 142.457 193.718L153.592 189.072Z" fill="#AE7461"/>
<path d="M174.688 185.07C175.122 184.761 173.548 184.627 171.882 184.724C170.171 184.84 168.846 185.32 168.823 185.25C168.814 185.223 169.128 185.066 169.677 184.895C170.221 184.724 170.997 184.549 171.869 184.489C172.741 184.424 173.534 184.489 174.097 184.581C174.24 184.609 174.365 184.627 174.476 184.655C174.591 184.683 174.702 184.734 174.752 184.826C174.799 184.914 174.785 184.992 174.757 185.033C174.72 185.075 174.693 185.075 174.688 185.07Z" fill="#FF9A6C"/>
<path d="M175.888 182.732C175.888 182.764 175.482 182.778 174.826 182.76C174.083 182.723 173.23 182.681 172.284 182.635C171.296 182.598 170.401 182.654 169.765 182.755C169.123 182.852 168.736 182.953 168.722 182.912C168.712 182.884 169.091 182.727 169.732 182.584C170.374 182.441 171.287 182.354 172.289 182.395C173.29 182.427 174.185 182.529 174.836 182.589C175.486 182.654 175.888 182.7 175.888 182.732Z" fill="#FF9A6C"/>
<path d="M173.465 180.463C173.46 180.537 172.081 180.454 170.387 180.551C168.694 180.647 167.337 180.91 167.324 180.837C167.319 180.804 167.651 180.703 168.2 180.587C168.749 180.472 169.52 180.357 170.378 180.311C171.236 180.26 172.012 180.288 172.57 180.329C173.128 180.375 173.47 180.431 173.465 180.463Z" fill="#FF9A6C"/>
<path d="M173.377 178.847C173.35 178.907 172.242 178.45 170.775 178.404C169.317 178.348 168.117 178.436 168.113 178.353C168.113 178.321 168.408 178.27 168.888 178.219C169.368 178.173 170.041 178.127 170.784 178.164C171.527 178.201 172.201 178.335 172.662 178.496C173.128 178.662 173.387 178.824 173.377 178.847Z" fill="#FF9A6C"/>
<path d="M175.615 177.232C175.634 177.297 174.946 177.569 174.102 177.906C173.253 178.238 172.565 178.506 172.538 178.446C172.51 178.386 173.161 178.021 174.014 177.685C174.872 177.348 175.597 177.172 175.615 177.232Z" fill="#6F4439"/>
<path d="M189.292 204.193C189.213 204.189 189.38 202.708 189.089 200.917C188.807 199.122 188.189 197.77 188.258 197.743C188.286 197.729 188.475 198.052 188.701 198.61C188.927 199.168 189.177 199.971 189.324 200.88C189.467 201.789 189.481 202.629 189.44 203.229C189.403 203.829 189.32 204.198 189.292 204.193Z" fill="#FF9A6C"/>
<path d="M159.959 201.67C159.89 201.651 160.236 200.391 160.328 198.799C160.43 197.208 160.236 195.916 160.31 195.906C160.365 195.893 160.67 197.189 160.568 198.813C160.476 200.442 160.015 201.693 159.959 201.67Z" fill="#6F4439"/>
<path d="M206.969 163.124C207.011 160.687 207.5 155.681 207.998 151.15C208.533 146.282 212.718 142.636 217.614 142.779L218.099 142.793C223.336 143.25 225.874 147.957 225.269 153.18L224.794 173.778L221.056 179.786L212.266 177.802L212.889 169.108C212.894 169.108 206.886 168.167 206.969 163.124Z" fill="#FFBF9D"/>
<path d="M211.902 169.093C211.902 169.093 215.081 169.444 218.528 167.418C218.528 167.418 216.867 171.003 211.851 170.403L211.902 169.093Z" fill="#FF9A6C"/>
<path d="M209.036 155.718C209.013 156.096 209.313 156.433 209.71 156.465C210.107 156.498 210.448 156.216 210.471 155.838C210.494 155.46 210.194 155.123 209.798 155.09C209.401 155.058 209.059 155.34 209.036 155.718Z" fill="#263238"/>
<path d="M208.944 153.382C209.032 153.478 209.59 153.091 210.361 153.114C211.136 153.128 211.694 153.543 211.777 153.451C211.819 153.409 211.736 153.239 211.491 153.049C211.251 152.865 210.84 152.676 210.361 152.666C209.876 152.657 209.465 152.819 209.23 152.994C208.99 153.169 208.902 153.335 208.944 153.382Z" fill="#263238"/>
<path d="M215.944 155.857C215.921 156.235 216.22 156.572 216.617 156.604C217.014 156.636 217.356 156.355 217.379 155.977C217.402 155.598 217.102 155.261 216.705 155.229C216.308 155.197 215.967 155.478 215.944 155.857Z" fill="#263238"/>
<path d="M216.331 153.387C216.405 153.493 217.005 153.165 217.771 153.276C218.537 153.373 219.049 153.848 219.146 153.765C219.192 153.728 219.128 153.548 218.906 153.336C218.689 153.124 218.302 152.893 217.822 152.828C217.342 152.764 216.917 152.884 216.659 153.031C216.396 153.179 216.294 153.341 216.331 153.387Z" fill="#263238"/>
<path d="M213.646 159.675C213.65 159.629 213.171 159.532 212.395 159.412C212.197 159.384 212.012 159.343 211.985 159.204C211.943 159.061 212.031 158.849 212.132 158.623C212.331 158.148 212.543 157.654 212.76 157.133C213.637 155.01 214.273 153.266 214.19 153.229C214.103 153.197 213.327 154.885 212.451 157.008C212.238 157.529 212.04 158.032 211.846 158.508C211.763 158.729 211.629 158.983 211.722 159.283C211.772 159.431 211.911 159.546 212.04 159.583C212.165 159.624 212.275 159.629 212.377 159.638C213.157 159.703 213.641 159.721 213.646 159.675Z" fill="#263238"/>
<path d="M216.664 150.041C216.733 150.253 217.513 150.175 218.417 150.313C219.326 150.433 220.05 150.719 220.175 150.535C220.23 150.447 220.11 150.244 219.82 150.032C219.534 149.82 219.068 149.612 218.523 149.538C217.979 149.464 217.476 149.533 217.143 149.658C216.807 149.778 216.636 149.94 216.664 150.041Z" fill="#263238"/>
<path d="M209.161 150.388C209.29 150.568 209.83 150.402 210.471 150.411C211.113 150.398 211.652 150.564 211.782 150.384C211.837 150.296 211.759 150.116 211.528 149.945C211.297 149.775 210.91 149.627 210.471 149.627C210.028 149.627 209.641 149.775 209.415 149.95C209.179 150.121 209.101 150.301 209.161 150.388Z" fill="#263238"/>
<path d="M224.752 156.904C224.84 156.867 228.245 155.981 228.038 159.424C227.825 162.866 224.415 161.948 224.415 161.846C224.415 161.749 224.752 156.904 224.752 156.904Z" fill="#FFBF9D"/>
<path d="M225.546 160.603C225.56 160.593 225.601 160.649 225.703 160.699C225.8 160.75 225.966 160.792 226.15 160.736C226.524 160.626 226.866 160.067 226.921 159.444C226.949 159.131 226.903 158.831 226.806 158.577C226.718 158.318 226.566 158.134 226.381 158.088C226.201 158.032 226.067 158.134 226.017 158.231C225.966 158.323 225.984 158.392 225.966 158.402C225.957 158.411 225.897 158.337 225.934 158.199C225.952 158.129 225.998 158.051 226.081 157.991C226.169 157.931 226.293 157.903 226.418 157.922C226.681 157.954 226.907 158.217 227.013 158.494C227.133 158.775 227.193 159.117 227.161 159.467C227.096 160.16 226.7 160.787 226.197 160.902C225.952 160.953 225.754 160.866 225.652 160.778C225.546 160.686 225.532 160.607 225.546 160.603Z" fill="#FF9A6C"/>
<path d="M207.61 145.252C207.781 144.588 208.293 143.965 208.976 143.882C208.944 143.776 209.682 143.42 210.259 143.019C210.836 142.613 210.96 141.653 211.482 142.128C211.468 141.076 212.788 140.264 213.72 140.753C213.701 140.144 214.596 139.941 215.187 139.784C215.778 139.632 216.004 139.54 216.285 140.084C217.042 138.866 219.063 138.765 219.944 139.895C221.333 139.443 223.008 140.241 223.534 141.607C224.66 141.699 225.68 142.548 225.984 143.633C226.704 143.711 226.875 144.279 227.166 144.943C227.456 145.607 227.858 146.346 227.429 146.932C228.287 147.379 228.43 148.764 227.678 149.373C227.872 149.474 228.038 149.622 228.167 149.797C228.891 150.254 229.104 151.375 228.568 152.049C229.09 152.469 229.302 153.235 229.062 153.862C228.827 154.49 228.162 154.924 227.493 154.891C228.047 155.699 227.327 156.783 226.907 157.014C226.907 157.014 225.5 156.414 225.26 157.452C225.274 157.471 225.269 157.461 225.26 157.452C225.338 157.895 224.799 158.287 224.388 158.103C223.977 157.914 223.751 157.48 223.525 157.092C223.262 156.645 222.953 156.216 222.842 155.708C222.731 155.205 222.888 154.591 223.354 154.365C222.764 154.153 222.399 153.535 222.302 152.912C222.205 152.293 222.335 151.661 222.464 151.048C222.653 150.143 222.842 149.234 223.031 148.33C221.781 148.265 220.604 147.439 220.11 146.29C219.197 146.955 217.711 146.544 217.268 145.506C216.834 146.729 215.321 147.444 214.098 147.006C214.213 147.721 212.912 148.348 212.206 148.519C211.5 148.685 210.633 148.168 210.633 148.168C210.633 148.168 209.405 148.847 208.75 148.565C208.109 148.288 207.26 147.43 207.703 146.761C207.712 146.752 207.44 145.912 207.61 145.252Z" fill="#263238"/>
<path d="M214.176 140.665C214.19 140.684 214.292 140.532 214.573 140.453C214.712 140.416 214.896 140.407 215.076 140.495C215.256 140.578 215.432 140.762 215.482 141.007L215.524 141.205L215.635 141.03C215.828 140.721 216.239 140.453 216.714 140.462C217.18 140.467 217.688 140.827 217.826 141.362L217.886 141.593L218.034 141.408C218.306 141.071 218.768 140.855 219.243 140.868C219.718 140.873 220.184 141.154 220.447 141.588C220.553 141.764 220.623 141.957 220.65 142.151L220.669 142.29L220.807 142.257C221.476 142.11 222.196 142.506 222.431 143.074C222.681 143.646 222.505 144.311 222.141 144.68L222.002 144.818L222.191 144.855C222.644 144.947 223.004 145.233 223.207 145.543C223.419 145.856 223.474 146.193 223.47 146.465C223.451 147.015 223.234 147.282 223.267 147.296C223.276 147.301 223.331 147.241 223.405 147.107C223.479 146.973 223.566 146.761 223.59 146.47C223.613 146.184 223.571 145.81 223.35 145.45C223.137 145.1 222.75 144.767 222.238 144.647L222.288 144.823C222.722 144.403 222.934 143.655 222.653 142.972C222.376 142.294 221.559 141.828 220.752 141.999L220.909 142.11C220.876 141.874 220.798 141.648 220.673 141.445C220.373 140.942 219.815 140.605 219.257 140.605C218.703 140.596 218.177 140.85 217.854 141.247L218.062 141.293C217.882 140.647 217.277 140.245 216.719 140.25C216.156 140.25 215.704 140.573 215.496 140.938L215.644 140.961C215.565 140.656 215.348 140.458 215.132 140.37C214.91 140.278 214.698 140.305 214.55 140.361C214.398 140.416 214.306 140.495 214.25 140.555C214.186 140.619 214.172 140.661 214.176 140.665Z" fill="#455A64"/>
<path d="M207.112 160.369C207.638 159.981 208.51 160.272 208.704 160.895C208.995 160.489 209.53 160.267 210.024 160.355C210.517 160.443 210.947 160.826 211.085 161.31C211.311 160.576 212.465 160.383 212.921 161.001C213.111 160.692 213.507 160.535 213.858 160.627C213.817 160.29 214.001 159.94 214.296 159.778C214.592 159.617 214.989 159.654 215.247 159.87C215.63 159.174 216.71 158.994 217.296 159.529C217.393 159.211 217.725 158.975 218.057 158.989C218.394 159.003 218.703 159.257 218.777 159.584C219.105 159.16 219.727 158.998 220.217 159.211C220.212 158.712 220.775 158.292 221.25 158.445C221.13 158.02 221.753 157.826 222.076 157.522C222.219 157.383 222.311 157.199 222.464 157.074C222.616 156.95 222.884 156.922 222.985 157.093C222.902 156.751 223.114 156.368 223.447 156.253C223.779 156.138 224.18 156.308 224.328 156.627C224.416 156.816 224.416 157.028 224.443 157.236C224.54 157.896 224.909 158.68 224.429 159.146C224.346 159.229 224.236 159.294 224.199 159.409C224.139 159.598 224.323 159.783 224.337 159.986C224.351 160.221 224.139 160.396 224.042 160.609C223.899 160.927 224.028 161.287 224.056 161.633C224.079 161.979 223.885 162.418 223.539 162.381C223.797 162.884 223.622 163.566 223.156 163.885C223.423 164.466 223.077 165.251 222.464 165.44C222.694 165.624 222.676 165.998 222.51 166.238C222.344 166.478 222.067 166.621 221.804 166.75C222.044 166.875 222.076 167.235 221.924 167.456C221.776 167.682 221.509 167.798 221.25 167.872C221.139 167.904 221.015 167.936 220.95 168.028C220.826 168.208 220.992 168.453 220.959 168.665C220.909 168.993 220.443 169.09 220.304 169.39C220.18 169.657 220.341 170.036 220.124 170.239C219.986 170.372 219.764 170.345 219.58 170.409C219.257 170.525 219.114 170.885 218.906 171.162C218.519 171.678 217.859 171.904 217.236 172.061C216.917 172.14 216.594 172.214 216.271 172.274C215.625 172.394 214.975 172.472 214.324 172.55C214.001 172.587 213.604 172.597 213.434 172.315C212.981 172.869 211.952 172.749 211.643 172.103C211.062 172.26 210.457 172.015 209.904 171.771C209.715 171.688 209.521 171.604 209.332 171.521C208.764 171.272 208.127 170.954 207.961 170.359C207.214 170.253 206.725 169.316 207.061 168.642C206.803 168.716 206.549 168.453 206.508 168.185C206.466 167.918 206.563 167.655 206.609 167.387C206.808 166.307 206.235 165.205 206.383 164.12C206.489 163.359 206.941 162.607 206.725 161.868C206.678 161.716 206.605 161.569 206.618 161.412C206.628 161.255 206.775 161.089 206.928 161.135C206.734 160.701 207.167 160.129 207.638 160.203" fill="#263238"/>
<path d="M216.207 160.451C216.082 160.442 216.054 161.282 215.316 161.859C214.583 162.435 213.687 162.315 213.678 162.435C213.664 162.486 213.872 162.606 214.25 162.625C214.619 162.648 215.169 162.546 215.616 162.191C216.064 161.836 216.267 161.356 216.308 161.01C216.354 160.659 216.267 160.451 216.207 160.451Z" fill="white"/>
<path d="M220.83 166.205C220.789 166.191 221.139 165.43 221.153 164.424C221.181 163.418 220.862 162.643 220.904 162.629C220.918 162.624 221.019 162.804 221.116 163.127C221.213 163.446 221.301 163.912 221.287 164.424C221.273 164.941 221.172 165.398 221.061 165.716C220.95 166.034 220.844 166.21 220.83 166.205Z" fill="#455A64"/>
<path d="M221.624 164.987C221.605 164.973 221.73 164.853 221.818 164.604C221.905 164.36 221.938 163.991 221.901 163.589C221.841 162.772 221.615 162.14 221.651 162.131C221.684 162.117 221.97 162.74 222.034 163.58C222.071 163.995 222.025 164.387 221.905 164.646C221.785 164.9 221.628 165.001 221.624 164.987Z" fill="#455A64"/>
<path d="M222.468 164.289C222.427 164.271 222.801 163.652 222.833 162.789C222.874 161.927 222.556 161.276 222.598 161.262C222.611 161.253 222.713 161.405 222.81 161.677C222.907 161.95 222.99 162.351 222.971 162.794C222.953 163.237 222.837 163.629 222.717 163.892C222.593 164.155 222.482 164.298 222.468 164.289Z" fill="#455A64"/>
<path d="M208.436 169.445C208.436 169.459 208.206 169.399 207.956 169.141C207.703 168.882 207.481 168.43 207.357 167.909C207.223 167.387 207.214 166.893 207.241 166.543C207.274 166.192 207.334 165.984 207.352 165.984C207.394 165.984 207.227 166.852 207.486 167.872C207.61 168.379 207.809 168.813 208.026 169.071C208.247 169.334 208.45 169.422 208.436 169.445Z" fill="#455A64"/>
<path d="M209.175 169.261C209.165 169.275 209.004 169.192 208.787 168.989C208.57 168.79 208.316 168.458 208.15 168.033C207.984 167.609 207.947 167.194 207.966 166.903C207.984 166.608 208.049 166.437 208.063 166.441C208.086 166.446 208.058 166.621 208.058 166.908C208.063 167.194 208.113 167.586 208.27 167.987C208.432 168.389 208.658 168.712 208.847 168.924C209.045 169.132 209.189 169.242 209.175 169.261Z" fill="#455A64"/>
<path d="M207.887 148.116C207.887 148.116 209.05 146.312 211.293 145.648C215.459 144.411 221.315 143.941 227.493 150.031L228.393 150.437C228.393 150.437 228.578 148.361 228.264 146.824C228.052 145.8 226.183 139.82 219.501 139.192C219.506 139.197 209.299 137.531 207.887 148.116Z" fill="#455A64"/>
<g opacity="0.3">
<g opacity="0.3">
<g opacity="0.3">
<g opacity="0.3">
<g opacity="0.3">
<g opacity="0.3">
<g opacity="0.3">
<g opacity="0.3">
<path opacity="0.3" d="M207.887 148.116C207.887 148.116 209.05 146.312 211.293 145.648C215.459 144.411 221.315 143.941 227.493 150.031L228.393 150.437C228.393 150.437 228.578 148.361 228.264 146.824C228.052 145.8 226.183 139.82 219.501 139.192C219.506 139.197 209.299 137.531 207.887 148.116Z" fill="black"/>
</g>
</g>
</g>
</g>
</g>
</g>
</g>
</g>
<path d="M227.498 150.031C224.96 147.253 221.698 145.656 218.265 144.383C214.832 143.109 209.419 142.265 205.765 142.062C204.667 142.002 203.531 141.983 202.512 142.385C201.487 142.786 200.597 143.705 200.546 144.803C200.486 146.178 203.218 147.714 204.473 148.282C205.723 148.849 208.284 149.846 208.284 149.846C208.284 149.846 208.967 146.722 211.436 145.841C216.553 144.004 227.687 150.137 227.498 150.031Z" fill="#455A64"/>
<path d="M207.578 146.095C207.878 145.26 208.824 144.715 209.696 144.867C209.488 144.623 209.521 144.231 209.715 143.972C209.904 143.714 210.218 143.566 210.531 143.497C211.634 143.248 212.871 143.889 213.3 144.937C213.817 144.429 214.569 144.134 215.538 144.328C216.497 144.517 217.07 145.343 217.07 145.929C217.065 146.584 216.737 146.967 216.17 147.304C215.602 147.636 214.716 147.401 214.14 147.082C213.909 147.71 213.36 148.213 212.714 148.384C212.068 148.554 211.343 148.393 210.831 147.964C210.264 148.647 209.193 148.836 208.423 148.397C207.652 147.95 207.278 146.93 207.578 146.095Z" fill="#263238"/>
<path d="M204.053 312.693L204.44 322.909C204.44 322.909 194.183 326.734 194.072 328.626L213.909 328.589L213.959 312.646L204.053 312.693Z" fill="#455A64"/>
<path d="M210.568 322.038C210.951 322.144 211.219 322.573 211.131 322.961C211.043 323.349 210.605 323.625 210.222 323.524C209.834 323.427 209.502 322.919 209.631 322.541C209.761 322.167 210.291 321.872 210.642 322.057" fill="#E0E0E0"/>
<path d="M213.904 328.594L213.849 326.988L194.852 327.625C194.852 327.625 193.971 328.013 194.072 328.631L213.904 328.594Z" fill="#263238"/>
<path d="M204.113 322.808C204.117 322.904 204.602 322.946 205.077 323.26C205.562 323.56 205.811 323.975 205.898 323.938C205.986 323.92 205.843 323.338 205.257 322.974C204.68 322.605 204.094 322.72 204.113 322.808Z" fill="white"/>
<path d="M202.036 323.674C202.013 323.767 202.433 323.933 202.765 324.344C203.107 324.745 203.19 325.188 203.287 325.183C203.379 325.197 203.444 324.63 203.024 324.131C202.608 323.619 202.036 323.582 202.036 323.674Z" fill="white"/>
<path d="M200.86 326.166C200.947 326.184 201.081 325.7 200.832 325.174C200.587 324.643 200.131 324.436 200.089 324.514C200.034 324.593 200.329 324.879 200.527 325.317C200.735 325.746 200.763 326.157 200.86 326.166Z" fill="white"/>
<path d="M204.284 320.473C204.325 320.561 204.768 320.427 205.317 320.464C205.866 320.487 206.291 320.671 206.341 320.588C206.397 320.519 205.982 320.159 205.336 320.127C204.69 320.085 204.237 320.394 204.284 320.473Z" fill="white"/>
<path d="M237.085 312.693L236.697 322.909C236.697 322.909 246.955 326.734 247.065 328.626L227.229 328.589L227.178 312.646L237.085 312.693Z" fill="#455A64"/>
<path d="M230.569 322.038C230.186 322.144 229.919 322.573 230.006 322.961C230.094 323.349 230.532 323.625 230.915 323.524C231.303 323.427 231.635 322.919 231.506 322.541C231.377 322.167 230.846 321.872 230.495 322.057" fill="#E0E0E0"/>
<path d="M227.233 328.594L227.288 326.988L246.285 327.625C246.285 327.625 247.167 328.013 247.065 328.631L227.233 328.594Z" fill="#263238"/>
<path d="M237.025 322.808C237.02 322.904 236.535 322.946 236.06 323.26C235.576 323.56 235.327 323.975 235.239 323.938C235.151 323.92 235.294 323.338 235.88 322.974C236.457 322.605 237.043 322.72 237.025 322.808Z" fill="white"/>
<path d="M239.101 323.674C239.124 323.767 238.704 323.933 238.372 324.344C238.031 324.745 237.947 325.188 237.851 325.183C237.758 325.197 237.694 324.63 238.114 324.131C238.529 323.619 239.101 323.582 239.101 323.674Z" fill="white"/>
<path d="M240.278 326.166C240.19 326.184 240.056 325.7 240.305 325.174C240.55 324.643 241.007 324.436 241.048 324.514C241.104 324.593 240.808 324.879 240.61 325.317C240.402 325.746 240.374 326.157 240.278 326.166Z" fill="white"/>
<path d="M236.854 320.473C236.812 320.561 236.369 320.427 235.82 320.464C235.271 320.487 234.847 320.671 234.796 320.588C234.741 320.519 235.156 320.159 235.802 320.127C236.448 320.085 236.9 320.394 236.854 320.473Z" fill="white"/>
<path d="M197.948 227.542C197.948 227.542 196.199 233.296 196.444 240.406C196.541 243.157 202.576 319.43 202.576 319.43L215.072 319.961L214.583 248.495L215.598 248.763C215.598 248.763 221.13 279.471 221.476 284.417C221.79 288.865 226.178 321.266 226.178 321.266L237.557 320.953L235.753 279.189L233.238 238.196L232.144 226.25L197.948 227.542Z" fill="#263238"/>
<path d="M216.862 241.306C216.867 241.325 216.682 241.422 216.327 241.578C215.971 241.726 215.455 241.957 214.758 242.054C214.412 242.1 214.015 242.105 213.604 242.012C213.198 241.92 212.765 241.731 212.423 241.385C212.082 241.039 211.874 240.563 211.749 240.079C211.625 239.585 211.56 239.078 211.477 238.561C211.168 236.484 210.974 234.593 210.877 233.222C210.827 232.535 210.799 231.981 210.785 231.598C210.771 231.215 210.776 231.003 210.794 230.998C210.813 230.998 210.845 231.206 210.887 231.589C210.933 232.027 210.993 232.567 211.062 233.204C211.21 234.569 211.426 236.447 211.74 238.519C211.897 239.544 211.994 240.582 212.598 241.214C213.207 241.837 214.084 241.934 214.73 241.869C215.399 241.8 215.925 241.602 216.285 241.482C216.654 241.352 216.857 241.288 216.862 241.306Z" fill="#455A64"/>
<path d="M213.512 231.473C213.507 231.459 213.595 231.413 213.77 231.408C213.946 231.404 214.209 231.468 214.458 231.662C214.698 231.856 214.952 232.197 214.942 232.65C214.942 233.106 214.569 233.54 214.098 233.688C213.632 233.849 213.069 233.72 212.801 233.351C212.529 232.991 212.529 232.567 212.608 232.267C212.695 231.958 212.871 231.755 213.014 231.653C213.157 231.551 213.258 231.542 213.263 231.551C213.295 231.588 212.903 231.745 212.792 232.308C212.741 232.571 212.769 232.931 212.991 233.194C213.203 233.466 213.627 233.563 214.015 233.434C214.403 233.309 214.689 232.982 214.698 232.636C214.721 232.29 214.532 231.985 214.333 231.801C213.918 231.418 213.507 231.519 213.512 231.473Z" fill="#455A64"/>
<path d="M233.095 237.459C233.095 237.477 232.943 237.491 232.666 237.505C232.389 237.523 231.987 237.514 231.494 237.468C230.506 237.38 229.145 237.085 227.77 236.434C226.395 235.784 225.297 234.921 224.605 234.215C224.254 233.86 223.991 233.56 223.829 233.334C223.663 233.112 223.58 232.983 223.594 232.974C223.631 232.946 224.014 233.421 224.734 234.081C225.449 234.741 226.538 235.562 227.881 236.199C229.228 236.831 230.548 237.154 231.517 237.284C232.486 237.417 233.095 237.408 233.095 237.459Z" fill="#455A64"/>
<path d="M202.927 231.251C202.955 231.264 202.719 231.763 202.226 232.496C201.732 233.23 200.952 234.19 199.946 235.094C198.936 235.994 197.893 236.663 197.108 237.069C196.324 237.48 195.803 237.655 195.789 237.627C195.77 237.59 196.264 237.351 197.016 236.908C197.768 236.465 198.774 235.786 199.771 234.9C200.763 234.01 201.552 233.092 202.078 232.39C202.599 231.693 202.89 231.232 202.927 231.251Z" fill="#455A64"/>
<path d="M140.57 148.581C141.724 148.687 142.882 147.815 143.103 146.68C143.325 145.545 142.573 144.303 141.465 143.971C142.162 143.224 142.314 142.019 141.825 141.12C141.336 140.22 140.238 139.698 139.232 139.878C139.167 138.868 138.544 137.917 137.645 137.451C136.745 136.99 135.605 137.036 134.747 137.571C133.612 136.639 131.812 136.644 130.677 137.58C129.694 137.424 128.633 137.968 128.195 138.863C127.756 139.758 127.969 140.93 128.693 141.613" fill="#363F4E"/>
<path d="M140.921 148.906C140.39 143.715 135.96 139.802 130.742 139.912L130.225 139.922C124.642 140.369 121.901 145.362 122.501 150.931L123.004 170.869L132.606 181.242L136.657 174.612L136.611 167.995C136.611 167.995 141.968 167.044 141.917 161.669C141.899 159.075 141.414 153.732 140.921 148.906Z" fill="#AE7461"/>
<path d="M136.657 167.988C136.657 167.988 133.229 168.27 129.57 166.078C129.57 166.078 131.226 170.014 136.579 169.414L136.657 167.988Z" fill="#6F4439"/>
<path d="M139.615 153.819C139.638 154.225 139.315 154.575 138.891 154.608C138.471 154.64 138.106 154.34 138.083 153.934C138.06 153.528 138.383 153.177 138.808 153.145C139.232 153.113 139.592 153.417 139.615 153.819Z" fill="#363F4E"/>
<path d="M139.818 151.559C139.726 151.66 139.135 151.245 138.309 151.263C137.483 151.273 136.888 151.711 136.796 151.609C136.75 151.563 136.842 151.383 137.105 151.185C137.359 150.987 137.802 150.793 138.314 150.784C138.826 150.774 139.264 150.954 139.518 151.143C139.776 151.333 139.864 151.513 139.818 151.559Z" fill="#363F4E"/>
<path d="M132.098 154.136C132.121 154.542 131.798 154.892 131.374 154.925C130.954 154.957 130.59 154.657 130.566 154.251C130.543 153.845 130.866 153.494 131.291 153.462C131.711 153.425 132.075 153.73 132.098 154.136Z" fill="#363F4E"/>
<path d="M131.706 151.883C131.614 151.984 131.023 151.569 130.197 151.588C129.371 151.597 128.776 152.035 128.684 151.934C128.638 151.892 128.73 151.708 128.993 151.509C129.247 151.311 129.69 151.117 130.202 151.108C130.714 151.099 131.152 151.278 131.406 151.468C131.66 151.657 131.752 151.837 131.706 151.883Z" fill="#363F4E"/>
<path d="M134.835 157.942C134.83 157.896 135.342 157.795 136.173 157.67C136.385 157.642 136.584 157.596 136.616 157.453C136.662 157.301 136.57 157.075 136.464 156.83C136.256 156.323 136.034 155.792 135.804 155.238C134.89 152.973 134.221 151.104 134.313 151.067C134.406 151.03 135.222 152.839 136.136 155.109C136.357 155.667 136.57 156.203 136.768 156.71C136.851 156.95 136.994 157.218 136.897 157.536C136.842 157.693 136.69 157.813 136.556 157.85C136.422 157.896 136.302 157.901 136.201 157.905C135.361 157.974 134.839 157.988 134.835 157.942Z" fill="#363F4E"/>
<path d="M131.895 149.07C131.789 149.282 131.079 149.07 130.207 149.061C129.334 149.033 128.605 149.213 128.518 148.996C128.481 148.895 128.633 148.701 128.942 148.526C129.251 148.35 129.722 148.212 130.243 148.221C130.765 148.235 131.222 148.392 131.512 148.581C131.812 148.77 131.942 148.969 131.895 149.07Z" fill="#363F4E"/>
<path d="M139.86 148.631C139.689 148.82 139.006 148.64 138.185 148.65C137.363 148.636 136.676 148.807 136.51 148.617C136.436 148.525 136.542 148.331 136.842 148.151C137.137 147.967 137.636 147.814 138.198 147.814C138.761 147.819 139.255 147.976 139.541 148.161C139.832 148.345 139.933 148.539 139.86 148.631Z" fill="#363F4E"/>
<path d="M123.474 156.14C123.424 155.309 122.695 154.673 121.869 154.77C120.867 154.885 119.765 155.48 119.875 157.547C120.074 161.22 123.719 160.265 123.719 160.159C123.719 160.09 123.571 157.676 123.474 156.14Z" fill="#AE7461"/>
<path d="M122.847 158.819C122.828 158.81 122.787 158.865 122.681 158.921C122.579 158.976 122.399 159.018 122.206 158.958C121.809 158.838 121.449 158.238 121.398 157.578C121.37 157.246 121.426 156.923 121.527 156.655C121.624 156.378 121.79 156.185 121.984 156.138C122.178 156.083 122.321 156.194 122.372 156.295C122.427 156.397 122.409 156.471 122.427 156.475C122.436 156.484 122.501 156.411 122.464 156.258C122.445 156.185 122.399 156.101 122.307 156.037C122.215 155.968 122.086 155.94 121.947 155.963C121.666 155.995 121.426 156.272 121.31 156.568C121.181 156.867 121.112 157.227 121.144 157.601C121.209 158.339 121.624 159.013 122.164 159.138C122.427 159.193 122.639 159.101 122.745 159.008C122.847 158.907 122.861 158.824 122.847 158.819Z" fill="#6F4439"/>
<path d="M137.7 141.328C137.663 141.235 137.617 141.148 137.566 141.069C137.16 140.46 136.445 140.1 135.716 140.068C135.273 139.851 134.83 139.68 134.415 139.556C133.88 138.697 132.947 138.084 131.932 138.001C130.783 137.904 129.616 138.49 128.975 139.445C128.822 139.468 128.675 139.5 128.522 139.528C127.756 138.997 126.755 138.804 125.851 139.03C124.836 139.283 123.964 140.059 123.59 141.041C122.69 140.825 121.679 141.194 121.13 141.937C120.581 142.679 120.521 143.755 120.992 144.553C120.341 144.945 119.788 145.614 119.792 146.376C119.797 147.091 120.466 147.778 121.153 147.681C121.061 149.444 121.297 151.516 121.426 153.338C121.518 154.626 123.175 155.355 123.304 156.222C123.973 160.666 125.375 158.174 125.735 148.932C125.828 148.858 125.92 148.78 126.012 148.692C126.201 148.512 126.243 148.29 126.404 148.092C126.598 147.852 126.972 147.917 127.281 147.944C128.352 148.037 129.431 147.257 129.681 146.209C129.962 146.611 130.599 146.579 131.005 146.306C131.411 146.029 131.669 145.591 131.983 145.213C132.297 144.834 132.744 144.498 133.229 144.553C133.501 144.585 133.76 144.742 134.032 144.71C134.512 144.654 134.738 144.087 134.798 143.607C134.849 143.201 134.895 142.744 135.144 142.449C135.435 142.306 135.739 142.195 136.071 142.163C136.256 142.181 136.44 142.213 136.62 142.237C136.703 142.246 136.791 142.25 136.879 142.246C136.99 142.278 137.1 142.32 137.216 142.375C138.854 143.127 140.344 146.459 140.344 146.459C140.418 144.313 139.218 142.564 137.7 141.328Z" fill="#363F4E"/>
<path d="M120.521 144.745C120.517 144.745 120.53 144.726 120.554 144.69C120.577 144.657 120.614 144.602 120.669 144.542C120.78 144.422 120.96 144.256 121.232 144.113C121.504 143.974 121.878 143.85 122.316 143.854C122.75 143.85 123.262 143.979 123.691 144.334L123.594 144.367C123.742 143.642 124.291 142.922 125.076 142.493C125.468 142.276 125.911 142.124 126.386 142.064C126.861 142.004 127.35 142.036 127.839 142.138C128.79 142.336 129.621 142.779 130.327 143.241L130.22 143.278C130.539 142.438 131.18 141.824 131.84 141.506C132.509 141.178 133.192 141.15 133.718 141.238C134.253 141.326 134.641 141.524 134.885 141.681C135.01 141.76 135.098 141.829 135.153 141.875C135.208 141.926 135.241 141.953 135.236 141.953C135.227 141.963 135.107 141.861 134.858 141.718C134.609 141.58 134.221 141.4 133.7 141.326C133.183 141.252 132.528 141.293 131.886 141.616C131.254 141.93 130.645 142.525 130.345 143.328L130.313 143.411L130.239 143.361C129.542 142.908 128.721 142.479 127.803 142.286C127.332 142.189 126.852 142.156 126.4 142.212C125.948 142.267 125.518 142.415 125.14 142.618C124.383 143.024 123.862 143.707 123.71 144.39L123.687 144.487L123.608 144.422C123.211 144.085 122.727 143.951 122.312 143.947C121.892 143.933 121.532 144.044 121.26 144.168C120.72 144.445 120.54 144.768 120.521 144.745Z" fill="#6C7079"/>
<path d="M135.181 142.205C135.185 142.21 135.162 142.256 135.121 142.348C135.084 142.445 135.033 142.584 134.992 142.778C134.945 142.967 134.908 143.207 134.849 143.484C134.784 143.756 134.733 144.088 134.507 144.397C134.392 144.545 134.203 144.66 133.995 144.683C133.787 144.711 133.58 144.679 133.372 144.656C133.164 144.637 132.943 144.628 132.749 144.716C132.555 144.803 132.38 144.965 132.223 145.14C132.066 145.32 131.914 145.518 131.757 145.721C131.605 145.92 131.457 146.155 131.217 146.321C130.986 146.483 130.705 146.575 130.419 146.607C130.276 146.621 130.124 146.621 129.976 146.589C129.828 146.557 129.671 146.474 129.579 146.331L129.713 146.307C129.667 146.52 129.593 146.737 129.482 146.93C129.367 147.124 129.219 147.304 129.048 147.461C128.693 147.761 128.246 147.959 127.775 148.029C127.581 148.061 127.383 148.065 127.189 148.061C126.986 148.047 126.815 148.01 126.654 148.075C126.488 148.13 126.368 148.241 126.266 148.393C126.155 148.545 126.031 148.684 125.902 148.813C125.385 149.33 124.725 149.717 124.028 149.74C123.336 149.74 122.727 149.431 122.289 149.039C121.846 148.638 121.569 148.139 121.453 147.659L121.518 147.696C121.052 147.807 120.609 147.659 120.318 147.433C120.018 147.207 119.88 146.898 119.825 146.649C119.769 146.395 119.788 146.197 119.815 146.063C119.829 145.998 119.843 145.948 119.857 145.915C119.871 145.883 119.875 145.869 119.88 145.869C119.903 145.869 119.76 146.146 119.88 146.63C119.94 146.866 120.083 147.152 120.369 147.359C120.646 147.567 121.066 147.692 121.495 147.586L121.546 147.572L121.56 147.623C121.675 148.079 121.947 148.559 122.376 148.938C122.801 149.311 123.391 149.597 124.028 149.593C124.669 149.57 125.302 149.201 125.8 148.702C125.925 148.578 126.045 148.439 126.151 148.296C126.248 148.144 126.414 147.982 126.612 147.922C126.709 147.89 126.815 147.876 126.917 147.881L127.198 147.904C127.383 147.909 127.572 147.904 127.756 147.872C128.204 147.807 128.629 147.618 128.956 147.341C129.118 147.198 129.256 147.032 129.362 146.852C129.468 146.667 129.533 146.474 129.579 146.271L129.621 146.1L129.717 146.247C129.856 146.455 130.165 146.487 130.423 146.46C130.691 146.432 130.949 146.349 131.157 146.201C131.369 146.058 131.508 145.837 131.669 145.634C131.831 145.435 131.978 145.232 132.145 145.052C132.311 144.872 132.491 144.702 132.717 144.6C132.947 144.503 133.187 144.517 133.4 144.54C133.612 144.563 133.815 144.6 133.999 144.577C134.184 144.559 134.346 144.466 134.452 144.333C134.659 144.06 134.724 143.733 134.793 143.465C134.858 143.193 134.904 142.953 134.955 142.764C135.005 142.575 135.065 142.431 135.112 142.339C135.144 142.247 135.176 142.201 135.181 142.205Z" fill="#6C7079"/>
<path d="M132.292 159.441C131.983 160.387 132.246 161.412 133.114 161.905C133.414 162.076 133.796 162.113 134.129 162.016C134.535 161.896 134.904 161.679 135.065 161.259C135.218 160.863 135.342 160.452 135.296 160.032C134.452 159.843 133.132 159.635 132.292 159.441Z" fill="#6F4439"/>
<path d="M134.936 161.511C134.941 161.515 134.881 161.608 134.719 161.732C134.558 161.848 134.29 161.995 133.93 162.023C133.57 162.06 133.118 161.958 132.74 161.649C132.361 161.349 132.085 160.846 132.052 160.293C132.029 160.011 132.066 159.734 132.135 159.481L132.154 159.416L132.218 159.43C133.081 159.596 133.838 159.753 134.373 159.868C134.913 159.984 135.231 160.062 135.227 160.08C135.222 160.099 134.895 160.053 134.355 159.965C133.81 159.873 133.054 159.739 132.191 159.578L132.274 159.527C132.209 159.767 132.177 160.025 132.2 160.288C132.232 160.805 132.481 161.266 132.827 161.548C133.169 161.838 133.584 161.945 133.921 161.922C134.262 161.903 134.521 161.783 134.687 161.686C134.853 161.58 134.927 161.502 134.936 161.511Z" fill="#363F4E"/>
<path d="M130.585 310.348L130.068 322.133C130.068 322.133 141.871 326.614 141.991 328.801L119.105 328.621L119.155 310.229L130.585 310.348Z" fill="#6C7079"/>
<path d="M122.999 321.085C122.556 321.205 122.247 321.699 122.344 322.146C122.445 322.594 122.944 322.912 123.391 322.806C123.839 322.696 124.226 322.114 124.079 321.68C123.931 321.247 123.322 320.905 122.916 321.117" fill="#E0E0E0"/>
<g opacity="0.6">
<g opacity="0.6">
<g opacity="0.6">
<g opacity="0.6">
<g opacity="0.6">
<g opacity="0.6">
<g opacity="0.6">
<g opacity="0.6">
<g opacity="0.6">
<g opacity="0.6">
<g opacity="0.6">
<path opacity="0.6" d="M119.105 328.621L119.183 326.766L141.096 327.628C141.096 327.628 142.111 328.081 141.991 328.796L119.105 328.621Z" fill="white"/>
</g>
</g>
</g>
</g>
</g>
</g>
</g>
</g>
</g>
</g>
</g>
<path d="M130.442 322.018C130.437 322.129 129.879 322.175 129.325 322.53C128.762 322.872 128.476 323.351 128.375 323.305C128.273 323.282 128.444 322.618 129.122 322.198C129.791 321.778 130.465 321.916 130.442 322.018Z" fill="#363F4E"/>
<path d="M132.832 323.028C132.855 323.135 132.371 323.324 131.988 323.794C131.591 324.251 131.489 324.763 131.379 324.759C131.272 324.777 131.203 324.122 131.688 323.545C132.172 322.964 132.832 322.922 132.832 323.028Z" fill="#363F4E"/>
<path d="M134.175 325.913C134.073 325.936 133.921 325.377 134.212 324.768C134.498 324.155 135.028 323.919 135.075 324.012C135.139 324.104 134.793 324.431 134.562 324.934C134.322 325.433 134.286 325.903 134.175 325.913Z" fill="#363F4E"/>
<path d="M130.262 319.32C130.216 319.421 129.704 319.264 129.071 319.301C128.439 319.324 127.946 319.536 127.89 319.44C127.826 319.356 128.31 318.95 129.053 318.913C129.796 318.872 130.317 319.232 130.262 319.32Z" fill="#363F4E"/>
<path d="M130.553 319.184C130.608 319.184 130.617 320.277 130.585 322.021L130.493 321.883C131.831 322.39 133.607 323.073 135.494 323.964C137.562 324.933 139.384 325.939 140.565 326.885C141.156 327.351 141.594 327.794 141.821 328.163C142.06 328.532 142.028 328.809 141.991 328.8C141.973 328.795 141.959 328.569 141.701 328.251C141.451 327.928 141.004 327.531 140.404 327.106C139.209 326.239 137.386 325.279 135.333 324.315C133.46 323.429 131.697 322.713 130.386 322.155L130.29 322.114L130.294 322.017C130.4 320.268 130.497 319.184 130.553 319.184Z" fill="#363F4E"/>
<path d="M115.782 228.174V238.851L119.995 272.955C119.995 272.955 118.662 288.948 117.84 297.978C117.13 305.818 118.293 319.471 118.293 319.471H130.783L135.25 273.933L138.023 245.533L143.053 228.709L115.782 228.174Z" fill="#363F4E"/>
<path d="M137.926 308.304L134.655 319.636C134.655 319.636 145.074 326.765 144.672 328.92L122.473 323.364L126.847 305.498L137.926 308.304Z" fill="#6C7079"/>
<path d="M128.033 316.957C127.572 316.966 127.156 317.377 127.147 317.834C127.138 318.29 127.549 318.72 128.01 318.72C128.467 318.72 128.984 318.244 128.942 317.783C128.901 317.326 128.388 316.851 127.941 316.962" fill="#E0E0E0"/>
<g opacity="0.6">
<g opacity="0.6">
<g opacity="0.6">
<g opacity="0.6">
<g opacity="0.6">
<g opacity="0.6">
<g opacity="0.6">
<g opacity="0.6">
<g opacity="0.6">
<g opacity="0.6">
<g opacity="0.6">
<path opacity="0.6" d="M122.473 323.366L122.985 321.58L144.082 327.574C144.082 327.574 144.963 328.252 144.677 328.921L122.473 323.366Z" fill="white"/>
</g>
</g>
</g>
</g>
</g>
</g>
</g>
</g>
</g>
</g>
</g>
<path d="M135.047 319.615C135.015 319.721 134.461 319.638 133.843 319.851C133.215 320.049 132.823 320.45 132.735 320.381C132.638 320.335 132.966 319.726 133.723 319.481C134.47 319.228 135.093 319.523 135.047 319.615Z" fill="#363F4E"/>
<path d="M137.133 321.159C137.133 321.27 136.616 321.339 136.131 321.704C135.637 322.054 135.421 322.53 135.315 322.497C135.208 322.488 135.291 321.833 135.901 321.39C136.505 320.942 137.156 321.053 137.133 321.159Z" fill="#363F4E"/>
<path d="M137.755 324.273C137.649 324.273 137.635 323.692 138.065 323.171C138.489 322.645 139.057 322.539 139.08 322.64C139.117 322.746 138.711 322.982 138.364 323.415C138.014 323.844 137.866 324.292 137.755 324.273Z" fill="#363F4E"/>
<path d="M135.504 316.946C135.434 317.034 134.973 316.762 134.35 316.646C133.727 316.522 133.201 316.609 133.169 316.503C133.127 316.411 133.69 316.125 134.424 316.268C135.158 316.402 135.577 316.877 135.504 316.946Z" fill="#363F4E"/>
<path d="M147.884 228.902L148.456 234.712L147.764 276.89L137.88 310.773L135.485 318.991L122.722 316.587L132.56 228.916L147.884 228.902Z" fill="#363F4E"/>
<path d="M147.496 277.777C147.496 277.777 147.482 277.846 147.45 277.976C147.413 278.114 147.358 278.308 147.288 278.562C147.141 279.083 146.924 279.844 146.647 280.832C146.075 282.82 145.244 285.709 144.197 289.35C142.084 296.645 139.094 306.948 135.591 319.024L135.564 319.121L135.462 319.102C131.429 318.346 127.143 317.538 122.704 316.707L122.588 316.684L122.611 316.569C123.262 313.131 123.945 309.537 124.637 305.873C126.7 295.025 128.642 284.791 130.34 275.848V275.885C128.227 262.619 126.543 252.044 125.574 245.971L125.578 245.985C124.651 244.296 123.936 242.995 123.447 242.109C123.211 241.671 123.027 241.338 122.902 241.108C122.782 240.882 122.727 240.762 122.727 240.762C122.727 240.762 122.796 240.872 122.925 241.094C123.054 241.325 123.244 241.652 123.493 242.086C123.991 242.967 124.72 244.264 125.666 245.939L125.671 245.948V245.957C126.663 252.025 128.388 262.596 130.548 275.853L130.553 275.871L130.548 275.89C128.859 284.832 126.921 295.067 124.872 305.919C124.176 309.583 123.497 313.173 122.842 316.611L122.75 316.472C127.189 317.312 131.475 318.119 135.508 318.881L135.379 318.959C138.914 306.898 141.931 296.599 144.068 289.308C145.143 285.672 145.992 282.793 146.578 280.809C146.873 279.826 147.099 279.069 147.256 278.548C147.335 278.299 147.395 278.105 147.436 277.966C147.473 277.842 147.496 277.777 147.496 277.777Z" fill="#6C7079"/>
<path d="M145.59 232.363C145.613 232.377 145.387 232.797 144.894 233.383C144.405 233.969 143.629 234.707 142.628 235.316C141.627 235.925 140.616 236.28 139.869 236.442C139.121 236.608 138.646 236.617 138.646 236.59C138.623 236.511 140.538 236.322 142.503 235.108C144.483 233.923 145.53 232.303 145.59 232.363Z" fill="#6C7079"/>
<path d="M109.396 198.867C109.396 198.867 107.911 208.419 108.907 212.198C109.904 215.977 117.993 225.528 117.993 225.528L129.03 218.612L121.758 200.547L109.396 198.867Z" fill="#AE7461"/>
<path d="M119.612 175.163C119.612 175.163 125.952 175.255 126.045 183.155C126.137 191.055 124.43 201.621 124.43 201.621L108.252 198.77C108.252 198.77 110.259 184.064 111.971 179.828C113.692 175.565 116.987 174.443 119.612 175.163Z" fill="#6C7079"/>
<path d="M122.621 169.475L122.418 170.762C122.418 170.762 113.771 176.474 113.282 177.951C112.525 180.24 114.177 199.55 114.906 205.023C115.635 210.495 115.783 222.561 115.783 222.561C115.252 223.983 114.647 225.265 114.449 227.245C114.251 229.211 115.783 231.005 115.783 231.005C125.062 234.032 136.394 231.707 148.654 228.915L148.539 225.441L144.529 187.682C144.529 187.682 145.697 177.868 140.912 175.03C140.386 174.716 136.21 172.345 136.21 172.345L122.621 169.475Z" fill="#6C7079"/>
<path opacity="0.3" d="M136.523 185.846C136.523 185.846 136.45 191.281 139.37 197.492C142.296 203.703 146.643 207.583 146.643 207.583L145.346 196.288L136.523 185.846Z" fill="black"/>
<path d="M143.782 176.312C142.264 175.085 139.444 174.42 137.839 175.523C137.123 176.012 136.288 176.755 135.887 177.927C134.512 181.942 135.333 186.26 136.431 189.463C137.53 192.665 142.84 198.839 142.84 198.839L155.959 190.875C155.959 190.875 147.178 180.234 146.264 179.131C145.789 178.555 144.626 176.99 143.782 176.312Z" fill="#6C7079"/>
<path d="M143.782 176.312C143.782 176.312 143.883 176.377 144.059 176.534C144.234 176.69 144.478 176.935 144.783 177.267C145.392 177.936 146.19 178.979 147.275 180.253C149.416 182.832 152.447 186.477 156.042 190.801L156.12 190.898L156.014 190.962C152.304 193.219 148.082 195.789 143.62 198.497C143.376 198.645 143.131 198.797 142.9 198.931L142.813 198.986L142.748 198.908C141.281 197.173 139.92 195.429 138.697 193.675C138.088 192.799 137.516 191.917 137.022 191.008C136.777 190.556 136.556 190.095 136.376 189.615C136.201 189.14 136.058 188.664 135.919 188.194C134.826 184.428 134.798 180.732 135.794 177.918C136.034 177.203 136.459 176.603 136.943 176.137C137.433 175.685 137.949 175.283 138.522 175.098C139.089 174.914 139.652 174.877 140.155 174.905C140.663 174.932 141.115 175.02 141.512 175.135C142.31 175.357 142.882 175.675 143.246 175.901C143.625 176.146 143.782 176.312 143.782 176.312C143.773 176.326 143.602 176.174 143.228 175.957C142.854 175.744 142.287 175.44 141.493 175.237C141.101 175.131 140.649 175.048 140.155 175.029C139.661 175.011 139.117 175.048 138.572 175.237C138.028 175.412 137.529 175.809 137.054 176.257C136.588 176.713 136.182 177.295 135.956 177.982C134.992 180.76 135.033 184.41 136.131 188.143C136.27 188.609 136.413 189.084 136.588 189.546C136.763 190.007 136.98 190.459 137.225 190.907C137.709 191.802 138.282 192.679 138.891 193.546C140.109 195.29 141.475 197.03 142.933 198.756L142.78 198.733C143.007 198.594 143.251 198.447 143.5 198.299C147.967 195.595 152.189 193.034 155.908 190.782L155.88 190.944C152.313 186.597 149.305 182.929 147.178 180.34C146.112 179.058 145.323 177.996 144.732 177.318C144.442 176.976 144.202 176.727 144.036 176.561C143.874 176.395 143.777 176.317 143.782 176.312Z" fill="#363F4E"/>
<path d="M113.111 182.326C113.12 182.326 113.134 182.405 113.148 182.557C113.166 182.737 113.185 182.954 113.208 183.217C113.254 183.826 113.309 184.647 113.383 185.644C113.517 187.725 113.692 190.54 113.891 193.65C114.094 196.773 114.311 199.602 114.495 201.646C114.587 202.638 114.666 203.459 114.721 204.064C114.744 204.327 114.763 204.544 114.777 204.724C114.786 204.876 114.79 204.954 114.781 204.954C114.772 204.954 114.754 204.876 114.73 204.728C114.703 204.553 114.671 204.336 114.629 204.073C114.546 203.506 114.44 202.68 114.329 201.66C114.098 199.62 113.858 196.792 113.655 193.663C113.452 190.535 113.309 187.702 113.217 185.653C113.175 184.656 113.143 183.835 113.12 183.221C113.116 182.958 113.111 182.737 113.106 182.561C113.102 182.405 113.106 182.326 113.111 182.326Z" fill="#363F4E"/>
<path d="M142.121 228.171C142.121 228.18 142.037 228.203 141.876 228.245C141.687 228.291 141.456 228.346 141.17 228.416C140.861 228.49 140.482 228.573 140.044 228.651C139.601 228.739 139.103 228.836 138.54 228.919C137.423 229.112 136.085 229.265 134.595 229.412C133.104 229.537 131.462 229.629 129.731 229.652C128.006 229.666 126.358 229.606 124.863 229.505C123.373 229.385 122.03 229.251 120.914 229.066C120.351 228.988 119.848 228.896 119.409 228.813C118.966 228.734 118.588 228.656 118.279 228.582C117.993 228.513 117.757 228.457 117.573 228.411C117.411 228.37 117.328 228.342 117.328 228.337C117.328 228.333 117.416 228.337 117.582 228.365C117.771 228.397 118.011 228.439 118.297 228.49C118.606 228.549 118.989 228.614 119.432 228.679C119.875 228.753 120.378 228.831 120.937 228.896C122.053 229.057 123.391 229.172 124.877 229.279C126.368 229.366 128.006 229.417 129.727 229.403C131.448 229.38 133.086 229.297 134.572 229.186C136.057 229.052 137.391 228.914 138.508 228.748C139.066 228.674 139.569 228.591 140.012 228.517C140.455 228.448 140.833 228.383 141.147 228.319C141.438 228.268 141.673 228.226 141.862 228.19C142.028 228.176 142.116 228.167 142.121 228.171Z" fill="#363F4E"/>
<path d="M206.715 177.582H201.192C199.9 178.034 191.479 190.913 191.479 190.913L200.274 200.667L204.519 191.665L206.715 177.582Z" fill="#FFF1E3"/>
<path d="M201.192 177.583L212.608 174.085C212.608 174.085 212.557 176.84 216.539 176.927C221.125 177.029 224.978 172.996 224.978 172.996C224.978 172.996 234.516 175.968 236.518 177.583C238.521 179.198 231.978 212.942 231.978 212.942L231.383 222.991C231.383 222.991 232.366 224.616 232.366 226.36C232.366 228.104 232.43 229.267 232.43 229.267C220.203 232.954 208.067 236.151 196.901 232.58C196.901 232.58 197.177 226.65 197.823 225.035C198.469 223.42 198.349 223.273 198.349 223.273L199.415 204.719L199.609 190.766L201.192 177.583Z" fill="#FFF1E3"/>
<path d="M240.736 192.589C240.736 192.589 241.986 212.301 241.977 215.203C241.968 217.353 237.294 239.848 237.294 239.848L230.345 237.508L232.786 215.646L230.345 192.584H240.736V192.589Z" fill="#FFBF9D"/>
<path d="M236.611 177.568C236.611 177.568 239.628 179.622 240.464 183.816C241.303 188.015 243.154 198.462 243.154 198.462L228.231 199.052C228.231 199.052 229.126 191.794 229.126 191.337C229.126 190.88 231.655 180.886 231.807 180.655C231.964 180.425 236.611 177.568 236.611 177.568Z" fill="#FFF1E3"/>
<path d="M199.628 182.727C199.692 182.727 199.729 187.018 199.706 192.31C199.683 197.603 199.609 201.894 199.545 201.894C199.48 201.894 199.443 197.603 199.466 192.306C199.485 187.018 199.559 182.727 199.628 182.727Z" fill="#263238"/>
<path d="M243.154 198.461C243.154 198.47 243.057 198.479 242.877 198.498C242.669 198.512 242.406 198.53 242.079 198.553C241.354 198.595 240.353 198.65 239.121 198.715C236.588 198.835 233.127 198.996 229.256 199.176L229.14 199.181L229.131 199.065C229.108 198.761 229.085 198.433 229.057 198.106C228.771 193.994 228.974 190.261 229.274 187.585C229.422 186.247 229.588 185.167 229.717 184.424C229.782 184.055 229.842 183.764 229.879 183.571C229.92 183.377 229.943 183.275 229.952 183.275C229.962 183.275 229.952 183.382 229.925 183.575C229.892 183.797 229.856 184.083 229.809 184.434C229.708 185.181 229.569 186.256 229.44 187.594C229.186 190.271 229.007 193.99 229.293 198.082C229.316 198.41 229.343 198.733 229.366 199.038L229.242 198.927C233.113 198.775 236.578 198.641 239.107 198.544C240.339 198.507 241.34 198.475 242.065 198.456C242.392 198.452 242.66 198.447 242.868 198.442C243.057 198.447 243.154 198.452 243.154 198.461Z" fill="#263238"/>
<path d="M234.387 177.803C234.424 177.868 233.344 178.417 232.296 179.446C231.24 180.466 230.668 181.532 230.598 181.49C230.543 181.472 231.037 180.323 232.126 179.271C233.21 178.209 234.368 177.748 234.387 177.803Z" fill="#263238"/>
<path d="M230.22 239.068C230.22 239.068 227.442 241.163 226.833 241.989C226.224 242.815 224.72 245.768 223.594 246.631C223.594 246.631 223.825 247.784 224.937 247.208C226.049 246.631 227.392 245.38 227.867 244.661C228.342 243.941 228.836 244.365 228.864 244.993C228.891 245.62 228.351 249.875 228.351 249.875C228.351 249.875 227.022 254.604 227.382 255.135C227.742 255.666 228.481 255.541 228.734 255.2C228.914 254.95 230.414 251.001 230.414 251.001L230.797 248.85C230.797 248.85 230.026 255.661 230.455 256.192C230.889 256.727 231.351 256.519 231.651 256.247C231.95 255.975 232.26 252.966 232.26 252.966L232.961 248.947L232.836 256.602C232.836 256.602 232.915 257.327 233.487 257.354C234.055 257.382 234.438 256.542 234.438 256.542L235.259 248.652C235.259 248.652 234.996 253.04 235.287 253.266C235.679 253.571 236.039 253.474 236.168 253.137C236.431 252.454 236.819 248.509 236.819 248.509L237.178 240.997L237.566 237.379L230.539 236.918L230.22 239.068Z" fill="#FFBF9D"/>
<path d="M227.659 226.245C227.664 226.254 227.576 226.295 227.405 226.365C227.212 226.443 226.967 226.54 226.667 226.665C226.026 226.923 225.08 227.264 223.903 227.647C222.727 228.035 221.31 228.446 219.718 228.843C218.126 229.23 216.359 229.599 214.49 229.895C212.621 230.185 210.826 230.37 209.193 230.49C207.555 230.596 206.083 230.642 204.842 230.633C203.601 230.628 202.599 230.591 201.907 230.541C201.584 230.518 201.321 230.499 201.114 230.481C200.934 230.467 200.837 230.453 200.837 230.444C200.837 230.434 200.934 230.43 201.114 230.43C201.321 230.434 201.584 230.439 201.912 230.444C202.604 230.467 203.605 230.471 204.842 230.458C206.078 230.448 207.55 230.384 209.179 230.264C210.808 230.135 212.594 229.936 214.458 229.65C216.317 229.355 218.08 228.99 219.667 228.616C221.255 228.229 222.676 227.841 223.852 227.472C225.034 227.108 225.984 226.794 226.635 226.563C226.944 226.457 227.193 226.374 227.392 226.305C227.567 226.263 227.659 226.24 227.659 226.245Z" fill="#263238"/>
<path d="M228.928 194.753C228.928 194.757 228.905 194.771 228.859 194.799C228.813 194.822 228.743 194.868 228.642 194.905C228.448 194.988 228.144 195.08 227.742 195.117C226.935 195.2 225.753 194.946 224.48 194.291C223.839 193.977 223.16 193.59 222.394 193.272C222.011 193.115 221.605 192.981 221.176 192.898C220.964 192.852 220.742 192.847 220.516 192.833C220.406 192.829 220.29 192.815 220.179 192.815L219.838 192.842C218.92 192.921 217.988 193.258 217.079 193.71C216.17 194.162 215.27 194.73 214.324 195.269C213.378 195.809 212.414 196.298 211.408 196.571C210.402 196.848 209.359 196.852 208.432 196.612C207.5 196.382 206.678 195.999 205.921 195.639C205.165 195.279 204.468 194.928 203.808 194.683C202.484 194.181 201.312 194.088 200.541 194.236C199.761 194.374 199.392 194.647 199.378 194.614C199.374 194.605 199.466 194.55 199.651 194.444C199.84 194.356 200.126 194.217 200.523 194.144C201.312 193.964 202.516 194.033 203.868 194.522C204.546 194.757 205.252 195.103 206.009 195.454C206.766 195.805 207.583 196.174 208.487 196.391C209.387 196.617 210.379 196.603 211.352 196.335C212.326 196.072 213.272 195.588 214.213 195.053C215.155 194.517 216.054 193.95 216.982 193.493C217.905 193.036 218.864 192.685 219.824 192.612L220.179 192.584C220.299 192.584 220.415 192.598 220.535 192.602C220.77 192.616 221.001 192.626 221.222 192.676C221.67 192.769 222.085 192.912 222.477 193.078C223.257 193.41 223.931 193.807 224.563 194.13C225.813 194.799 226.953 195.066 227.742 195.016C228.531 194.974 228.919 194.72 228.928 194.753Z" fill="#FF4545"/>
<path d="M229.551 197.206C229.556 197.211 229.477 197.289 229.311 197.433C229.136 197.557 228.868 197.737 228.471 197.852C227.682 198.097 226.432 198.028 225.094 197.423C224.425 197.123 223.746 196.713 222.994 196.325C222.247 195.942 221.411 195.559 220.479 195.485C219.543 195.398 218.574 195.693 217.669 196.177C216.76 196.657 215.907 197.322 214.998 197.949C214.089 198.572 213.147 199.163 212.118 199.444C211.089 199.744 210.033 199.67 209.096 199.449C207.209 198.992 205.691 198.129 204.325 197.691C202.964 197.22 201.787 197.096 200.993 197.197C200.195 197.285 199.789 197.506 199.78 197.474C199.775 197.465 199.877 197.419 200.075 197.336C200.274 197.262 200.578 197.165 200.984 197.105C201.792 196.971 203.001 197.073 204.38 197.529C205.774 197.954 207.301 198.803 209.151 199.232C210.07 199.44 211.08 199.504 212.063 199.214C213.05 198.941 213.969 198.369 214.868 197.751C215.773 197.128 216.631 196.464 217.563 195.97C218.486 195.476 219.515 195.167 220.502 195.264C221.49 195.347 222.344 195.753 223.096 196.15C223.848 196.551 224.526 196.966 225.172 197.271C226.473 197.88 227.682 197.972 228.453 197.765C229.228 197.548 229.533 197.174 229.551 197.206Z" fill="#FF4545"/>
</svg>
