<svg width="187" height="187" viewBox="0 0 187 187" fill="none" xmlns="http://www.w3.org/2000/svg">
<path fill-rule="evenodd" clip-rule="evenodd" d="M93.5 0C41.8614 0 0 41.8614 0 93.5C0 145.139 41.8614 187 93.5 187C145.139 187 187 145.139 187 93.5C187 41.8614 145.139 0 93.5 0ZM136.282 50.5431L143.063 56.0505C146.545 58.8442 146.714 60.8731 143.915 64.2688L84.3012 135.782C81.6994 138.976 79.8045 139.269 76.4391 136.416L43.7464 109.13C40.6072 106.485 40.2678 104.57 42.9234 101.197L48.1582 94.3199C50.76 91.0383 52.7397 90.8956 55.9043 93.578L78.843 112.808L128.134 51.4306C130.996 47.8636 132.939 47.8322 136.282 50.5431Z" fill="#FF7A00"/>
</svg>
