<svg width="29" height="29" viewBox="0 0 29 29" fill="none" xmlns="http://www.w3.org/2000/svg">
<path d="M25.7778 6.90476H24.5556C23.451 6.90476 22.5872 5.98616 22.2358 4.93897C21.2686 2.0565 18.2115 0 14.5 0C10.7885 0 7.73139 2.0565 6.76419 4.93897C6.41282 5.98616 5.54901 6.90476 4.44444 6.90476H3.22222C1.45 6.90476 0 8.14762 0 9.66667V26.2381C0 27.7571 1.45 29 3.22222 29H25.7778C27.55 29 29 27.7571 29 26.2381V9.66667C29 8.14762 27.55 6.90476 25.7778 6.90476ZM14.5 2.7619C16.4274 2.7619 18.0357 3.65094 18.8195 4.99588C19.3756 5.95022 18.4379 6.90476 17.3333 6.90476H11.6667C10.5621 6.90476 9.62436 5.95022 10.1805 4.99588C10.9643 3.65094 12.5726 2.7619 14.5 2.7619ZM25.7778 24.2381C25.7778 25.3427 24.8823 26.2381 23.7778 26.2381H5.22222C4.11765 26.2381 3.22222 25.3427 3.22222 24.2381V11.6667C3.22222 10.5621 4.11765 9.66667 5.22222 9.66667H23.7778C24.8823 9.66667 25.7778 10.5621 25.7778 11.6667V24.2381ZM14.5 15.1905C12.412 15.1905 10.6986 14.1472 10.0021 12.6112C9.63464 11.8008 8.94535 11.0476 8.05556 11.0476C7.16576 11.0476 6.42295 11.7814 6.6522 12.6411C7.47243 15.7172 10.6306 17.9524 14.5 17.9524C18.3694 17.9524 21.5276 15.7172 22.3478 12.6411C22.577 11.7814 21.8342 11.0476 20.9444 11.0476C20.0547 11.0476 19.3654 11.8008 18.9979 12.6112C18.3014 14.1472 16.588 15.1905 14.5 15.1905Z" fill="#AC4EDF"/>
</svg>
